<svg xmlns="http://www.w3.org/2000/svg" viewBox="0 0 1762 4040"><defs><style>.a{fill:#fff;}.b{fill:#cecece;}.c{fill:#f77f00;}</style></defs><title>bg-body</title><path class="a" d="M1762.25,1286.56v.74a770.6,770.6,0,0,1-640.84,341.33H349.32c-148.27,0-263.6,29.35-350.07,77.69V.5H1488.88A1169,1169,0,0,1,1662,305.84c50.9,132.93,78.91,278,78.91,430,0,332.88-134.42,633-349.64,844.15A774.49,774.49,0,0,0,1762.25,1286.56Z"/><path class="b" d="M1762.25.5V1286.56A774.49,774.49,0,0,1,1391.31,1580C1606.53,1368.76,1741,1068.69,1741,735.81c0-151.93-28-297-78.91-430A1169,1169,0,0,0,1488.88.5Z"/><path class="a" d="M1762.25,2562.88V4039.5H-.75V2484.73c93.88,68.53,214.06,102.47,350.07,75.3C504,2529.13,1221.58,2422.61,1762.25,2562.88Z"/><path class="c" d="M1762.25,1287.3V2562.88C1221.58,2422.61,504,2529.13,349.32,2560c-136,27.17-256.19-6.77-350.07-75.3V1706.32c86.47-48.34,201.8-77.69,350.07-77.69h772.09a770.6,770.6,0,0,0,640.84-341.33Z"/></svg>