<svg id="Camada_1" data-name="Camada 1" xmlns="http://www.w3.org/2000/svg" viewBox="0 0 53.65 11.2"><defs><style>.cls-1{fill:#14213d;}.cls-2{fill:none;}</style></defs><title>footer-svg</title><path class="cls-1" d="M6.72,3.64v8H3.54V3.64H.35V.45H9.9V3.64Z" transform="translate(-0.35 -0.43)"/><path class="cls-1" d="M10.7.45h3.18v6a2,2,0,0,0,2,2,1.88,1.88,0,0,0,1.4-.58,1.93,1.93,0,0,0,.59-1.41v-6H21v6a5,5,0,0,1-1.52,3.66,5,5,0,0,1-3.65,1.51,5,5,0,0,1-3.66-1.51A5,5,0,0,1,10.7,6.42Z" transform="translate(-0.35 -0.43)"/><path class="cls-1" d="M39.48,11.62V6.32l-5.3,5.3H29.69L40.8.5h1.85V11.62Z" transform="translate(-0.35 -0.43)"/><path class="cls-1" d="M46.85,6.32v5.3H43.68V.5h1.85l5.29,5.3V.5H54V11.62H52.15Z" transform="translate(-0.35 -0.43)"/><path class="cls-1" d="M39.65.5,36.28,3.87H27.73a2.08,2.08,0,0,0-1.53.63A2.11,2.11,0,0,0,25.58,6a2.11,2.11,0,0,0,.62,1.53,2.08,2.08,0,0,0,1.53.63H32l-3.45,3.44h-.8a5.41,5.41,0,0,1-4-1.64,5.4,5.4,0,0,1-1.64-4,5.39,5.39,0,0,1,1.64-3.95,5.38,5.38,0,0,1,4-1.64Z" transform="translate(-0.35 -0.43)"/><path class="cls-2" d="M29.81,11.62" transform="translate(-0.35 -0.43)"/></svg>