<svg id="Camada_1" data-name="Camada 1" xmlns="http://www.w3.org/2000/svg" viewBox="0 0 150 150"><title>1</title><path d="M114.82,29.15C94.69,11.63,69,11.79,53.24,18.39c0,0,0,.08.08.09q4.29,2.4,8.59,4.78a1,1,0,0,0,.69.06,53,53,0,0,1,17.53-1.17A49.17,49.17,0,0,1,93,25.07c17.45,6.75,28.59,19.21,33.53,37.24.26.95.43,1.92.67,3L60.09,28.05C67,49.52,73.82,70.81,80.67,92.14L127.7,82c-.3,1.55-.56,3-.86,4.45,0,.15-.35.3-.55.34L106.66,91l-3.83.84c.08.26.13.45.19.64q1.92,5.34,3.83,10.68t3.75,10.52c.07.2.1.55,0,.65-1.09,1-2.21,1.91-3.37,2.89-.13-.34-.23-.59-.31-.84q-4.11-11.49-8.21-23c-.17-.47-.33-.62-.87-.5C92.55,94.09,87.26,95.22,82,96.37l-4.26.91L70.22,74,24.65,85.3l69.83,39a1.69,1.69,0,0,1-.22.15,53.08,53.08,0,0,1-25.47,3.23,48.73,48.73,0,0,1-12.16-2.92q-24.06-9.37-32.34-33.87a1.71,1.71,0,0,0-.68-.84c-2.58-1.47-5.19-2.9-7.78-4.35l-.59-.35.39-.69q3-5.35,6-10.73a2.37,2.37,0,0,0,.31-1,51.16,51.16,0,0,1,1.32-9.86A53,53,0,0,1,45.23,31a2.74,2.74,0,0,0,.77-.82q3.06-5.46,6.1-10.93c.09-.16.16-.32.26-.51-17.23,6.42-36.48,25.15-38,53A60.72,60.72,0,1,0,114.82,29.15Z"/><path d="M68.87,69.79C64,54.64,59.16,39.55,54.28,24.36c-10.58,19-21.11,37.89-31.72,56.92Z"/></svg>