<svg id="Camada_1" data-name="Camada 1" xmlns="http://www.w3.org/2000/svg" viewBox="0 0 150 150"><defs><style>.cls-1{fill-rule:evenodd;}</style></defs><title>1</title><path id="Caminho_115" data-name="Caminho 115" class="cls-1" d="M73.61,120.11c3.37-.69,6.74,1.14,7.53,4.08s-1.25,5.79-4.55,6.53C68.31,132.42,65.45,121.81,73.61,120.11Zm-27-91.81,56.74,0V116l-56.73,0V28.3ZM68,20H82.06c1.39,0,2.25-.14,2.4,1.18s-.49,1.61-1.83,1.61H67.39c-1.4,0-2-.2-1.85-1.61S66.53,20,68,20ZM50.24,135.48H100c.34-.69.61-.47,1.69-.78,4.29-1.26,7.19-4,7.86-8.2.6-3.78.19-45.61.19-51.5s.41-47.71-.2-51.55a9,9,0,0,0-3.26-5.75c-3.18-2.74-5.49-2.06-6.1-3.18h-50c-.45.79-1.26.49-3.37,1.38a9.71,9.71,0,0,0-6.19,7.6c-.6,4-.2,45.62-.2,51.76,0,6-.47,47.78.28,51.67a9.79,9.79,0,0,0,6.51,7.33C48,134.59,50,134.83,50.24,135.48Z"/></svg>