<svg id="Camada_1" data-name="Camada 1" xmlns="http://www.w3.org/2000/svg" viewBox="0 0 28.16 49.58"><defs><style>.cls-1{fill:#f77f00;}.cls-2{fill:#ffd200;}</style></defs><title>img-icon-svg</title><path class="cls-1" d="M29.08,2.25,27.21,3.39l-1.29.79a4.34,4.34,0,0,1-1.53.3h-.08A4.29,4.29,0,0,1,23,4.27a4.35,4.35,0,0,1-1.2-.6A4.39,4.39,0,0,1,19.92.22H21l.74,0q.6,0,1.2.12a19.06,19.06,0,0,1,5.36,1.51C28.58,2,28.83,2.12,29.08,2.25Z" transform="translate(-0.92 -0.21)"/><path class="cls-2" d="M25.92,4.18,24.57,5,23,6l-1,.63-.17.11L16.5,9.93l-6.43,3.93A8.75,8.75,0,0,1,7.38,7.53,8.56,8.56,0,0,1,7.8,4.84a19.36,19.36,0,0,1,6.11-3.52,19.12,19.12,0,0,1,6-1.1,4.39,4.39,0,0,0,1.84,3.45,4.35,4.35,0,0,0,1.2.6,4.29,4.29,0,0,0,1.35.21h.08A4.34,4.34,0,0,0,25.92,4.18Z" transform="translate(-0.92 -0.21)"/><path d="M23,24.38V38.1l-1.1-.67-.1-.06V49.79a8.77,8.77,0,0,1-5.26-8v-3a18.73,18.73,0,0,1-4.14-1.34,19.29,19.29,0,0,1-2.71-1.5A19.47,19.47,0,0,1,.92,19.69v-.25A19.38,19.38,0,0,1,5.68,6.93,8.77,8.77,0,0,0,8.92,17.35a8.69,8.69,0,0,1,4-1.65,8.57,8.57,0,0,1,3.59.21c.31.09.62.19.92.31a8.74,8.74,0,0,1,1.71.91A8.87,8.87,0,0,1,21.76,20,8.77,8.77,0,0,1,23,24.38Z" transform="translate(-0.92 -0.21)"/></svg>