<svg id="Camada_1" data-name="Camada 1" xmlns="http://www.w3.org/2000/svg" viewBox="0 0 150 150"><defs><style>.cls-1{fill-rule:evenodd;}</style></defs><title>1</title><g id="Grupo_25" data-name="Grupo 25"><path id="Caminho_78" data-name="Caminho 78" class="cls-1" d="M67.11,121.62l16.07,0,.78,8.63-17.67,0,.82-8.62Zm3.07-11.84c1-.46,7.66-.48,9.17-.19,4.93,1,3.11,7.24-8.39,5.09-3-.55-3.43-3.73-.78-4.9Zm-60.83-8.1c.2-12,0-24.16,0-36.19,0-32.33-4.87-42.09,12.12-42H129.44c6,0,10.09.94,11.23,6.31,1,4.49.1,61.56.26,71.89ZM60,121.61l-.77,8.64c-8.71-.09-14.49-1.48-13.8,4,3.5,2.71,13.26,1.35,18.74,1.35,4.66,0,38.13.61,39.76-.54,2.35-1.64,1.23-4.65-2.53-4.86-3.07-.18-7.23,0-10.4.06l-.75-8.62c10,0,20,0,30,0,27.05,0,29.45-3.15,29.45-30.54,0-13.06.64-50.28,0-60.39-1.46-21.2-27.17-16.1-44-16.1-12.3,0-84.47-.53-90.25.16C-4.43,17.14.56,42.76.56,60.61V90.49c0,27,1.25,31.15,28.87,31.15,10.16,0,20.44.15,30.58,0Z"/><path id="Caminho_79" data-name="Caminho 79" class="cls-1" d="M125.66,39.38c1.79,1.78,3.1,3.12,4.85,4.91,2.2,2.26,3.24,3.25,6.09,1,.39-3.41-1.6-4.2-3.45-6-4.23-4.2-13.66-16.12-15.73-10.67C116.26,31.59,124,37.67,125.66,39.38Z"/><path id="Caminho_80" data-name="Caminho 80" class="cls-1" d="M105.84,27.79c-1.2,1.1-1.76.75-.65,3.17.13.28,2.14,2.31,2.48,2.64,1.78,1.73,3.11,3.1,4.88,4.87,1.59,1.59,7.77,9.71,10.53,6.63,2.61-2.92-5.29-9-6.72-10.45C112.18,30.46,108.65,25.25,105.84,27.79Z"/><path id="Caminho_81" data-name="Caminho 81" class="cls-1" d="M130.72,53.93c-.67,4.9,4.81,6.9,6,3.51C137.69,54.49,134.34,51.42,130.72,53.93Z"/><path id="Caminho_82" data-name="Caminho 82" class="cls-1" d="M124,47.64c-.09,4.21,3,5.67,6,3.9C130.58,47.1,127.66,44.72,124,47.64Z"/></g></svg>