<svg id="Camada_1" data-name="Camada 1" xmlns="http://www.w3.org/2000/svg" viewBox="0 0 150 150"><defs><style>.cls-1{fill-rule:evenodd;}</style></defs><title>1</title><g id="Grupo_26" data-name="Grupo 26"><path id="Caminho_83" data-name="Caminho 83" class="cls-1" d="M16.6,106.06V35.88c0-3.47.28-5.41,3.25-7.77,3.31-2.62,9.88-1.95,12.38,2.86,1.24,2.4.81,6.67.81,10.12V106.3c-1.82-1.18-1-1.11-3.51-2.07-7.45-2.88-12,1.6-12.93,1.83ZM53.14,14.3A10.28,10.28,0,0,0,48,16.16a10,10,0,0,0-4.38,8.34v14H37.45c0-3,.22-6.07-1.06-8.7-6.14-12.66-24.21-7.59-24.21,4.43v89.62A12.32,12.32,0,0,0,15.72,132a12.71,12.71,0,0,0,8.48,3.67h87.37c5,0,10.29-4.45,11.39-9.62a8.37,8.37,0,0,0,.2-3,2.12,2.12,0,0,0-2.53-1.56,2.19,2.19,0,0,0-1.28.83c-1.13,1.51.41,9.31-10.48,9.31H26.41c-3.37,0-4.87-.51-6.84-1.93a7.46,7.46,0,0,1-3-5.66V114.6c0-6.42,10.52-10.3,14.92-3.76,2,3,1.23,4.18,1.78,5.4a2.21,2.21,0,0,0,2.87,1.06,2.08,2.08,0,0,0,1.28-2V42.75h6.14v46c0,.63,5.45,13.67,6.46,15.81,1.75,3.71,4.44,2.92,9.74,2.92,3.21,0,4.61-4.26-1-4.26l3-7.49c.56-1.33,1-2.43,1.55-3.72a9.66,9.66,0,0,0,1.3-4.21V25.68c0-4.58-1.74-8.18-5.48-10.12a11.39,11.39,0,0,0-4.39-1.26ZM48.25,89.23c3.49-1.78,1.71-1.9,7.12-1.9a6.07,6.07,0,0,1,4.42,2.13L57,96.24c-.43,1.05-2.22,6.13-3.08,6.74a24.25,24.25,0,0,0-1.34-3.46l-2.8-6.77a38,38,0,0,0-1.51-3.52Zm3.68-40.31V83.3A9.27,9.27,0,0,0,48,84.48V34.69H60.28V84.48a11.19,11.19,0,0,0-3.93-1.18V50.81c0-2.1,0-3.42-1.53-4a2.13,2.13,0,0,0-2.89,2.1ZM48,23.78c0-4.66,6.71-7,10.38-3.62,2.63,2.44,1.89,5.73,1.89,10.26H48Z"/><path id="Caminho_84" data-name="Caminho 84" class="cls-1" d="M77.46,32.08l3.24-3.26c1.09.54,7,5.61,9.6.5a25.2,25.2,0,0,0,1.14-4.82h4.91a22.15,22.15,0,0,0,1.1,4.87c1.18,2.4,3.93,3,6.81,1.1l2.65-1.71,3.37,3.38c-1.27,1.9-2.88,3.62-2.88,5.63,0,3.49,4.67,4.45,7.36,4.51V47a27.26,27.26,0,0,0-5,1.1A4.29,4.29,0,0,0,107.4,52c0,1.63,2.2,4.11,2.94,5.45L107,60.59c-1.42-.75-4-2.9-5.7-2.9-3.66,0-4.84,4.3-4.91,7.11h-4.9c-.37-4.25-2.34-8.92-7.29-6.33-1.13.59-2.24,1.4-3.27,2.07L77.4,57.27c1.6-2.25,5.42-6.63.6-9.11A31.51,31.51,0,0,0,73,47V42.28c2.74-.06,7.36-1.25,7.36-4.51,0-2-2.11-4.17-2.94-5.69Zm9.08-4.74c-4.47-2.28-5.5-4.76-10.62.18a16.18,16.18,0,0,0-1.77,1.84c-2.43,3.13-.39,5,1.83,8.18-8.16.65-7.36,3.73-7.36,9a4.33,4.33,0,0,0,2.21,4A14.79,14.79,0,0,0,76,51.76c-2.77,5.06-5.13,5.13.06,10.14,2.76,2.66,4.09,4.08,7.84,1.77.94-.58,1.77-1.14,2.66-1.71.07,3.36,1.24,7.11,5.39,7.11,5.45,0,8.65.78,9.33-7.11,3.67,2.37,5.76,4.56,9.51.89a27.68,27.68,0,0,0,3-3.05c2.42-3.18-.64-5.67-1.94-8a16,16,0,0,0,5.31-1.27c2.29-1.51,2-3.91,2-6.55,0-5.06-3-6-7.36-6.4,1.18-2.16,4.24-4.76,2.12-7.74A31.81,31.81,0,0,0,111,26.93c-1.92-1.86-1.85-2.2-4.84-2.2-1.2,0-3.77,2-4.91,2.61-.14-1.59-.71-4.77-2-5.87-1.89-1.58-4.65-1-8.52-1-3,0-4.12,4.51-4.17,6.87Z"/><path id="Caminho_85" data-name="Caminho 85" class="cls-1" d="M126.29,88c0,2.61,1.73,3.82,4.14,4.29,2,.4,2.87.18,3.18,1,.1.27,0,3.65,0,4.22a31.21,31.21,0,0,0-5,1.15c-2.83,1.32-3.07,4.11-1.23,6.73.63.9,1.17,1.7,1.77,2.56l-3.39,3.13c-2.54-.72-2.32-2.66-6.43-2.66-3,0-4.17,4.47-4.17,6.88-5.9,0-5,.41-5.38-1.92-.61-3.25-1.22-5-5.18-5-1.69,0-3.67,2.23-5.15,2.61l-3.25-3c.76-2.46,2.76-2.24,2.76-6.22,0-4.33-7.12-3.24-7.12-4.74V92.78a17.37,17.37,0,0,0,4.68-.94c2.32-1,2.44-2.52,2.44-4.27s-2.31-3.56-2.7-5l3.25-3.27c2.18,1.37,3.66,2.79,5.83,2.79a4.38,4.38,0,0,0,3.77-2.29A35.15,35.15,0,0,0,110.34,75c5.91,0,4.6-.73,5.33,2.91.64,3.19,2,4.2,5,4.2,1.69,0,3.67-2.22,5.15-2.61l3.38,3.14c-1.18,1.77-2.89,3.64-2.89,5.4Zm11.53,4.61a4,4,0,0,0-2.37-3.51c-1.28-.6-3.58-.56-4.74-1.1,1.45-2.65,2.7-2.85,2.7-5.69,0-2.11-1.83-3.31-3-4.45-1.4-1.35-2.17-2.67-4.85-2.67-2,0-3.87,1.83-5.4,2.61A37.38,37.38,0,0,0,119,73.26c-1.51-3-5.14-2.29-8.92-2.29-3.62,0-4.66,4.22-4.66,6.87-2.26-.51-2.77-2.6-5.89-2.6-2.41,0-5.34,3.14-6.7,4.9-2.7,3.48,1.27,6,1.79,7.9-1.16.54-3.46.5-4.74,1.1-3.06,1.45-2.37,5.22-2.37,8.38,0,3.71,4.11,4.75,7.11,4.75-.39,1.64-2.7,3.39-2.7,5.21,0,2.73,1.4,3.36,2.89,4.8s2.33,3,5,3,3.65-2.16,5.64-2.61c0,2.61,1.17,6.88,4.42,6.88,3.79,0,7.44.67,9.08-2.14.71-1.21.64-3.55,1.23-4.74,3.55.92,4.39,5.59,10.36-.18,1.93-1.86,2.89-2.41,2.89-5.27,0-1.65-2.31-3.56-2.7-5,2.91,0,7.11-.93,7.11-4.51Z"/><path id="Caminho_86" data-name="Caminho 86" class="cls-1" d="M104.45,95.87c0-2.7.43-4.31,2.26-6.12,5.43-5.33,14.18-1.26,14.18,4.93,0,3.34-1.23,6.3-4.49,7.75A8.63,8.63,0,0,1,107,101a8.32,8.32,0,0,1-2.5-5.16ZM100,95.15a12.68,12.68,0,0,0,12.76,12.33,12.51,12.51,0,0,0,12.52-12.56c0-6.22-5.6-11.86-13-11.86C105.83,83.06,100,88.86,100,95.15Z"/><path id="Caminho_87" data-name="Caminho 87" class="cls-1" d="M94.14,52.71c-9.33,0-11.65-11.65-3.77-15.26,8.91-4.08,16.35,7.93,8.48,13.64a8.81,8.81,0,0,1-4.71,1.62Zm12.27-7.35c0-3.68-.93-6.7-3.62-9.3C96.51,30,85.5,32.1,82.21,40a12.55,12.55,0,0,0-.65,7.56A12,12,0,0,0,85,53.25a12.46,12.46,0,0,0,13.7,2.68C102.92,54.23,106.41,49.88,106.41,45.36Z"/><path id="Caminho_88" data-name="Caminho 88" class="cls-1" d="M50,121c0,1.08.23,2.61,1.72,2.61H93.9c2.42,0,3.65-4.27-1.23-4.27H53.16C51.79,119.34,50,119.8,50,121Z"/><path id="Caminho_89" data-name="Caminho 89" class="cls-1" d="M71.32,115.55h16.2c2.65,0,3.49-4.27-.74-4.27H71.57C67.8,111.28,67.75,115.55,71.32,115.55Z"/><path id="Caminho_90" data-name="Caminho 90" class="cls-1" d="M66.66,105.35c0,1.4,1,2.13,2.7,2.13H82.85c3.64,0,3.64-4.26,0-4.26H69.36C67.83,103.22,66.66,103.89,66.66,105.35Z"/><path id="Caminho_91" data-name="Caminho 91" class="cls-1" d="M50,112.94c0,1.27.17,2.61,2.21,2.61,2.5,0,10.6.43,11.71-.54a2.62,2.62,0,0,0,.74-1.57c0-1.37-1.26-2.16-2.88-2.16H53.16C51.79,111.28,50,111.74,50,112.94Z"/></g></svg>