<svg id="Background_Simple" data-name="Background Simple" xmlns="http://www.w3.org/2000/svg" xmlns:xlink="http://www.w3.org/1999/xlink" viewBox="0 0 415.53 278.29"><defs><style>.cls-1{fill:url(#Gradiente_sem_nome_26);}.cls-2{fill:#f5f5f5;}.cls-3{fill:#e0e0e0;}.cls-4{fill:#fff;}.cls-5{fill:#fafafa;}.cls-6{fill:#ebebeb;}.cls-7{fill:#2e353a;}.cls-8{fill:#aa8776;}.cls-9{fill:#996552;}.cls-10{fill:#ca515b;}.cls-11{fill:#db7e1e;}.cls-12{opacity:0.6;}.cls-13{fill:#976020;}.cls-14{fill:#4d5a64;}.cls-15{opacity:0.3;}.cls-16{fill:#1e263e;}.cls-17{fill:#eebd9d;}.cls-18{fill:#d79870;}.cls-19{fill:#88513b;}.cls-20{opacity:0.2;}</style><linearGradient id="Gradiente_sem_nome_26" x1="66.49" y1="152.11" x2="359.99" y2="152.11" gradientUnits="userSpaceOnUse"><stop offset="0" stop-color="#925d1f" stop-opacity="0.1"/><stop offset="1" stop-color="#db7e1e" stop-opacity="0.1"/></linearGradient></defs><title>img-services</title><path class="cls-1" d="M357.43,116.37c-6.85-27.17-28.74-50.65-56-57-21.09-4.88-43.87.51-61.92,12.45C224,82.12,211.31,97.1,193.93,103.7c-23.51,8.94-50.26.6-74.8,6.1C88.19,116.73,64.66,148,66.6,179.69s29.12,59.84,60.68,62.95l1-.15c27.49,5.41,116,6,143-1.33s52.3-22.74,68.95-45.28S364.29,143.53,357.43,116.37Z"/><polygon class="cls-2" points="168.88 248.21 168.88 261.25 187.95 261.25 208.99 261.25 208.99 248.21 168.88 248.21"/><polygon class="cls-3" points="167.2 244.56 167.2 248.21 210.39 248.21 210.39 244.56 187.95 244.56 167.2 244.56"/><polygon class="cls-3" points="188.79 261.25 208.99 261.25 208.99 248.21 210.39 248.21 210.39 244.56 187.95 244.56 187.95 247.87 188.79 261.25"/><rect class="cls-3" x="174.49" y="250.31" width="8.13" height="1.96"/><rect class="cls-4" x="173.44" y="254.73" width="10.44" height="4.15"/><polygon class="cls-2" points="172.57 231.53 172.57 244.57 191.64 244.57 212.67 244.57 212.67 231.53 172.57 231.53"/><polygon class="cls-3" points="170.88 227.88 170.88 231.53 214.07 231.53 214.07 227.88 191.64 227.88 170.88 227.88"/><polygon class="cls-3" points="192.48 244.57 212.67 244.57 212.67 231.53 214.07 231.53 214.07 227.88 191.64 227.88 191.64 231.19 192.48 244.57"/><rect class="cls-3" x="178.17" y="233.63" width="8.13" height="1.96"/><rect class="cls-4" x="177.13" y="238.05" width="10.44" height="4.15"/><path class="cls-2" d="M36.82,168.12s-2.1,1.59-2.1,3.69v10.74H50.38V171.33s-.22-2.75-2.06-3.21Z"/><path class="cls-3" d="M35.91,182a27.85,27.85,0,0,1-.23-3.3,2.65,2.65,0,0,1,1.83-2.44,6.09,6.09,0,0,1,2.53.22,6.71,6.71,0,0,0,4.06-.61c1-.52,2-1.34,3.2-1.45a1.74,1.74,0,0,1,1.87,1,2.67,2.67,0,0,1,0,1.09,37.37,37.37,0,0,0,.07,5.3c-4.38.21-8.93.06-13.31.16"/><polyline class="cls-3" points="33.73 184.07 36.09 182.55 50.38 182.55 52.67 184.07 33.73 184.07"/><path class="cls-2" d="M33.28,149.14v16H52.67v18.95H33.73v4.54H66.41V149.14a3.41,3.41,0,0,0-3.4-3.41H36.69A3.41,3.41,0,0,0,33.28,149.14Z"/><path class="cls-3" d="M66.41,149.5c0,.08-7.42.14-16.56.14s-16.57-.06-16.57-.14,7.42-.14,16.57-.14S66.41,149.42,66.41,149.5Z"/><path class="cls-3" d="M57.21,188.61c-.07,0-.14-9.57-.14-21.38s.07-21.39.14-21.39.14,9.58.14,21.39S57.29,188.61,57.21,188.61Z"/><path class="cls-3" d="M31.53,177.37l-.2-4.84a6.61,6.61,0,0,1,1.05-3.95,3.48,3.48,0,0,1,2.86-1.73H48.32v1.27H35.48s-2.31.25-2.61,3.41a30.71,30.71,0,0,0,0,5.84Z"/><rect class="cls-3" x="43.41" y="250.59" width="5.73" height="10.34"/><rect class="cls-3" x="68.75" y="250.59" width="5.73" height="10.34"/><rect class="cls-3" x="30.81" y="188.61" width="47.5" height="61.98"/><rect class="cls-2" x="22.11" y="188.61" width="46.26" height="61.98"/><rect class="cls-2" x="26.2" y="250.59" width="5.73" height="10.34"/><rect class="cls-2" x="59.17" y="250.59" width="5.73" height="10.34"/><path class="cls-3" d="M64.69,243.51v-1.07c0-.7,0-1.72,0-3,0-2.64,0-6.46,0-11.2l.06.06-39.7,0h0l.09-.09v15.3l-.09-.09,28.44,0,8.27,0h0l-8.25,0-28.5,0H24.9v-.09c0-4.78,0-9.95,0-15.3v-.09H25l39.7,0h.07v.07c0,4.76,0,8.59,0,11.23,0,1.32,0,2.33,0,3v.78C64.7,243.42,64.69,243.51,64.69,243.51Z"/><path class="cls-3" d="M46,235.86s0-.11-.07-.29a1.26,1.26,0,0,0-.44-.61,1.13,1.13,0,0,0-1.8.9,1.12,1.12,0,0,0,.73,1,1.15,1.15,0,0,0,1.07-.14,1.24,1.24,0,0,0,.44-.62c.05-.17.05-.28.07-.28a.59.59,0,0,1,0,.3,1.21,1.21,0,0,1-.43.7,1.28,1.28,0,1,1-1.21-2.21,1.31,1.31,0,0,1,1.21.2,1.25,1.25,0,0,1,.43.71A.59.59,0,0,1,46,235.86Z"/><path class="cls-3" d="M64.69,225.19v-1.07c0-.7,0-1.72,0-3,0-2.63,0-6.45,0-11.19l.06.06L25,210h0l.09-.09v15.3L25,225.1l28.44,0,8.27,0,2.22,0H61.74l-8.25,0-28.5.05H24.9v-.09c0-4.79,0-10,0-15.3v-.1H25l39.7,0h.07v.07c0,4.76,0,8.59,0,11.23,0,1.31,0,2.33,0,3v.78C64.7,225.1,64.69,225.19,64.69,225.19Z"/><path class="cls-3" d="M46,217.54s0-.11-.07-.29a1.26,1.26,0,0,0-.44-.61,1.13,1.13,0,0,0-1.07-.15,1.12,1.12,0,1,0,1.07,1.95,1.28,1.28,0,0,0,.44-.62c.05-.18.05-.28.07-.28a.57.57,0,0,1,0,.3,1.24,1.24,0,0,1-.43.7,1.27,1.27,0,0,1-2.06-1,1.27,1.27,0,0,1,.85-1.21,1.26,1.26,0,0,1,1.21.2,1.24,1.24,0,0,1,.43.7A.63.63,0,0,1,46,217.54Z"/><path class="cls-3" d="M64.69,207.11v-1.06c0-.7,0-1.73,0-3,0-2.64,0-6.46,0-11.2l.06.07-39.7,0h0l.09-.09v15.3L25,207l28.44,0,8.27,0h0l-8.25,0-28.5,0H24.9v-.09c0-4.78,0-10,0-15.3v-.09H25l39.7,0h.07v.06c0,4.76,0,8.59,0,11.24,0,1.31,0,2.32,0,3v.78C64.7,207,64.69,207.11,64.69,207.11Z"/><path class="cls-3" d="M46,199.46s0-.11-.07-.28a1.24,1.24,0,0,0-.44-.62,1.15,1.15,0,0,0-1.07-.14,1.12,1.12,0,0,0-.73,1,1.13,1.13,0,0,0,1.8.9,1.24,1.24,0,0,0,.44-.62c.05-.17.05-.28.07-.28a.59.59,0,0,1,0,.3,1.25,1.25,0,0,1-.43.71,1.31,1.31,0,0,1-1.21.2,1.28,1.28,0,1,1,1.21-2.21,1.21,1.21,0,0,1,.43.7A.59.59,0,0,1,46,199.46Z"/><path class="cls-3" d="M65.93,188.61c0,.08-7.2.14-16.08.14s-16.09-.06-16.09-.14,7.2-.14,16.09-.14S65.93,188.53,65.93,188.61Z"/><rect class="cls-5" x="201.5" y="95.63" width="41.77" height="37.37"/><path class="cls-3" d="M243.27,133s0-.24,0-.69,0-1.13,0-2c0-1.76,0-4.32,0-7.59,0-6.53,0-15.86,0-27.09l.09.1H201.5l.11-.11c0,13.6,0,26.39,0,37.37l-.1-.1,30.21,0,8.53,0h0l-8.5,0-30.28,0h-.1V133c0-11,0-23.77,0-37.37v-.11h.12l41.76,0h.1v.09c0,11.26,0,20.61-.05,27.15,0,3.26,0,5.81,0,7.56,0,.87,0,1.53,0,2S243.27,133,243.27,133Z"/><path class="cls-3" d="M217.52,102.27c0,.06-2.2.11-4.91.11s-4.91,0-4.91-.11,2.2-.11,4.91-.11S217.52,102.21,217.52,102.27Z"/><path class="cls-3" d="M235.22,105.08c0,.06-6,.11-13.49.11s-13.49,0-13.49-.11,6-.11,13.49-.11S235.22,105,235.22,105.08Z"/><rect class="cls-3" x="207.77" y="109.83" width="1.76" height="1.76"/><rect class="cls-3" x="212.1" y="109.83" width="1.76" height="1.76"/><rect class="cls-3" x="216.51" y="109.75" width="1.76" height="1.76"/><rect class="cls-3" x="220.77" y="109.83" width="1.76" height="1.76"/><rect class="cls-3" x="225.1" y="109.83" width="1.76" height="1.76"/><rect class="cls-3" x="229.43" y="109.83" width="1.76" height="1.76"/><rect class="cls-6" x="233.76" y="109.83" width="1.76" height="1.76"/><rect class="cls-6" x="207.77" y="113.57" width="1.76" height="1.76"/><rect class="cls-3" x="212.1" y="113.57" width="1.76" height="1.76"/><rect class="cls-6" x="216.43" y="113.57" width="1.76" height="1.76"/><rect class="cls-3" x="220.77" y="113.57" width="1.76" height="1.76"/><rect class="cls-3" x="225.1" y="113.57" width="1.76" height="1.76"/><rect class="cls-3" x="229.51" y="113.49" width="1.76" height="1.76"/><rect class="cls-3" x="233.76" y="113.57" width="1.76" height="1.76"/><rect class="cls-3" x="207.77" y="117.31" width="1.76" height="1.76"/><rect class="cls-3" x="212.18" y="117.23" width="1.76" height="1.76"/><rect class="cls-3" x="216.43" y="117.31" width="1.76" height="1.76"/><rect class="cls-6" x="220.77" y="117.31" width="1.76" height="1.76"/><rect class="cls-3" x="225.1" y="117.31" width="1.76" height="1.76"/><rect class="cls-3" x="229.43" y="117.31" width="1.76" height="1.76"/><rect class="cls-3" x="233.76" y="117.31" width="1.76" height="1.76"/><rect class="cls-3" x="207.77" y="121.05" width="1.76" height="1.76"/><rect class="cls-3" x="212.1" y="121.05" width="1.76" height="1.76"/><rect class="cls-3" x="216.43" y="121.05" width="1.76" height="1.76"/><rect class="cls-3" x="220.85" y="120.97" width="1.76" height="1.76"/><rect class="cls-3" x="225.1" y="121.05" width="1.76" height="1.76"/><rect class="cls-6" x="229.43" y="121.05" width="1.76" height="1.76"/><rect class="cls-3" x="233.76" y="121.05" width="1.76" height="1.76"/><rect class="cls-3" x="207.77" y="124.8" width="1.76" height="1.76"/><rect class="cls-6" x="212.1" y="124.8" width="1.76" height="1.76"/><rect class="cls-3" x="216.43" y="124.8" width="1.76" height="1.76"/><rect class="cls-3" x="220.77" y="124.8" width="1.76" height="1.76"/><rect class="cls-3" x="225.1" y="124.8" width="1.76" height="1.76"/><rect class="cls-3" x="229.51" y="124.72" width="1.76" height="1.76"/><rect class="cls-3" x="233.76" y="124.8" width="1.76" height="1.76"/><path class="cls-3" d="M366.56,123.76s0-.41,0-1.19,0-1.93,0-3.44c0-3,0-7.43,0-13.06,0-11.25,0-27.34-.06-46.77l.12.12-81,0h0l.14-.14c0,23.27,0,45.26,0,64.46l-.12-.13,58.52.07,16.58,0h4.42l-4.37,0-16.55,0-58.6.06h-.13v-.12c0-19.2,0-41.19,0-64.46v-.14h.15l81,0h.12v.11c0,19.46-.05,35.58-.06,46.85,0,5.62,0,10,0,13,0,1.49,0,2.64,0,3.42S366.56,123.76,366.56,123.76Z"/><rect class="cls-3" x="296.02" y="71.25" width="2.93" height="32.71"/><rect class="cls-6" x="301.68" y="82.36" width="2.93" height="21.6"/><rect class="cls-3" x="307.33" y="75.31" width="2.93" height="28.81"/><rect class="cls-6" x="312.99" y="72.51" width="2.93" height="31.45"/><rect class="cls-3" x="318.64" y="83.02" width="2.93" height="20.94"/><rect class="cls-6" x="324.3" y="87.13" width="2.93" height="16.83"/><rect class="cls-3" x="329.95" y="74.61" width="2.93" height="29.36"/><rect class="cls-6" x="335.61" y="79.9" width="2.93" height="24.06"/><rect class="cls-3" x="341.26" y="75.67" width="2.93" height="28.29"/><rect class="cls-6" x="346.92" y="84.69" width="2.93" height="19.28"/><rect class="cls-3" x="352.57" y="81.02" width="2.93" height="22.94"/><path class="cls-3" d="M356.7,106.24c0,.07-13.9.12-31,.12s-31,0-31-.12,13.9-.12,31-.12S356.7,106.18,356.7,106.24Z"/><path class="cls-3" d="M300.2,108.82a19.77,19.77,0,0,1-4.35,0,19.77,19.77,0,0,1,4.35,0Z"/><path class="cls-3" d="M307.41,109a28.23,28.23,0,0,1-5.2,0,28.23,28.23,0,0,1,5.2,0Z"/><path class="cls-3" d="M313.56,109a28.23,28.23,0,0,1-5.2,0,28.23,28.23,0,0,1,5.2,0Z"/><path class="cls-3" d="M319.71,109a28.23,28.23,0,0,1-5.2,0,28.23,28.23,0,0,1,5.2,0Z"/><path class="cls-3" d="M325.86,109a28.23,28.23,0,0,1-5.2,0,28.23,28.23,0,0,1,5.2,0Z"/><path class="cls-3" d="M332,109a28.12,28.12,0,0,1-5.19,0,28.12,28.12,0,0,1,5.19,0Z"/><path class="cls-3" d="M338.16,109a28.12,28.12,0,0,1-5.19,0,28.12,28.12,0,0,1,5.19,0Z"/><path class="cls-3" d="M344.31,109a28.12,28.12,0,0,1-5.19,0,28.12,28.12,0,0,1,5.19,0Z"/><path class="cls-3" d="M350.46,109a28.12,28.12,0,0,1-5.19,0,28.12,28.12,0,0,1,5.19,0Z"/><path class="cls-3" d="M356.61,109a28.12,28.12,0,0,1-5.19,0,28.12,28.12,0,0,1,5.19,0Z"/><rect class="cls-6" x="282.95" y="58.92" width="85.9" height="2.42"/><polygon class="cls-3" points="210.87 126.64 210.3 124.66 211.44 124.72 211.54 126.55 210.87 126.64"/><polyline class="cls-3" points="209.22 126.58 207.92 133.61 204.65 142.89 223.09 140.23 215.64 132.13 212.54 126.11 209.22 126.58"/><path class="cls-3" d="M173,175.86c0-.1,0-.2,0-.3a5.85,5.85,0,1,1,11.7,0c0,.1,0,.2,0,.3Z"/><path class="cls-3" d="M178.79,169.94a.24.24,0,0,1-.23-.17l-7.75-29.55a.23.23,0,0,1,.45-.12L179,169.65a.23.23,0,0,1-.16.29Z"/><path class="cls-3" d="M176.74,170.67a.21.21,0,0,1-.22-.17L168.76,141a.23.23,0,0,1,.17-.28.22.22,0,0,1,.28.16L177,170.38a.23.23,0,0,1-.16.29Z"/><path class="cls-3" d="M168.4,140.45a1.47,1.47,0,1,0,1.46-1.46A1.47,1.47,0,0,0,168.4,140.45Z"/><polygon class="cls-3" points="170 140.64 169.73 140.26 197.21 121.31 213.28 130.45 213.05 130.85 197.23 121.85 170 140.64"/><rect class="cls-3" x="168.4" y="131.88" width="32.91" height="0.46" transform="translate(-42.33 128.72) rotate(-34.7)"/><path class="cls-3" d="M196.34,122.31a1.32,1.32,0,1,0,1.32-1.32A1.32,1.32,0,0,0,196.34,122.31Z"/><polygon class="cls-3" points="211.09 52.99 187.55 60.9 240.74 60.9 218.64 52.99 211.09 52.99"/><path class="cls-3" d="M217.7,60.36a13.09,13.09,0,0,0-.17,1.39,6.88,6.88,0,0,0,.87,3.66c.37.71.85,1.47,1.22,2.37a5.31,5.31,0,0,1,.31,3.06,5.53,5.53,0,0,1-1.66,3,5.14,5.14,0,0,1-3.39,1.3,5.36,5.36,0,0,1-3.45-1.18,5.36,5.36,0,0,1-1.53-6,10.34,10.34,0,0,1,1.41-2.27,9.46,9.46,0,0,0,1.16-1.83,4.16,4.16,0,0,0,.37-1.58,3.24,3.24,0,0,0-.31-1.34,1.56,1.56,0,0,1,.19.31,2.62,2.62,0,0,1,.23,1,4.18,4.18,0,0,1-.34,1.64,9,9,0,0,1-1.14,1.89A9.59,9.59,0,0,0,210.12,68a5.16,5.16,0,0,0,1.49,5.68,5,5,0,0,0,3.26,1.1,4.8,4.8,0,0,0,3.22-1.22,5.21,5.21,0,0,0,1.58-2.81,5,5,0,0,0-.27-2.92c-.35-.87-.81-1.63-1.17-2.36a6.79,6.79,0,0,1-.81-3.75,5.42,5.42,0,0,1,.17-1A1.63,1.63,0,0,1,217.7,60.36Z"/><path class="cls-3" d="M215.76,60.86s0,.36-.15,1-.21,1.56-.27,2.7a21.78,21.78,0,0,0,.18,4,.91.91,0,0,0,.22.45.45.45,0,0,0,.41.15c.29-.07.44-.51.38-.85a1.68,1.68,0,0,0-3.31,0,.74.74,0,0,0,.44.84.68.68,0,0,0,.77-.44,3.31,3.31,0,0,0,.18-1.05c0-.36,0-.7,0-1a15.73,15.73,0,0,0-.08-1.87,17.68,17.68,0,0,0-.45-2.67,7.44,7.44,0,0,1-.23-1,1.13,1.13,0,0,1,.1.24c.06.16.14.39.24.7a16.46,16.46,0,0,1,.65,4.57c0,.34,0,.7,0,1.06a3.35,3.35,0,0,1-.19,1.13,1.05,1.05,0,0,1-.41.5.79.79,0,0,1-.67.1,1,1,0,0,1-.63-1.14,2,2,0,0,1,1.94-1.63,2,2,0,0,1,1.92,1.68,1.28,1.28,0,0,1-.09.67.76.76,0,0,1-.52.48.7.7,0,0,1-.65-.23,1.13,1.13,0,0,1-.28-.57,19.78,19.78,0,0,1-.12-4.07,19.12,19.12,0,0,1,.36-2.71,7.21,7.21,0,0,1,.17-.72A.76.76,0,0,1,215.76,60.86Z"/><path class="cls-3" d="M214.87,12.56a2.18,2.18,0,0,1,0,.41l0,1.16c0,1,0,2.5,0,4.28,0,3.65,0,8.63,0,14.13s0,10.48,0,14.13c0,1.78,0,3.24,0,4.28l0,1.16a2.18,2.18,0,0,1,0,.41,2.18,2.18,0,0,1,0-.41l0-1.16c0-1,0-2.5,0-4.28,0-3.65,0-8.63,0-14.13s0-10.48,0-14.13c0-1.78,0-3.24,0-4.28l0-1.16A2.18,2.18,0,0,1,214.87,12.56Z"/><polygon class="cls-3" points="211.09 52.99 212.55 46.46 217.4 46.46 218.64 52.99 211.09 52.99"/><rect class="cls-3" x="130.16" y="51.45" width="2.65" height="56.88"/><rect class="cls-2" x="91.79" y="51.89" width="37.97" height="56.52" rx="0.04"/><path class="cls-6" d="M130.16,108.85H91.39a0,0,0,0,1,0,0V51.49s0,0,0,0h38.77a0,0,0,0,1,0,0v57.32A0,0,0,0,1,130.16,108.85ZM92.27,108h37a0,0,0,0,0,0,0V52.37a0,0,0,0,0,0,0h-37s0,0,0,0v55.56A0,0,0,0,0,92.27,108Z"/><rect class="cls-5" x="95.61" y="55.37" width="30.39" height="49.51" rx="0.04"/><rect class="cls-6" x="102.24" y="69.41" width="17.07" height="20" rx="0.06"/><path class="cls-3" d="M118,87a3.68,3.68,0,0,1-2.43.25,5.9,5.9,0,0,1-2.72-1.09,5.53,5.53,0,0,1-2.12-3.33,4.79,4.79,0,0,1,1.62-4.55,4.68,4.68,0,0,1,1.23-.72,3.18,3.18,0,0,1,1.53-.17,2.68,2.68,0,0,1,1.54.67,2,2,0,0,1,.6,1.78,2.9,2.9,0,0,1-.84,1.54,5.74,5.74,0,0,1-1.28,1,7.13,7.13,0,0,1-3.07.87,6,6,0,0,1-3.27-.74,5.89,5.89,0,0,1-2.4-2.49,5.13,5.13,0,0,1-.44-3.5,5.22,5.22,0,0,1,1.84-2.87,4.44,4.44,0,0,1,1.55-.78,3.75,3.75,0,0,1,1.73-.06,2.87,2.87,0,0,1,1.58.89,2.69,2.69,0,0,1,.62,1.69,3.23,3.23,0,0,1-.41,1.6,4.18,4.18,0,0,1-1,1.17,6.43,6.43,0,0,1-2.41,1.29,6.16,6.16,0,0,1-2.55.19,5.1,5.1,0,0,1-2.21-.84,4.79,4.79,0,0,1-2.11-3.35,4,4,0,0,1,.78-2.87,3.32,3.32,0,0,1,1.45-1.16c.4-.15.62-.15.63-.11s-.18.14-.5.36a3.83,3.83,0,0,0-1.13,1.21,3.63,3.63,0,0,0-.46,2.45,4,4,0,0,0,1.88,2.63,4.62,4.62,0,0,0,3.88.37A5.42,5.42,0,0,0,111,77.15a2.4,2.4,0,0,0,.91-1.82A1.31,1.31,0,0,0,110.77,74a2.51,2.51,0,0,0-1.12,0,3.31,3.31,0,0,0-1.05.55,3.91,3.91,0,0,0-1.33,2.12,3.67,3.67,0,0,0,.33,2.53,4.56,4.56,0,0,0,1.83,1.91,4.77,4.77,0,0,0,2.53.59,5.75,5.75,0,0,0,2.49-.68,4.61,4.61,0,0,0,1-.7,1.66,1.66,0,0,0,.5-.82.72.72,0,0,0-.2-.66,1.51,1.51,0,0,0-.83-.36,2.06,2.06,0,0,0-1,.08,2.84,2.84,0,0,0-.9.5,3.63,3.63,0,0,0-1.18,1.62,3.73,3.73,0,0,0-.2,1.86,4.78,4.78,0,0,0,1.63,2.88,5.62,5.62,0,0,0,2.34,1.16C117.08,87,118,86.84,118,87Z"/><path class="cls-7" d="M402.73,260.93c0,.08-86,.14-192.12.14S18.48,261,18.48,260.93s86-.14,192.13-.14S402.73,260.85,402.73,260.93Z"/><path class="cls-8" d="M290,108.82h0c1.14-1.65,1.76-2.89,2.57-3.93,1-1.28,1.31-1.88,1.06-2s-.2-.15-2.33,1.92c0,0,3-3,1.85-2.85-.51.06-3,2.51-3,2.51,2.21-1.78,2.77-2.81,2.48-3.13s-3.47,2.54-3.47,2.54a30.76,30.76,0,0,0,2.66-2.77c.3-.52-.41-.39-1-.11s-4,2.61-5,3.23a.7.7,0,0,1-1-.21,4.41,4.41,0,0,0-2.42-2.62.53.53,0,0,0-.37.93,6.59,6.59,0,0,1,.91,1.48,4.12,4.12,0,0,1,.38,1.34c.06.53.09,1,.11,1.38l-1.54,8.57,5.4,3.8Z"/><path class="cls-9" d="M290,106a8.27,8.27,0,0,0,1.52-1.36,7.7,7.7,0,0,0,1.33-1.55,7.59,7.59,0,0,0-1.52,1.36A7.5,7.5,0,0,0,290,106Z"/><path class="cls-9" d="M289.11,105.3a8.67,8.67,0,0,0,1.7-1.35,9.21,9.21,0,0,0,1.52-1.56,8.67,8.67,0,0,0-1.7,1.35A9.21,9.21,0,0,0,289.11,105.3Z"/><path class="cls-9" d="M288.2,104.53a7.53,7.53,0,0,0,1.63-1.25,8.1,8.1,0,0,0,1.45-1.46,7.53,7.53,0,0,0-1.63,1.25A8.1,8.1,0,0,0,288.2,104.53Z"/><path class="cls-8" d="M252.85,82.43a8,8,0,0,1,8.56,7.45c.22,3.69.42,7.68.4,9.7-.06,4.31-4.37,5-4.37,5s.61,7.5.55,8.71l-11.43.52-1-23.08a8,8,0,0,1,7.32-8.29Z"/><path class="cls-9" d="M257.44,104.5a10,10,0,0,1-5.63-1.6s1.33,3.11,5.64,2.72Z"/><path class="cls-8" d="M245.93,92.2c-.08,0-3-.87-2.88,2.08a2.22,2.22,0,0,0,3,2.16C246.1,96.36,245.93,92.2,245.93,92.2Z"/><path class="cls-9" d="M245.16,95.35s0,0-.14.08a.48.48,0,0,1-.38,0,1.26,1.26,0,0,1-.63-1.12,1.6,1.6,0,0,1,.12-.74.58.58,0,0,1,.38-.41.26.26,0,0,1,.3.13.34.34,0,0,1,0,.15s.07,0,0-.17a.33.33,0,0,0-.41-.25.7.7,0,0,0-.52.47,1.74,1.74,0,0,0-.15.83,1.32,1.32,0,0,0,.79,1.25.53.53,0,0,0,.46-.09C245.15,95.42,245.17,95.36,245.16,95.35Z"/><path class="cls-7" d="M260.31,92.62a.62.62,0,0,1-.59.63.6.6,0,0,1-.64-.56.63.63,0,0,1,.6-.62A.58.58,0,0,1,260.31,92.62Z"/><path class="cls-7" d="M260.3,91.42c-.08.08-.55-.27-1.21-.27s-1.15.34-1.22.26,0-.19.25-.34a1.75,1.75,0,0,1,1-.3,1.59,1.59,0,0,1,1,.31C260.26,91.24,260.33,91.38,260.3,91.42Z"/><path class="cls-7" d="M253.79,92.62a.63.63,0,0,1-.59.63.6.6,0,0,1-.64-.56.62.62,0,0,1,.59-.62A.59.59,0,0,1,253.79,92.62Z"/><path class="cls-7" d="M253.77,91.54c-.07.08-.54-.26-1.2-.26s-1.15.33-1.23.25,0-.18.26-.34a1.73,1.73,0,0,1,1-.3,1.66,1.66,0,0,1,1,.31C253.74,91.36,253.81,91.5,253.77,91.54Z"/><path class="cls-7" d="M256.18,96.46a4.16,4.16,0,0,1,1.08-.19c.17,0,.33,0,.36-.17a.82.82,0,0,0-.12-.5c-.16-.41-.32-.84-.5-1.29a21.74,21.74,0,0,1-1.12-3.38,22.73,22.73,0,0,1,1.39,3.28c.17.45.33.88.48,1.3a.92.92,0,0,1,.09.66.43.43,0,0,1-.28.25,1.06,1.06,0,0,1-.29,0A3.92,3.92,0,0,1,256.18,96.46Z"/><path class="cls-7" d="M254.23,96.92c.11,0,.11.71.72,1.23s1.39.43,1.39.53-.17.14-.49.15a1.77,1.77,0,0,1-1.16-.41,1.51,1.51,0,0,1-.56-1C254.1,97.1,254.18,96.92,254.23,96.92Z"/><path class="cls-7" d="M253.94,88.94c-.06.18-.72.09-1.5.19s-1.41.3-1.51.14.06-.24.31-.42a2.58,2.58,0,0,1,1.12-.39,2.47,2.47,0,0,1,1.18.14C253.83,88.71,254,88.85,253.94,88.94Z"/><path class="cls-7" d="M260.05,89.5c-.12.15-.57,0-1.12,0s-1,.1-1.12,0,0-.23.23-.37a1.49,1.49,0,0,1,.91-.25,1.6,1.6,0,0,1,.9.3C260,89.27,260.1,89.42,260.05,89.5Z"/><path class="cls-7" d="M245.64,92.13a4.36,4.36,0,0,0,0,1.35,1.55,1.55,0,0,0,.75,1.08,1.6,1.6,0,0,0,2-1,5,5,0,0,0,.16-2.46,12.34,12.34,0,0,1,0-3.38,4.85,4.85,0,0,1,1.63-2.89,3.05,3.05,0,0,1,3.18-.46,19.62,19.62,0,0,1,1.68,1.24,2.63,2.63,0,0,0,1.78.45A1.7,1.7,0,0,0,258.27,85a1.82,1.82,0,0,0-.7-1.81,4.1,4.1,0,0,0-1.88-.76,10.21,10.21,0,0,0-5.61.44A7.28,7.28,0,0,0,246,86.62c-.86,2-.28,3.62-.41,5.87"/><path class="cls-3" d="M289.51,111.3l-7.06-1.71-4.66,12.65L264.9,110.72h0c-1.37-1-3.73-1.13-5.53-1.36h-.13c-.7-.08-1-.19-1.46-.24-3.11,2.34-8.42,2.49-11.47.08,0,0-2.31.52-3.69.79-4.35.83-7.48,4-8.35,6.92l5.44,12.56,1,11.93-3,10.68a1.85,1.85,0,0,0,1.55,2.34l27,.41.44-.22a5,5,0,0,0,.73-3.41c-1.17-5.12-.35-20.36-.6-25,5.29,5.14,11.13,9.4,15.39,6.76C285.77,130.72,289.51,111.3,289.51,111.3Z"/><polygon class="cls-10" points="246.51 108.89 246.51 108.89 246.51 108.89 246.51 108.89"/><polygon class="cls-3" points="245.44 109.97 246.06 105.66 251.94 107.81 253.6 110.74 254.63 107.53 257.86 106.42 259.24 109.29 256.87 112.64 252.43 113.53 245.44 109.97"/><path class="cls-7" d="M253.7,111.41a1.37,1.37,0,0,1-.21-.18,6.84,6.84,0,0,1-.54-.58,8.73,8.73,0,0,1-1.42-2.45h.21l-1.35,3.43-.69,1.69-.07.17-.14-.13c-1.18-1.14-2.21-2.15-2.93-2.87l-.84-.86a1.64,1.64,0,0,1-.28-.33,1.5,1.5,0,0,1,.34.27l.89.8c.76.69,1.81,1.67,3,2.81l-.21,0,.68-1.69c.5-1.24,1-2.4,1.39-3.41l.11-.28.1.28a9.57,9.57,0,0,0,1.31,2.44C253.45,111.11,253.73,111.39,253.7,111.41Z"/><path class="cls-7" d="M259.24,109.29a5.31,5.31,0,0,1-.69.95,9.61,9.61,0,0,1-2.25,2l-.13.08-.06-.15c-.19-.52-.41-1.09-.65-1.68-.35-.88-.68-1.71-.94-2.46h.23c-.19,1-.43,1.77-.58,2.33a4.7,4.7,0,0,1-.26.88,4,4,0,0,1,.12-.91c.11-.58.32-1.38.49-2.35l.07-.43.16.41c.27.74.61,1.56,1,2.45.24.58.45,1.16.64,1.69l-.18-.07a10.5,10.5,0,0,0,2.26-1.87A8.21,8.21,0,0,1,259.24,109.29Z"/><path class="cls-7" d="M255.84,155.35a2.55,2.55,0,0,1,0-.45c0-.31.08-.74.13-1.28s.12-1.24.18-2l.09-1.28c0-.45,0-.92.05-1.42.1-2,.09-4.39,0-7s-.21-5.56-.42-8.61c-.44-6.11-1-11.61-1.49-15.6-.23-2-.41-3.58-.54-4.72-.06-.54-.11-1-.14-1.28a2.55,2.55,0,0,1,0-.45,4,4,0,0,1,.08.44l.19,1.28c.15,1.11.37,2.72.62,4.71.5,4,1.13,9.49,1.58,15.6.2,3.05.34,6,.4,8.62s0,5-.1,7c0,.5-.05,1-.07,1.43s-.08.88-.11,1.28c-.08.79-.13,1.48-.22,2l-.19,1.28A4,4,0,0,1,255.84,155.35Z"/><path class="cls-7" d="M277.64,127.12a11.65,11.65,0,0,1-.14-2.56,11.71,11.71,0,0,1,.14-2.57,13,13,0,0,1,.13,2.57A12.91,12.91,0,0,1,277.64,127.12Z"/><path class="cls-7" d="M279.43,127.45c0,.24-.35-.45-1.15-2.65a11.7,11.7,0,0,1-.71-2.79,23.44,23.44,0,0,1,1,2.71A23.84,23.84,0,0,1,279.43,127.45Z"/><path class="cls-11" d="M262,245.64l-.41,9.79s9.81,3.71,9.91,5.53l-19-.12V245.56Z"/><path class="cls-3" d="M255.74,254.58a.77.77,0,0,0-.54.88.74.74,0,0,0,.87.54.81.81,0,0,0,.57-.93.77.77,0,0,0-1-.47"/><g class="cls-12"><path class="cls-4" d="M252.52,260.84l.06-1.54,18.21.69s.84.37.74,1Z"/></g><path class="cls-7" d="M261.93,255.34c0,.09-.47.13-.93.43s-.7.68-.79.64.06-.57.62-.92S262,255.25,261.93,255.34Z"/><path class="cls-7" d="M263.92,256.18c0,.09-.39.24-.7.63s-.41.81-.51.8-.15-.53.26-1S263.91,256.09,263.92,256.18Z"/><path class="cls-7" d="M265,258.57c-.09,0-.22-.45,0-.95s.67-.71.71-.63-.23.34-.42.76S265.13,258.56,265,258.57Z"/><path class="cls-7" d="M261.77,253.1c0,.08-.46,0-1,0s-.93.2-1,.12.35-.41,1-.44S261.82,253,261.77,253.1Z"/><path class="cls-7" d="M261.82,251.12a1.81,1.81,0,0,1-.95,0,4.18,4.18,0,0,1-1-.31,3.64,3.64,0,0,1-.54-.3,1.06,1.06,0,0,1-.29-.22.42.42,0,0,1,0-.5.55.55,0,0,1,.41-.21,1.29,1.29,0,0,1,.36.06,3.41,3.41,0,0,1,.59.2,3.55,3.55,0,0,1,.87.58c.44.41.59.76.56.78s-.26-.26-.71-.6a3.31,3.31,0,0,0-.84-.48,3.94,3.94,0,0,0-.55-.18c-.2-.05-.37-.05-.42,0s0,0,0,.1a.77.77,0,0,0,.21.17c.17.11.33.2.5.29a6.17,6.17,0,0,0,.92.36A6.29,6.29,0,0,1,261.82,251.12Z"/><path class="cls-7" d="M261.7,251.25s-.22-.32-.25-.92a3.11,3.11,0,0,1,.14-1,3.56,3.56,0,0,1,.24-.58.8.8,0,0,1,.61-.48.47.47,0,0,1,.4.27,1.89,1.89,0,0,1,.1.35,2.27,2.27,0,0,1,0,.64,2.25,2.25,0,0,1-.41,1c-.37.49-.76.59-.77.56s.29-.22.58-.69a2.28,2.28,0,0,0,.31-.9,1.71,1.71,0,0,0,0-.55c0-.2-.1-.36-.18-.34s-.25.15-.33.31a2.93,2.93,0,0,0-.24.51,3.33,3.33,0,0,0-.19,1C261.65,250.89,261.75,251.24,261.7,251.25Z"/><path class="cls-11" d="M229.23,242.76,226.14,255l-5.24,9a1.29,1.29,0,0,0,.54,1.81h0a1.28,1.28,0,0,0,1.19,0c2.35-1.27,11-6,11.16-6.89s4.11-12.71,4.11-12.71Z"/><g class="cls-12"><path class="cls-4" d="M221.44,265.82,234,258.09l-.14.52a2,2,0,0,1-.78,1.09c-1,.7-3.9,2.55-10.42,6.11a1.31,1.31,0,0,1-1.23,0Z"/></g><g class="cls-12"><path class="cls-4" d="M232.6,253.47a.79.79,0,0,0-.48.93.75.75,0,0,0,.92.48.83.83,0,0,0,.5-1,.78.78,0,0,0-1-.39"/></g><path class="cls-7" d="M225.7,261.27a4,4,0,0,0-.81-1.25,3.94,3.94,0,0,0-1.32-.65s.17-.09.47-.05a2.06,2.06,0,0,1,1,.5,2,2,0,0,1,.61,1C225.76,261.08,225.73,261.27,225.7,261.27Z"/><path class="cls-7" d="M224.38,262.66c-.07,0-.35-.47-.93-.82s-1.15-.4-1.15-.49a1.46,1.46,0,0,1,1.29.25C224.25,262,224.45,262.64,224.38,262.66Z"/><path class="cls-7" d="M227.89,259.62a13.76,13.76,0,0,0-1.35-1.36,12.22,12.22,0,0,0-1.69-.92,2.85,2.85,0,0,1,1.85.7A2.82,2.82,0,0,1,227.89,259.62Z"/><path class="cls-7" d="M229.14,256c0,.06-.64-.41-1.51-.68S226,255,226,255a2.53,2.53,0,0,1,1.71.07A2.47,2.47,0,0,1,229.14,256Z"/><path class="cls-7" d="M230.14,252.4a6.56,6.56,0,0,0-1.56-.75,6.48,6.48,0,0,0-1.72,0s.16-.14.48-.23a3,3,0,0,1,1.31,0,2.92,2.92,0,0,1,1.16.59C230.06,252.2,230.17,252.38,230.14,252.4Z"/><path class="cls-7" d="M228.79,251a1.19,1.19,0,0,1,.11-.47,3.54,3.54,0,0,1,.7-1.1,1.55,1.55,0,0,1,.8-.51.53.53,0,0,1,.53.27.83.83,0,0,1,0,.6,1.82,1.82,0,0,1-2,1.21,2.14,2.14,0,0,1-1.72-1.63.74.74,0,0,1,.13-.6.51.51,0,0,1,.59-.12,1.87,1.87,0,0,1,.69.64,4,4,0,0,1,.57,1.18,1.27,1.27,0,0,1,.07.47,6.16,6.16,0,0,0-.8-1.53,1.66,1.66,0,0,0-.61-.54.26.26,0,0,0-.32.06.47.47,0,0,0-.06.4,1.88,1.88,0,0,0,1.5,1.39,1.58,1.58,0,0,0,1.71-1,.66.66,0,0,0,0-.42.28.28,0,0,0-.3-.15,1.33,1.33,0,0,0-.68.42A4.92,4.92,0,0,0,228.79,251Z"/><polygon class="cls-13" points="251.13 109.78 252.46 110.47 252.21 112.72 250.13 112.29 251.13 109.78"/><polygon class="cls-11" points="254.19 110.33 255.19 109.45 256.12 111.8 254.79 112.43 254.19 110.33"/><polygon class="cls-11" points="252.71 113.27 252.08 139.84 256.58 144.28 258.75 138.39 254.44 113.13 252.71 113.27"/><path class="cls-11" d="M252.74,109.65c.3,0,.73-.12,1.06-.19a.74.74,0,0,1,.8.37l.57,1a.69.69,0,0,1,.07.49l-.22,1.18a.75.75,0,0,1-.58.58l-1.28.26a.76.76,0,0,1-.81-.39l-.64-1.27a.73.73,0,0,1,0-.63l.45-1A.73.73,0,0,1,252.74,109.65Z"/><path class="cls-7" d="M254.6,109.94a2.77,2.77,0,0,1-.34.42c-.22.25-.53.6-.88,1s-.66.72-.9,1a2,2,0,0,1-.4.37,2.77,2.77,0,0,1,.34-.42l.88-1c.35-.37.67-.71.91-1S254.59,109.92,254.6,109.94Z"/><path class="cls-7" d="M253.29,111.16a3,3,0,0,1-.62-.52,2.73,2.73,0,0,1-.54-.6,3.16,3.16,0,0,1,.61.52A3,3,0,0,1,253.29,111.16Z"/><path class="cls-7" d="M254.79,112.86a14.33,14.33,0,0,1,.32-1.53,1.55,1.55,0,0,0-.32-1,.9.9,0,0,1-.16-.44s.07.16.22.4a3.24,3.24,0,0,1,.26.43,1,1,0,0,1,.1.62c-.08.44-.2.81-.27,1.08A2.35,2.35,0,0,1,254.79,112.86Z"/><path class="cls-7" d="M266.26,154.76l-1.88,97.57a1.19,1.19,0,0,1-1.21,1.17l-11.36-.1a1.21,1.21,0,0,1-1.19-1.22l1.76-84L237.6,251.56a2.16,2.16,0,0,1-2.19,1.77l-9.53-.33a2.16,2.16,0,0,1-2-2.48l15-96.16Z"/><path class="cls-14" d="M230.5,248.16a1.31,1.31,0,0,1,0-.23l.1-.67c.1-.6.24-1.47.42-2.58.37-2.24.91-5.48,1.58-9.46,1.33-8,3.17-19.05,5.2-31.24s3.8-23.25,5.06-31.26c.63-4,1.13-7.23,1.48-9.48.18-1.11.31-2,.41-2.58.05-.28.08-.51.11-.67s.05-.23.05-.23,0,.08,0,.23l-.09.68c-.08.6-.2,1.47-.36,2.58-.31,2.25-.79,5.49-1.39,9.5-1.22,8-3,19.07-5,31.28s-3.89,23.23-5.28,31.22c-.7,4-1.27,7.21-1.66,9.45-.2,1.11-.36,2-.47,2.57l-.13.66C230.52,248.08,230.5,248.16,230.5,248.16Z"/><path class="cls-14" d="M259.63,248.52c-.08,0,.05-19.86.28-44.34s.48-44.34.56-44.34-.06,19.85-.29,44.34S259.7,248.52,259.63,248.52Z"/><path class="cls-14" d="M264.72,248.86c0,.07-3.1.13-6.92.13s-6.92-.06-6.92-.13,3.1-.13,6.92-.13S264.72,248.79,264.72,248.86Z"/><path class="cls-14" d="M238.28,248.33a2,2,0,0,1-.56,0l-1.51.05-5,.13c-2,0-3.71.05-5,0l-1.52,0a2.39,2.39,0,0,1-.55,0,2,2,0,0,1,.55-.06l1.52-.05,5-.12c1.95,0,3.72-.06,5,0,.64,0,1.15,0,1.51,0A2,2,0,0,1,238.28,248.33Z"/><path class="cls-14" d="M254.36,155.91a10.52,10.52,0,0,1,0,1.69c-.06,1-.16,2.48-.29,4.06-.07.79-.11,1.54-.21,2.24a4.35,4.35,0,0,1-.6,1.76,2.55,2.55,0,0,1-.92.86.94.94,0,0,1-.45.13,2.82,2.82,0,0,0,1.2-1.09,4.37,4.37,0,0,0,.51-1.7c.08-.67.12-1.43.19-2.22.13-1.59.26-3,.37-4A10.56,10.56,0,0,1,254.36,155.91Z"/><g class="cls-15"><path d="M239.7,146.61a5.1,5.1,0,0,0,4.43,1.28c1.12-.23,2.18-.84,3.31-.76s2.28,1,3.41,1.47c2.12,1,4.6.65,6.85.05a5.12,5.12,0,0,0,2.78-1.49,5,5,0,0,0,.86-2.31,23.43,23.43,0,0,0,.33-4.58,4.37,4.37,0,0,0-.74-2.73,3.12,3.12,0,0,0-2.05-1,8.36,8.36,0,0,0-2.34.13,38.71,38.71,0,0,0-17,7.28"/></g><path class="cls-3" d="M250.63,141.55s-14.27,6.38-15.72,6.7c-4.82,1.06-10.33-3.49-8.8-8.68.57-1.93,8.25-23.27,8.25-23.27l7.31,10.1-3.09,10.33,8.09-.54Z"/><path class="cls-7" d="M246,136.28a3.58,3.58,0,0,1-.56.08l-1.56.13-5.3.37h-.18l.05-.17.47-1.6c.73-2.42,1.39-4.6,1.89-6.17.24-.75.44-1.38.6-1.86a2.91,2.91,0,0,1,.25-.67,3.61,3.61,0,0,1-.16.7c-.13.49-.31,1.12-.52,1.88-.45,1.59-1.09,3.78-1.81,6.19-.17.55-.33,1.08-.48,1.6l-.13-.16c2.12-.13,4-.22,5.31-.28l1.56-.06A2.28,2.28,0,0,1,246,136.28Z"/><path class="cls-7" d="M249,142.38c0,.07-3.11,1.42-7,3s-7.06,2.85-7.09,2.79,3.1-1.42,7-3S249,142.32,249,142.38Z"/><path class="cls-14" d="M247.32,135.81l-1.13-5.48a.7.7,0,0,1,.69-.85l14.19.07a.69.69,0,0,1,.69.78l-1.46,12.56a1,1,0,0,1-1,.86l-9.25-.07a1,1,0,0,1-.94-.74Z"/><path class="cls-8" d="M246.06,132.92h0a1.5,1.5,0,0,1,1.4,1,3.19,3.19,0,0,0,.95,1.52,3.35,3.35,0,0,0,2.53.37c.63-.31,3.17-2.59,3.61-2.33s.82.82.38,1.33-2.79,2-2.34,2.53,5.38-1.72,6.14-1.53,1.2.67.76,1-3.8,1.57-4,2c0,0,5.06-1.32,5.25-1s.51.82,0,1-4.87,1.33-5.25,1.52a9.24,9.24,0,0,1-1.95.57c-.14,0-1.13.34-2,.65a4.44,4.44,0,0,1-3.15-.08l-.52-.21a2,2,0,0,1-1.25-2l.11-1.73-.55-1.43Z"/><path class="cls-5" d="M254.58,131.59a.52.52,0,1,1-.52-.51A.52.52,0,0,1,254.58,131.59Z"/><path class="cls-14" d="M315.59,176H273.08v-1.59H314a1.59,1.59,0,0,1,1.58,1.59Z"/><rect class="cls-14" x="273.08" y="150.98" width="32.56" height="24.63" rx="3.34"/><rect class="cls-5" x="274.44" y="152.15" width="29.85" height="21.93"/><path class="cls-7" d="M304.29,174.08v-.4c0-.27,0-.66,0-1.17,0-1,0-2.53,0-4.45,0-3.83,0-9.31,0-15.91l0,0H274.44l.05,0c0,8,0,15.47,0,21.93l0,0,21.59,0h0l-21.62,0h0v-22h29.93v0c0,6.61,0,12.09,0,15.93,0,1.91,0,3.42,0,4.44,0,.51,0,.9,0,1.17Z"/><path class="cls-3" d="M299.82,158.05H279.21l0,0v10.13l0,0,14.61,0h0l-14.61,0h0V158h20.65Z"/><path class="cls-3" d="M299.82,159.76s-4.61,0-10.3,0-10.31,0-10.31,0,4.61,0,10.31,0S299.82,159.74,299.82,159.76Z"/><path class="cls-3" d="M299.67,161.12s-4.61,0-10.3,0-10.31,0-10.31,0,4.61,0,10.31,0S299.67,161.1,299.67,161.12Z"/><path class="cls-3" d="M299.82,162.55s-4.61,0-10.3,0-10.31,0-10.31,0,4.61,0,10.31,0S299.82,162.53,299.82,162.55Z"/><path class="cls-3" d="M299.82,163.94s-4.61,0-10.3,0-10.31,0-10.31,0,4.61,0,10.31,0S299.82,163.92,299.82,163.94Z"/><path class="cls-3" d="M299.82,165.34s-4.61,0-10.3,0-10.31,0-10.31,0,4.61,0,10.31,0S299.82,165.32,299.82,165.34Z"/><path class="cls-3" d="M279.21,166.73s4.61,0,10.31,0,10.3,0,10.3,0-4.61,0-10.3,0S279.21,166.75,279.21,166.73Z"/><path class="cls-3" d="M283.29,168.33s0-2.3,0-5.14,0-5.14,0-5.14,0,2.3,0,5.14S283.31,168.33,283.29,168.33Z"/><path class="cls-3" d="M287.42,168.33s0-2.3,0-5.14,0-5.14,0-5.14,0,2.3,0,5.14S287.44,168.33,287.42,168.33Z"/><path class="cls-3" d="M291.56,168.33s0-2.3,0-5.14,0-5.14,0-5.14,0,2.3,0,5.14S291.58,168.33,291.56,168.33Z"/><path class="cls-3" d="M295.69,168.33s0-2.3,0-5.14,0-5.14,0-5.14,0,2.3,0,5.14S295.71,168.33,295.69,168.33Z"/><path class="cls-3" d="M299.82,168.33s0-2.3,0-5.14,0-5.14,0-5.14,0,2.3,0,5.14S299.84,168.33,299.82,168.33Z"/><path class="cls-11" d="M299.82,159.76l-.15.12-.46.33-1.73,1.19-5.88,4,0,0h0l-1.75-.6-2.38-.8h.06l-4.14,2.78h0l-3,1-.82.27-.22.07-.07,0,.07,0,.21-.09.81-.3,3-1.08h0l4.12-2.81,0,0h0l2.38.81,1.75.59h-.06c2.34-1.58,4.41-3,5.9-4l1.76-1.16.47-.3Z"/><circle class="cls-11" cx="283.29" cy="166.73" r="0.25"/><circle class="cls-11" cx="287.42" cy="163.94" r="0.25"/><circle class="cls-10" cx="291.56" cy="165.31" r="0.25"/><circle class="cls-10" cx="295.73" cy="162.56" r="0.25"/><path class="cls-14" d="M299.82,166.73l-.08,0-.22-.14-.83-.54-3-2h.06l-4.12,2.77-.06,0,0-.06-2.17-2.92-2-2.65h.1l-4.14,4.18h0l-3.07,1-.84.26-.22.07c-.05,0-.08,0-.08,0l.07,0,.22-.08.83-.29,3-1h0l4.12-4.2.06-.06.05.07,2,2.65,2.16,2.93-.09,0,4.14-2.75,0,0,0,0,3,2,.81.57.21.15Z"/><circle class="cls-14" cx="287.42" cy="161.15" r="0.25"/><circle class="cls-14" cx="283.29" cy="165.34" r="0.25"/><circle class="cls-14" cx="291.56" cy="166.73" r="0.25"/><circle class="cls-14" cx="295.69" cy="164.19" r="0.25"/><path class="cls-3" d="M281.57,169.33a2,2,0,0,1-.8,0,2.68,2.68,0,0,1,.8,0Z"/><path class="cls-3" d="M285.79,169.33a2,2,0,0,1-.8,0,2.68,2.68,0,0,1,.8,0Z"/><path class="cls-3" d="M290,169.33a1,1,0,0,1-.39,0,1.09,1.09,0,0,1-.4,0,1.24,1.24,0,0,1,.4,0A1.15,1.15,0,0,1,290,169.33Z"/><path class="cls-3" d="M294.24,169.33a2,2,0,0,1-.8,0,2.68,2.68,0,0,1,.8,0Z"/><path class="cls-3" d="M298.46,169.33a1.09,1.09,0,0,1-.4,0,1.06,1.06,0,0,1-.39,0,1.2,1.2,0,0,1,.39,0A1.24,1.24,0,0,1,298.46,169.33Z"/><path class="cls-3" d="M278.63,168.12a.73.73,0,0,1-.32,0,.76.76,0,0,1-.33,0,.86.86,0,0,1,.33,0A.82.82,0,0,1,278.63,168.12Z"/><path class="cls-3" d="M278.63,166.5a.73.73,0,0,1-.32,0,.17.17,0,1,1,0-.08A.73.73,0,0,1,278.63,166.5Z"/><path class="cls-3" d="M278.63,164.88a.73.73,0,0,1-.32,0,.17.17,0,1,1,0-.08A.73.73,0,0,1,278.63,164.88Z"/><path class="cls-3" d="M278.63,163.26a.82.82,0,0,1-.32,0,.86.86,0,0,1-.33,0,.76.76,0,0,1,.33,0A.73.73,0,0,1,278.63,163.26Z"/><path class="cls-3" d="M278.63,161.63a.73.73,0,0,1-.32,0,.76.76,0,0,1-.33,0,.86.86,0,0,1,.33,0A.82.82,0,0,1,278.63,161.63Z"/><path class="cls-3" d="M278.63,160a.73.73,0,0,1-.32,0,.17.17,0,1,1,0-.08A.73.73,0,0,1,278.63,160Z"/><path class="cls-3" d="M278.63,158.39a.73.73,0,0,1-.32,0,.17.17,0,1,1,0-.08A.73.73,0,0,1,278.63,158.39Z"/><rect class="cls-10" x="279.1" y="154.54" width="5.92" height="0.42"/><path class="cls-7" d="M295.6,155.77s-3.7,0-8.27,0-8.27,0-8.27,0,3.7,0,8.27,0S295.6,155.75,295.6,155.77Z"/><path class="cls-7" d="M289.56,171.36s-2.26,0-5.05,0-5,0-5,0,2.26,0,5,0S289.56,171.34,289.56,171.36Z"/><path class="cls-7" d="M281.89,172.12a7.56,7.56,0,0,1-1.07,0,7.64,7.64,0,0,1-1.08,0,7.64,7.64,0,0,1,1.08,0A7.56,7.56,0,0,1,281.89,172.12Z"/><path class="cls-7" d="M298.7,171.22s-1.61,0-3.59,0-3.58,0-3.58,0,1.6,0,3.58,0S298.7,171.2,298.7,171.22Z"/><path class="cls-7" d="M294.8,171.72a20.92,20.92,0,0,1-2.24,0,15.7,15.7,0,0,1,2.24,0Z"/><polygon class="cls-7" points="118.63 260.93 127.53 182.16 135.09 184.83 122.75 260.93 118.63 260.93"/><rect class="cls-14" x="114.83" y="175.86" width="227.84" height="9.96"/><path class="cls-7" d="M163.09,176s0,0-.07.11l-.24.3a4.84,4.84,0,0,1-1.14.92,6.66,6.66,0,0,1-2.2.74,15.76,15.76,0,0,1-3.07.13,31.08,31.08,0,0,1-3.7-.42,33.45,33.45,0,0,0-4.21-.51,26.31,26.31,0,0,0-9.47,1.84c-3.25,1.16-6.29,2.48-9.19,3.29a26.16,26.16,0,0,1-4.2.83,17.07,17.07,0,0,1-3.72,0,12.74,12.74,0,0,1-5.11-1.63,8.1,8.1,0,0,1-1.58-1.18l.11.07.3.22a10.1,10.1,0,0,0,1.22.79A12.79,12.79,0,0,0,121.9,183a18.15,18.15,0,0,0,3.68,0,26,26,0,0,0,4.15-.85c2.88-.81,5.9-2.14,9.17-3.3a25.81,25.81,0,0,1,9.57-1.83,31.67,31.67,0,0,1,4.24.53,31,31,0,0,0,3.67.45,15.53,15.53,0,0,0,3-.09,6.31,6.31,0,0,0,2.17-.68A5.51,5.51,0,0,0,163.09,176Z"/><path class="cls-7" d="M138.17,176.15a4.52,4.52,0,0,1-.69.59,15.25,15.25,0,0,1-2.08,1.34,17.86,17.86,0,0,1-3.4,1.38,18.34,18.34,0,0,1-4.44.7,17.06,17.06,0,0,1-7.94-1.64A5.08,5.08,0,0,1,117.7,177a2.29,2.29,0,0,1-.31-.6c0-.15-.07-.22-.06-.23a6.18,6.18,0,0,0,.46.77,5.16,5.16,0,0,0,1.92,1.45,17.6,17.6,0,0,0,7.84,1.54,18.9,18.9,0,0,0,4.38-.66,19.4,19.4,0,0,0,3.38-1.32,19,19,0,0,0,2.11-1.25A7.57,7.57,0,0,1,138.17,176.15Z"/><path class="cls-7" d="M191.63,182.47a2,2,0,0,1,.36.13,7.36,7.36,0,0,0,1,.28,6.25,6.25,0,0,0,4-.63l0,.13a9.49,9.49,0,0,0-4.94-1.93,9.66,9.66,0,0,0-6.43,1.67c-.24.18-.48.39-.5.65a.68.68,0,0,0,.43.64,2.79,2.79,0,0,0,.88.31l1,.22c1.3.29,2.65.58,4.05.79a24.34,24.34,0,0,0,4.3.29,16.68,16.68,0,0,0,2.21-.21c.36-.07.73-.14,1.09-.23a5.58,5.58,0,0,0,1.07-.35,3.4,3.4,0,0,0,1.38-1,1.55,1.55,0,0,0,.26-1.53,2.63,2.63,0,0,0-1.08-1.21,9.19,9.19,0,0,0-1.51-.74,20.92,20.92,0,0,0-6.33-1.31,26.14,26.14,0,0,0-10.8,1.68,26.91,26.91,0,0,0-6.51,3.55c-.69.54-1.23,1-1.57,1.27-.16.15-.3.26-.4.34s-.14.12-.14.11,0,0,.12-.13l.38-.36c.34-.33.86-.77,1.55-1.32a25.79,25.79,0,0,1,6.5-3.65,26.27,26.27,0,0,1,10.88-1.75,21,21,0,0,1,6.42,1.32,9,9,0,0,1,1.56.76,2.93,2.93,0,0,1,1.2,1.35,1.84,1.84,0,0,1-.31,1.79,3.82,3.82,0,0,1-1.49,1.09,5.53,5.53,0,0,1-1.11.36,10.59,10.59,0,0,1-1.12.23,15.58,15.58,0,0,1-2.24.22,24.83,24.83,0,0,1-4.35-.31c-1.41-.21-2.76-.5-4.07-.79l-1-.23a3.1,3.1,0,0,1-.95-.34,1.33,1.33,0,0,1-.4-.35.8.8,0,0,1-.15-.54,1.32,1.32,0,0,1,.6-.82,9.87,9.87,0,0,1,6.6-1.67,9.58,9.58,0,0,1,5,2l.09.07-.1.06A6.29,6.29,0,0,1,193,183,4.86,4.86,0,0,1,191.63,182.47Z"/><path class="cls-7" d="M221,176.26a1.54,1.54,0,0,1,.23.5,4,4,0,0,1,.15,1.5,7.45,7.45,0,0,1-2.22,4.35,11.51,11.51,0,0,1-2.08,1.76,9.08,9.08,0,0,1-2,1,9.9,9.9,0,0,1-1.44.36,2.06,2.06,0,0,1-.55.05c0-.05.76-.16,1.93-.6a9.36,9.36,0,0,0,1.92-1,11,11,0,0,0,2-1.74,7.52,7.52,0,0,0,2.23-4.17A5.55,5.55,0,0,0,221,176.26Z"/><path class="cls-7" d="M261.87,185.3a12.81,12.81,0,0,0-1.05-1,7.39,7.39,0,0,0-3.56-1.61,8.12,8.12,0,0,0-2.72.08,12,12,0,0,1-3.18.29,6.36,6.36,0,0,1-3.16-1.55A10.81,10.81,0,0,0,245,179.6a11.71,11.71,0,0,0-7.07-.11,16.78,16.78,0,0,0-5.22,2.65,26.34,26.34,0,0,0-3,2.59l-.78.76a1.65,1.65,0,0,1-.28.26l.24-.3c.16-.19.41-.46.74-.8a24.74,24.74,0,0,1,3-2.67,16.7,16.7,0,0,1,5.27-2.74,11.77,11.77,0,0,1,7.23.1,11,11,0,0,1,3.26,1.93,6.06,6.06,0,0,0,3,1.51,11.39,11.39,0,0,0,3.12-.26,8.17,8.17,0,0,1,2.78-.05,7.36,7.36,0,0,1,3.6,1.72A4.85,4.85,0,0,1,261.87,185.3Z"/><path class="cls-7" d="M298.4,176a3.64,3.64,0,0,1-.25.34c-.18.21-.41.55-.78.93a20.86,20.86,0,0,1-3.33,2.95,26.17,26.17,0,0,1-5.77,3.2,23.49,23.49,0,0,1-3.72,1.19,18.8,18.8,0,0,1-4.16.53,20.61,20.61,0,0,1-7.9-1.64,26.08,26.08,0,0,1-5.74-3.25,22.83,22.83,0,0,1-3.3-3,9.65,9.65,0,0,1-.78-.92,1.56,1.56,0,0,1-.25-.34l.29.3c.19.2.44.53.82.89a24.61,24.61,0,0,0,3.34,2.9,26.79,26.79,0,0,0,5.72,3.17,20.57,20.57,0,0,0,7.79,1.6,19,19,0,0,0,4.11-.52,23.76,23.76,0,0,0,3.69-1.16,27.12,27.12,0,0,0,5.75-3.12,22.62,22.62,0,0,0,3.36-2.87c.38-.36.62-.69.81-.89A2.16,2.16,0,0,1,298.4,176Z"/><path class="cls-7" d="M293.18,175.86a1.31,1.31,0,0,1-.2.15,5.72,5.72,0,0,1-.59.4,21.21,21.21,0,0,1-2.28,1.29,23.87,23.87,0,0,1-3.6,1.47,16.05,16.05,0,0,1-4.71.81,19.41,19.41,0,0,1-8.35-2.11,18.85,18.85,0,0,1-2.26-1.33c-.26-.17-.45-.33-.58-.42a1.37,1.37,0,0,1-.19-.17,7.15,7.15,0,0,1,.83.49,22.63,22.63,0,0,0,2.29,1.25,20.05,20.05,0,0,0,8.26,2,16.37,16.37,0,0,0,4.63-.78,26.44,26.44,0,0,0,3.6-1.39c1-.48,1.77-.9,2.31-1.21A5.93,5.93,0,0,1,293.18,175.86Z"/><path class="cls-7" d="M316.34,176.88h-.26l-.75,0-.53,0h-.64c-.46,0-1,0-1.57,0l-.9.05-1,.11c-.68.06-1.39.22-2.14.35a31.3,31.3,0,0,0-4.77,1.42,33.09,33.09,0,0,0-4.46,2.19c-.64.42-1.27.78-1.81,1.2l-.8.57-.71.57c-.46.36-.84.72-1.18,1-.17.15-.33.29-.47.43l-.38.39-.53.53a.9.9,0,0,1-.2.17,1.24,1.24,0,0,1,.16-.21l.49-.57.36-.4.46-.46c.34-.32.71-.69,1.16-1.06l.7-.59.8-.59c.54-.43,1.17-.8,1.82-1.23a31.31,31.31,0,0,1,4.49-2.23,31.72,31.72,0,0,1,4.81-1.42c.77-.12,1.49-.27,2.17-.32l1-.1.92,0c.58,0,1.11,0,1.57,0l.65,0,.53.06.75.1C316.26,176.85,316.35,176.87,316.34,176.88Z"/><path class="cls-7" d="M326.1,174.92a.58.58,0,0,1,0,.19,4.85,4.85,0,0,1-.05.54,7.38,7.38,0,0,1-.53,1.91,11.17,11.17,0,0,1-4.25,4.89,22.23,22.23,0,0,1-6,2.55c-.81.23-1.46.39-1.91.5a4.61,4.61,0,0,1-.71.14,2.69,2.69,0,0,1,.68-.24l1.88-.59a24,24,0,0,0,5.89-2.6,11.47,11.47,0,0,0,4.23-4.73A11.9,11.9,0,0,0,326.1,174.92Z"/><path class="cls-7" d="M266,185.1a10.64,10.64,0,0,0-1.25-1.5,11.72,11.72,0,0,0-4.6-2.56,23.5,23.5,0,0,0-3.58-.79c-1.3-.21-2.71-.37-4.19-.63a34.4,34.4,0,0,1-4.55-1.14,30.13,30.13,0,0,0-4.85-1.17,20.19,20.19,0,0,0-9.45,1.31,34.48,34.48,0,0,0-3.85,1.72c-1.18.61-2.26,1.2-3.24,1.76-2,1.11-3.52,2.05-4.6,2.71l-1.24.76-.32.19-.12.06.1-.08.31-.22c.28-.19.68-.46,1.21-.8,1.06-.69,2.61-1.66,4.56-2.8,1-.56,2.06-1.17,3.23-1.78a34,34,0,0,1,3.87-1.77A20.26,20.26,0,0,1,243,177a29.87,29.87,0,0,1,4.89,1.19,35.71,35.71,0,0,0,4.52,1.15c1.46.26,2.87.43,4.18.65a24.33,24.33,0,0,1,3.61.83,11.37,11.37,0,0,1,4.6,2.68A5.75,5.75,0,0,1,266,185.1Z"/><path class="cls-7" d="M214.64,176a2.08,2.08,0,0,1,0,.64,7.61,7.61,0,0,1-.45,1.68,9.59,9.59,0,0,1-3.5,4.48,23.31,23.31,0,0,1-5.19,2.39c-.69.23-1.26.4-1.66.5a2.65,2.65,0,0,1-.62.13,2.92,2.92,0,0,1,.59-.24l1.62-.58a26.54,26.54,0,0,0,5.11-2.43,10,10,0,0,0,3.47-4.32A14.52,14.52,0,0,0,214.64,176Z"/><path class="cls-7" d="M161.75,185.82a3.71,3.71,0,0,1,.55-.53c.37-.34.92-.79,1.63-1.33a47.46,47.46,0,0,1,5.81-3.75c2.36-1.3,4.58-2.34,6.18-3.08l1.91-.85a6.6,6.6,0,0,1,.72-.28,3.87,3.87,0,0,1-.67.38l-1.87.93c-1.59.79-3.78,1.85-6.14,3.15a57.05,57.05,0,0,0-5.83,3.66c-.71.51-1.28.94-1.67,1.25A5.45,5.45,0,0,1,161.75,185.82Z"/><path class="cls-7" d="M172.48,176.41a12.67,12.67,0,0,0-1.47,0,10.3,10.3,0,0,0-3.8,1.15,34.85,34.85,0,0,0-4.94,3.31,24.12,24.12,0,0,1-3,1.93,16.85,16.85,0,0,1-3.56,1.37,33.06,33.06,0,0,1-7.27.87c-2.26.07-4.28,0-6,.1a27.21,27.21,0,0,0-4,.39c-.47.08-.83.15-1.07.21a2.73,2.73,0,0,1-.38.07l.36-.12a10.75,10.75,0,0,1,1.07-.27,25.19,25.19,0,0,1,4-.48c1.71-.1,3.73-.07,6-.15a34.28,34.28,0,0,0,7.21-.89,16.28,16.28,0,0,0,3.5-1.34,25.31,25.31,0,0,0,3-1.9,33.9,33.9,0,0,1,5-3.28,10,10,0,0,1,3.89-1.08,7.06,7.06,0,0,1,1.1,0Z"/><path class="cls-7" d="M314.58,175.82c0,.07-9.52.14-21.26.14s-21.27-.07-21.27-.14,9.52-.14,21.27-.14S314.58,175.74,314.58,175.82Z"/><rect class="cls-7" x="194.8" y="171.38" width="30.7" height="4.59"/><rect class="cls-3" x="194.8" y="172.44" width="8.12" height="2.47"/><rect class="cls-11" x="197.54" y="166.79" width="30.7" height="4.59"/><rect class="cls-3" x="207.42" y="167.9" width="20.82" height="2.29"/><rect class="cls-7" x="192.96" y="162.21" width="30.7" height="4.59" transform="translate(416.62 329) rotate(180)"/><rect class="cls-3" x="215.54" y="163.26" width="8.12" height="2.47" transform="translate(439.21 329) rotate(180)"/><path class="cls-16" d="M300.85,243.7l3.66,9.1s-8,6.77-7.49,8.52l17.88-6.47-5.13-14.4Z"/><path class="cls-3" d="M309.76,250a.78.78,0,0,1,.81.65.75.75,0,0,1-.64.81.83.83,0,0,1-.85-.7c0-.38.38-.82.76-.76"/><g class="cls-12"><path class="cls-4" d="M314.9,254.85l-.57-1.43-16.94,6.73s-.67.64-.37,1.17Z"/></g><path class="cls-11" d="M304.19,252.81c0,.09.49,0,1,.09s.89.41,1,.35-.25-.52-.89-.66S304.14,252.74,304.19,252.81Z"/><path class="cls-11" d="M302.6,254.26c0,.1.44.11.87.37s.66.62.74.59,0-.55-.58-.87S302.57,254.18,302.6,254.26Z"/><path class="cls-11" d="M302.34,256.89c.09,0,.05-.49-.34-.88s-.88-.44-.89-.36.33.25.66.58S302.25,256.92,302.34,256.89Z"/><path class="cls-11" d="M303.59,250.64c.06.07.42-.19.92-.34s.95-.13,1-.22-.46-.27-1.06-.09S303.52,250.59,303.59,250.64Z"/><path class="cls-11" d="M302.88,248.8a2,2,0,0,0,.9-.33,4.55,4.55,0,0,0,.83-.63,3.72,3.72,0,0,0,.41-.46.92.92,0,0,0,.2-.31.4.4,0,0,0-.13-.47.5.5,0,0,0-.45-.07,1.35,1.35,0,0,0-.32.17,3.36,3.36,0,0,0-.49.39,3.26,3.26,0,0,0-.63.85c-.28.53-.3.91-.26.91s.15-.33.46-.8a4,4,0,0,1,.63-.74,3.22,3.22,0,0,1,.46-.34c.17-.12.33-.18.41-.11s0,0,0,.1a.9.9,0,0,1-.15.23,4.09,4.09,0,0,1-.37.44,5.86,5.86,0,0,1-.75.65C303.19,248.6,302.86,248.75,302.88,248.8Z"/><path class="cls-11" d="M303,248.88s.1-.37-.08-.95a3,3,0,0,0-.47-.94,3.05,3.05,0,0,0-.43-.46.76.76,0,0,0-.73-.24.45.45,0,0,0-.29.38,1.34,1.34,0,0,0,0,.36,2.16,2.16,0,0,0,.94,1.39,1.22,1.22,0,0,0,.91.28,6.33,6.33,0,0,1-.78-.46,2.27,2.27,0,0,1-.59-.74,2.12,2.12,0,0,1-.17-.52c0-.2,0-.38.06-.39a.59.59,0,0,1,.42.18,3.73,3.73,0,0,1,.39.41,3.39,3.39,0,0,1,.5.83C303,248.52,303,248.88,303,248.88Z"/><path class="cls-16" d="M317.68,242l3.67,9.09s-8,6.78-7.5,8.52l17.88-6.46-5.12-14.4Z"/><path class="cls-3" d="M326.6,248.36a.76.76,0,0,1,.8.65.74.74,0,0,1-.64.8.82.82,0,0,1-.85-.69c0-.38.38-.82.76-.76"/><g class="cls-12"><path class="cls-4" d="M331.73,253.19l-.57-1.43-16.93,6.73s-.67.63-.38,1.16Z"/></g><path class="cls-11" d="M321,251.15c0,.08.49,0,1,.09s.89.41,1,.35-.24-.53-.89-.67S321,251.07,321,251.15Z"/><path class="cls-11" d="M319.43,252.6c0,.09.44.1.87.37s.66.62.74.58,0-.55-.57-.86S319.4,252.52,319.43,252.6Z"/><path class="cls-11" d="M319.17,255.23c.09,0,.05-.49-.34-.89s-.88-.44-.89-.35.34.25.66.58S319.09,255.25,319.17,255.23Z"/><path class="cls-11" d="M320.42,249c.06.07.42-.2.93-.34s.94-.13,1-.22-.46-.27-1.06-.09S320.35,248.93,320.42,249Z"/><path class="cls-11" d="M319.71,247.13s.38,0,.9-.32a4.33,4.33,0,0,0,.83-.63c.14-.14.28-.29.42-.46a1.1,1.1,0,0,0,.19-.31.4.4,0,0,0-.13-.48.52.52,0,0,0-.45-.06,1.07,1.07,0,0,0-.32.17,3.23,3.23,0,0,0-.49.39,3.68,3.68,0,0,0-.63.84c-.27.54-.3.91-.26.92s.15-.33.46-.8a3.45,3.45,0,0,1,.63-.74,4.27,4.27,0,0,1,.46-.35c.17-.11.33-.17.41-.11s0,0,0,.11a1,1,0,0,1-.14.23c-.13.16-.25.3-.38.44a5,5,0,0,1-.75.64C320,246.94,319.7,247.09,319.71,247.13Z"/><path class="cls-11" d="M319.87,247.22a1.47,1.47,0,0,0-.07-.95,3.1,3.1,0,0,0-.48-.94,2.64,2.64,0,0,0-.43-.46.78.78,0,0,0-.73-.25.43.43,0,0,0-.28.39,1.37,1.37,0,0,0,0,.36,2.22,2.22,0,0,0,.94,1.39,1.22,1.22,0,0,0,.91.28c0-.06-.35-.11-.78-.46a2.24,2.24,0,0,1-.76-1.27c0-.2,0-.38.06-.38a.54.54,0,0,1,.42.18,2.92,2.92,0,0,1,.39.4,3.8,3.8,0,0,1,.5.83C319.8,246.86,319.82,247.22,319.87,247.22Z"/><path class="cls-17" d="M330,124.24l-1.71,14,2.66,6.45-10.51.37-2.18-5s-5.21-.59-5.42-3.92c-.13-2.13,3.3-17.64,3.3-17.64Z"/><path class="cls-7" d="M326.65,140.89a5.29,5.29,0,0,0,2.41-2.8c.54-1.39.89-2.86,1.51-4.22s1.59-2.72,2.23-4.16a5.8,5.8,0,0,0,.35-4.57,3.34,3.34,0,0,0-2.72-2.52s-1.4-3.92-4.63-4.29c-4.39-.49-4.23-1.78-7.1-2.88a2.78,2.78,0,0,0-3.71,1.34,4.26,4.26,0,0,0-2.18,2.42v0a3.84,3.84,0,0,0,1.79,4.21l.54.31a3.64,3.64,0,0,1,1.34,1.08,3.16,3.16,0,0,1,.17,2.51,6.79,6.79,0,0,0-.4,2.54c0,.3.21.64.5.63s.44-.49.54-.82a1.48,1.48,0,0,1,2.49-.54,1.55,1.55,0,0,1,.07,2c-.49.63-1.33,1-1.64,1.77-.51,1.25.78,2.72,1.21,3.56a6.54,6.54,0,0,0,.52.84,12.48,12.48,0,0,0,3.67,3.19,3.36,3.36,0,0,0,3.44.18"/><path class="cls-17" d="M283.41,157.8h0c-1.84-.79-3-1.5-4.27-2-1.52-.55-2.11-.89-2-1.17s.08-.23,3,.38c0,0-4.15-.91-3.1-1.42.47-.22,3.92.5,3.92.5-2.83-.33-3.84-.9-3.77-1.32.11-.62,4.29.29,4.29.29a33.16,33.16,0,0,1-3.73-.91c-.53-.29.14-.56.76-.63s4.8.07,6,.05a.69.69,0,0,0,.77-.73,4.41,4.41,0,0,1,.64-3.51c.36-.32.93.06.81.59a6.42,6.42,0,0,0,0,1.74,4.14,4.14,0,0,0,.38,1.33c.24.49.46.89.65,1.23l5.88,6.42-2.54,6.1Z"/><path class="cls-18" d="M281.89,155.47a8,8,0,0,1-2-.34,7.82,7.82,0,0,1-1.95-.6,7.89,7.89,0,0,1,2,.34A8.2,8.2,0,0,1,281.89,155.47Z"/><path class="cls-18" d="M282.24,154.38a9.43,9.43,0,0,1-2.16-.24,8.73,8.73,0,0,1-2.12-.51,9.43,9.43,0,0,1,2.16.24A8.57,8.57,0,0,1,282.24,154.38Z"/><path class="cls-18" d="M282.6,153.24a8.05,8.05,0,0,1-2.05-.19,8.18,8.18,0,0,1-2-.46,8.05,8.05,0,0,1,2,.19A8.18,8.18,0,0,1,282.6,153.24Z"/><path class="cls-7" d="M321.88,185.19,296.76,189a12.24,12.24,0,0,0-8.42,5.41h0a12.21,12.21,0,0,0-1.5,10.1l13.26,42.3,12-4.53-7.36-37.4,38.86-2.61V185.19l-21.71-.79"/><path class="cls-7" d="M339.58,185.19,314.46,189a12.22,12.22,0,0,0-8.42,5.41h0a12.25,12.25,0,0,0-1.51,10.1l11.57,39.79,13.38-3.54-7.06-35.88,26-1.74V186.05l-8.8-1.65"/><path class="cls-11" d="M289.65,153.85c.52-.07,17.59,13.23,17.59,13.23l-10.89,4.34-11.05-11S284.61,154.55,289.65,153.85Z"/><path class="cls-11" d="M344.84,148.63c-2.84-4.13-7.68-5.55-9.36-5.94a4.9,4.9,0,0,0-1.08-.12H319.87a10.16,10.16,0,0,0-7.05,2.81,34.77,34.77,0,0,0-5.58,7.18l-7.31,10.17-4.5,7.54.92,1.15a7.56,7.56,0,0,0,9,2.3,9.37,9.37,0,0,0,3.57-3.46c1.84-2.7,3.75-5.62,5-7.85l7.33,21-3.92,2.5,16.53,6.68,17.2-7.36-4.75-16.93h0s7.54.74,8.23-2.22S348.33,153.67,344.84,148.63Z"/><path class="cls-5" d="M343.14,156.3a70.67,70.67,0,0,1,3.43,6.35c.14.29.55,0,.42-.24a54.71,54.71,0,0,0-3.57-6.27c-.11-.17-.39,0-.28.16Z"/><path class="cls-5" d="M346.56,155.08a69.33,69.33,0,0,1,3.43,6.35c.14.28.55,0,.42-.24a53.13,53.13,0,0,0-3.58-6.27c-.11-.17-.38,0-.27.16Z"/><path class="cls-5" d="M339.84,156.79c.72,2.81,1.3,5.67,1.76,8.54.06.4.68.23.61-.17a56.92,56.92,0,0,0-2.11-8.44.13.13,0,0,0-.26.07Z"/><path class="cls-5" d="M332.05,157.59a33.82,33.82,0,0,1,1.42,8.47c0,.4.64.4.62,0a28.1,28.1,0,0,0-1.73-8.55c-.07-.19-.37-.11-.31.08Z"/><path class="cls-5" d="M338.42,164.46a38.28,38.28,0,0,1-1.88-8c0-.37-.59-.39-.59,0a16.12,16.12,0,0,0,2.16,8.11c.1.15.37.06.31-.13Z"/><path class="cls-5" d="M328.58,157.82a36.47,36.47,0,0,0,1.17,8.05.29.29,0,0,0,.56-.15c-.5-2.65-1-5.28-1.43-7.94,0-.18-.31-.13-.3,0Z"/><path class="cls-5" d="M324.4,158.3c.73,2.95,1.27,5.91,1.8,8.9.05.29.54.22.5-.07a47.92,47.92,0,0,0-2.08-8.9.12.12,0,0,0-.22.07Z"/><path class="cls-5" d="M320.59,159a35.49,35.49,0,0,0,.9,8.23c.08.3.48.17.44-.12a73.56,73.56,0,0,1-1-8.11c0-.23-.37-.23-.36,0Z"/><path class="cls-5" d="M308.4,166.51a59.64,59.64,0,0,0,6.19-7.34c.17-.22-.21-.5-.39-.29a58.75,58.75,0,0,0-5.95,7.51.1.1,0,0,0,.15.12Z"/><path class="cls-5" d="M305.73,164.12a26.06,26.06,0,0,0,5.3-6.52c.17-.28-.25-.52-.43-.26-1.58,2.31-3.34,4.4-5.06,6.58a.14.14,0,0,0,.19.2Z"/><path class="cls-5" d="M307.34,156.28c-1.52,1.7-3.09,3.37-4.53,5.15-.19.23.13.57.34.34,1.53-1.71,2.93-3.53,4.37-5.31.1-.13-.07-.31-.18-.18Z"/><path class="cls-5" d="M316.71,159.39c.65,2.74,1,5.52,1.63,8.26.06.26.51.2.48-.07a63.6,63.6,0,0,0-1.74-8.29c-.06-.24-.42-.14-.37.1Z"/><g class="cls-15"><path d="M338.76,165.27a4,4,0,0,0-3.09,1.54,9.67,9.67,0,0,0-1.6,3.17,32.83,32.83,0,0,0-1.71,11.21c0,1.16,0,2.5-.84,3.26s-1.88.6-2.8,1c-1.49.58-2.76,2.57-2.33,4.1l8.31,3.15Z"/></g><path class="cls-7" d="M329.43,182.82a2.78,2.78,0,0,1-.95.37,10.89,10.89,0,0,1-4.86.21,2.7,2.7,0,0,1-1-.28,31.6,31.6,0,0,0,3.41.17A33.63,33.63,0,0,0,329.43,182.82Z"/><polygon class="cls-14" points="299.52 205.55 292.91 261 295.77 261 302.79 205.55 299.52 205.55"/><polygon class="cls-14" points="325.86 205.55 331.93 261 335.04 261 329.12 205.55 325.86 205.55"/><polyline class="cls-14" points="358.52 205.55 363.58 261 367.05 261 361.28 205.55 357.1 205.55"/><path class="cls-14" d="M341.64,157.92h24.5a3.81,3.81,0,0,1,3.77,4.35l-5.8,40.47a3.27,3.27,0,0,1-3.24,2.81H329.12Z"/><path class="cls-14" d="M296.25,205.55c.07-.61,0-3.67,0-3.67l30.38.57a4.66,4.66,0,0,0,4.69-3.91l6.06-37a4.33,4.33,0,0,1,4.26-3.63h0L335,199.57a7.09,7.09,0,0,1-7,6Z"/><path class="cls-7" d="M341.64,157.92s0,.05,0,.13l-.05.37c0,.36-.11.83-.2,1.44l-.79,5.26-2.72,17.36c-.54,3.39-1.06,6.61-1.53,9.55-.23,1.47-.46,2.86-.67,4.17a29.77,29.77,0,0,1-.74,3.61,10.22,10.22,0,0,1-1.25,2.78,6.84,6.84,0,0,1-1.57,1.69,5.35,5.35,0,0,1-1.27.71,2.22,2.22,0,0,1-.48.14,6.44,6.44,0,0,0,1.68-.94,8.32,8.32,0,0,0,2.7-4.43,29.5,29.5,0,0,0,.7-3.6l.65-4.17c.46-2.94,1-6.16,1.51-9.55,1.09-6.76,2.07-12.89,2.79-17.35.37-2.2.67-4,.88-5.25l.26-1.42.07-.37Z"/><path class="cls-7" d="M343,158.19a12.14,12.14,0,0,1-1.47-2.09,11.68,11.68,0,0,1-1.24-2.24,12.65,12.65,0,0,1,1.47,2.09A11.68,11.68,0,0,1,343,158.19Z"/><path class="cls-7" d="M296.77,167.15a45,45,0,0,1,4-5.75,22,22,0,0,1-1.9,3A20.25,20.25,0,0,1,296.77,167.15Z"/><path class="cls-7" d="M317.26,157.35a3,3,0,0,1-.33.62l-1,1.66c-.83,1.39-2,3.3-3.33,5.37s-2.61,3.92-3.56,5.23c-.47.66-.86,1.18-1.14,1.54a4.27,4.27,0,0,1-.45.54,3,3,0,0,1,.36-.6c.29-.42.64-1,1.07-1.59.9-1.34,2.14-3.2,3.48-5.27l3.4-5.33c.43-.68.79-1.23,1-1.61A3.5,3.5,0,0,1,317.26,157.35Z"/><path class="cls-7" d="M170.4,94.82a3.87,3.87,0,0,1,1.24-5.19,5,5,0,0,1,5.57.4,5.27,5.27,0,0,1,1.77,5c-.2,1.33-2.26,4-4.24,2.83"/><path class="cls-7" d="M158.51,106c-4.38-8.48,4.8-13.31,10-12.12,4.89,1.12,7.06,3.41,8,6.59a15.88,15.88,0,0,1,0,9.81c-.54,1.54-1.59,3.13-3.21,3.41"/><path class="cls-17" d="M171.81,98.58a1.64,1.64,0,0,1,1.55,1.59h0l.18,22.15c.09,2.61-3.65,4.27-6.44,4.35h0c-2.83.09-3-1.29-3.16-3.77-.27-4.15-.35-5.71-.35-5.68s-3.59-.42-4.57-5a50.19,50.19,0,0,1-.51-9.21c0-2.8,1.71-6.32,4.51-6.16Z"/><path class="cls-7" d="M159.74,105.81a.6.6,0,0,0,.6.58.58.58,0,0,0,.59-.57.6.6,0,0,0-.6-.58A.57.57,0,0,0,159.74,105.81Z"/><path class="cls-7" d="M159.43,104.91c.08.08.51-.28,1.16-.31s1.13.27,1.19.19-.05-.18-.26-.32a1.64,1.64,0,0,0-1-.24,1.59,1.59,0,0,0-.92.34C159.45,104.74,159.39,104.88,159.43,104.91Z"/><path class="cls-7" d="M165.78,105.51a.58.58,0,0,0,.6.57.57.57,0,0,0,.59-.56.59.59,0,0,0-.6-.58A.57.57,0,0,0,165.78,105.51Z"/><path class="cls-7" d="M165.75,104.72c.08.07.51-.28,1.15-.32s1.13.27,1.2.19,0-.17-.26-.31a1.62,1.62,0,0,0-1.88.1C165.77,104.54,165.71,104.69,165.75,104.72Z"/><path class="cls-7" d="M163.66,109.6a4,4,0,0,0-1.06-.14c-.16,0-.32,0-.35-.14a.81.81,0,0,1,.08-.5c.14-.4.28-.82.43-1.27a20.79,20.79,0,0,0,.92-3.32,23.12,23.12,0,0,0-1.19,3.24l-.4,1.28a1,1,0,0,0-.05.65.39.39,0,0,0,.28.22,1,1,0,0,0,.28,0A4.91,4.91,0,0,0,163.66,109.6Z"/><path class="cls-18" d="M163.59,117.22a11.89,11.89,0,0,0,6.15-2s-1.35,3.27-6,3.07Z"/><path class="cls-18" d="M164,111.13a1.17,1.17,0,0,1,1-.48,1,1,0,0,1,.75.35.69.69,0,0,1,.09.77.78.78,0,0,1-.83.25,2.41,2.41,0,0,1-.85-.45.65.65,0,0,1-.19-.18.21.21,0,0,1,0-.24"/><path class="cls-7" d="M165.57,110c-.11,0-.07.69-.65,1.22s-1.31.48-1.31.58.17.13.48.12a1.77,1.77,0,0,0,1.1-.45,1.51,1.51,0,0,0,.5-1C165.7,110.11,165.62,109.94,165.57,110Z"/><path class="cls-7" d="M165.4,103.61c.08.17.71.06,1.47.11s1.38.23,1.47.06-.07-.23-.33-.39a2.43,2.43,0,0,0-1.1-.32,2.3,2.3,0,0,0-1.13.19C165.5,103.38,165.37,103.53,165.4,103.61Z"/><path class="cls-7" d="M159.57,103c.12.14.56,0,1.09-.06s1,0,1.08-.11,0-.22-.24-.35a1.48,1.48,0,0,0-.89-.19,1.45,1.45,0,0,0-.85.33C159.58,102.82,159.52,103,159.57,103Z"/><path class="cls-7" d="M159.83,97.12a4.49,4.49,0,0,0,1.89,4.31,8.59,8.59,0,0,0,2.65,1l1.77.48a14.43,14.43,0,0,0,4,.7c-.07,1.52-.25,2.54.57,3.82a2.91,2.91,0,0,0,3.18,1.63,45.32,45.32,0,0,0,.52-9.09,4.28,4.28,0,0,0-.46-2.27c-.7-1.09-2.18-1.3-3.47-1.4l-5.43-.43a11.35,11.35,0,0,0-2.67,0,3.67,3.67,0,0,0-2.29,1.24"/><path class="cls-14" d="M177.35,103.68h-.2a1.36,1.36,0,0,1-.58-.13,2.44,2.44,0,0,1-.76-.54,12.07,12.07,0,0,1-.78-1,4.41,4.41,0,0,0-1.06-1,6.45,6.45,0,0,0-1.52-.7,12.9,12.9,0,0,0-3.83-.42,17.48,17.48,0,0,1-3.9-.26,5.58,5.58,0,0,1-2.8-1.5,4.17,4.17,0,0,1-.74-1,3.22,3.22,0,0,1-.31-.88,2.12,2.12,0,0,1,0-.78,5.42,5.42,0,0,0,.11.77,3.14,3.14,0,0,0,.33.84,4.09,4.09,0,0,0,.74,1,5.54,5.54,0,0,0,2.75,1.42,18.25,18.25,0,0,0,3.86.25,12.69,12.69,0,0,1,3.88.44,5.77,5.77,0,0,1,1.56.74,4.85,4.85,0,0,1,1.08,1,10.78,10.78,0,0,0,.75,1,2.53,2.53,0,0,0,.71.55A1.65,1.65,0,0,0,177.35,103.68Z"/><path class="cls-14" d="M176.61,100.83a1.34,1.34,0,0,0-.1-.66A2.65,2.65,0,0,0,175.12,99a9.09,9.09,0,0,0-2.65-.72,24.09,24.09,0,0,0-3.39,0,15.29,15.29,0,0,1-3.42-.12,6.85,6.85,0,0,1-2.61-1,4.48,4.48,0,0,1-1.33-1.34,3.22,3.22,0,0,1-.23-.46c0-.11-.06-.16-.06-.17s.11.23.35.59a4.59,4.59,0,0,0,1.34,1.27,6.76,6.76,0,0,0,2.57,1,16.88,16.88,0,0,0,3.38.11,23,23,0,0,1,3.42,0,8.93,8.93,0,0,1,2.69.77,2.65,2.65,0,0,1,1.4,1.24,1,1,0,0,1,.07.51A1.32,1.32,0,0,1,176.61,100.83Z"/><path class="cls-14" d="M178.65,91.91a.86.86,0,0,1,.07.31,1.91,1.91,0,0,1-.15.86,4.85,4.85,0,0,1-1.94,2.06,4.61,4.61,0,0,1-1.48.57,4.39,4.39,0,0,1-1.29,0,6,6,0,0,1-.84-.15,1,1,0,0,1-.3-.11s.44.08,1.15.13a4.62,4.62,0,0,0,1.25-.08,4.46,4.46,0,0,0,1.41-.56,5.07,5.07,0,0,0,1.92-2A2.44,2.44,0,0,0,178.65,91.91Z"/><path class="cls-14" d="M177,89.85s0,.12,0,.32a4.66,4.66,0,0,1-.16.83,5.5,5.5,0,0,1-1.4,2.41,5.57,5.57,0,0,1-2.4,1.43,4.86,4.86,0,0,1-.83.17.9.9,0,0,1-.32,0s.44-.07,1.11-.29A5.87,5.87,0,0,0,176.68,91C176.9,90.29,176.93,89.85,177,89.85Z"/><path class="cls-14" d="M176.5,110a2.17,2.17,0,0,1,0-.24c0-.16,0-.4,0-.71a7.87,7.87,0,0,0-.48-2.52,4.83,4.83,0,0,0-.9-1.5,4.1,4.1,0,0,0-1.66-1.12,15.45,15.45,0,0,0-4.64-.5,14.39,14.39,0,0,1-4.64-.88,7.94,7.94,0,0,1-3.14-2.23A5.94,5.94,0,0,1,159.81,98a4.63,4.63,0,0,1-.12-.7,1.18,1.18,0,0,1,0-.25s0,.34.2.93a6.14,6.14,0,0,0,1.24,2.23,7.88,7.88,0,0,0,3.11,2.15,14.46,14.46,0,0,0,4.58.86,15.35,15.35,0,0,1,4.69.52,4.31,4.31,0,0,1,1.71,1.17,5.19,5.19,0,0,1,.92,1.56,7.59,7.59,0,0,1,.42,2.57c0,.31,0,.55,0,.71A.75.75,0,0,1,176.5,110Z"/><path class="cls-10" d="M175.44,98s-.25-.28-.66-.71A11.74,11.74,0,0,0,173,95.79a11.91,11.91,0,0,0-2-1.11c-.55-.23-.91-.35-.9-.37a3.51,3.51,0,0,1,.95.24,9.44,9.44,0,0,1,2.1,1.09,9.61,9.61,0,0,1,1.77,1.59A3.23,3.23,0,0,1,175.44,98Z"/><path class="cls-17" d="M172.87,106.3c.06,0,2.43-1.22,2.6,1.56a2.1,2.1,0,0,1-2.67,2.3C172.79,110.08,172.87,106.3,172.87,106.3Z"/><path class="cls-18" d="M173.59,109.05s0,0,.13.07a.51.51,0,0,0,.36,0,1.19,1.19,0,0,0,.49-1.11,1.56,1.56,0,0,0-.17-.69A.6.6,0,0,0,174,107a.26.26,0,0,0-.28.15c0,.08,0,.14,0,.15a.17.17,0,0,1,0-.16.3.3,0,0,1,.1-.19.37.37,0,0,1,.26-.08.67.67,0,0,1,.53.4,1.57,1.57,0,0,1,.22.76,1.27,1.27,0,0,1-.64,1.25.54.54,0,0,1-.45,0C173.59,109.12,173.58,109.06,173.59,109.05Z"/><path class="cls-17" d="M131.9,131.21a32.08,32.08,0,0,0-2.35-4,22.94,22.94,0,0,0-5-1.69c-.35.12-5.38,1.06-4.79,1.65s4.09-.12,4.09-.12l.48.23a21.78,21.78,0,0,0-3.67.91c-.58.35-.37,1.07.19,1s3.19-.62,3.35-.51-2.87.76-3.19,1-.46,1,.09,1c.32,0,3.17-.81,3.17-.81a23,23,0,0,0-2.46,1.11c-.33.33,0,.81.43.7s1.93-.87,2.38-1c0,0,.42.11.82,1s3.18,3,3.18,3Z"/><path class="cls-17" d="M130.74,131.28a1,1,0,0,1-1.17,0c-.36-.21-.64-.54-1-.78-1-.7-2.51-.51-3.51-1.26-.14-.11-.28-.28-.21-.44s.27-.17.43-.16l4.15,0"/><path class="cls-18" d="M129.44,128.69a1.66,1.66,0,0,0-.45-.05l-1.22,0-1.82,0h-.52a.82.82,0,0,0-.61.14.34.34,0,0,0-.06.39.78.78,0,0,0,.21.26,2.87,2.87,0,0,0,.53.32,17.16,17.16,0,0,0,2.16.58,3.19,3.19,0,0,1,.86.37c.24.16.45.36.65.52a1.46,1.46,0,0,0,1.18.39c.31-.06.4-.23.39-.23a1.23,1.23,0,0,1-.4.14,1.38,1.38,0,0,1-1.06-.43,8,8,0,0,0-.65-.55,3.3,3.3,0,0,0-.91-.42,19,19,0,0,1-2.13-.59,2.43,2.43,0,0,1-.47-.28c-.14-.11-.21-.25-.13-.31s.26-.07.43-.07h2.35l1.22,0A1.48,1.48,0,0,0,129.44,128.69Z"/><path class="cls-18" d="M119.76,127.15a2.13,2.13,0,0,0,.92.24,5.72,5.72,0,0,0,1,0l1.25-.19.94-.15h-.06a13.73,13.73,0,0,0,2.18.64,12.89,12.89,0,0,0-2.11-.86h0l-.94.14-1.23.2a5.83,5.83,0,0,1-1,0C120.12,127.19,119.77,127.12,119.76,127.15Z"/><path class="cls-11" d="M146.57,237.07l4.53,8.4s-7,7.43-6.34,9.06l16.61-8.19L154.85,233Z"/><path class="cls-3" d="M155.88,242.22a.76.76,0,0,1,.85.54.74.74,0,0,1-.53.85.79.79,0,0,1-.9-.58.76.76,0,0,1,.65-.82"/><g class="cls-12"><path class="cls-4" d="M161.37,246.34l-.71-1.33L145,253.37s-.58.68-.24,1.16Z"/></g><path class="cls-7" d="M150.78,245.52c.05.08.47-.08,1,0s.91.3,1,.23-.3-.48-.94-.54S150.73,245.45,150.78,245.52Z"/><path class="cls-7" d="M149.4,247.1c0,.09.44.05.88.26s.71.53.78.49-.09-.53-.65-.78S149.36,247,149.4,247.1Z"/><path class="cls-7" d="M149.44,249.67c.08,0,0-.48-.44-.82s-.89-.33-.89-.24.35.2.7.49S149.35,249.71,149.44,249.67Z"/><path class="cls-7" d="M150,243.49c.07.06.38-.24.86-.43s.9-.23.91-.32-.48-.21-1,0S149.89,243.45,150,243.49Z"/><path class="cls-7" d="M149.08,241.78a1.83,1.83,0,0,0,.83-.42,3.89,3.89,0,0,0,.74-.69c.12-.15.24-.32.35-.49a1.06,1.06,0,0,0,.16-.32.39.39,0,0,0-.18-.45.46.46,0,0,0-.44,0,1,1,0,0,0-.29.19,3,3,0,0,0-.43.44,3.06,3.06,0,0,0-.52.88,1.63,1.63,0,0,0-.16.92c.05,0,.11-.34.36-.83a3.44,3.44,0,0,1,.54-.78,3,3,0,0,1,.4-.39c.15-.13.3-.21.39-.15s0,0,0,.1a.83.83,0,0,1-.11.24,5.33,5.33,0,0,1-.32.46,4.16,4.16,0,0,1-.65.71C149.36,241.56,149.06,241.73,149.08,241.78Z"/><path class="cls-7" d="M149.25,241.84a1.53,1.53,0,0,0-.18-.91,3.3,3.3,0,0,0-.56-.86,3.79,3.79,0,0,0-.47-.4.76.76,0,0,0-.73-.15.44.44,0,0,0-.24.4,1.21,1.21,0,0,0,.07.35,2.08,2.08,0,0,0,.27.56,2.21,2.21,0,0,0,.78.68,1.21,1.21,0,0,0,.92.17,6.86,6.86,0,0,1-.8-.36,2.12,2.12,0,0,1-.65-.65,2,2,0,0,1-.23-.49c-.06-.19-.06-.37,0-.38a.53.53,0,0,1,.43.13,2.44,2.44,0,0,1,.43.35,3.31,3.31,0,0,1,.57.75C149.13,241.5,149.2,241.85,149.25,241.84Z"/><path class="cls-11" d="M151,244.34l-1.72,9.4s-10.13,1.4-10.61,3.1l18.09,4L160,246.31Z"/><path class="cls-3" d="M155.05,254.19a.76.76,0,0,1,.32.95.72.72,0,0,1-.94.33.78.78,0,0,1-.34-1,.75.75,0,0,1,1-.24"/><g class="cls-12"><path class="cls-4" d="M156.76,260.84l.27-1.48-17.45-3.28s-.88.18-.91.76Z"/></g><path class="cls-7" d="M149,253.58c0,.09.41.23.78.61s.53.8.61.78.07-.56-.38-1S149,253.49,149,253.58Z"/><path class="cls-7" d="M146.93,253.94c0,.09.32.32.53.76s.22.85.31.87.25-.47,0-1S147,253.86,146.93,253.94Z"/><path class="cls-7" d="M145.36,256c.07,0,.29-.38.17-.91s-.49-.82-.54-.76.14.38.23.82S145.27,256,145.36,256Z"/><path class="cls-7" d="M149.64,251.48c0,.09.45.06.94.2s.85.39.91.32-.24-.46-.83-.62S149.61,251.4,149.64,251.48Z"/><path class="cls-7" d="M150,249.59a1.71,1.71,0,0,0,.91.2,4.75,4.75,0,0,0,1-.08,4.6,4.6,0,0,0,.58-.16,1.35,1.35,0,0,0,.32-.16.39.39,0,0,0,.14-.46.47.47,0,0,0-.34-.28.87.87,0,0,0-.35,0,3.3,3.3,0,0,0-1.56.43c-.51.3-.72.59-.7.62s.3-.2.8-.42a3.91,3.91,0,0,1,.91-.28,3.24,3.24,0,0,1,.55,0c.21,0,.37,0,.4.12s0,0,0,.1a1.1,1.1,0,0,1-.24.11,3.68,3.68,0,0,1-.54.16,5.29,5.29,0,0,1-1,.15C150.37,249.6,150,249.55,150,249.59Z"/><path class="cls-7" d="M150.11,249.75a1.58,1.58,0,0,0,.43-.83,2.94,2.94,0,0,0,.09-1,2.73,2.73,0,0,0-.11-.6.74.74,0,0,0-.47-.58.43.43,0,0,0-.44.17,1.31,1.31,0,0,0-.16.31,1.93,1.93,0,0,0-.14.61,2.12,2.12,0,0,0,.18,1c.25.55.6.73.61.71a8.49,8.49,0,0,1-.4-.79,2.06,2.06,0,0,1-.1-.92,2.08,2.08,0,0,1,.13-.52c.07-.18.18-.32.25-.28s.21.19.25.36a2.73,2.73,0,0,1,.11.54,3,3,0,0,1,0,.95C150.23,249.41,150.06,249.72,150.11,249.75Z"/><path class="cls-7" d="M159.3,157.91,131.51,193.7a12.94,12.94,0,0,0-2,12.13l20.13,41.06,6.75-11.47L144.83,203l15-18.09,6.7-27.69Z"/><path class="cls-7" d="M148.49,252.33l12.45-86.87.61-7.77,15.27-.82s5.33,8.31,5.59,13.39-13.89,40.68-13.89,40.68l-2,14.2L158,255.22Z"/><path class="cls-14" d="M161.43,159.31c.07,0-2.76,20.84-6.33,46.53s-6.53,46.5-6.61,46.49,2.76-20.84,6.33-46.53S161.35,159.3,161.43,159.31Z"/><path class="cls-14" d="M144.75,203a10.36,10.36,0,0,1-.91-.52,5.75,5.75,0,0,0-4.84-.19c-.59.25-.92.49-.95.45a2.37,2.37,0,0,1,.87-.63,5.26,5.26,0,0,1,5,.19A2.47,2.47,0,0,1,144.75,203Z"/><path class="cls-14" d="M177.72,162.2s-.11.09-.33.2a6,6,0,0,1-1,.35,6.66,6.66,0,0,1-1.54.21,7.69,7.69,0,0,1-3.69-.84,7,7,0,0,1-1.29-.87,5,5,0,0,1-.74-.75,1.1,1.1,0,0,1-.21-.32s.39.39,1.07.91a7.19,7.19,0,0,0,1.29.79,8.38,8.38,0,0,0,1.73.62,9.44,9.44,0,0,0,1.84.21,8,8,0,0,0,1.5-.16C177.2,162.38,177.7,162.16,177.72,162.2Z"/><path class="cls-14" d="M133.12,213.27s-.18-.3-.48-.85-.71-1.36-1.21-2.37a37.89,37.89,0,0,1-1.58-3.63,20.44,20.44,0,0,1-.67-2.25,12.56,12.56,0,0,1-.35-2.5,10.42,10.42,0,0,1,.23-2.52,13.35,13.35,0,0,1,.72-2.24,19.34,19.34,0,0,1,2-3.45c.64-.92,1.21-1.64,1.61-2.12l.47-.55a2.23,2.23,0,0,1,.18-.18,7.42,7.42,0,0,1-.56.8c-.38.5-.92,1.23-1.54,2.16A20.44,20.44,0,0,0,130,197a12.87,12.87,0,0,0-.69,2.2,10.9,10.9,0,0,0-.22,2.45,12.92,12.92,0,0,0,.34,2.45,18,18,0,0,0,.65,2.22c.49,1.39,1,2.61,1.51,3.63l1.13,2.41.3.66A.86.86,0,0,1,133.12,213.27Z"/><polygon class="cls-11" points="156.01 125.75 145.69 137.62 132.31 130.22 127.63 134.91 145 146.81 152.75 146.69 159.37 133.65 156.01 125.75"/><path class="cls-11" d="M152.24,134.51l5.74,24.2,19.27-1.65,2.48-19,5.16-8.13a9.59,9.59,0,0,0-9.76-7.69L173.76,119l-10.15.86-1.22,3s-8.36.6-8.16,8.19Z"/><g class="cls-15"><path d="M157.11,155.07a10.08,10.08,0,0,0,8.63-1.65,3,3,0,0,1,1.14-.66,2.76,2.76,0,0,1,1.38.2,25.76,25.76,0,0,0,6.39,1.14,4.5,4.5,0,0,0,2.22-.29,1.75,1.75,0,0,0,1-1.83,58.75,58.75,0,0,0-10-2.72,13.59,13.59,0,0,0-5.35-.14,15.28,15.28,0,0,0-4.93,2.45,2.27,2.27,0,0,0-1,1c-.3.89.6,1.82.41,2.74"/></g><path class="cls-11" d="M171.56,129.6c.54.48,7.71,12.77,7.71,12.77l-11.45,2.51-.39,5.64,11.26,1.63,5.06.54a6.52,6.52,0,0,0,5.87-2.53h0a6.51,6.51,0,0,0,.8-6.5l-5.84-14.89Z"/><path class="cls-7" d="M182.42,142.33c0,.08-3.24.71-7.27,1.41s-7.32,1.21-7.33,1.13,3.25-.7,7.28-1.4S182.41,142.26,182.42,142.33Z"/><path class="cls-7" d="M179.71,142.79a5,5,0,0,1-.3-.61l-.74-1.71c-.62-1.45-1.44-3.46-2.34-5.68-.45-1.11-.87-2.17-1.26-3.14a5.77,5.77,0,0,1-.5-2.74,2.82,2.82,0,0,1,.83-1.69,2.27,2.27,0,0,1,.41-.3l.17-.07s-.21.13-.5.45a2.78,2.78,0,0,0-.71,1.63,5.76,5.76,0,0,0,.54,2.63c.4,1,.83,2,1.28,3.12.9,2.23,1.7,4.25,2.26,5.71q.39,1.05.66,1.74A2.8,2.8,0,0,1,179.71,142.79Z"/><path class="cls-7" d="M185.58,152.73a3.35,3.35,0,0,1-.72,0c-.46,0-1.13,0-2-.06-1.66-.09-3.94-.3-6.44-.65s-4.77-.73-6.4-1l-1.93-.35a3.21,3.21,0,0,1-.7-.16,3.23,3.23,0,0,1,.72.06c.46,0,1.12.14,1.94.26,1.64.23,3.9.59,6.4.94s4.78.58,6.42.72l2,.15A3,3,0,0,1,185.58,152.73Z"/><path class="cls-7" d="M155.72,145.11a7.22,7.22,0,0,0-.3-2.05c-.17-.62-.46-1.33-.67-2.18a4,4,0,0,1-.15-1.37,5.69,5.69,0,0,1,.3-1.44,23.8,23.8,0,0,1,2.43-4.47l.84-1.28a2.12,2.12,0,0,1,.32-.47,2.82,2.82,0,0,1-.23.52c-.17.32-.42.78-.76,1.34a27.58,27.58,0,0,0-2.33,4.45,5.72,5.72,0,0,0-.3,1.37,4.23,4.23,0,0,0,.13,1.29c.19.83.46,1.55.61,2.19a5.12,5.12,0,0,1,.2,1.54,3.32,3.32,0,0,1,0,.42C155.75,145.06,155.73,145.11,155.72,145.11Z"/><path class="cls-7" d="M165.15,123.21a5.89,5.89,0,0,1,0-1.76,5.39,5.39,0,0,1,.24-1.74,5.75,5.75,0,0,1,0,1.76A5.41,5.41,0,0,1,165.15,123.21Z"/><path class="cls-7" d="M168.92,122.87a5.68,5.68,0,0,1-.41-1.69,5.9,5.9,0,0,1-.14-1.74,10.44,10.44,0,0,1,.55,3.43Z"/><path class="cls-7" d="M172.18,122.25a7.72,7.72,0,0,1-.83-2.83,7.87,7.87,0,0,1,.83,2.83Z"/><g class="cls-15"><path d="M174.88,131.28c.06,3.69.71,6.74.77,10.43a2.48,2.48,0,0,0,.18,1c.42.8,1.35.56,2.25.51a8.65,8.65,0,0,0,1.37-.3,1.22,1.22,0,0,0-.11-.81c-1.49-3.83-3-7-4.46-10.88"/></g><polygon class="cls-7" points="134.19 138.58 139.73 143.92 148.66 152.53 164.03 151.76 151.59 137.71 134.19 138.58"/><path class="cls-3" d="M136.62,138.42s-4,1.78.07,4.86,9.69,4.24,10.54,6.47a3.74,3.74,0,0,1-.54,3.77l11.78-.52s3.5-3,.89-5.71-9.45-6.57-10.25-7.62,1.12-1.89,1.12-1.89Z"/><polygon class="cls-14" points="140.34 138.25 139.88 137.7 146.24 137.31 146.24 137.97 140.34 138.25"/><path class="cls-5" d="M148.08,140a7.51,7.51,0,0,1-1.58.24c-1,.11-2.34.22-3.84.3s-2.87.12-3.86.1a6.2,6.2,0,0,1-1.59-.14,14.16,14.16,0,0,1,1.59-.06c1,0,2.34-.09,3.84-.18l3.85-.22A12,12,0,0,1,148.08,140Z"/><path class="cls-5" d="M149.33,141.82a47.49,47.49,0,0,1-5.15.39,47.57,47.57,0,0,1-5.16.1,49.21,49.21,0,0,1,5.15-.38A49.31,49.31,0,0,1,149.33,141.82Z"/><path class="cls-5" d="M152.06,143.29a7.8,7.8,0,0,1-1.48.27c-.91.12-2.18.25-3.59.36s-2.68.17-3.61.19a6.6,6.6,0,0,1-1.49,0,8.43,8.43,0,0,1,1.48-.16l3.6-.28,3.59-.28A10.37,10.37,0,0,1,152.06,143.29Z"/><path class="cls-5" d="M153.91,145.31a34.07,34.07,0,0,1-4.41.49,35.14,35.14,0,0,1-4.42.21,33.47,33.47,0,0,1,4.4-.49A35.22,35.22,0,0,1,153.91,145.31Z"/><path class="cls-5" d="M156.68,147.12a33,33,0,0,1-4.26.59,34.19,34.19,0,0,1-4.29.31,32.65,32.65,0,0,1,4.26-.59A32.06,32.06,0,0,1,156.68,147.12Z"/><path class="cls-5" d="M158,149.68a5.53,5.53,0,0,1-1.28.21c-.79.09-1.88.19-3.1.25s-2.32.08-3.11.07a5.82,5.82,0,0,1-1.29-.09,6.44,6.44,0,0,1,1.28-.11l3.11-.15,3.1-.16A5.65,5.65,0,0,1,158,149.68Z"/><path class="cls-17" d="M167.43,150.42l-2.92-.46-10.88.27s-.57-.17-.07-.48c.24-.15,4.24-1.14,4.24-1.14l-5.75.46a7.54,7.54,0,0,1,2.19-2.61,14.89,14.89,0,0,1,4.09-1.57l-1.74-1.32s5.68-.74,6.41-.09a22.17,22.17,0,0,1,1.62,1.65l3.14,0"/><path class="cls-18" d="M159.8,148.3c0,.08-1.71.13-3.82.34s-3.8.46-3.82.38a4.33,4.33,0,0,1,1.1-.29c.68-.13,1.64-.27,2.7-.37s2-.14,2.71-.14A4.27,4.27,0,0,1,159.8,148.3Z"/><path class="cls-18" d="M159.47,146.88a20,20,0,0,1-3.27.6,19.15,19.15,0,0,1-3.3.33,19.33,19.33,0,0,1,3.26-.61A19.85,19.85,0,0,1,159.47,146.88Z"/><polygon class="cls-14" points="106.22 116.86 105.73 118.47 113.53 118.47 113.11 117.38 106.22 116.86"/><polygon class="cls-7" points="113.78 121.96 113.65 121.85 105.61 121.85 105.48 121.96 113.78 121.96"/><path class="cls-7" d="M112.42,130.88l1.65-12.18h-8.89l1.65,12.18A19.51,19.51,0,0,0,112.42,130.88Z"/><path class="cls-14" d="M114.18,118.88h-9.1v-.14a.73.73,0,0,1,.72-.73h7.65a.73.73,0,0,1,.73.73Z"/><polygon class="cls-3" points="113.14 126.72 106.11 126.72 105.48 121.96 113.78 121.96 113.14 126.72"/><path class="cls-7" d="M110.61,125.1c.45-.8.7-1.8-.21-2.37,0,0-.86-.56-1.81.49-.74.81-1.09,1.76-.49,2.49C108.82,126.59,110.16,125.91,110.61,125.1Zm-1.42-.13a1.94,1.94,0,0,0-.76.9c-.08-.58.16-.9,1-1.56a2.17,2.17,0,0,0,.89-1.47C110.79,123.93,109.8,124.55,109.19,125Z"/><polygon class="cls-7" points="106.12 117.2 107.64 117.42 107.64 117.73 105.95 117.73 106.12 117.2"/><path class="cls-9" d="M108.82,125.22S95.76,138.34,94.6,138.71c0,0-3.95-7.71-4.31-8L82.68,135l4.46,9.57a7.12,7.12,0,0,0,12.08,2.07L112,131.52l2.59-2.87a6.78,6.78,0,0,0,1-2.62,4.76,4.76,0,0,0-.11-1.74,1.76,1.76,0,0,0-.07-1.36,1,1,0,0,0-.7-.46c.56-1.4-1-2.09-1.74-.93"/><path class="cls-9" d="M108.34,125.7a3,3,0,0,0-1.18-1.6,3.32,3.32,0,0,0-1.81-.71s.15-.94,1.7-.74,2,1.21,3.88.74l.41,1.78Z"/><path class="cls-19" d="M114.9,122.24a2,2,0,0,1-.67,1.11c-.5.52-1.06.76-1.09.69s.42-.4.89-.89S114.83,122.2,114.9,122.24Z"/><path class="cls-19" d="M115.49,124.26c.07,0,0,.43-.36.81s-.69.57-.73.5.22-.33.51-.68S115.42,124.23,115.49,124.26Z"/><path class="cls-19" d="M93.51,144a9.07,9.07,0,0,1,.17-2.83,9.26,9.26,0,0,1,.8-2.73c.08,0-.26,1.24-.52,2.78S93.6,144,93.51,144Z"/><polygon class="cls-14" points="46.58 117.78 46.09 119.39 53.89 119.39 53.48 118.29 46.58 117.78"/><polygon class="cls-7" points="54.14 122.88 54.01 122.77 45.97 122.77 45.84 122.88 54.14 122.88"/><path class="cls-7" d="M52.78,131.8l1.66-12.18h-8.9L47.2,131.8A19.46,19.46,0,0,0,52.78,131.8Z"/><path class="cls-14" d="M54.54,119.8h-9.1v-.14a.73.73,0,0,1,.73-.73h7.64a.73.73,0,0,1,.73.73Z"/><polygon class="cls-3" points="53.5 127.63 46.48 127.63 45.84 122.88 54.14 122.88 53.5 127.63"/><path class="cls-7" d="M51,126c.46-.81.71-1.8-.2-2.37a1.41,1.41,0,0,0-1.82.49c-.74.81-1.08,1.76-.49,2.48C49.19,127.5,50.52,126.83,51,126Zm-1.41-.13a1.86,1.86,0,0,0-.76.9c-.09-.58.16-.9,1-1.56a2.18,2.18,0,0,0,.89-1.48C51.15,124.85,50.17,125.47,49.56,125.89Z"/><polygon class="cls-7" points="46.48 118.12 48 118.34 48 118.65 46.32 118.65 46.48 118.12"/><path class="cls-9" d="M46.58,150S45,148.14,45.44,135.1l-.1-7,6.08-1.83,4.2,23.57Z"/><path class="cls-9" d="M51.21,126.71a4,4,0,0,1,1.33-1.83,3.29,3.29,0,0,1,1.81-.71s-.16-.94-1.71-.73-2,1.21-3.88.73l-2.21,4Z"/><path class="cls-9" d="M49.19,124.49c-.1-.24-3.26-2.76-3.26-2.76s-1.63.06-1,1.53a1.33,1.33,0,0,0-.62,2s-.71.51-.21,1.94a13.37,13.37,0,0,0,1.37,2.71Z"/><path class="cls-9" d="M50.05,138.43l-3.54,8.44a4.8,4.8,0,0,0,3.1,6h0a4.8,4.8,0,0,0,6-3l2.83-8.33Z"/><path class="cls-19" d="M46.83,146.18a4.56,4.56,0,0,1,.29-1.17c.22-.71.55-1.68,1-2.73s.86-2,1.19-2.65a5,5,0,0,1,.61-1,5.31,5.31,0,0,1-.43,1.12c-.28.68-.69,1.62-1.11,2.67s-.79,2-1,2.69A5.45,5.45,0,0,1,46.83,146.18Z"/><path class="cls-19" d="M49.33,139.89a10.84,10.84,0,0,0-1.21.58c-.61.41-.92.95-1,.91s.15-.68.83-1.14A1.6,1.6,0,0,1,49.33,139.89Z"/><path class="cls-7" d="M64.33,94.76c.35,1-.85,1.88-1.9,2.12s-2.31.39-2.79,1.35,0,1.9-.37,2.75c-.72,1.62-3.63,1.28-4.2,3-.39,1.16.69,2.34.55,3.55-.11,1-1.07,1.75-1.9,2.38s-1.72,1.5-1.59,2.54c.16,1.2,1.62,2,1.49,3.23s-1.73,1.74-2,2.91c-.27,1.38,1.46,2.27,2,3.57.43,1,.16,2.27.88,3.08s2,.66,3.13.43l10.79-2.29c-.73-1.7,0-3.7,1-5.23s2.43-2.84,3.32-4.46,1.19-3.8,0-5.24"/><path class="cls-7" d="M83.3,103.39a11.62,11.62,0,0,0-.35-1.7,1.75,1.75,0,0,0-.43-.7c-.22-.21-.49-.08-.67.21a5.34,5.34,0,0,0,0,4.38c.18.29.45.41.67.21a1.82,1.82,0,0,0,.43-.7,11.62,11.62,0,0,0,.35-1.7,1.32,1.32,0,0,1,0,.48,5,5,0,0,1-.2,1.29,1.94,1.94,0,0,1-.47.81.63.63,0,0,1-.58.14,1,1,0,0,1-.45-.39,5.21,5.21,0,0,1,0-4.66,1,1,0,0,1,.45-.39.58.58,0,0,1,.58.14,1.94,1.94,0,0,1,.47.81,5,5,0,0,1,.2,1.29A1.32,1.32,0,0,1,83.3,103.39Z"/><path class="cls-7" d="M65.7,113.32c-2-3.29-2.51-7.69-3-11.49-.23-1.78-.64-4.33.62-5.45s1.47-3,3-4a4.77,4.77,0,0,1,5.11.06"/><path class="cls-9" d="M71.11,125h0a5.29,5.29,0,0,0,5.71-5c.12-2.88.22-5.79.22-5.79s4.37-.4,4.7-4.72S82,95.15,82,95.15h0a15.05,15.05,0,0,0-15.21.93L67,111.29l0,8.17C67,122.21,68.38,124.79,71.11,125Z"/><path class="cls-7" d="M77.45,104.15a2.23,2.23,0,0,0-3-.65,2.51,2.51,0,0,0-.85,3.14,3.35,3.35,0,0,0,2.12,1.61A1.65,1.65,0,0,1,77.06,110c-.13,1.08-1.93,1.48-2.75,2.38-1.27,1.39-4,2-5.92,2.19s-1.62.23-2.69-1.29a5.87,5.87,0,0,1-1-3.51c0-3.18-.11-6.37-.17-9.55a13.57,13.57,0,0,1,.23-3.43A4.62,4.62,0,0,1,66.54,94c1-.69,2.38-.74,3.58-1.13a28.54,28.54,0,0,0,4.17-2.18,5.12,5.12,0,0,1,4.52-.42c1,.51,1.68,1.52,2.66,2.08,1.4.8,3.3.62,4,2.68a3.49,3.49,0,0,1,0,2.19,5.08,5.08,0,0,1-6.91,2.7,6.71,6.71,0,0,1-.09,3c-.16.47-.22,1.2-1,1.21"/><path class="cls-19" d="M76.67,106.85s0,.08-.06.19a.65.65,0,0,1-.49.23A1.18,1.18,0,0,1,75,106.08a1.24,1.24,0,0,1,.32-.91,1.21,1.21,0,0,1,.67-.39c.45-.09.71.07.69.1s-.27,0-.63.11a1.06,1.06,0,0,0-.74,1.08,1,1,0,0,0,.81,1C76.49,107.08,76.63,106.82,76.67,106.85Z"/><path class="cls-7" d="M83.31,103.18a15,15,0,0,1-2.9.62,15.9,15.9,0,0,1-3,.34,16,16,0,0,1,2.91-.62A17,17,0,0,1,83.31,103.18Z"/><path class="cls-7" d="M66.05,117.54a1.25,1.25,0,0,0,1.5.6,3.66,3.66,0,0,0,1.45-1,3.85,3.85,0,0,1,1.44-1c1.15-.35,2.56.42,3.53-.3s.77-2.12,1.64-2.79c.46-.36,1.1-.4,1.57-.75a2,2,0,0,0,0-2.9A5.91,5.91,0,0,0,74.28,108L65,112Z"/><path class="cls-14" d="M77.08,100.76l-.08.06a1.58,1.58,0,0,1-.25.14,5.42,5.42,0,0,1-1,.37,12.14,12.14,0,0,1-1.69.26,16.68,16.68,0,0,0-2.21.31,4.21,4.21,0,0,0-2.3,1.25,12.84,12.84,0,0,0-1.34,2.78,3.46,3.46,0,0,1-1.08,1.36,5.33,5.33,0,0,1-1.62.8,9.43,9.43,0,0,0-3.34,1.42A2.4,2.4,0,0,0,61.3,111a9.84,9.84,0,0,0,0,1.8,3.24,3.24,0,0,1-.35,1.78,3.29,3.29,0,0,1-1.25,1.21c-1,.57-2,.87-2.8,1.39a3.41,3.41,0,0,0-1,.92,2.49,2.49,0,0,0-.38,1.18,8.66,8.66,0,0,0,.3,2.2,5.63,5.63,0,0,1,.16,1.7,2.37,2.37,0,0,1-.31,1,1.48,1.48,0,0,1-.23.3,2.72,2.72,0,0,0,.43-1.35,5.6,5.6,0,0,0-.2-1.66,8.49,8.49,0,0,1-.35-2.24,2.74,2.74,0,0,1,.4-1.29,3.5,3.5,0,0,1,1.06-1c.84-.55,1.86-.86,2.79-1.42A2.67,2.67,0,0,0,61,112.84,11.55,11.55,0,0,1,61,111a2.76,2.76,0,0,1,.95-1.69,9.71,9.71,0,0,1,3.45-1.46,5.65,5.65,0,0,0,1.54-.75,3.42,3.42,0,0,0,1-1.26,12.17,12.17,0,0,1,1.4-2.82,4.35,4.35,0,0,1,2.42-1.29,14.38,14.38,0,0,1,2.25-.27,12.2,12.2,0,0,0,1.67-.22A7.24,7.24,0,0,0,77.08,100.76Z"/><path class="cls-14" d="M74.58,102.31s-.34,0-.91.13a4.17,4.17,0,0,0-2.08,1.25,3.81,3.81,0,0,0-.83,1.45,6.65,6.65,0,0,0-.17,1.94,5,5,0,0,1-.32,2.21,2.16,2.16,0,0,1-.81.91,11.06,11.06,0,0,1-1.07.58,2.69,2.69,0,0,0-.92.65,1.63,1.63,0,0,0-.36,1,5.71,5.71,0,0,1-.25,2.21,3.68,3.68,0,0,1-1.45,1.43c-.54.32-1.07.56-1.52.83a3.73,3.73,0,0,0-1.07.89,2.58,2.58,0,0,0-.46.93,2,2,0,0,0,0,.9.45.45,0,0,1-.1-.22,1.66,1.66,0,0,1,0-.7,2.49,2.49,0,0,1,.45-1,3.72,3.72,0,0,1,1.09-1c.45-.28,1-.54,1.5-.86a3.36,3.36,0,0,0,1.33-1.34,5.32,5.32,0,0,0,.21-2.12,2,2,0,0,1,.42-1.16,3.07,3.07,0,0,1,1-.72A3.28,3.28,0,0,0,70,109.17a4.7,4.7,0,0,0,.31-2.1,6.57,6.57,0,0,1,.21-2,3.88,3.88,0,0,1,.91-1.52,3.94,3.94,0,0,1,2.2-1.21,3.28,3.28,0,0,1,.69-.06A.75.75,0,0,1,74.58,102.31Z"/><path class="cls-3" d="M59.72,156.4l3-8.74-2.09-10.6L59,141.74,48.9,138s6.54-13.09,6.87-13.78c3-6.29,11-6.29,11-6.29l10.15.27a11.09,11.09,0,0,1,8.71,3.38c2.91,2.93,9.54,15.74,9.54,15.74l-10.68,3.32-2.12-3.94.62,8.33,2.1,12.7Z"/><path class="cls-11" d="M85.23,121.25c0,.08-6.17.14-13.77.14s-13.77-.06-13.77-.14,6.17-.14,13.77-.14S85.23,121.17,85.23,121.25Z"/><path class="cls-7" d="M80.92,121s-.29,0-.75.23a3.44,3.44,0,0,0-1.55,1.38,4.63,4.63,0,0,0-.63,3,11.78,11.78,0,0,0,1.2,3.66c1.18,2.52,2.22,4.82,3,6.48l.86,2a3.67,3.67,0,0,1,.28.75,3.65,3.65,0,0,1-.39-.7l-1-1.94c-.8-1.64-1.87-3.92-3-6.44a11.63,11.63,0,0,1-1.2-3.77,4.76,4.76,0,0,1,.73-3.14,3.43,3.43,0,0,1,1.69-1.37,2.06,2.06,0,0,1,.58-.13C80.85,120.93,80.92,120.94,80.92,121Z"/><path class="cls-7" d="M62.83,148.14c-.08,0-1.3-5.48-2.71-12.28s-2.5-12.33-2.42-12.35S59,129,60.42,135.79,62.91,148.12,62.83,148.14Z"/><path class="cls-7" d="M78.08,139.89a2.16,2.16,0,0,1,0,.73,6.73,6.73,0,0,1-.48,1.94,9.42,9.42,0,0,1-4.44,4.73,12.93,12.93,0,0,1-6.4,1.28,14.73,14.73,0,0,1-2-.2,4.16,4.16,0,0,1-.71-.16c0-.06,1,.13,2.69.15A13.76,13.76,0,0,0,73,147a9.6,9.6,0,0,0,4.38-4.55A10.81,10.81,0,0,0,78.08,139.89Z"/><path class="cls-11" d="M88.67,125.8c0,.08-7.54.14-16.83.14S55,125.88,55,125.8s7.53-.14,16.83-.14S88.67,125.73,88.67,125.8Z"/><path class="cls-11" d="M91.16,130c0,.08-8.53.14-19,.14s-19-.06-19-.14,8.52-.14,19-.14S91.16,130,91.16,130Z"/><path class="cls-11" d="M92.84,133.92c0,.08-9.37.14-20.92.14S51,134,51,133.92s9.36-.14,20.91-.14S92.84,133.84,92.84,133.92Z"/><path class="cls-11" d="M59.9,138.66a8.34,8.34,0,0,1-1.45-.39c-.89-.27-2.12-.63-3.48-1s-2.62-.65-3.52-.86A8.88,8.88,0,0,1,50,136a8.13,8.13,0,0,1,1.5.19c.91.15,2.18.42,3.55.78s2.6.76,3.47,1.08A7.49,7.49,0,0,1,59.9,138.66Z"/><path class="cls-11" d="M82.58,138a4.87,4.87,0,0,1-.86,0l-2.35,0-7.76-.08H61.5a5.25,5.25,0,0,1-.86,0,5.18,5.18,0,0,1,.86-.07l2.35-.09c2-.06,4.73-.1,7.76-.09s5.78.09,7.76.17c1,0,1.8.07,2.35.11A4.55,4.55,0,0,1,82.58,138Z"/><path class="cls-11" d="M94.45,136s0,0-.06,0l-.33.06-1.21.21c-1,.18-2.44.4-4,.64s-3,.45-4,.58a9.11,9.11,0,0,1-1.68.16,10.63,10.63,0,0,1,1.65-.36c1-.18,2.44-.42,4-.65s3-.44,4-.56c.52-.06.94-.11,1.23-.13h.34s.06,0,.1,0S94.45,136,94.45,136Z"/><path class="cls-11" d="M77.6,141.73c0,.08-3.58.14-8,.14s-8-.06-8-.14,3.58-.14,8-.14S77.6,141.65,77.6,141.73Z"/><path class="cls-11" d="M82.77,143a14.07,14.07,0,0,1-2.73.14,14.07,14.07,0,0,1-2.73-.14,12.75,12.75,0,0,1,2.73-.15A12.75,12.75,0,0,1,82.77,143Z"/><path class="cls-11" d="M74.1,146.43a9.31,9.31,0,0,1-1.68.13c-1,0-2.49.05-4.08,0s-3-.12-4.06-.2a9.51,9.51,0,0,1-1.68-.21,10.17,10.17,0,0,1,1.69,0l4.06.12,4.07.07A10.13,10.13,0,0,1,74.1,146.43Z"/><path class="cls-11" d="M83.21,147.58c0,.07-2.46.14-5.49.14s-5.49-.07-5.49-.14a53.06,53.06,0,0,1,5.49-.14A53.06,53.06,0,0,1,83.21,147.58Z"/><path class="cls-11" d="M84,151.55a4.33,4.33,0,0,1-.88,0H80.74c-2,0-4.84-.07-7.93-.17s-5.91-.22-7.94-.34l-2.4-.18a4.7,4.7,0,0,1-.87-.11,4.94,4.94,0,0,1,.88,0l2.4.09,7.93.26,7.94.26,2.4.09A5.66,5.66,0,0,1,84,151.55Z"/><path class="cls-11" d="M84.78,156.06a6,6,0,0,1-1,0L81.2,156c-2.2-.09-5.25-.25-8.61-.44s-6.42-.37-8.62-.52l-2.61-.19a5.88,5.88,0,0,1-1-.11,5.89,5.89,0,0,1,1,0l2.61.1c2.21.1,5.26.26,8.62.44s6.42.38,8.62.53l2.61.19A6.94,6.94,0,0,1,84.78,156.06Z"/><g class="cls-20"><path d="M63.58,147.46c1.91,1.43,4.71.95,7.06.56a10.2,10.2,0,0,0,6.15-3.33,4.14,4.14,0,0,0,1.14-2.91,2.07,2.07,0,0,0-2.09-2c-1.22.15-1.81,1.51-2.39,2.59A9.43,9.43,0,0,1,63.62,147S63.24,147.21,63.58,147.46Z"/></g><g class="cls-20"><path d="M78.08,126.79c.6,4.79,1.37,8.72,2.37,13.44.49,2.32,1.09,4.74,2.69,6.49l-.92-10.61Z"/></g><path class="cls-7" d="M64.49,116.79a3.44,3.44,0,0,0-1.6,5.14,1.7,1.7,0,0,1,.44.95c0,.86-1.43.88-1.86,1.61a1.34,1.34,0,0,0,.37,1.55,11.7,11.7,0,0,0,1.42.95,1.7,1.7,0,0,1,.87,1.38c.48,0,.77-.59.69-1.07a4.4,4.4,0,0,0-.59-1.31,1.4,1.4,0,0,1-.06-1.37c.32-.45,1-.47,1.47-.67a2,2,0,0,0,1.08-2.63c-.31-.7-1-1.4-.68-2.07.2-.37.65-.52,1-.72a2.64,2.64,0,0,0,.34-4.4"/><polygon class="cls-9" points="54.69 198.77 51.69 254.48 60.87 256.7 67.76 199.95 54.69 198.77"/><polygon class="cls-16" points="51.41 254.26 49.85 261.14 60.42 261.14 60.87 256.67 51.41 254.26"/><path class="cls-7" d="M60.64,260.15a9,9,0,0,1-1.54.08c-1,0-2.27,0-3.72-.06L51.67,260a7.71,7.71,0,0,1-1.53-.13,9,9,0,0,1,1.54-.08c1,0,2.26,0,3.71.07l3.71.16A7.51,7.51,0,0,1,60.64,260.15Z"/><path class="cls-11" d="M56.16,255.61a8.33,8.33,0,0,1,0,2.22,8.55,8.55,0,0,1-.29,2.21,8.63,8.63,0,0,1,0-2.23A8.77,8.77,0,0,1,56.16,255.61Z"/><g class="cls-12"><polyline class="cls-4" points="49.85 261.14 60.42 261.14 60.52 260.15 50.04 259.88 49.85 261.03"/></g><polygon class="cls-9" points="87.93 241.45 90.16 258.25 98.29 257.69 96.58 242.28 87.93 241.45"/><path class="cls-16" d="M98.38,255.86h0s9.13,3.09,9.28,4.76l-17.47.5L90,256.56l.64.13A13,13,0,0,0,98.38,255.86Z"/><g class="cls-12"><path class="cls-4" d="M92.08,257.35a.72.72,0,0,0-.47.83.7.7,0,0,0,.82.48.75.75,0,0,0,.49-.88.7.7,0,0,0-.9-.4"/></g><g class="cls-12"><path class="cls-4" d="M90.19,261.12v-1.41l16.75,0s.78.31.71.87Z"/></g><path class="cls-11" d="M98.66,255.77c0,.08-.43.13-.84.42s-.63.65-.7.62,0-.53.53-.87S98.67,255.69,98.66,255.77Z"/><path class="cls-11" d="M100.51,256.47c0,.08-.34.24-.62.61s-.35.75-.44.75-.15-.48.2-.94S100.51,256.39,100.51,256.47Z"/><path class="cls-11" d="M101.62,258.63c-.08,0-.21-.4,0-.87s.6-.67.64-.6-.2.32-.36.71S101.7,258.62,101.62,258.63Z"/><path class="cls-11" d="M98.47,255.72a1.58,1.58,0,0,1-.88,0,3.75,3.75,0,0,1-.92-.25,4,4,0,0,1-.51-.25,1.1,1.1,0,0,1-.27-.2.37.37,0,0,1-.06-.45.49.49,0,0,1,.37-.21,1.06,1.06,0,0,1,.33,0,3,3,0,0,1,.55.17,2.88,2.88,0,0,1,.82.5c.42.37.57.68.54.7s-.24-.23-.67-.53a3.41,3.41,0,0,0-.79-.42,3.8,3.8,0,0,0-.51-.14c-.18,0-.34,0-.38.05s0,0,0,.09a.86.86,0,0,0,.2.15,4.23,4.23,0,0,0,.47.25,5.87,5.87,0,0,0,.85.3A6.86,6.86,0,0,1,98.47,255.72Z"/><path class="cls-11" d="M98.36,255.85a1.43,1.43,0,0,1-.26-.84,3,3,0,0,1,.09-1,3,3,0,0,1,.21-.54.75.75,0,0,1,.55-.46.4.4,0,0,1,.37.24,1.39,1.39,0,0,1,.1.31,2,2,0,0,1,0,.59,2.09,2.09,0,0,1-.35.92c-.33.46-.68.57-.69.54s.26-.21.51-.65a2,2,0,0,0,.25-.83,1.46,1.46,0,0,0,0-.51c0-.18-.1-.33-.17-.31s-.23.14-.3.3a2.22,2.22,0,0,0-.2.48,3.31,3.31,0,0,0-.15.87C98.3,255.52,98.4,255.83,98.36,255.85Z"/><path class="cls-11" d="M59.72,156.4s-6.44,10.77-6.44,17.21l-1.59,78.48,11.15,1.63L70.61,177s17.86,77.69,18.46,77.69S99,253.05,99,253.05l-14.06-96.3Z"/><path class="cls-11" d="M77.71,178.77c0,.08-3.41-.68-7.58-1.69s-7.53-1.91-7.51-2,3.42.68,7.59,1.7S77.73,178.68,77.71,178.77Z"/><path class="cls-7" d="M63.86,175.72s0,.07,0,.2l-.08.58c-.09.52-.2,1.26-.35,2.21-.32,1.92-.76,4.7-1.27,8.14-1,6.87-2.33,16.4-3.42,27S57,234,56.6,240.9c-.19,3.47-.32,6.28-.4,8.22l-.11,2.24,0,.58c0,.13,0,.2,0,.2a.63.63,0,0,1,0-.2v-.58l.05-2.24c0-1.94.15-4.76.31-8.23.33-6.95,1-16.55,2-27.12s2.41-20.08,3.5-27c.54-3.44,1-6.22,1.36-8.13.17-.95.31-1.68.4-2.2l.11-.58C63.84,175.78,63.86,175.72,63.86,175.72Z"/><path class="cls-7" d="M80,177c.07,0,3.18,17.21,6.94,38.46S93.67,254,93.59,254s-3.18-17.21-6.94-38.47S79.91,177,80,177Z"/><path class="cls-14" d="M52.3,112.13a3.3,3.3,0,0,1,.39.48,6.26,6.26,0,0,1,.81,1.47,2.69,2.69,0,0,1,.19,1.17,2.48,2.48,0,0,1-.45,1.29c-.26.4-.6.76-.9,1.15a2.41,2.41,0,0,0-.57,1.34,2.72,2.72,0,0,0,.41,1.41,13.12,13.12,0,0,0,.82,1.19,5.76,5.76,0,0,1,.68,1.16A2.94,2.94,0,0,1,53.9,124a4.15,4.15,0,0,0,.09.92,1.32,1.32,0,0,0,.32.59,1.15,1.15,0,0,0,.52.27.68.68,0,0,1-.59-.19,1.4,1.4,0,0,1-.4-.63,3.45,3.45,0,0,1-.14-1,2.84,2.84,0,0,0-.23-1.08,5.47,5.47,0,0,0-.68-1.1,13.25,13.25,0,0,1-.85-1.2,3,3,0,0,1-.45-1.56,2.65,2.65,0,0,1,.63-1.5c.32-.4.66-.75.91-1.13a2.41,2.41,0,0,0,.28-2.25,7.22,7.22,0,0,0-.71-1.47A2.17,2.17,0,0,1,52.3,112.13Z"/><rect class="cls-7" x="359.21" y="234.86" width="31.18" height="4.28"/><path class="cls-7" d="M390.45,239.2H359.16v-4.39h31.29Zm-31.18-.1h31.07v-4.18H359.27Z"/><polygon class="cls-7" points="362.11 237.72 366.59 259.87 383.2 259.87 387.54 239.15 362.11 237.72"/><polygon class="cls-7" points="362.11 257.77 364.5 261.06 384.68 261.06 387.54 257.77 362.11 257.77"/><path class="cls-7" d="M373.63,238.37c-.06,0-.14-10.26-.17-22.91s0-22.91,0-22.91.14,10.25.18,22.91S373.7,238.37,373.63,238.37Z"/><path class="cls-7" d="M380.58,212.7a1,1,0,0,1-.08.24l-.28.66-.21.48-.2.58c-.08.21-.16.43-.24.67s-.15.49-.23.76a30.83,30.83,0,0,0-.88,3.82c-.22,1.46-.39,3.07-.48,4.77a63.8,63.8,0,0,0,.25,8.72c.1,1.12.2,2,.27,2.64l.08.71a.74.74,0,0,1,0,.26l0-.25-.12-.71c-.1-.62-.23-1.52-.35-2.63a57.27,57.27,0,0,1-.31-8.75,41.75,41.75,0,0,1,.5-4.79,28.93,28.93,0,0,1,.93-3.84c.08-.26.15-.52.24-.76l.26-.66.23-.58c.07-.18.15-.33.22-.47l.32-.65A.85.85,0,0,1,380.58,212.7Z"/><path class="cls-7" d="M379.78,204.4a1.2,1.2,0,0,1-.1.34l-.32.95-.24.69-.25.83c-.18.59-.39,1.27-.58,2-.1.38-.21.77-.32,1.18s-.19.85-.29,1.3c-.22.89-.37,1.86-.57,2.88-.35,2-.65,4.29-.86,6.66s-.28,4.65-.31,6.72,0,3.93.1,5.49c0,.78.08,1.49.12,2.11s.08,1.15.12,1.59.05.75.07,1a1.33,1.33,0,0,1,0,.35s0-.12-.05-.35-.07-.58-.12-1-.1-1-.15-1.59-.12-1.32-.15-2.1c-.11-1.57-.15-3.43-.16-5.5s.1-4.35.3-6.74.52-4.64.88-6.68c.2-1,.37-2,.59-2.88.11-.45.21-.88.31-1.3s.22-.81.33-1.18c.19-.76.42-1.44.61-2,.1-.29.19-.57.27-.82s.18-.48.26-.68l.36-.95Z"/><path class="cls-7" d="M371.66,240.18a1.13,1.13,0,0,1,0-.12l0-.35c0-.33-.05-.78-.09-1.36-.07-1.19-.18-2.9-.31-5-.27-4.22-.66-10.05-1.37-16.46-.36-3.2-.78-6.25-1.22-9-.23-1.38-.45-2.69-.68-3.91s-.46-2.36-.68-3.39-.43-2-.62-2.78-.35-1.52-.5-2.1l-.32-1.32-.08-.34a.56.56,0,0,1,0-.12s0,0,0,.11l.1.34.37,1.31c.16.57.34,1.27.54,2.09s.43,1.74.65,2.78.47,2.16.7,3.38.46,2.53.7,3.91c.45,2.76.88,5.81,1.24,9,.71,6.41,1.08,12.25,1.31,16.47.11,2.11.19,3.82.24,5,0,.58,0,1,.05,1.36,0,.14,0,.26,0,.35S371.67,240.18,371.66,240.18Z"/><path class="cls-11" d="M373.38,197.48a3.08,3.08,0,0,0-3.06-2.56,4.84,4.84,0,0,0-3.72,2,11.59,11.59,0,0,0-1.78,4,26.82,26.82,0,0,0-1.1,10.56,15.93,15.93,0,0,0,4.39,9.51,1.38,1.38,0,0,0,2.31.2,23.59,23.59,0,0,0,7.67-18,7.35,7.35,0,0,0-1-3.87c-.75-1.12-2.48-2.31-3.75-1.86"/><path class="cls-13" d="M362.48,185.84l-2.05,3.72c-.05.09-.12.19-.21.19s-.19-.09-.25-.18l-5.44-8.34,1.26-.71Z"/><path class="cls-11" d="M373.5,192.55,355,181.61c-.19-.11-.4-.24-.45-.46s.13-.54.33-.74a12.76,12.76,0,0,1,9.9-3.89,11.3,11.3,0,0,1,9,5.57,10.19,10.19,0,0,1-.21,10.46"/><path class="cls-7" d="M357.64,178.12a.75.75,0,0,1,.24,0c.16,0,.4,0,.7,0a14.34,14.34,0,0,1,2.57.21,14.73,14.73,0,0,1,3.67,1.11,15.49,15.49,0,0,1,3.93,2.55,15.23,15.23,0,0,1,4.4,7.19,13.29,13.29,0,0,1,.46,2.54c0,.31,0,.54,0,.7a1,1,0,0,1,0,.25s0-.34-.11-.94a17.24,17.24,0,0,0-.53-2.5,15.37,15.37,0,0,0-4.4-7.07,15.58,15.58,0,0,0-7.47-3.68,15.32,15.32,0,0,0-2.55-.27C358,178.13,357.64,178.14,357.64,178.12Z"/><path class="cls-7" d="M371,185a4.51,4.51,0,0,1-.94.42c-.59.24-1.42.53-2.34.83s-1.77.52-2.39.67a4,4,0,0,1-1,.2,5,5,0,0,1,1-.35l2.36-.73,2.36-.76A4.44,4.44,0,0,1,371,185Z"/><path class="cls-7" d="M368.08,177.16a7.85,7.85,0,0,1,.22,2.06,7.74,7.74,0,0,1-.12,2.08,13.18,13.18,0,0,1-.11-2.07A12.43,12.43,0,0,1,368.08,177.16Z"/><path class="cls-7" d="M354.8,181.4a9.17,9.17,0,0,1,1.35-.47c.84-.26,2-.59,3.32-.91s2.51-.55,3.37-.7a8,8,0,0,1,1.42-.2,8.46,8.46,0,0,1-1.38.35c-.86.19-2.05.46-3.35.77s-2.48.62-3.34.84A9.71,9.71,0,0,1,354.8,181.4Z"/><path class="cls-11" d="M365,194a7.6,7.6,0,0,0-5.28-1.37,16.2,16.2,0,0,0-5.78,1.49,17.74,17.74,0,0,0-7.93,6.25,10.4,10.4,0,0,0-1.12,9.75,1.42,1.42,0,0,0,.63.77,1.53,1.53,0,0,0,1-.08,59.21,59.21,0,0,0,10.4-4.15,19.6,19.6,0,0,0,8-7.65,6.58,6.58,0,0,0,.84-2.53A3.17,3.17,0,0,0,365,194"/><path class="cls-7" d="M365,193.67l-.26.1L364,194l-.54.18-.63.24c-.45.18-1,.36-1.52.63l-.88.4c-.3.14-.6.31-.92.47-.64.32-1.3.72-2,1.13a31.79,31.79,0,0,0-7.84,6.9c-.5.64-1,1.24-1.38,1.83-.2.3-.41.58-.59.86l-.5.81c-.34.52-.58,1-.82,1.43-.12.22-.23.41-.32.6l-.25.51-.35.71a1,1,0,0,1-.14.24,1.81,1.81,0,0,1,.1-.26l.31-.73.23-.52c.09-.19.2-.39.31-.6.23-.43.47-.94.79-1.46l.5-.82c.17-.29.38-.57.58-.87.39-.61.87-1.21,1.37-1.85a32.14,32.14,0,0,1,3.64-3.82,33.88,33.88,0,0,1,4.25-3.13c.7-.41,1.36-.81,2-1.12.32-.16.62-.33.93-.47l.88-.38c.56-.26,1.09-.43,1.54-.61l.64-.22.55-.17.76-.21A.91.91,0,0,1,365,193.67Z"/><path class="cls-7" d="M352.53,200.41a36.48,36.48,0,0,1-3.88,1.25c-2.16.63-3.92,1.09-3.94,1a37.45,37.45,0,0,1,3.88-1.25A35.78,35.78,0,0,1,352.53,200.41Z"/><path class="cls-7" d="M352.37,209a6.5,6.5,0,0,1-.08-1.21c0-.75,0-1.78,0-2.92s.09-2.17.15-2.92a6.23,6.23,0,0,1,.15-1.2,6.89,6.89,0,0,1,0,1.21c0,.82-.06,1.82-.09,2.92s0,2.09-.08,2.91A7.23,7.23,0,0,1,352.37,209Z"/><path class="cls-7" d="M359.7,205.23c-.06,0-.25-2.09-.43-4.68a45.75,45.75,0,0,1-.21-4.71c.06,0,.25,2.1.43,4.69A45.6,45.6,0,0,1,359.7,205.23Z"/><path class="cls-7" d="M350.58,195.64a7.36,7.36,0,0,1,1.24,0c.77,0,1.83,0,3,.07s2.23.09,3,.13a7.46,7.46,0,0,1,1.23.12,7.36,7.36,0,0,1-1.24,0c-.76,0-1.82,0-3-.07s-2.23-.08-3-.13A7.46,7.46,0,0,1,350.58,195.64Z"/><path class="cls-7" d="M368.9,222s0-.08,0-.25,0-.43,0-.73c0-.63,0-1.55,0-2.68s.1-2.48.23-4,.36-3.13.66-4.83.67-3.31,1-4.76.79-2.74,1.16-3.8.69-1.93.93-2.52l.29-.67a.88.88,0,0,1,.11-.23,1.17,1.17,0,0,1-.07.25c-.07.18-.15.4-.25.68-.21.6-.51,1.46-.86,2.53s-.73,2.37-1.11,3.81-.73,3-1,4.75-.52,3.32-.67,4.81-.24,2.83-.28,3.95-.06,2.05-.06,2.68v.73A.67.67,0,0,1,368.9,222Z"/><path class="cls-7" d="M369.88,209.32a4.65,4.65,0,0,1-.74.82c-.48.47-1.16,1.12-1.93,1.8s-1.51,1.27-2,1.68a4.92,4.92,0,0,1-.91.63,6.2,6.2,0,0,1,.81-.75l2-1.73,2-1.75A5.86,5.86,0,0,1,369.88,209.32Z"/><path class="cls-7" d="M375.75,214.05A7.86,7.86,0,0,1,375,213c-.5-.74-1.13-1.66-1.83-2.67l-1.87-2.65a9.92,9.92,0,0,1-.75-1.12,7,7,0,0,1,.88,1c.51.65,1.2,1.57,1.92,2.61s1.35,2,1.78,2.71A7,7,0,0,1,375.75,214.05Z"/><path class="cls-7" d="M372.68,199.19c0,.05-1.92,1.36-4.36,2.93s-4.44,2.79-4.47,2.74,1.92-1.36,4.35-2.93S372.64,199.13,372.68,199.19Z"/><path class="cls-7" d="M378.17,205.12a73.56,73.56,0,0,1-5.74-5.61s1.36,1.18,2.95,2.72A34.13,34.13,0,0,1,378.17,205.12Z"/><path class="cls-11" d="M379.55,205l1.68-.14a8.37,8.37,0,0,0,3.38-1,13.63,13.63,0,0,1,1.57-.8c2.07-.83,4.38-.68,6.61-.79a27.35,27.35,0,0,0,10.5-2.68,1.1,1.1,0,0,0,.46-.42c.34-.63-.3-1.18-.85-1.52a34.25,34.25,0,0,0-8.88-4.36c-3.2-.86-6.83-.72-9.56,1.16-3.2,2.2-4.36,6.73-4.91,10.58"/><path class="cls-7" d="M403.79,198.93a.86.86,0,0,1-.29-.13l-.79-.41c-.69-.37-1.68-.9-2.93-1.5a28.29,28.29,0,0,0-4.53-1.75,14.93,14.93,0,0,0-5.88-.47A10,10,0,0,0,384,197a11.79,11.79,0,0,0-2.79,3.92,30.64,30.64,0,0,0-1.21,3.05l-.3.84a1.48,1.48,0,0,1-.12.29,1.32,1.32,0,0,1,.08-.3c.06-.22.15-.5.25-.86a27,27,0,0,1,1.16-3.09,11.79,11.79,0,0,1,2.79-4,10.24,10.24,0,0,1,5.47-2.36,14.72,14.72,0,0,1,6,.5,26.78,26.78,0,0,1,4.55,1.8c1.25.62,2.23,1.18,2.9,1.56l.77.45Z"/><path class="cls-7" d="M399.77,201.09s-2.23-1.36-4.89-3.16-4.8-3.29-4.76-3.34,2.22,1.36,4.88,3.16S399.8,201,399.77,201.09Z"/><path class="cls-7" d="M397.67,194.38a5.65,5.65,0,0,1-1.71.34,5.15,5.15,0,0,1-1.75,0,11.62,11.62,0,0,1,1.73-.19A8.79,8.79,0,0,1,397.67,194.38Z"/><path class="cls-7" d="M387.85,192.62a5.6,5.6,0,0,1-.72,1.43,5.73,5.73,0,0,1-.9,1.33,5.34,5.34,0,0,1,.71-1.44A6,6,0,0,1,387.85,192.62Z"/><path class="cls-7" d="M389.81,202.38a5.8,5.8,0,0,1-1.05-.57c-.63-.38-1.49-.94-2.4-1.61s-1.72-1.29-2.3-1.75a6.1,6.1,0,0,1-.9-.78,7.44,7.44,0,0,1,1,.66l2.33,1.69c.91.66,1.75,1.24,2.36,1.66A7.4,7.4,0,0,1,389.81,202.38Z"/><path class="cls-11" d="M382,212.11c-1.6-.42-3.5,1.13-3.83,2.75a7.75,7.75,0,0,0,1,4.76,24.15,24.15,0,0,0,6.6,8.63A16.31,16.31,0,0,0,395.87,232c-.67-3.13.18-6.41-.2-9.59a12.48,12.48,0,0,0-11.05-10.94c-1-.11-2.19-.27-2.6.67"/><path class="cls-7" d="M395.87,232l-.23-.11a3.21,3.21,0,0,1-.59-.4,6.23,6.23,0,0,1-1.58-2.1c-.25-.5-.54-1-.82-1.63l-.85-1.9a19.82,19.82,0,0,0-1.06-2,16.3,16.3,0,0,0-1.45-2c-1.09-1.28-2.27-2.39-3.28-3.46a22.9,22.9,0,0,1-2.51-3,11.54,11.54,0,0,1-1.22-2.33q-.15-.45-.21-.69a.91.91,0,0,1-.05-.24s.11.32.34.9a12.71,12.71,0,0,0,1.27,2.27,24.47,24.47,0,0,0,2.52,2.95c1,1.05,2.2,2.16,3.31,3.46a15.31,15.31,0,0,1,1.47,2,18.22,18.22,0,0,1,1.05,2.06l.84,1.9c.27.59.55,1.14.79,1.63a6.57,6.57,0,0,0,1.49,2.12C395.57,231.8,395.88,232,395.87,232Z"/><path class="cls-7" d="M387.62,229.36a4.82,4.82,0,0,1,.14-1.07c.13-.66.33-1.56.61-2.54s.57-1.86.81-2.49a4.85,4.85,0,0,1,.44-1,5.6,5.6,0,0,1-.29,1c-.2.64-.47,1.52-.75,2.5s-.5,1.87-.66,2.51A6.33,6.33,0,0,1,387.62,229.36Z"/><path class="cls-7" d="M395.57,221.67a6.79,6.79,0,0,1-1.13-.26c-.68-.18-1.63-.42-2.69-.66s-2-.42-2.72-.56a6.71,6.71,0,0,1-1.12-.24,5.42,5.42,0,0,1,1.15.09c.7.09,1.68.25,2.74.49s2,.51,2.69.73A5.22,5.22,0,0,1,395.57,221.67Z"/><path class="cls-7" d="M381.7,223.91a6.34,6.34,0,0,1,.17-1.25c.14-.76.36-1.81.66-2.95s.62-2.17.87-2.9a6.86,6.86,0,0,1,.45-1.17,7.35,7.35,0,0,1-.3,1.22c-.21.74-.51,1.77-.81,2.91s-.54,2.17-.72,2.93A8.85,8.85,0,0,1,381.7,223.91Z"/><path class="cls-7" d="M391.91,215c0,.06-2-.1-4.45-.36S383,214.09,383,214s2,.1,4.45.36S391.91,214.91,391.91,215Z"/><path class="cls-14" d="M390.45,239.13c0,.06-7,.11-15.64.11s-15.65-.05-15.65-.11,7-.11,15.65-.11S390.45,239.07,390.45,239.13Z"/><path class="cls-14" d="M385.57,248.14c0,.07-4.71.11-10.53.11s-10.54,0-10.54-.11S369.21,248,375,248,385.57,248.08,385.57,248.14Z"/><path class="cls-14" d="M385.76,249.43c0,.06-4.72.11-10.54.11s-10.54,0-10.54-.11,4.72-.11,10.54-.11S385.76,249.37,385.76,249.43Z"/><path class="cls-14" d="M385.76,247.08c0,.06-4.88.11-10.9.11s-10.9-.05-10.9-.11,4.88-.11,10.9-.11S385.76,247,385.76,247.08Z"/></svg>