<svg id="Background_Simple" data-name="Background Simple" xmlns="http://www.w3.org/2000/svg" viewBox="0 0 358.97 358.97"><defs><style>.cls-1{fill:#dedede;}.cls-2{fill:#f4f4f4;}.cls-3{fill:#fff;}.cls-4{fill:#2e353a;}.cls-5{fill:#db7e1e;}.cls-6{fill:#edbc9c;}.cls-7{fill:#d69770;}.cls-8{opacity:0.3;}.cls-9{fill:#f9f9f9;}.cls-10{fill:#4d5a64;}.cls-11{fill:#a98676;}.cls-12{fill:#715245;}.cls-13{opacity:0.6;}</style></defs><title>img1</title><g id="freepik--background-complete--inject-2"><rect class="cls-1" x="226.57" y="83.66" width="39.31" height="56.98"/><rect class="cls-2" x="224.6" y="83.66" width="39.31" height="56.98"/><rect class="cls-3" x="229.48" y="89.83" width="29.55" height="44.64"/><path class="cls-1" d="M259,134.47V122c0-7.84,0-19,0-32.14l.1.1H229.53l.11-.11v44.63l-.09-.08h-.19V89.54h29.75v.1c0,13.16,0,24.3,0,32.21v12.23A1.74,1.74,0,0,1,259,134.47Z"/><path class="cls-1" d="M264,83.66a6.36,6.36,0,0,1-.7,1c-.45.6-1.1,1.44-1.84,2.35s-1.43,1.7-1.94,2.26a8.14,8.14,0,0,1-.87.89,7.46,7.46,0,0,1,.78-1l1.9-2.3,1.89-2.3A7,7,0,0,1,264,83.66Z"/><path class="cls-3" d="M259.18,134.33a36.73,36.73,0,0,0,5.16,6.44"/><path class="cls-1" d="M264.34,140.77a5.68,5.68,0,0,1-.91-.78,29,29,0,0,1-1.94-2.2,28.18,28.18,0,0,1-1.71-2.35,5.55,5.55,0,0,1-.6-1.06,7.69,7.69,0,0,1,.73,1c.43.61,1,1.45,1.74,2.36s1.4,1.66,1.89,2.22A7.94,7.94,0,0,1,264.34,140.77Z"/><path class="cls-3" d="M224.6,140.6l5.14-6.35"/><path class="cls-1" d="M229.74,134.25c-.77,1.12-1.6,2.2-2.48,3.24-1.43,1.75-2.62,3.13-2.66,3.13a39.09,39.09,0,0,1,2.48-3.24C227.92,136.29,228.8,135.25,229.74,134.25Z"/><path class="cls-1" d="M224.6,83.66a35.65,35.65,0,0,1,2.5,3,37.57,37.57,0,0,1,2.35,3.13,34,34,0,0,1-2.5-3A34.21,34.21,0,0,1,224.6,83.66Z"/><rect class="cls-1" x="239.93" y="98.89" width="9.89" height="28.09"/><path class="cls-2" d="M187.68,243.09a14,14,0,0,0-8.23,7.24,24.76,24.76,0,0,0-2.35,10.91c-.09,7.27,3.05,15,6.7,21.29,6.71-4.5,9.26-13.5,10.27-18.15,1.57-7.35,0-21.59-6.38-21.29"/><path class="cls-2" d="M175.29,293.48a11.93,11.93,0,0,0-2.4-11.76,15.81,15.81,0,0,0-11.13-5.1c-1.94-.1-4.08.2-5.38,1.64a5.08,5.08,0,0,0-.73,5.12A10.25,10.25,0,0,0,159,287.6c4.81,3.92,10.19,6.88,16.32,5.86"/><path class="cls-1" d="M180.32,310.94a24.1,24.1,0,0,0-.22-4.8,22.48,22.48,0,0,0-1.2-5.11,48.38,48.38,0,0,0-2.4-5.93,23.87,23.87,0,0,0-7.46-8.89,18,18,0,0,0-3.14-1.7,3.83,3.83,0,0,0-1.25-.36c-.06.13,1.69.78,4,2.52a25.67,25.67,0,0,1,7.05,8.8,57.84,57.84,0,0,1,2.42,5.81,24.9,24.9,0,0,1,1.34,4.94A35.8,35.8,0,0,0,180.32,310.94Z"/><path class="cls-1" d="M187.93,254.07a13.59,13.59,0,0,0-.55,2.35c-.3,1.57-.7,3.76-1.17,6.51-1,5.49-2.16,13.13-3.31,21.58s-2,16.12-2.42,21.7c-.23,2.78-.4,5-.49,6.59a13.16,13.16,0,0,0,0,2.43,13.91,13.91,0,0,0,.36-2.4c.19-1.7.44-3.92.78-6.57.62-5.55,1.52-13.21,2.66-21.64s2.26-15.93,3.06-21.6c.38-2.65.69-4.86.92-6.54A14,14,0,0,0,187.93,254.07Z"/><path class="cls-2" d="M184,297.38a27.94,27.94,0,0,1,20.06-15.76c2.21-.4,4.94-.33,6.15,1.57s.15,4.42-1.19,6.27A23.85,23.85,0,0,1,184,298"/><path class="cls-1" d="M201,287.46a3.83,3.83,0,0,0-1.25.27c-.78.22-1.92.6-3.29,1.11a31.31,31.31,0,0,0-9.89,5.84,19.67,19.67,0,0,0-3.92,5,18.91,18.91,0,0,0-1.8,4.89,19.15,19.15,0,0,0-.43,3.46,3.44,3.44,0,0,0,0,1.28c.16,0,.22-1.81.95-4.6a19.55,19.55,0,0,1,5.72-9.45,35.49,35.49,0,0,1,9.57-5.89A35.58,35.58,0,0,0,201,287.46Z"/><path class="cls-2" d="M337.09,105.72s-8.22-2.42-11.54,16.46S322,151.47,322,151.47s-1.15,4.1-4.19,2.58-8.21-6.88-11.86-4.51-3.73,7.5-.85,14.06,8.62,21.16,9.16,22.48.34,3.49-1.89,2.79-16.47-9.27-20.15-2.22,7.34,24,8.51,25.87,1,2.87.21,3.67-5.33-2.53-9.48-4.81-9.37-4.17-11.14,0,1.57,18.44,21.81,37l9.92,8L324,252c25.14-11,32.92-23.39,32.63-28s-5.87-4.48-10.53-3.7-10,2.5-10.54,1.47-.31-2,1.41-3.4,17.62-13.87,16.42-21.69-17.46-4.31-19.8-4.37-1.78-2.19-.89-3.25,11.11-13,15.95-18.3,6.53-10,3.75-13.58-9.31,0-12.67.42-3.14-3.79-3.14-3.79,3.14-9.93,6.09-28.88-5.8-19.28-5.8-19.28"/><path class="cls-1" d="M334.09,122.65a3.09,3.09,0,0,1,0,.4l-.17,1.16c-.15,1.05-.38,2.56-.66,4.49-.59,3.92-1.48,9.53-2.6,16.46-2.24,13.91-5.48,33.1-9.16,54.29s-7,40.38-9.29,54.27c-1.15,6.94-2.09,12.55-2.73,16.47-.32,1.92-.57,3.43-.78,4.47-.09.5-.15.88-.21,1.16s-.08.39-.08.39a3.09,3.09,0,0,1,0-.4c0-.26.1-.66.16-1.16.16-1,.39-2.56.67-4.49.59-3.92,1.47-9.53,2.59-16.46,2.24-13.91,5.49-33.11,9.17-54.3s7-40.36,9.36-54.29c1.14-6.94,2.07-12.55,2.72-16.47l.75-4.47L334,123A2.25,2.25,0,0,1,334.09,122.65Z"/><path class="cls-1" d="M312.84,157.35a4,4,0,0,1,.57.73c.34.48.78,1.2,1.39,2.08,1.16,1.78,2.68,4.28,4.31,7.06l4.15,7.16,1.26,2.15a3,3,0,0,1,.43.79,4.09,4.09,0,0,1-.57-.73c-.33-.48-.78-1.19-1.38-2.09-1.13-1.79-2.63-4.31-4.26-7.09l-4.2-7.13-1.27-2.15A3.3,3.3,0,0,1,312.84,157.35Z"/><path class="cls-1" d="M326.15,177.25c-.07-.11,4.94-3.48,11.18-7.55s11.35-7.27,11.42-7.18-4.94,3.48-11.18,7.54S326.21,177.33,326.15,177.25Z"/><path class="cls-1" d="M319,209.51a4.12,4.12,0,0,1,.89-.32l2.45-.74c2.06-.64,4.91-1.52,8-2.61s5.89-2.15,7.9-2.94l2.36-.93a3.53,3.53,0,0,1,.9-.3,4.44,4.44,0,0,1-.83.45c-.55.27-1.34.63-2.35,1.07-2,.86-4.75,2-7.84,3.06s-6,1.93-8.08,2.49c-1,.27-1.89.48-2.49.61A3.63,3.63,0,0,1,319,209.51Z"/><path class="cls-1" d="M303.05,194.18a3.61,3.61,0,0,1,.69.53c.43.36,1,.89,1.77,1.57,1.49,1.34,3.52,3.2,5.75,5.28s4.23,4,5.66,5.38c.71.69,1.29,1.26,1.68,1.66a5.09,5.09,0,0,1,.58.65,3,3,0,0,1-.69-.52c-.43-.36-1-.9-1.78-1.57-1.48-1.33-3.52-3.2-5.75-5.28s-4.22-4-5.65-5.37c-.72-.7-1.29-1.27-1.69-1.67A4,4,0,0,1,303.05,194.18Z"/><path class="cls-1" d="M293.16,221.88a5.35,5.35,0,0,1,.88.69l2.28,2c1.91,1.7,4.53,4.07,7.41,6.71s5.49,5.05,7.33,6.8l2.19,2.11a5.29,5.29,0,0,1,.79.78,5.35,5.35,0,0,1-.88-.69l-2.28-2c-1.92-1.7-4.54-4.08-7.42-6.71s-5.49-5-7.32-6.8l-2.21-2.06A5.49,5.49,0,0,1,293.16,221.88Z"/><path class="cls-1" d="M313.64,240.4a6.53,6.53,0,0,1,1.11-.43l3.07-1.06c2.59-.9,6.16-2.14,10.07-3.62s7.42-2.91,9.94-4l3-1.25a6.25,6.25,0,0,1,1.12-.41,5.34,5.34,0,0,1-1,.57c-.69.33-1.7.78-3,1.36-2.5,1.13-6,2.6-9.92,4.09s-7.51,2.7-10.12,3.48c-1.31.41-2.36.73-3.14.93A5.63,5.63,0,0,1,313.64,240.4Z"/><path class="cls-2" d="M61.35,273.16c18.1-10.34,24-32,25.08-51.92.19-3.33.87-6.77-.43-9.82s-4.8-5.37-7.89-4.25c-2.56.93-3.92,3.69-5.49,5.93a19.39,19.39,0,0,1-8.44,6.7c-2.21.91-4.88,1.33-6.85,0C54.62,218,54.64,214,55,210.7q.93-9.21,1.79-18.4c.32-3.29.64-6.65-.09-9.87s-2.74-6.33-5.79-7.49-7.09.28-8,3.45a30.87,30.87,0,0,0-.46,4.08c-.21,1.36-1,2.82-2.35,3.08s-2.58-.78-3.48-1.84c-3.13-3.63-5-8.13-6.77-12.59s-3.46-9-6.21-12.91-6.75-7.16-11.43-7.84-10,1.76-11.6,6.27.65,9.49,3.25,13.52a74.56,74.56,0,0,0,14,16,6.41,6.41,0,0,1,2.35,3c.51,2.26-1.77,4.25-4,4.77-2.53.59-5.17.09-7.76.16s-5.48.94-6.67,3.28c-1.66,3.24.83,7.06,3.39,9.59a63,63,0,0,0,17.65,12.46c2.35,1.1,4.81,2.11,6.6,4s2.71,4.94,1.32,7.15-4.49,2.68-7,2-4.64-2.29-7-3.42C12.37,227,6.5,226.72,3.25,230.36c-2.14,2.4-2.64,6-2,9.11a24.69,24.69,0,0,0,4.25,8.63,63.48,63.48,0,0,0,25.28,21.47C41,274.17,50.61,276,61.4,273.19"/><path class="cls-1" d="M60.27,287.88a146.56,146.56,0,0,0-2.89-27.63,297.56,297.56,0,0,0-8.81-32.83l-2.77-8.48c-.91-2.78-1.81-5.54-2.86-8.19A145,145,0,0,0,36,195.89c-2.42-4.61-4.88-8.91-7.21-12.91s-4.61-7.68-6.8-11A117.57,117.57,0,0,0,10.52,157.4C9,155.78,7.84,154.57,7,153.75l-.94-.92c-.11-.1-.22-.2-.34-.29a2.28,2.28,0,0,0,.29.33l.9,1c.78.84,2,2.08,3.42,3.72a125.18,125.18,0,0,1,11.33,14.72c2.17,3.27,4.39,7,6.71,11s4.77,8.31,7.17,12.92A152.06,152.06,0,0,1,42.42,211c1,2.64,1.93,5.37,2.83,8.16s1.82,5.62,2.75,8.49a305.84,305.84,0,0,1,8.83,32.74,148.81,148.81,0,0,1,3,27.52"/><path class="cls-1" d="M42.79,210.71a5.67,5.67,0,0,0,.46-1.37c.26-.89.58-2.2,1-3.82.79-3.24,1.67-7.74,2.65-12.71s2-9.44,2.76-12.66c.4-1.56.74-2.9,1-3.8a6.83,6.83,0,0,0,.31-1.41,6.26,6.26,0,0,0-.54,1.34c-.31.88-.72,2.16-1.17,3.76-.93,3.19-2,7.68-2.94,12.66l-2.48,12.77c-.31,1.52-.56,2.82-.78,3.85A7.32,7.32,0,0,0,42.79,210.71Z"/><path class="cls-1" d="M1.2,198.93a10.54,10.54,0,0,0,1.67.35c1.08.2,2.64.47,4.55.88,3.85.78,9.11,2,14.85,3.66s10.88,3.36,14.57,4.7c1.84.66,3.32,1.23,4.34,1.63a9.27,9.27,0,0,0,1.61.55,8.38,8.38,0,0,0-1.52-.78c-1-.46-2.45-1.1-4.28-1.81-3.66-1.46-8.78-3.24-14.55-4.89A147.21,147.21,0,0,0,7.5,199.71c-1.93-.34-3.5-.55-4.59-.68A8.19,8.19,0,0,0,1.2,198.93Z"/><path class="cls-1" d="M56.92,259.43a2,2,0,0,0,.34-.49l.87-1.47c.78-1.27,1.77-3.13,3-5.49,2.48-4.65,5.72-11.2,9.19-18.47s6.63-13.85,9-18.55l2.84-5.57.78-1.52a2.45,2.45,0,0,0,.23-.55,2,2,0,0,0-.34.49L82,209.28c-.75,1.27-1.77,3.13-3,5.48-2.49,4.67-5.72,11.21-9.19,18.49s-6.63,13.83-9,18.55l-2.85,5.56-.78,1.52A2.21,2.21,0,0,0,56.92,259.43Z"/><path class="cls-1" d="M2.34,236.15a2.19,2.19,0,0,0,.55.28l1.56.7,5.84,2.51c4.94,2.11,11.76,5.11,19.21,8.43s14.3,6.27,19.28,8.28c2.49,1,4.51,1.8,5.92,2.35l1.62.6a3.14,3.14,0,0,0,.58.16,2.07,2.07,0,0,0-.53-.28l-1.57-.7L48.93,256c-4.94-2.12-11.76-5.12-19.2-8.44s-14.31-6.27-19.29-8.28c-2.48-1-4.51-1.8-5.92-2.35l-1.62-.59A2.09,2.09,0,0,0,2.34,236.15Z"/><polygon class="cls-1" points="117.01 36.69 117.01 101.39 24.08 101.39 20.73 37.15 117.01 36.69"/><rect class="cls-3" x="20.73" y="37.15" width="92.92" height="64.11"/><path class="cls-1" d="M114.1,101.7H20.29v-65H114.1Zm-92.93-.89h92V37.58h-92Z"/><rect class="cls-3" x="30.79" y="45.11" width="72.79" height="48.18"/><path class="cls-1" d="M103.59,45.11H98.24l-15,0-52.41.11.21-.22V93.23h0L30.81,93l72.8,0-.19.18c0-14.66.08-26.65.1-35,0-4.19,0-7.46,0-9.7v-.07c0,2.22,0,5.49.05,9.65,0,8.39,0,20.46.09,35.16v.19h-.18l-72.8,0H30.5v-.24h0V44.84h.21L83.23,45l15,.06h4.93Z"/><path class="cls-1" d="M20.71,37a8.73,8.73,0,0,1,1.57,1c1,.69,2.25,1.66,3.64,2.78s2.63,2.17,3.5,3a7.45,7.45,0,0,1,1.33,1.36,56.79,56.79,0,0,1-5.12-4A59,59,0,0,1,20.71,37Z"/><path class="cls-1" d="M113.66,37.15a45.14,45.14,0,0,1-4.89,4.16,43.88,43.88,0,0,1-5.18,3.8A46.44,46.44,0,0,1,108.51,41,43.55,43.55,0,0,1,113.66,37.15Z"/><path class="cls-3" d="M113.58,101.27l-10.35-8.4"/><path class="cls-1" d="M103.23,92.87a50.47,50.47,0,0,1,5.32,4,46.56,46.56,0,0,1,5,4.38,49.46,49.46,0,0,1-5.32-4A43.42,43.42,0,0,1,103.23,92.87Z"/><path class="cls-1" d="M20.71,101.26a43.27,43.27,0,0,1,4.85-4.12,44.11,44.11,0,0,1,5.12-3.77,45.29,45.29,0,0,1-4.84,4.13A45,45,0,0,1,20.71,101.26Z"/><rect class="cls-1" x="45.58" y="60.13" width="45.8" height="16.13"/><rect class="cls-1" x="281.89" y="21.65" width="49.68" height="72.02"/><rect class="cls-2" x="279.41" y="21.65" width="49.68" height="72.02"/><rect class="cls-3" x="285.58" y="29.45" width="37.34" height="56.42"/><path class="cls-1" d="M322.92,85.87V70.1c0-9.95,0-24-.06-40.63l.13.13H285.58l.14-.14V85.9l-.11-.11,27.18.07h.07l-27.25,0h-.1V29.32h37.63v.13c0,16.62,0,30.73-.06,40.71,0,5,0,8.89,0,11.59V85.6A.62.62,0,0,0,322.92,85.87Z"/><path class="cls-1" d="M329.24,21.65a8.21,8.21,0,0,1-.89,1.29c-.58.78-1.4,1.83-2.35,3s-1.81,2.14-2.46,2.86a9.36,9.36,0,0,1-1.07,1.11,9.48,9.48,0,0,1,.95-1.24l2.39-2.9,2.39-2.91A9.57,9.57,0,0,1,329.24,21.65Z"/><path class="cls-3" d="M323.11,85.69a46.93,46.93,0,0,0,6.52,8.15"/><path class="cls-1" d="M329.63,93.84a7,7,0,0,1-1.14-1A33.41,33.41,0,0,1,326,90c-.77-1-1.49-2-2.16-3a7.8,7.8,0,0,1-.78-1.34,10.94,10.94,0,0,1,.92,1.23c.55.79,1.31,1.82,2.21,2.94S328,92,328.61,92.67A9.5,9.5,0,0,1,329.63,93.84Z"/><path class="cls-3" d="M279.4,93.62l6.51-8"/><path class="cls-1" d="M285.91,85.59a47.84,47.84,0,0,1-3.14,4.1c-1.8,2.21-3.31,4-3.36,3.92a47.84,47.84,0,0,1,3.14-4.1A50,50,0,0,1,285.91,85.59Z"/><path class="cls-1" d="M279.4,21.65q1.67,1.82,3.14,3.78t2.95,3.92a42,42,0,0,1-3.14-3.78A45.1,45.1,0,0,1,279.4,21.65Z"/><rect class="cls-1" x="298.79" y="40.91" width="12.5" height="35.5"/></g><g id="freepik--Floor--inject-2"><path class="cls-4" d="M342.06,315.21c0,.12-76.37.21-170.54.21S1,315.36,1,315.21s76.35-.2,170.56-.2S342.06,315.14,342.06,315.21Z"/></g><g id="freepik--character-2--inject-2"><path class="cls-4" d="M246.24,179.6a13.54,13.54,0,0,1-4,13.25c-2.4,2.11-5.49,3.33-7.69,5.66A11.94,11.94,0,0,0,232.13,210a15.22,15.22,0,0,0,8,8.89,17.8,17.8,0,0,0,16.15-.55c6.06-3.42,9.59-10.3,10.48-17.21s-.51-13.89-2.35-20.61"/><path class="cls-4" d="M322.67,301.38c6.27-1,12.15.88,18.36,2.26a11.05,11.05,0,0,0,5.08.27,7.31,7.31,0,0,0,5-6.05,9.87,9.87,0,0,0-1.57-6.87,6.56,6.56,0,0,0-2.15-2.14,7.42,7.42,0,0,0-3-.78,21.3,21.3,0,0,0-11.05,2.08,32.75,32.75,0,0,0-9.17,6.65c-1.32,1.32-.93,2.83-1.51,4.6"/><path class="cls-4" d="M195.52,200.16a48.8,48.8,0,0,1,.36-18,23.69,23.69,0,0,1,3.14-8.19,5.28,5.28,0,0,1,2.3-2.16,4,4,0,0,1,4.08,1,6.79,6.79,0,0,1,1.88,5.28,16.83,16.83,0,0,1-1.39,5.58c-2.43,6.19-6.27,11.34-10.39,16.54"/><path class="cls-5" d="M317,222.82c1.42,1,32.92,68.88,32.92,68.88h0a13.33,13.33,0,0,0-8-.79l-1.71.46a28.29,28.29,0,0,0-8.58,3.92l-9,6.08h0a2.57,2.57,0,0,1-1.27-2v-.26L296.93,257.2Z"/><path class="cls-6" d="M198.73,114.78l8.4,47.77c2.71,6.43,34.24,45.37,34.24,45.37L231,241.42l-41.42-56.63a21.69,21.69,0,0,1-5.84-15.2l1.62-51Z"/><path class="cls-5" d="M243.45,200.43l21.63,1.64L283.94,205S317,213.69,317,217.31c0,1.21-9,30-14.11,47.2a119,119,0,0,0-3,12.73l17.15,38H235.64V280.4s-5.49-45.73-4.53-52S243.45,200.43,243.45,200.43Z"/><path class="cls-7" d="M188.47,95.48A95.42,95.42,0,0,1,190,81c.12-.68.4-1.5,1.08-1.57.85-.11,1.28,1,1.39,1.83a51,51,0,0,1-.72,17.33"/><path class="cls-5" d="M198.11,196.62c9.28-8.29,9.6-22.66,8.8-34.1a3.92,3.92,0,0,1,.36-2.45c.89-1.26,3-.78,3.92.49s.79,2.94.74,4.47c.48-1.3,2.52-1.29,3.47-.29a6.24,6.24,0,0,1,1.23,3.92l.31,3.83,27.12,25.87s.74-2.36,2.73-1a11.76,11.76,0,0,1,3.28,4.22L231,243.27l-35.45-43.11A14.38,14.38,0,0,1,198.11,196.62Z"/><path class="cls-5" d="M234.91,225.48a36,36,0,0,0-6.23,12.13,22.08,22.08,0,0,0,.4,13.5,18.74,18.74,0,0,0,14.37,11.58"/><path class="cls-6" d="M322.67,301.38l-1,13.83h20.09l4.7-24.49h0a25.26,25.26,0,0,0-17,5.32Z"/><path class="cls-4" d="M207.56,193.56a6.57,6.57,0,0,1,.44-1.11c.31-.69.73-1.71,1.21-3s1-2.8,1.47-4.53a55.6,55.6,0,0,0,1.18-5.71,51.54,51.54,0,0,0,.49-5.81c0-1.8,0-3.41-.11-4.77s-.21-2.44-.31-3.19a8,8,0,0,1-.11-1.19,5.91,5.91,0,0,1,.27,1.16,31.54,31.54,0,0,1,.44,3.2,42.71,42.71,0,0,1,.2,4.8A45.63,45.63,0,0,1,211,185a43.49,43.49,0,0,1-1.57,4.54c-.52,1.27-1,2.27-1.34,2.94A9.48,9.48,0,0,1,207.56,193.56Z"/><path class="cls-4" d="M213.46,186.28a19.52,19.52,0,0,1,.88-2,29.22,29.22,0,0,0,2.35-10,19.55,19.55,0,0,1,.12-2.16,8.3,8.3,0,0,1,.17,2.17,24,24,0,0,1-2.35,10.15A8,8,0,0,1,213.46,186.28Z"/><path class="cls-4" d="M245.3,208c-.06,0,.27-.55.46-1.47a7.69,7.69,0,0,0-.21-3.63,26.52,26.52,0,0,0-1.35-3.47,5.55,5.55,0,0,1-.55-1.47,7,7,0,0,1,.78,1.35,18.19,18.19,0,0,1,1.5,3.48,7.24,7.24,0,0,1,.09,3.81A2.81,2.81,0,0,1,245.3,208Z"/><path class="cls-4" d="M240.59,263.18a1.45,1.45,0,0,1-.34-.2l-.93-.61c-.78-.54-1.95-1.33-3.32-2.41a28.2,28.2,0,0,1-4.39-4.21,16.81,16.81,0,0,1-3.41-6.62,21,21,0,0,1-.45-7.45,29.43,29.43,0,0,1,1.34-5.93,37.81,37.81,0,0,1,1.5-3.82c.2-.44.36-.78.48-1a1.7,1.7,0,0,1,.19-.35,14,14,0,0,1-.52,1.41c-.36.9-.87,2.2-1.38,3.84a31.15,31.15,0,0,0-1.23,5.89,20.67,20.67,0,0,0,.47,7.31,16.66,16.66,0,0,0,3.3,6.49,29.51,29.51,0,0,0,4.29,4.22c1.33,1.09,2.45,1.92,3.22,2.5l.88.68C240.5,263.08,240.6,263.16,240.59,263.18Z"/><path class="cls-4" d="M285,270.93a1.48,1.48,0,0,1-.35.13c-.23.06-.57.18-1,.26a20.78,20.78,0,0,1-3.85.47,21.58,21.58,0,0,1-20.43-12.93,19.79,19.79,0,0,1-1.23-3.67c-.11-.45-.15-.78-.2-1a1.47,1.47,0,0,1,0-.36,10.43,10.43,0,0,1,.39,1.35,22,22,0,0,0,21.51,16.36,24.29,24.29,0,0,0,3.81-.33A11.07,11.07,0,0,1,285,270.93Z"/><path class="cls-4" d="M297.47,286.21c-.11,0,.93-4.37,2.35-9.68s2.61-9.61,2.71-9.57-.93,4.35-2.32,9.67S297.58,286.21,297.47,286.21Z"/><path class="cls-4" d="M308.41,277c-.1,0-3.25-5.1-7.06-11.51s-6.79-11.66-6.69-11.71,3.25,5.08,7.06,11.5S308.54,276.9,308.41,277Z"/><path class="cls-4" d="M338.5,289.66c0,.08-1.14.17-2.93.63a22.49,22.49,0,0,0-3.07,1,22.74,22.74,0,0,0-6.64,4.21,22.62,22.62,0,0,0-2.24,2.35c-1.17,1.42-1.75,2.41-1.82,2.35a3.23,3.23,0,0,1,.36-.72,15.19,15.19,0,0,1,1.24-1.84,21,21,0,0,1,2.2-2.43,21.29,21.29,0,0,1,6.77-4.28,19.21,19.21,0,0,1,3.14-.94,13.18,13.18,0,0,1,2.18-.33A2.45,2.45,0,0,1,338.5,289.66Z"/><path class="cls-4" d="M342.34,284.94c0,.09-1.26-.07-3.27.1a21.79,21.79,0,0,0-3.49.61,21.38,21.38,0,0,0-7.68,3.85,22.64,22.64,0,0,0-2.57,2.42c-1.34,1.51-2,2.61-2,2.57a4,4,0,0,1,.42-.79,9.9,9.9,0,0,1,.56-.87,12.64,12.64,0,0,1,.84-1.09,19.13,19.13,0,0,1,2.56-2.53,19.87,19.87,0,0,1,7.82-3.92,19.51,19.51,0,0,1,3.56-.54c.46,0,.91,0,1.37,0a8.94,8.94,0,0,1,1,.06A3.67,3.67,0,0,1,342.34,284.94Z"/><g class="cls-8"><path d="M258.73,255.46c-1.84,3.49-.31,7.76,1.38,11.34,1.31,2.77,2.77,5.59,5.15,7.52a11,11,0,0,0,15.44-1.55c.18-.21.35-.44.51-.67a24.77,24.77,0,0,1-22.86-16.17"/></g><g class="cls-8"><path d="M294.72,253.75c-1.41,3.36-.35,8,1.13,11.29s3,7.06,1.86,10.52a4.36,4.36,0,0,0-.47,2c.08.68.79,1.33,1.42,1a1.57,1.57,0,0,0,.64-1l3.34-10.06"/></g><path class="cls-9" d="M220.56,209.46a49.06,49.06,0,0,1,.79-6.27,48,48,0,0,1,1.19-6.17,45.71,45.71,0,0,1-.78,6.27A46.36,46.36,0,0,1,220.56,209.46Z"/><path class="cls-9" d="M212.31,207.73c-.1.06-1.45-1.82-3.32-4s-3.51-3.79-3.43-3.87a19.33,19.33,0,0,1,3.74,3.6A20.08,20.08,0,0,1,212.31,207.73Z"/><path class="cls-9" d="M219.39,187.54a6.66,6.66,0,0,1-.88,1.41c-.6.84-1.47,2-2.48,3.13s-2,2.24-2.71,3a6.53,6.53,0,0,1-1.25,1.1c-.08-.08,1.63-1.94,3.65-4.32A55.89,55.89,0,0,1,219.39,187.54Z"/><path class="cls-9" d="M216.63,177.67c-.12.05-.57-.95-1.43-1.95s-1.79-1.56-1.72-1.68a3.83,3.83,0,0,1,2,1.42A3.94,3.94,0,0,1,216.63,177.67Z"/><path class="cls-9" d="M209.48,183.75a5.75,5.75,0,0,1-2,.53,5.32,5.32,0,0,1-2.1.12,11,11,0,0,1,4.14-.65Z"/><path class="cls-9" d="M227.51,192.46a21.08,21.08,0,0,0-.25-3.64,21.73,21.73,0,0,0-1.28-3.43,6.15,6.15,0,0,1,1.67,3.34A6.25,6.25,0,0,1,227.51,192.46Z"/><path class="cls-9" d="M237.15,202.82a18.6,18.6,0,0,0-5.68-5.73A9.93,9.93,0,0,1,237.15,202.82Z"/><path class="cls-9" d="M221.68,220.81a9.43,9.43,0,0,1-7.19-.25c0-.11,1.57.38,3.59.44S221.65,220.69,221.68,220.81Z"/><path class="cls-9" d="M228.94,224.53c-.11-.05.5-1.85,1-4.14s.74-4.18.86-4.17a18.89,18.89,0,0,1-1.87,8.31Z"/><path class="cls-9" d="M244.8,225.13a27.86,27.86,0,0,1-3.43-3.44,30.25,30.25,0,0,1-3.13-3.74,29.41,29.41,0,0,1,3.42,3.46A31.85,31.85,0,0,1,244.8,225.13Z"/><path class="cls-9" d="M252.18,243.45a15,15,0,0,1-2.55-2.35,15.32,15.32,0,0,1-2.26-2.63,15,15,0,0,1,2.56,2.35A14.49,14.49,0,0,1,252.18,243.45Z"/><path class="cls-9" d="M238.46,245.2a11.14,11.14,0,0,1-3.14,2.35,10.92,10.92,0,0,1-3.62,1.57c0-.11,1.57-.78,3.42-1.89S238.38,245.11,238.46,245.2Z"/><path class="cls-9" d="M244.78,262.63c-.12,0,.35-2.09.58-4.67s.17-4.7.29-4.7a15.13,15.13,0,0,1,.12,4.7A14.93,14.93,0,0,1,244.78,262.63Z"/><path class="cls-9" d="M268.54,248.46a17.14,17.14,0,0,1-5.9-6.74c.1-.07,1.18,1.63,2.81,3.49S268.62,248.36,268.54,248.46Z"/><path class="cls-9" d="M277.21,255.86c-.09-.07,1.1-1.71,2.43-3.8s2.32-3.85,2.42-3.79a17,17,0,0,1-2.08,4A16,16,0,0,1,277.21,255.86Z"/><path class="cls-9" d="M275.94,237.76a40.81,40.81,0,0,1-7.83-2.11,21.73,21.73,0,0,1,4,.86A20.86,20.86,0,0,1,275.94,237.76Z"/><path class="cls-9" d="M269.62,269.61a16.53,16.53,0,0,1,0-3.72,17.62,17.62,0,0,1,.42-3.69,16.44,16.44,0,0,1,0,3.71A17.71,17.71,0,0,1,269.62,269.61Z"/><path class="cls-9" d="M275.09,280.51a32.62,32.62,0,0,0,1-3.86,29.53,29.53,0,0,0,.06-4,9.36,9.36,0,0,1-1.05,7.83Z"/><path class="cls-9" d="M260.91,278.1a12.13,12.13,0,0,1,1.5-7.84c.11.05-.61,1.71-1,3.88S261,278.1,260.91,278.1Z"/><path class="cls-9" d="M248,283.63a44.33,44.33,0,0,1-3.69-2.86,44.27,44.27,0,0,1-3.63-2.93,19.11,19.11,0,0,1,3.92,2.61A20.07,20.07,0,0,1,248,283.63Z"/><path class="cls-9" d="M256.73,268.25a67.65,67.65,0,0,1-9.41,5,67.14,67.14,0,0,1,9.41-5Z"/><path class="cls-4" d="M283.94,302.77a4.7,4.7,0,0,1-.51.12c-.34.06-.83.19-1.47.27a31.53,31.53,0,0,1-5.49.36A33.83,33.83,0,0,1,247,285.08a30.57,30.57,0,0,1-2.1-5.1c-.22-.62-.32-1.12-.41-1.45a2.19,2.19,0,0,1-.1-.51,4.09,4.09,0,0,1,.18.49c.11.32.24.78.47,1.42a35.61,35.61,0,0,0,6.82,11.69,34.49,34.49,0,0,0,24.66,11.61A36,36,0,0,0,282,303c.65-.06,1.14-.17,1.48-.2A2,2,0,0,1,283.94,302.77Z"/><path class="cls-9" d="M260.52,298.7a7.27,7.27,0,0,1,2.53-6.74,12.15,12.15,0,0,0-2.53,6.74Z"/><path class="cls-9" d="M254.07,296a13.38,13.38,0,0,0-2,1.94,14.78,14.78,0,0,0-1.29,2.5,4.82,4.82,0,0,1,3.33-4.44Z"/><path class="cls-9" d="M278.88,310.78a8,8,0,0,1-6.27-3.92A14.14,14.14,0,0,0,278.88,310.78Z"/><path class="cls-9" d="M282.73,289.06a6.18,6.18,0,0,1-4.25,5,17.38,17.38,0,0,0,2.54-2.16A15.91,15.91,0,0,0,282.73,289.06Z"/><path class="cls-9" d="M293.7,305.25c-.09-.08.94-1.39,1.9-3.19s1.46-3.39,1.57-3.36a12.08,12.08,0,0,1-3.49,6.55Z"/><path class="cls-9" d="M308.19,307.37c.05.12-1.37.69-2.81,1.87s-2.3,2.45-2.4,2.35a7.86,7.86,0,0,1,5.21-4.22Z"/><path class="cls-9" d="M297.14,288.82c-.12,0-.78-2.25-2.25-4.79s-3-4.33-2.93-4.41a5.08,5.08,0,0,1,1.12,1.1,19.43,19.43,0,0,1,3.7,6.57A5,5,0,0,1,297.14,288.82Z"/><path class="cls-9" d="M299.31,265.48a35.45,35.45,0,0,1-7.53,1.73A36.57,36.57,0,0,1,299.31,265.48Z"/><path class="cls-9" d="M292.63,258.51a17.94,17.94,0,0,1-2.39-2.76,16.81,16.81,0,0,1-2.08-3,32.28,32.28,0,0,1,4.47,5.77Z"/><path class="cls-9" d="M309.19,254.32a18.3,18.3,0,0,1-7.34-1.74,33.24,33.24,0,0,1,3.68.85A30.5,30.5,0,0,1,309.19,254.32Z"/><path class="cls-9" d="M321,254.11a31,31,0,0,1,1.2-3.26,26.62,26.62,0,0,1,1.2-3.27,10.34,10.34,0,0,1-.79,3.41A10,10,0,0,1,321,254.11Z"/><path class="cls-9" d="M318.27,270a11.81,11.81,0,0,1-6.27-3.72c.08-.09,1.31,1,3,2S318.31,269.92,318.27,270Z"/><path class="cls-9" d="M325.9,269.55a28.54,28.54,0,0,1,.87-4.66,27.55,27.55,0,0,1,1.23-4.55,55,55,0,0,1-2.12,9.22Z"/><path class="cls-9" d="M319.53,287.36a47.52,47.52,0,0,1-5.22-7.14,23.53,23.53,0,0,1,2.77,3.45A23.87,23.87,0,0,1,319.53,287.36Z"/><path class="cls-9" d="M330.41,280.55c-.11.05-.82-1.36-2-2.95s-2.22-2.73-2.13-2.82a9.24,9.24,0,0,1,2.47,2.59A8.86,8.86,0,0,1,330.41,280.55Z"/><path class="cls-9" d="M340.62,279a39.54,39.54,0,0,1-2.51-3.28c-.89-1.05-1.73-2.15-2.51-3.28a21.3,21.3,0,0,1,5,6.56Z"/><path class="cls-9" d="M338.2,285.79a7.52,7.52,0,0,0-.94-2.68,7.62,7.62,0,0,0-2.09-1.91c0-.05.36,0,.85.24a4.21,4.21,0,0,1,1.57,1.45,4.29,4.29,0,0,1,.7,2C338.37,285.43,338.27,285.79,338.2,285.79Z"/><path class="cls-9" d="M330.26,295.06c-.06,0,0-.21-.1-.49a1.45,1.45,0,0,0-1.54-1.2c-.29,0-.47.07-.5,0s.12-.22.46-.31a1.48,1.48,0,0,1,1.81,1.07,1.27,1.27,0,0,1,.05.39C330.43,294.89,330.31,295.07,330.26,295.06Z"/><path class="cls-9" d="M248.7,309.88a11.3,11.3,0,0,1-6.46-6.43,19,19,0,0,0,6.46,6.46Z"/><path class="cls-6" d="M198.81,115.32c-1.26-11.93-3.55-23.14-4.16-34.83a2.14,2.14,0,0,0-.56-1.62,1.47,1.47,0,0,0-2,.53l0,.06a4.42,4.42,0,0,0-.39,2.35,54,54,0,0,1-3.14,18.24c-1.34,3.81-3.13,7.45-4.14,11.35s.89,5.22,2.64,8.85"/><path class="cls-6" d="M187.06,120.23a10.89,10.89,0,0,1-4.15-10.32c.4-2.35,1.57-4.49,2.49-6.68s1.64-4.63,1.08-7a11.62,11.62,0,0,1-.63-2.65c0-.91.59-1.93,1.5-2a2.21,2.21,0,0,1,1.7,1c1.53,1.88,2.75,7.4,2,11.53"/><path class="cls-7" d="M191,104.22s.08-.64.13-1.78a21.65,21.65,0,0,0-.4-4.82,17.69,17.69,0,0,0-.94-3.19,6.47,6.47,0,0,0-.88-1.56,2.25,2.25,0,0,0-1.47-1,1.42,1.42,0,0,0-1.31,1.1,3.37,3.37,0,0,0,.13,2,10.6,10.6,0,0,1,.55,2.22,9.24,9.24,0,0,1-.09,2.35c-.55,3.18-2.24,5.76-3.13,8.3a11.25,11.25,0,0,0-.7,3.72,11,11,0,0,0,.48,3.26,11.19,11.19,0,0,0,2.36,4.16c.78.84,1.29,1.21,1.27,1.25a2.11,2.11,0,0,1-.4-.26,8.29,8.29,0,0,1-1-.89,10.63,10.63,0,0,1-2.51-4.17,10.89,10.89,0,0,1-.55-3.35,11.67,11.67,0,0,1,.68-3.84c.87-2.6,2.54-5.18,3.05-8.24a7.8,7.8,0,0,0,.09-2.26,9.94,9.94,0,0,0-.53-2.15,3.68,3.68,0,0,1-.11-2.25,2.22,2.22,0,0,1,.62-1,1.46,1.46,0,0,1,1.08-.38,2.56,2.56,0,0,1,1.79,1.1,6.79,6.79,0,0,1,.91,1.7,15.93,15.93,0,0,1,.91,3.26,19.37,19.37,0,0,1,.28,4.87,9.53,9.53,0,0,1-.18,1.32A1.71,1.71,0,0,1,191,104.22Z"/><path class="cls-4" d="M293.51,167.88a5.41,5.41,0,0,0,4.84,4.18,6.77,6.77,0,0,0,5.9-2.9,9.15,9.15,0,0,0,1.47-6.55c-.45-3.3-2.64-6.48-5.83-7.46s-7.14.79-8,4l-3.66,5.12Z"/><path class="cls-6" d="M289.18,157.82A21.36,21.36,0,0,0,270.65,134l-.65-.07c-11.38-1.08-21.5,7.39-23.2,18.7-1.5,9.91-2.78,19.91-2.74,23.51.14,11,6.55,15.23,9.15,16.47a15.06,15.06,0,0,0,2.89.71h0a.07.07,0,0,1,0,.08h0l-2.43,12.54c-1.1,8.24,3.5,15.59,11.72,16.79s14.71-5.13,16-13.37Z"/><path class="cls-4" d="M248.69,159c.18.26,1.62-.52,3.48-.24s3.07,1.4,3.31,1.2,0-.52-.58-1a4.76,4.76,0,0,0-2.61-1.24,4.57,4.57,0,0,0-2.81.48C248.83,158.52,248.59,158.89,248.69,159Z"/><path class="cls-4" d="M265.18,162.59c.18.26,1.63-.52,3.48-.25s3.08,1.41,3.32,1.2-.05-.51-.58-1a4.83,4.83,0,0,0-2.6-1.24,4.67,4.67,0,0,0-2.82.48C265.35,162.09,265.1,162.47,265.18,162.59Z"/><path class="cls-4" d="M258.77,171.35a12.17,12.17,0,0,0-2.93-1c-.47-.12-.9-.28-.94-.61a2.59,2.59,0,0,1,.52-1.36l1.93-3.4c2.69-4.85,4.7-8.87,4.52-9s-2.54,3.73-5.23,8.62l-1.88,3.42a2.91,2.91,0,0,0-.51,1.83,1.2,1.2,0,0,0,.68.78,3,3,0,0,0,.78.23A12.23,12.23,0,0,0,258.77,171.35Z"/><path class="cls-7" d="M256.17,193.38s7.05,1.63,16.81-2.45c0,0-4.2,9.06-17.46,5.83Z"/><path class="cls-7" d="M258.9,175.94a3.38,3.38,0,0,1,3.14-.79,3.14,3.14,0,0,1,1.94,1.44,1.93,1.93,0,0,1-.18,2.23,2.23,2.23,0,0,1-2.51.26,6.85,6.85,0,0,1-2.17-1.76,2,2,0,0,1-.45-.62.61.61,0,0,1,.11-.69"/><path class="cls-4" d="M264,173.43c-.3-.06-.6,1.95-2.53,3.13s-4,.65-4.1.93c0,.12.43.46,1.33.62a5.12,5.12,0,0,0,3.4-.66,4.45,4.45,0,0,0,2-2.64C264.33,174,264.18,173.44,264,173.43Z"/><path class="cls-4" d="M266.46,156.55c.11.53,2,.56,4.13,1.14s3.82,1.43,4.17,1c.16-.19-.08-.71-.71-1.31a7.49,7.49,0,0,0-6.33-1.64C266.86,156,266.42,156.3,266.46,156.55Z"/><path class="cls-4" d="M250.56,153.3c.26.47,1.61.22,3.14.42s2.8.69,3.13.3c.17-.2,0-.65-.49-1.13a4.57,4.57,0,0,0-5.08-.58C250.69,152.66,250.44,153.07,250.56,153.3Z"/><path class="cls-4" d="M244.65,150.15c2.27,3.46,9.46,1.32,13.81-1.05a10.34,10.34,0,0,0,14.11-2.92c2.48,3.13,7.54,2.12,9.4-1.45s.79-8.48-1.72-11.6a16.08,16.08,0,0,0-9.88-5.37,23,23,0,0,0-23.27,9.58c-2.39,3.62-3.83,8.49-2.41,12.81"/><path class="cls-10" d="M268.59,129a35.43,35.43,0,0,0-5.26.3,19.12,19.12,0,0,0-10.88,5.85,23.73,23.73,0,0,0-5.19,11.34,30.7,30.7,0,0,0-.27,5.25,4.54,4.54,0,0,1-.29-1.41,16.06,16.06,0,0,1,.06-3.92A22.83,22.83,0,0,1,252,134.64a18.83,18.83,0,0,1,11.35-5.89,17.14,17.14,0,0,1,3.92-.06A4.61,4.61,0,0,1,268.59,129Z"/><path class="cls-10" d="M256.88,145.11a3.48,3.48,0,0,1-.17-1.24,12.34,12.34,0,0,1,.35-3.37A13.91,13.91,0,0,1,273.7,130c.28.06.55.13.83.21a12.71,12.71,0,0,1,3.13,1.33,3.5,3.5,0,0,1,1,.79,25.8,25.8,0,0,0-4.25-1.57,13.89,13.89,0,0,0-16.86,9.92A25.34,25.34,0,0,0,256.88,145.11Z"/><path class="cls-4" d="M277.66,141.34a41.08,41.08,0,0,0-1.46,9.41,13.89,13.89,0,0,0,2.82,8.89c3,3.64,8.07,4.76,12.73,5.64a36.83,36.83,0,0,0,2.17-19.59c-.53-3.21-1.57-6.48-3.83-8.82a10.64,10.64,0,0,0-12.93-1.56"/><path class="cls-4" d="M280.25,156.52c-1.22,2.65-1.14,5.71-.71,8.62s1.16,5.76,1.12,8.67-1,6-3.24,7.84a13.41,13.41,0,0,0-1.95,1.57,2,2,0,0,0-.4,2.3c.44.7,1.76.69,1.95-.12l-.12.2a1.29,1.29,0,0,0,.46,1.77,1.19,1.19,0,0,0,.64.18,5.83,5.83,0,0,0,4.18-2.05,12.78,12.78,0,0,0,2.49-6.27c1.21-6.92,1-14.11,2.88-20.86"/><path class="cls-5" d="M253.67,202a16.85,16.85,0,0,0,20.2,12.67,17.24,17.24,0,0,0,2.32-.71c4.06-1.57,7.34-4.62,10.49-7.61a24.6,24.6,0,0,1-22.78,28.58c-5.2.31-10.78-1.27-14-5.32a15.78,15.78,0,0,1-3.14-10.19,36.9,36.9,0,0,1,2.06-10.66c.92-3,2.39-6.28,5.38-7.1"/><path class="cls-4" d="M290.85,165.49c3.14,1.68,4.82,5.21,5.42,8.69s.3,7.06.45,10.58.82,7.22,3.06,10c2.35,2.92,6.07,4.3,9.4,6.08,7.31,3.92,13.33,10.6,15.52,18.61s.21,17.25-5.79,23c-5.49,5.22-13.4,7.06-21,7.06-5.39,0-11.3-1.16-14.67-5.37s-3.13-10.12-2-15.3,3.33-10.23,3.42-15.56a27.65,27.65,0,0,1-4.14,9.21c-.56.78-1.5,1.64-2.35,1.19s-.59-1.92-.15-2.9c6.49-14.45,4.23-43.57,8.08-59.53"/><path class="cls-6" d="M285.51,163.85c.19-.06,7.78-1.5,6.8,6s-8.3,5-8.28,4.75S285.51,163.85,285.51,163.85Z"/><path class="cls-7" d="M286.68,172.06a2.41,2.41,0,0,0,.33.24,1.39,1.39,0,0,0,1,.15,3.27,3.27,0,0,0,1.87-2.71,4.31,4.31,0,0,0-.13-1.92,1.54,1.54,0,0,0-.85-1.13.68.68,0,0,0-.78.26c-.13.2-.11.36-.15.36s-.14-.15,0-.44a.76.76,0,0,1,.36-.43,1,1,0,0,1,.78-.11,1.89,1.89,0,0,1,1.22,1.34,4.61,4.61,0,0,1,.18,2.15c-.25,1.51-1.2,2.82-2.35,3a1.38,1.38,0,0,1-1.17-.35C286.68,172.24,286.66,172.07,286.68,172.06Z"/><path class="cls-4" d="M245.92,218.13a18.63,18.63,0,0,1,1.27-2.32,31.43,31.43,0,0,0,2.71-5.71,14.23,14.23,0,0,0,.67-6.21,22.46,22.46,0,0,0-.6-2.55,2,2,0,0,1,.34.64,8.19,8.19,0,0,1,.55,1.87,13.37,13.37,0,0,1-.57,6.37,26,26,0,0,1-2.85,5.74c-.44.69-.78,1.24-1.07,1.61A4.78,4.78,0,0,1,245.92,218.13Z"/><path class="cls-9" d="M249.74,209.48c-.11,0-.32-.64-1-1.09s-1.35-.45-1.36-.56.16-.14.47-.15a2.06,2.06,0,0,1,1.87,1.31C249.82,209.28,249.79,209.46,249.74,209.48Z"/><path class="cls-9" d="M254.58,209.46a14.41,14.41,0,0,0-1.93-1.81,13.11,13.11,0,0,0-2.43-1.05,3.5,3.5,0,0,1,2.65.72A3.58,3.58,0,0,1,254.58,209.46Z"/><path class="cls-9" d="M257.62,225.37a13.29,13.29,0,0,1,.46-3.2,13,13,0,0,1,.85-3.13,12.8,12.8,0,0,1-.45,3.2A12.53,12.53,0,0,1,257.62,225.37Z"/><path class="cls-9" d="M269.85,227.77a28.77,28.77,0,0,1,.22-6.75A27.73,27.73,0,0,1,269.85,227.77Z"/></g><g id="freepik--character-1--inject-2"><polygon class="cls-11" points="20.17 262.61 8.08 315.25 33.65 315.32 45.45 269.03 20.17 262.61"/><path class="cls-4" d="M145.71,197.93c-2.43-3.25-5.22-6.38-6.5-10.24-.62-1.86-.86-3.84-1.52-5.69a6.92,6.92,0,0,0-3.7-4.35c-1.83-.69-3.23,0-4.42,1.32l-8.77,25.66,5.06,19.7c5-1.13,11.36-2.48,16.08-4.6s7.84-5.53,8.17-10.7C150.34,205,148.14,201.19,145.71,197.93Z"/><path class="cls-5" d="M65.88,193.4s-30.49,13.27-34.3,19.26-16.36,48.69-16.36,48.69l32.14,9.41-.54,44.45H125.6L125,236.82l-9.88-43.32s-17.39-1.12-19-1.91S65.88,193.4,65.88,193.4Z"/><path class="cls-11" d="M174.25,84.74c.25-1.79-1-3.77-.1-5.34a4.48,4.48,0,0,1,2.43-1.66,4.16,4.16,0,0,1,1.51-.35,1.33,1.33,0,0,1,1.23.78,1.69,1.69,0,0,1-.6,1.63,4.84,4.84,0,0,0-1.19,1.36,8.29,8.29,0,0,0,.29,3.86,68.39,68.39,0,0,1,2.6,8.39"/><path class="cls-11" d="M167.81,85.36c.11-2.72,2.35-13.44,2.43-16.16,1.84.56,2.91,2.52,3.26,4.42s.16,3.85.49,5.75a20.84,20.84,0,0,0,3.1,7,25.68,25.68,0,0,1,3.33,7c.6,2.51,2.87,9,1.1,10.91"/><path class="cls-11" d="M167.3,103.7l-10.9,51.8c-.39,2.35-41.33,38.06-41.33,38.06l8.08,32.29,53.31-52.16a21.66,21.66,0,0,0,5.84-15.2l-.91-48.6Z"/><path class="cls-11" d="M165.44,85.68l1.86,18,14.11,6.21s.18-1.27.79-7.52c.66-6.89-6.74-9.84-10-14.9-1.41-2.17-1-6.17-2.13-11.12-.12-.57-.91-4-1.33-5.9a4.14,4.14,0,0,0-1.7-2.54c-.64-.43-1.36-.64-1.88,0S165.44,85.68,165.44,85.68Z"/><path class="cls-11" d="M174.25,106.69a5.66,5.66,0,0,0,1.35-5.8,14.78,14.78,0,0,0-3.33-5.3,21,21,0,0,1-3.67-5.09c-.6-1.35-.88-2.84-1.57-4.16a4.29,4.29,0,0,0-3.33-2.6c1.18,7.46,1.15,11.76,3.57,19.93"/><path class="cls-12" d="M165.16,92.25s0-.2-.14-.59-.23-1-.37-1.71c-.34-1.57-.79-3.57-1.25-5.86l-.05-.22h.23a3.66,3.66,0,0,1,2.63,1,7.84,7.84,0,0,1,2.21,3.77,21,21,0,0,0,1.23,3.26,10.72,10.72,0,0,0,1.38,1.9,2.56,2.56,0,0,1,.47.75,6.07,6.07,0,0,1-.59-.65A9,9,0,0,1,169.4,92a18.46,18.46,0,0,1-1.34-3.29,7.84,7.84,0,0,0-2.12-3.59,3.36,3.36,0,0,0-2.35-.9l.19-.23C164.72,88.73,165.34,92.26,165.16,92.25Z"/><path class="cls-12" d="M171.5,87.67a70.38,70.38,0,0,1-1.3-7.36,70.69,70.69,0,0,1-.9-7.41,65.52,65.52,0,0,1,1.3,7.36A65.73,65.73,0,0,1,171.5,87.67Z"/><path class="cls-12" d="M176,88.28a1.08,1.08,0,0,1,.1.27H176a43.17,43.17,0,0,1-1.43-5.12c-.33-1.52-.58-2.9-.73-3.92a6.46,6.46,0,0,1-.14-1.64c.12,0,.6,2.44,1.27,5.49.54,2.43,1.05,4.49,1.15,5.18H176C176,88.37,176,88.28,176,88.28Z"/><path class="cls-12" d="M178.78,98.21c-.06,0-.35-.41-.91-1a8.83,8.83,0,0,0-5.68-2.74,10.24,10.24,0,0,1-1.36-.09,3,3,0,0,1,1.36-.2A7.72,7.72,0,0,1,178.08,97,3.09,3.09,0,0,1,178.78,98.21Z"/><path class="cls-12" d="M168.58,105.13a10.42,10.42,0,0,1-.93-2.14A46,46,0,0,1,166,97.62a44.45,44.45,0,0,1-1-5.49,11.61,11.61,0,0,1-.15-2.35,16.07,16.07,0,0,1,.43,2.28c.23,1.4.59,3.35,1.09,5.49s1.07,4,1.5,5.37A17,17,0,0,1,168.58,105.13Z"/><path class="cls-5" d="M105.5,194.49a5,5,0,0,1,6.68-1.57c5.75-4.7,11.64-9.26,17.39-13.94-1.88,9.4-3.13,22.52,1.08,31.13,0,0,5.3,9.86,13.75,8.35l-7.54,7.39-11.89,11"/><path class="cls-4" d="M103.63,198.88a7.75,7.75,0,0,1,3.74-6.15A13.74,13.74,0,0,0,103.63,198.88Z"/><path class="cls-4" d="M109.85,204.68a4.76,4.76,0,0,1-.66-1.71,11.07,11.07,0,0,1,1.51-8.55,5.36,5.36,0,0,1,1.21-1.39c.06.05-.4.58-1,1.57a12.46,12.46,0,0,0-1.49,4,12.93,12.93,0,0,0,0,4.3A17.75,17.75,0,0,1,109.85,204.68Z"/><path class="cls-9" d="M138.65,224.81a6.42,6.42,0,0,1-1.87.79,10.44,10.44,0,0,1-5.49-.17,13.2,13.2,0,0,1-6.6-4.7,22.09,22.09,0,0,1-3.92-9.18,69.23,69.23,0,0,1-.94-18.12c.18-2.36.44-4.19.66-5.49.1-.64.19-1.14.26-1.48a3.18,3.18,0,0,1,.13-.51,1.87,1.87,0,0,1,0,.53l-.19,1.48c-.16,1.29-.38,3.14-.52,5.49a72.64,72.64,0,0,0,1,18,22.29,22.29,0,0,0,3.8,9,13,13,0,0,0,6.39,4.7,10.53,10.53,0,0,0,5.37.29A14.32,14.32,0,0,0,138.65,224.81Z"/><path class="cls-4" d="M47.51,284c-.11,0-.2-11.15-.2-24.89s.09-24.89.2-24.89.21,11.14.21,24.89S47.63,284,47.51,284Z"/><path class="cls-4" d="M46.89,225.61c-.09,0-.07-1.11-.45-2.84a16,16,0,0,0-1-3,17.87,17.87,0,0,0-1.94-3.26,17.48,17.48,0,0,0-2.64-2.73,15.45,15.45,0,0,0-2.58-1.72c-1.57-.83-2.65-1.1-2.63-1.18a2.58,2.58,0,0,1,.78.16,5.22,5.22,0,0,1,.87.29,7.4,7.4,0,0,1,1.12.48,14.26,14.26,0,0,1,2.65,1.67,17.44,17.44,0,0,1,2.72,2.78,16.39,16.39,0,0,1,2,3.36,14.29,14.29,0,0,1,.95,3,9.79,9.79,0,0,1,.17,1.21,7,7,0,0,1,0,.92A3.29,3.29,0,0,1,46.89,225.61Z"/><path class="cls-4" d="M100.58,193.06a3.67,3.67,0,0,1,.13.66,15.63,15.63,0,0,1,.2,1.92,19.67,19.67,0,0,1-1,7,20.62,20.62,0,0,1-5.68,8.8,20.23,20.23,0,0,1-24.15,1.85,20.61,20.61,0,0,1-6.93-7.84,20.25,20.25,0,0,1-2-6.79,17.8,17.8,0,0,1-.08-1.93,3.86,3.86,0,0,1,0-.68,5.16,5.16,0,0,1,0,.67,17.36,17.36,0,0,0,.16,1.91,20.69,20.69,0,0,0,2.12,6.68A20.32,20.32,0,0,0,70.27,213,20,20,0,0,0,94,211.23a20.49,20.49,0,0,0,5.66-8.63,21.06,21.06,0,0,0,1.1-6.92,12.17,12.17,0,0,0-.14-1.91A1.9,1.9,0,0,1,100.58,193.06Z"/><path class="cls-9" d="M46.84,261.07c0,.11-6.51-1.94-14.46-4.56s-14.37-4.85-14.33-5,6.5,1.94,14.46,4.56S46.87,261,46.84,261.07Z"/><path class="cls-9" d="M124.19,250.19c0,.12-17.29.28-38.61.37s-38.62.07-38.62,0,17.29-.29,38.62-.37S124.19,250.08,124.19,250.19Z"/><path class="cls-9" d="M124.58,257c0,.11-17.38.2-38.8.2S47,257.13,47,257s17.38-.21,38.82-.21S124.58,256.9,124.58,257Z"/><path class="cls-4" d="M113.93,265.31a2.77,2.77,0,0,1-.22.63l-.69,1.79L112.5,269c-.2.47-.45,1-.7,1.5-.52,1.07-1,2.31-1.79,3.61l-1.13,2.05c-.39.72-.86,1.42-1.32,2.17-.89,1.52-2,3-3.13,4.66A84.42,84.42,0,0,1,96,292.73a84.38,84.38,0,0,1-9.89,8.2c-1.64,1.1-3.19,2.17-4.7,3-.78.44-1.47.9-2.2,1.28l-2.1,1.08c-1.31.72-2.56,1.23-3.63,1.73-.55.23-1,.47-1.52.67l-1.3.49-1.79.67a4.88,4.88,0,0,1-.65.2,3.46,3.46,0,0,1,.62-.28l1.77-.74,1.27-.53c.47-.2,1-.44,1.5-.69,1.07-.51,2.31-1,3.6-1.77l2.06-1.1c.71-.39,1.43-.86,2.18-1.3,1.51-.87,3-1.95,4.7-3a79.18,79.18,0,0,0,18.19-17.84c1.14-1.61,2.24-3.13,3.14-4.62.46-.74.94-1.44,1.34-2.14l1.13-2c.79-1.28,1.31-2.51,1.85-3.57.25-.53.51-1,.73-1.48s.38-.89.54-1.27c.33-.74.58-1.32.79-1.76C113.75,265.71,113.84,265.51,113.93,265.31Z"/><g class="cls-8"><path d="M110.75,272.1c-5.27,6.41-10.79,11.06-18.52,14-3.71,1.43-7.59,2.41-11.18,4.11s-7,4.27-8.62,7.9c-1.25,2.8-.65,7,2.35,7.66a6.45,6.45,0,0,0,3.41-.52c15.32-5.56,25.4-19.6,32.51-33.2"/></g><path class="cls-4" d="M55.93,132.63c-3.31,2.59-3.52,7.44-3.36,11.64s.21,9-2.85,11.89c-2.51,2.39-6.9,3.28-7.62,6.67a3.92,3.92,0,0,0,6.33,3.88c-1.07,2.66-.58,6.06,1.69,7.84s6.22.93,7.05-1.8a3.47,3.47,0,0,0,6.67,1.9c0-.11,0-.22.07-.33"/><path class="cls-4" d="M103.94,163.05a4.18,4.18,0,1,0,8-2.3,3.86,3.86,0,0,0-.19-.54c-.65-1.63-2.35-2.86-2.39-4.61-.1-2.11,2.12-3.52,4.07-4.34s4.24-1.92,4.55-4-1.44-3.7-2.9-5.14-2.86-3.61-1.83-5.38c.52-.91,1.56-1.39,2.24-2.18,1.52-1.76.91-4.71-.85-6.2a8.53,8.53,0,0,0-6.57-1.57,55.36,55.36,0,0,0-6.74,1.69,27.74,27.74,0,0,1-22-3.92"/><path class="cls-11" d="M58.18,148.79l8.07,46.75a15,15,0,0,0,17.36,12.3l.11,0h0a15.05,15.05,0,0,0,12.34-16.15c-.37-4.15-.68-7.58-.68-7.58s11.71-3,10.7-14.9c-.49-5.75-2.46-17.52-4.37-28.15a22.26,22.26,0,0,0-24.07-18.19l-1.15.11a22.1,22.1,0,0,0-18.41,25.25C58.11,148.41,58.15,148.6,58.18,148.79Z"/><path class="cls-4" d="M99.2,148.72a1.68,1.68,0,0,1-1.46,1.87,1.62,1.62,0,0,1-1.89-1.3v0a1.71,1.71,0,0,1,1.47-1.88,1.64,1.64,0,0,1,1.89,1.31Z"/><path class="cls-4" d="M99.72,147.1c-.19.23-1.57-.59-3.39-.41s-3.08,1.23-3.3,1,.07-.51.61-1a4.61,4.61,0,0,1,2.62-1.09,4.51,4.51,0,0,1,2.73.6C99.59,146.6,99.82,147,99.72,147.1Z"/><path class="cls-4" d="M81.33,150.81a1.71,1.71,0,0,1-1.47,1.87A1.63,1.63,0,0,1,78,151.36v0a1.7,1.7,0,0,1,1.47-1.87,1.63,1.63,0,0,1,1.9,1.33Z"/><path class="cls-4" d="M81.79,149.18c-.18.24-1.56-.58-3.39-.4s-3.07,1.23-3.3,1,.07-.51.61-1a4.75,4.75,0,0,1,2.62-1.09,4.44,4.44,0,0,1,2.73.6C81.66,148.7,81.86,149.08,81.79,149.18Z"/><path class="cls-4" d="M89.75,162.09a12.29,12.29,0,0,1,2.91-.83c.46-.09.9-.23,1-.56a2.47,2.47,0,0,0-.45-1.34l-1.73-3.42c-2.41-4.88-4.2-8.9-4-9s2.3,3.78,4.7,8.62L93.8,159a2.66,2.66,0,0,1,.42,1.8,1.2,1.2,0,0,1-.7.79,3.53,3.53,0,0,1-.78.18A12.55,12.55,0,0,1,89.75,162.09Z"/><path class="cls-4" d="M81.57,142c-.14.52-2,.45-4.1.92s-3.8,1.23-4.12.79c-.15-.2.1-.7.79-1.25a7.26,7.26,0,0,1,6.26-1.31C81.19,141.38,81.62,141.73,81.57,142Z"/><path class="cls-4" d="M98.54,141.87c-.28.44-1.57.14-3.14.26s-2.76.56-3.13.15c-.15-.19,0-.63.53-1.08a4.3,4.3,0,0,1,2.45-.92,4.22,4.22,0,0,1,2.55.59C98.44,141.25,98.66,141.66,98.54,141.87Z"/><path class="cls-4" d="M69.82,134.49l-.07.06a9.44,9.44,0,0,0-2.88,6.38v.25c-.14,3.44.28,6.88.12,10.31s-1,7-3.29,9.58c-.93,1.05-2.69,1.89-3.64.85a2.79,2.79,0,0,1-.58-1.51c-1.43-8.12-4.38-15.17-5.19-23.74a7.2,7.2,0,0,1,2.42-6.16c1.66-1.47,3.72-3,5.81-2.26s5,4.23,6.72,5.65"/><path class="cls-11" d="M62.71,153.78c-.21-.07-8.4-1.62-7.35,6.48s9,5.38,9,5.14S62.71,153.78,62.71,153.78Z"/><path class="cls-12" d="M61.47,162.66a2.44,2.44,0,0,1-.35.25,1.38,1.38,0,0,1-1,.16c-.89-.2-1.79-1.47-2-2.92a4.71,4.71,0,0,1,.13-2.08,1.66,1.66,0,0,1,.93-1.22.73.73,0,0,1,.88.28c.14.21.11.38.15.39s.16-.15,0-.48a.89.89,0,0,0-.38-.47,1.09,1.09,0,0,0-.79-.11,2,2,0,0,0-1.32,1.45,5,5,0,0,0-.19,2.36c.26,1.62,1.3,3,2.51,3.23a1.52,1.52,0,0,0,1.27-.39A.88.88,0,0,0,61.47,162.66Z"/><path class="cls-4" d="M62.35,129.54c-2.35-3.06,2.72-8.27,6.6-9.92s9.37-.22,13.49.71c2.6.6,5.23,1.52,7.84,1.15a18,18,0,0,0,5-1.81,13.08,13.08,0,0,1,5.09-1.57,4.92,4.92,0,0,1,4.55,2.3c.83,1.56.09,3.92-1.65,4.35a4,4,0,1,1,1.78,7.29c1.08-1,3,.29,3,1.74s-1.21,2.64-2.48,3.35c-3.25,1.82-7.25,1.73-10.87.89s-7-2.35-10.66-3.29-9.65-2.64-13-1.06c-2.48,1.15-4,4.42-5.49,3.92a5,5,0,0,1-2.92-3.4,14.54,14.54,0,0,1-.3-4.65"/><path class="cls-4" d="M62.82,155.16A70.63,70.63,0,0,0,64.29,168,24,24,0,0,0,70.1,179.3c3.92,4,9.06,7.84,14.63,8.79,6.07,1,13.5-.27,18.45-3.92,2.35-1.74,4-5.49,3.32-8.33a6.16,6.16,0,0,0,3.53-5.17c.13-2.2-1.21-4.94-3-5.23,1.3-.22,1.68-2.29,1.19-3.46s-2.21-1.52-3.52-1.27a9.15,9.15,0,0,0-3.5,1.81,12.53,12.53,0,0,1-3.39,2c-4.21,1.36-8.46-2.35-12.88-2.17-4,.15-7.54,3.47-11.5,2.91a8,8,0,0,1-5.33-3.7c-1.22-1.88-.69-8.8-1.16-11"/><g class="cls-13"><path class="cls-10" d="M94.84,173.83a7.8,7.8,0,0,1-1-.3,5.2,5.2,0,0,0-4.53.82c-.51.36-.79.65-.79.61a2,2,0,0,1,.64-.78,4.7,4.7,0,0,1,4.79-.86C94.56,173.51,94.86,173.79,94.84,173.83Z"/></g><path class="cls-3" d="M86.25,164.82c.3,0,.5,1.94,2.36,3.14s3.92.82,4,1.09c0,.12-.43.43-1.32.54a4.92,4.92,0,0,1-3.3-.78,4.28,4.28,0,0,1-1.82-2.68C86,165.33,86.12,164.82,86.25,164.82Z"/><path class="cls-10" d="M80.36,186.76a2.23,2.23,0,0,1,.51.19c.34.13.83.3,1.48.48a26.29,26.29,0,0,0,5.64.88,25.64,25.64,0,0,0,3.92-.07,22.13,22.13,0,0,0,4.43-.87,17.77,17.77,0,0,0,4.52-2.06,13.74,13.74,0,0,0,3.92-3.56,8.18,8.18,0,0,0,1.57-5.88v-.16l.14-.06a6.41,6.41,0,0,0,2.45-2,6.74,6.74,0,0,0,.78-1.32,4.63,4.63,0,0,0,.35-1.41,5.62,5.62,0,0,0-1.88-4.75l-.12-.09.09-.12a3.28,3.28,0,0,0,.49-3.22,3.14,3.14,0,0,0-1.8-1.77,3.4,3.4,0,0,0-1.64-.23,4,4,0,0,1-.58.09,2.21,2.21,0,0,1,.57-.17,3.42,3.42,0,0,1,3.67,2,3.58,3.58,0,0,1-.47,3.5v-.21a5.9,5.9,0,0,1,2,5,5.21,5.21,0,0,1-.36,1.56,8.19,8.19,0,0,1-.83,1.4,6.73,6.73,0,0,1-2.6,2.16l.12-.24a8.44,8.44,0,0,1-1.57,6.21,14.13,14.13,0,0,1-4,3.66,17.65,17.65,0,0,1-4.62,2.08,21.4,21.4,0,0,1-4.5.84,24.16,24.16,0,0,1-4,0,24.72,24.72,0,0,1-5.67-1,13.07,13.07,0,0,1-1.47-.56A2.57,2.57,0,0,1,80.36,186.76Z"/><path class="cls-10" d="M44.82,166.07a1.2,1.2,0,0,1-.41-.2,2.27,2.27,0,0,1-.78-1,3.48,3.48,0,0,1-.17-2.09,4.24,4.24,0,0,1,1.57-2.3,10.23,10.23,0,0,1,3-1.56,18.87,18.87,0,0,0,3.46-1.48,6.74,6.74,0,0,0,2.61-3.07A11.23,11.23,0,0,0,55,150c.06-3.07-.65-6-.72-8.68a11.41,11.41,0,0,1,1.62-6.92,6.5,6.5,0,0,1,3.92-2.69,4.17,4.17,0,0,1,1.32-.06,2.36,2.36,0,0,1,.45.08,7.18,7.18,0,0,0-1.73.14,6.46,6.46,0,0,0-3.76,2.69,11.05,11.05,0,0,0-1.48,6.74c.14,2.65.79,5.56.79,8.71a11.88,11.88,0,0,1-1,4.47,7.16,7.16,0,0,1-2.78,3.23,18.54,18.54,0,0,1-3.57,1.48,10.3,10.3,0,0,0-2.91,1.45,4,4,0,0,0-1.51,2.12,3.35,3.35,0,0,0,.09,2A2.6,2.6,0,0,0,44.82,166.07Z"/><path class="cls-10" d="M103.59,124.61a2.32,2.32,0,0,1,.36-.16,2.51,2.51,0,0,1,.46-.16,3.56,3.56,0,0,1,.65-.13,4.88,4.88,0,0,1,4,1.43h0a6.51,6.51,0,0,1,1.21,4.86,8,8,0,0,1-3.21,5.31,12.25,12.25,0,0,1-6.82,2.35,27.39,27.39,0,0,1-7.91-.84,35.91,35.91,0,0,1-11.49-5.09,35.67,35.67,0,0,0-4.71-2.74,13,13,0,0,0-4.54-1.16,13.54,13.54,0,0,0-6.67,1.24c-1.47.69-2.17,1.29-2.2,1.24a10,10,0,0,1,2.13-1.39A13.58,13.58,0,0,1,71.6,128a13.23,13.23,0,0,1,4.71,1.14,37,37,0,0,1,4.77,2.73,36.11,36.11,0,0,0,11.38,5,27.29,27.29,0,0,0,7.79.87,12.06,12.06,0,0,0,6.63-2.25,7.7,7.7,0,0,0,3.13-5.07,6.28,6.28,0,0,0-1.08-4.7h0a4.81,4.81,0,0,0-3.81-1.47A10.29,10.29,0,0,0,103.59,124.61Z"/><path class="cls-10" d="M99.44,117.71a4.59,4.59,0,0,1-.37,1.79,7.64,7.64,0,0,1-3.35,3.66,9.59,9.59,0,0,1-3.27,1.18,14,14,0,0,1-4,0,53.38,53.38,0,0,1-8.73-2.4c-3-1-6.1-1.51-8.8-.93a11.67,11.67,0,0,0-6.19,3.6,12.17,12.17,0,0,0-2.5,4.21c-.36,1.11-.43,1.76-.48,1.75a3.68,3.68,0,0,1,0-.47,8.54,8.54,0,0,1,.3-1.33,11.41,11.41,0,0,1,2.43-4.35,11.75,11.75,0,0,1,6.32-3.78c2.79-.62,5.94,0,9,.91A55,55,0,0,0,88.47,124a13.28,13.28,0,0,0,3.88,0,9.51,9.51,0,0,0,3.19-1.09,7.58,7.58,0,0,0,3.34-3.47A11.15,11.15,0,0,0,99.44,117.71Z"/></g><g id="freepik--Lines--inject-2"><path class="cls-4" d="M158.77,68.09c-.07.09-4.47-3.49-9.84-8s-9.66-8.27-9.58-8.33,4.47,3.5,9.84,8S158.85,68,158.77,68.09Z"/><path class="cls-4" d="M181.13,62.72c-.11,0-.56-7-1-15.56s-.69-15.57-.58-15.58.55,7,1,15.57S181.24,62.72,181.13,62.72Z"/><path class="cls-4" d="M166.9,57.75c-.11,0-1.49-3.92-3.08-8.89s-2.79-9-2.68-9,1.48,3.91,3.07,8.87S167,57.71,166.9,57.75Z"/><path class="cls-4" d="M154.2,75.45a55.16,55.16,0,0,1-6-2.55A53.59,53.59,0,0,1,142.28,70a53.21,53.21,0,0,1,6,2.54A52.79,52.79,0,0,1,154.2,75.45Z"/><path class="cls-4" d="M133.59,66.44c0,.11-.66.13-1.45,0s-1.42-.27-1.41-.38.67-.12,1.45,0S133.59,66.33,133.59,66.44Z"/><path class="cls-4" d="M161.65,34.8c-.12,0-.2-.63-.2-1.43s.08-1.43.2-1.43.2.64.2,1.43S161.76,34.8,161.65,34.8Z"/><path class="cls-4" d="M208.85,45.87c.09.08-3.54,4.23-8.07,9.27s-8.29,9.07-8.39,9,3.53-4.22,8.07-9.27S208.77,45.8,208.85,45.87Z"/><path class="cls-4" d="M214.61,40.17c.08.08-.34.63-.93,1.22s-1.14,1-1.22.93.34-.63.94-1.22S214.53,40.06,214.61,40.17Z"/><path class="cls-4" d="M228.58,60.24a7.15,7.15,0,0,1-1.07.63c-.69.39-1.71.93-3,1.57-2.55,1.29-6.12,3-10.13,4.63s-7.72,3-10.43,3.92c-1.35.45-2.45.79-3.22,1a6.2,6.2,0,0,1-1.2.3,7.74,7.74,0,0,1,1.16-.45l3.13-1.14c2.68-1,6.36-2.35,10.37-4s7.58-3.3,10.19-4.51l3-1.45A9.74,9.74,0,0,1,228.58,60.24Z"/><path class="cls-4" d="M217.12,79.54a10.33,10.33,0,0,1-2.08.68c-1.31.36-3.14.78-5.16,1.14s-3.92.55-5.25.64a9.94,9.94,0,0,1-2.18,0,15.64,15.64,0,0,1,2.16-.33c1.33-.16,3.17-.42,5.2-.78s3.85-.72,5.16-1A12.11,12.11,0,0,1,217.12,79.54Z"/><path class="cls-4" d="M227.54,77.61a12.71,12.71,0,0,1-4.52,0A12.71,12.71,0,0,1,227.54,77.61Z"/></g><g id="freepik--Plant--inject-2"><path class="cls-5" d="M168.62,272.1a8.38,8.38,0,0,1,5.49,3.51,14.7,14.7,0,0,1,2.35,6.22c.71,4.26-.44,9.11-2,13.14-4.35-2.05-6.67-7.11-7.69-9.76-1.56-4.18-2-12.72,1.83-13.11"/><path class="cls-5" d="M180.89,301a7.08,7.08,0,0,1-.17-7.13,9.41,9.41,0,0,1,5.79-4.44,4,4,0,0,1,3.35.24,3,3,0,0,1,1.09,2.88,6.18,6.18,0,0,1-1.36,2.89c-2.27,2.93-5,5.34-8.7,5.56"/><path class="cls-4" d="M179.79,314.51a3.39,3.39,0,0,1-.15-.9c0-.58-.13-1.42-.19-2.46A31,31,0,0,1,180,303a15.33,15.33,0,0,1,3.71-7.26,9.63,9.63,0,0,1,1.92-1.57,2.59,2.59,0,0,1,.79-.41,20.25,20.25,0,0,0-2.5,2.22,16.2,16.2,0,0,0-3.48,7.13,35.05,35.05,0,0,0-.62,8A29,29,0,0,1,179.79,314.51Z"/><path class="cls-4" d="M169.65,278.6a8.74,8.74,0,0,1,.55,1.39c.32.91.79,2.23,1.3,3.87,1.08,3.27,2.48,7.84,3.92,12.89s2.61,9.68,3.41,13c.4,1.68.7,3,.9,4a8.19,8.19,0,0,1,.26,1.48,8.14,8.14,0,0,1-.44-1.43c-.28-1-.63-2.35-1.05-3.92-.89-3.33-2.12-7.93-3.55-13s-2.77-9.63-3.76-12.93L170,280.06A9,9,0,0,1,169.65,278.6Z"/><path class="cls-5" d="M175.09,305a16.6,16.6,0,0,0-11.88-9.4c-1.32-.25-2.94-.22-3.68.91s-.1,2.63.69,3.71a14.22,14.22,0,0,0,14.9,5.21"/><path class="cls-4" d="M164.65,299.37a3.14,3.14,0,0,1,.87.09,6.86,6.86,0,0,1,1,.22,12,12,0,0,1,1.3.38,17.27,17.27,0,0,1,3.2,1.5,18.5,18.5,0,0,1,6.18,6,17.57,17.57,0,0,1,1.56,3.13,9.76,9.76,0,0,1,.43,1.29,7,7,0,0,1,.26,1,2.78,2.78,0,0,1,.11.86c-.09,0-.33-1.2-1.11-3a19.41,19.41,0,0,0-1.65-3,22.07,22.07,0,0,0-2.71-3.24,21.37,21.37,0,0,0-3.32-2.6,19.94,19.94,0,0,0-3.09-1.57C165.86,299.67,164.64,299.46,164.65,299.37Z"/></g></svg>