<svg id="Background_Simple" data-name="Background Simple" xmlns="http://www.w3.org/2000/svg" xmlns:xlink="http://www.w3.org/1999/xlink" viewBox="0 0 358.97 358.97"><defs><style>.cls-1{fill:#fafafa;}.cls-2,.cls-6{fill:#e0e0e0;}.cls-2,.cls-3,.cls-4,.cls-8{fill-rule:evenodd;}.cls-3,.cls-7{fill:#f5f5f5;}.cls-4,.cls-5{fill:#ebebeb;}.cls-8{fill:url(#Gradiente_sem_nome_26);}.cls-9{fill:#4d5a64;}.cls-10{fill:#2e353a;}.cls-11{fill:#db7e1e;}.cls-12{fill:#976020;}.cls-13{fill:#fff;}.cls-14{fill:#ca515b;}.cls-15{opacity:0.2;}.cls-16{fill:#eebd9d;}.cls-17{fill:#d79870;}.cls-18{opacity:0.3;}</style><linearGradient id="Gradiente_sem_nome_26" x1="185.52" y1="270.42" x2="185.52" y2="28.81" gradientUnits="userSpaceOnUse"><stop offset="0" stop-color="#925d1f" stop-opacity="0.1"/><stop offset="1" stop-color="#db7e1e" stop-opacity="0.1"/></linearGradient></defs><title>img2</title><path class="cls-1" d="M77.65,107.33H74.93a1.92,1.92,0,0,0-.82.09,1.22,1.22,0,0,0-.64.57,1.31,1.31,0,0,0-.16.43,2.57,2.57,0,0,0,0,.48v.5a2.27,2.27,0,0,1,0,.52,1.35,1.35,0,0,1-.61.87,1.21,1.21,0,0,1-.53.19,5.56,5.56,0,0,1-.58,0H61.68a1,1,0,0,1-.39,0,1.29,1.29,0,0,1-.68-.41,1.39,1.39,0,0,1-.33-.74,2.82,2.82,0,0,1,0-.41V109a2.12,2.12,0,0,0-.08-.8,1.33,1.33,0,0,0-.48-.64,1.29,1.29,0,0,0-.79-.21H52.64a4.28,4.28,0,0,0-1.83.34,4.35,4.35,0,0,0-1.52,1.14,4.09,4.09,0,0,0-.86,1.73,4.21,4.21,0,0,0-.09.49c0,.14,0,.28,0,.42v66.85a4.51,4.51,0,0,0,.17,1.32,4.15,4.15,0,0,0,1.62,2.22,4.25,4.25,0,0,0,2.66.73H77.5c.88,0,1.76,0,2.63,0a4.1,4.1,0,0,0,2.35-.91,4.21,4.21,0,0,0,.85-.94,4,4,0,0,0,.53-1.15,4.3,4.3,0,0,0,.15-1.24v-1.27c0-1.68,0-3.35,0-5,0-13.15,0-25,0-34.95s0-18,0-23.57v-2a4.33,4.33,0,0,0-.3-1.68,4.47,4.47,0,0,0-.79-1.24,4.07,4.07,0,0,0-1-.77,4,4,0,0,0-1.56-.55,2.82,2.82,0,0,0-.42,0H77.65Z"/><path class="cls-1" d="M313.83,107.33h-2.72a1.92,1.92,0,0,0-.82.09,1.28,1.28,0,0,0-.65.57,1.57,1.57,0,0,0-.15.43,2.57,2.57,0,0,0,0,.48v.5a2.27,2.27,0,0,1,0,.52,1.35,1.35,0,0,1-.61.87,1.25,1.25,0,0,1-.53.19,5.61,5.61,0,0,1-.58,0h-9.86a1.09,1.09,0,0,1-.4,0,1.27,1.27,0,0,1-.67-.41,1.39,1.39,0,0,1-.33-.74,2.82,2.82,0,0,1,0-.41V109a2.12,2.12,0,0,0-.08-.8,1.29,1.29,0,0,0-.49-.64,1.24,1.24,0,0,0-.78-.21h-6.27a4.28,4.28,0,0,0-1.83.34,4.35,4.35,0,0,0-1.52,1.14,4.11,4.11,0,0,0-.87,1.73c0,.16-.05.33-.08.49s0,.28,0,.42v66.85a4.51,4.51,0,0,0,.17,1.32,4.15,4.15,0,0,0,1.62,2.22,4.25,4.25,0,0,0,2.66.73h24.73c.88,0,1.76,0,2.63,0a4.1,4.1,0,0,0,2.35-.91,4.21,4.21,0,0,0,.85-.94,3.74,3.74,0,0,0,.52-1.15,4,4,0,0,0,.16-1.24V172.1c0-13.15,0-25,0-34.95s0-18,0-23.57v-2a4.16,4.16,0,0,0-.31-1.68,4.24,4.24,0,0,0-.78-1.24,4.07,4.07,0,0,0-.95-.77,4,4,0,0,0-1.56-.55,2.82,2.82,0,0,0-.43,0h-2.38Z"/><path class="cls-2" d="M159.63,54a13.59,13.59,0,0,1,.08,3.6l2.78,1.87-2,5.16-3.31-.48a13.41,13.41,0,0,1-2.49,2.62l.65,3.28-5.06,2.24-2-2.68a13.67,13.67,0,0,1-3.61.09l-1.86,2.78-5.17-2,.49-3.31a13.71,13.71,0,0,1-2.62-2.49l-3.28.65L130,60.23l2.69-2a13.26,13.26,0,0,1-.09-3.61l-2.78-1.87,2-5.16,3.31.48a13.37,13.37,0,0,1,2.49-2.61L137,42.17,142,39.93l2,2.68a13.67,13.67,0,0,1,3.61-.09l1.86-2.78,5.17,2-.48,3.32a13.6,13.6,0,0,1,2.61,2.48l3.28-.64L162.31,52l-2.68,2Zm-7.95,0a5.94,5.94,0,1,0-3,7.84A5.94,5.94,0,0,0,151.68,53.91Z"/><path class="cls-3" d="M155.6,23.92a9.12,9.12,0,0,1,.05,2.39l1.84,1.23L156.18,31,154,30.63a9,9,0,0,1-1.65,1.73l.43,2.17L149.42,36l-1.32-1.77a8.64,8.64,0,0,1-2.38.06l-1.23,1.84-3.42-1.32.32-2.19A8.94,8.94,0,0,1,139.66,31l-2.17.43L136,28.07l1.77-1.32a9.58,9.58,0,0,1-.06-2.39l-1.83-1.23,1.31-3.41,2.19.32A9.31,9.31,0,0,1,141,18.31l-.43-2.17L144,14.66l1.32,1.77a8.71,8.71,0,0,1,2.39-.06l1.23-1.84,3.42,1.32L152,18a8.94,8.94,0,0,1,1.73,1.64l2.16-.43,1.49,3.35-1.77,1.32Zm-5.25,0a3.93,3.93,0,1,0-2,5.18A3.93,3.93,0,0,0,150.35,23.9Z"/><path class="cls-2" d="M251.25,246.18a15.41,15.41,0,0,1,.1,4.23l3.26,2.19-2.33,6.06-3.88-.57a16.3,16.3,0,0,1-2.92,3.07l.76,3.85-5.94,2.63L238,264.49a15.81,15.81,0,0,1-4.23.11l-2.19,3.26-6.06-2.34.57-3.88a16,16,0,0,1-3.07-2.92l-3.85.76-2.63-5.94,3.15-2.34a15.81,15.81,0,0,1-.11-4.23l-3.26-2.19,2.34-6.06,3.88.57a16,16,0,0,1,2.92-3.07l-.76-3.84,5.93-2.64,2.35,3.15a15.4,15.4,0,0,1,4.23-.1l2.19-3.26,6,2.33-.56,3.88a16,16,0,0,1,3.06,2.92l3.85-.76,2.64,5.94-3.15,2.34Zm-9.31,0a7,7,0,1,0-3.55,9.19A7,7,0,0,0,241.94,246.14Z"/><path class="cls-3" d="M235.57,282.14a9.23,9.23,0,0,1,.06,2.46l1.9,1.28-1.36,3.53-2.26-.33a9.24,9.24,0,0,1-1.7,1.78l.44,2.25-3.46,1.53-1.36-1.83a9.3,9.3,0,0,1-2.47.06l-1.27,1.9-3.53-1.36.33-2.27a9.27,9.27,0,0,1-1.79-1.7l-2.24.45-1.53-3.46,1.83-1.37a9.23,9.23,0,0,1-.06-2.46l-1.9-1.28,1.36-3.53,2.26.34a9,9,0,0,1,1.7-1.79l-.44-2.24,3.46-1.54,1.36,1.84a9.32,9.32,0,0,1,2.47-.07l1.27-1.89,3.53,1.36-.33,2.26a9.29,9.29,0,0,1,1.79,1.7l2.24-.44,1.54,3.45-1.84,1.37Zm-5.42,0a4.06,4.06,0,1,0-2.07,5.36A4.06,4.06,0,0,0,230.15,282.11Z"/><path class="cls-4" d="M177.85,40.54a8.16,8.16,0,0,1,.05,2.15l1.66,1.12-1.19,3.08-2-.29a7.54,7.54,0,0,1-1.48,1.56l.39,2-3,1.34-1.19-1.6a7.77,7.77,0,0,1-2.15,0l-1.12,1.66-3.08-1.18.29-2a7.86,7.86,0,0,1-1.56-1.49l-2,.39-1.34-3,1.6-1.2a8.17,8.17,0,0,1-.06-2.15L160,39.83l1.19-3.09,2,.29a8.14,8.14,0,0,1,1.49-1.56l-.39-2,3-1.34,1.19,1.6a8.25,8.25,0,0,1,2.16-.05l1.11-1.66,3.09,1.19-.29,2a8.14,8.14,0,0,1,1.56,1.49l2-.39,1.34,3-1.6,1.2Zm-4.75,0a3.54,3.54,0,1,0-1.8,4.68A3.54,3.54,0,0,0,173.1,40.52Z"/><path class="cls-5" d="M297,263.79a13,13,0,0,1,8.06-1,6.72,6.72,0,0,1,4,1.78c1,1.1,1.18,3,0,4a3.84,3.84,0,0,1-2.52.63c-2.13,0-4.49-.4-6.19.89-1,.73-1.62,1.94-2.78,2.3a2.74,2.74,0,0,1-3-1.34,4.71,4.71,0,0,1-.34-3.46A5.31,5.31,0,0,1,297,263.79Z"/><path class="cls-5" d="M291.41,252.94c1.5,2.15,4.41,1.44,5.77.13a10.9,10.9,0,0,0,2.44-5c1.19-4.13,2.38-8.46,1.5-12.66A7,7,0,0,0,299.5,232a3.69,3.69,0,0,0-3.48-1.16c-1.47.39-2.38,1.83-3,3.2a30.31,30.31,0,0,0-3,13,10.49,10.49,0,0,0,1.42,6"/><path class="cls-5" d="M287.29,256a7.77,7.77,0,0,0,1.21-7.17,13.84,13.84,0,0,0-4.24-6.17,23,23,0,0,0-7.61-4.48,8.08,8.08,0,0,0-3.42-.59,3.62,3.62,0,0,0-2.87,1.74c-.8,1.53,0,3.38.79,4.89a59.05,59.05,0,0,0,5,7.61c1.5,1.93,3.21,3.83,5.5,4.71s4.65.77,5.86-.82"/><path class="cls-6" d="M291.31,285.26a4.76,4.76,0,0,0,.13-1c.07-.71.16-1.6.26-2.65s.29-2.45.6-3.9a29.55,29.55,0,0,1,1.42-4.6,17.08,17.08,0,0,1,2.34-4.16,8.94,8.94,0,0,1,3-2.47,8.49,8.49,0,0,1,2.5-.78,4.24,4.24,0,0,0,1-.14,5.31,5.31,0,0,0-1,0,7.43,7.43,0,0,0-2.61.68,8.6,8.6,0,0,0-3.13,2.49,16.41,16.41,0,0,0-2.44,4.24,28,28,0,0,0-1.4,4.67,32.42,32.42,0,0,0-.52,4c-.08,1.13-.12,2-.13,2.67A4.1,4.1,0,0,0,291.31,285.26Z"/><path class="cls-6" d="M291.49,283.21a1.72,1.72,0,0,0,0-.45c0-.34,0-.77,0-1.29,0-1.12,0-2.74.06-4.75.1-4,.45-8.31,1.11-14.39.63-5.72,1.48-12.37,2.37-16.69.19-1,.39-1.87.57-2.65s.32-1.44.46-2,.23-.93.3-1.26a1.36,1.36,0,0,0,.08-.44,2.23,2.23,0,0,0-.15.42c-.1.32-.23.73-.38,1.24s-.34,1.2-.53,2-.42,1.66-.63,2.64a146.86,146.86,0,0,0-2.49,15.49,156.73,156.73,0,0,0-1,15.65c0,2,0,3.63.07,4.75,0,.53.06.95.08,1.29A2.23,2.23,0,0,0,291.49,283.21Z"/><path class="cls-6" d="M291.52,272.52a8.71,8.71,0,0,0,0-1.35c-.05-.87-.17-2.12-.41-3.66a50.16,50.16,0,0,0-1.19-5.32,44.1,44.1,0,0,0-2.23-6.3,33.63,33.63,0,0,0-6.54-10.19,16.23,16.23,0,0,0-1.54-1.43,7.68,7.68,0,0,0-.66-.55l-.59-.42a7.07,7.07,0,0,0-1.14-.72,39.26,39.26,0,0,1,3.72,3.32A35.19,35.19,0,0,1,287.31,256a49.18,49.18,0,0,1,2.24,6.25c.58,1.95,1,3.75,1.27,5.27s.44,2.76.53,3.62A8,8,0,0,0,291.52,272.52Z"/><polygon class="cls-6" points="281.18 291.38 282.25 306.07 301.12 306.07 302.19 291.38 281.18 291.38"/><rect class="cls-6" x="279.36" y="285.6" width="25.08" height="5.79"/><polygon class="cls-5" points="279.36 305.5 279.36 307.11 280.54 307.11 304.02 307.11 304.02 305.5 279.36 305.5"/><polygon class="cls-6" points="281.69 309.93 280.54 307.11 303.12 307.11 301.78 309.93 281.69 309.93"/><path class="cls-7" d="M301.84,296.18l-.09.14-.28.37c-.27.34-.64.81-1.1,1.41l-.05.06-.05-.07-2.7-3.73h.16l-2.66,3.76-.08.12-.1-.11-3.15-3.75h.18l-.17.22-2.82,3.53-.09.12-.09-.13-2.66-3.76h.15L283,298.1l-.06.07,0-.08-1-1.72-.26-.46c-.06-.1-.09-.16-.08-.16s0,0,.11.14.17.26.29.44c.26.42.62,1,1.08,1.7h-.11l3.23-3.78.08-.09.07.1,2.68,3.74h-.18l2.82-3.54.17-.22.09-.11.09.11,3.14,3.76h-.17l2.68-3.74.08-.11.08.11c1.06,1.52,2,2.81,2.64,3.77h-.1l1.15-1.37.3-.35Z"/><path class="cls-7" d="M302.45,291.29c0,.06-4.73.11-10.56.11s-10.55,0-10.55-.11,4.72-.12,10.55-.12S302.45,291.22,302.45,291.29Z"/><path class="cls-7" d="M303.4,307.27c0,.06-5.13.11-11.47.11s-11.47-.05-11.47-.11,5.13-.12,11.47-.12S303.4,307.2,303.4,307.27Z"/><path class="cls-8" d="M327.87,61.88a50,50,0,0,0-7.59-12.59c-19.12-22.69-64.09-29-85.67-6.22C216.5,62.18,218.46,96,197,111.29c-13.08,9.32-30.87,8.37-46.46,4.51s-30.81-10.27-46.87-10.64c-23.42-.55-46.36,12.78-58.55,32.78C25,171,35.72,218,65.8,241.56c16,12.55,36.48,17.67,56.44,21.6,25,4.94,50.52,8.54,76,6.83,37.77-2.54,73.68-18.75,98.32-47.93q.75-.88,1.47-1.77c31.82-38.69,44.4-89.92,35.36-139.16A90.73,90.73,0,0,0,327.87,61.88Z"/><path class="cls-9" d="M325,310.24c0,.1-63.9.18-142.7.18s-142.72-.08-142.72-.18,63.89-.17,142.72-.17S325,310.15,325,310.24Z"/><rect class="cls-10" x="73.53" y="278.42" width="37.89" height="5.21"/><path class="cls-10" d="M111.49,283.69h-38v-5.33h38Zm-37.9-.13h37.77v-5.07H73.59Z"/><polygon class="cls-10" points="77.04 281.9 82.5 308.81 102.68 308.81 107.95 283.63 77.04 281.9"/><polygon class="cls-9" points="77.04 306.26 79.95 310.26 104.48 310.26 107.95 306.26 77.04 306.26"/><path class="cls-10" d="M91.05,282.68c-.07,0-.17-12.46-.21-27.84s0-27.84.06-27.84.17,12.46.21,27.84S91.13,282.68,91.05,282.68Z"/><path class="cls-10" d="M99.5,251.48a1.76,1.76,0,0,1-.11.29c-.08.22-.2.48-.33.81l-.25.58-.25.71c-.1.25-.19.53-.3.81s-.18.6-.28.93a38.64,38.64,0,0,0-1.06,4.64,56.87,56.87,0,0,0-.58,5.8,77.35,77.35,0,0,0,.3,10.6c.12,1.35.24,2.44.33,3.2,0,.35.07.64.1.87a1.06,1.06,0,0,1,0,.31,1.78,1.78,0,0,1-.07-.3c0-.23-.08-.52-.14-.87-.12-.75-.28-1.84-.42-3.19A69,69,0,0,1,96.07,266a52,52,0,0,1,.61-5.83,34.44,34.44,0,0,1,1.12-4.66c.11-.32.19-.64.3-.92s.22-.56.31-.81l.28-.71c.09-.21.19-.4.27-.57s.28-.58.38-.79A1.77,1.77,0,0,1,99.5,251.48Z"/><path class="cls-10" d="M98.53,241.4a3,3,0,0,1-.12.41c-.1.29-.23.68-.4,1.16l-.29.84-.3,1c-.22.73-.48,1.55-.71,2.47l-.38,1.44c-.11.5-.23,1-.36,1.57-.26,1.09-.45,2.27-.7,3.5-.41,2.48-.78,5.21-1,8.1s-.35,5.65-.38,8.16,0,4.78.12,6.68c0,.95.1,1.8.15,2.56s.09,1.4.14,1.93.06.92.09,1.22a2,2,0,0,1,0,.43,3.16,3.16,0,0,1-.07-.42c0-.31-.08-.71-.14-1.22S94,280.05,94,279.3s-.14-1.61-.19-2.56c-.13-1.9-.18-4.17-.18-6.69s.12-5.29.36-8.18.63-5.64,1.06-8.12c.25-1.24.45-2.42.73-3.5l.37-1.58.4-1.44c.24-.92.51-1.74.74-2.46l.33-1c.11-.31.22-.58.31-.83l.45-1.15A2.17,2.17,0,0,1,98.53,241.4Z"/><path class="cls-10" d="M88.66,284.89s0-.05,0-.15,0-.25,0-.43c0-.39-.06-.95-.11-1.65-.09-1.45-.22-3.52-.38-6.07-.33-5.13-.81-12.21-1.67-20-.44-3.89-1-7.59-1.48-10.94-.28-1.68-.54-3.27-.83-4.75s-.56-2.86-.82-4.12-.53-2.39-.75-3.38-.43-1.85-.61-2.55-.3-1.22-.39-1.6l-.1-.42c0-.1,0-.15,0-.15l0,.14.12.41.44,1.6c.2.69.42,1.54.66,2.53s.53,2.12.79,3.38.57,2.63.85,4.12.56,3.07.85,4.75c.55,3.35,1.07,7,1.51,10.95.86,7.8,1.31,14.89,1.59,20,.14,2.56.24,4.64.29,6.08l.06,1.65v.58Z"/><path class="cls-11" d="M90.75,233A3.76,3.76,0,0,0,87,229.87a5.88,5.88,0,0,0-4.51,2.45,14.21,14.21,0,0,0-2.17,4.82A32.68,32.68,0,0,0,79,250a19.45,19.45,0,0,0,5.34,11.57,1.7,1.7,0,0,0,2.81.24A28.7,28.7,0,0,0,96.47,240a8.84,8.84,0,0,0-1.17-4.7c-.9-1.36-3-2.81-4.55-2.26"/><path class="cls-12" d="M77.5,218.84q-1.25,2.26-2.5,4.53c-.06.1-.13.22-.25.23s-.23-.11-.3-.22q-3.32-5.07-6.61-10.14l1.52-.86Z"/><path class="cls-11" d="M90.9,227,68.37,213.7a1,1,0,0,1-.55-.55,1,1,0,0,1,.4-.9,15.56,15.56,0,0,1,12-4.74,13.79,13.79,0,0,1,10.89,6.77A12.44,12.44,0,0,1,90.9,227"/><path class="cls-10" d="M71.62,209.46a1.22,1.22,0,0,1,.29,0c.19,0,.48,0,.85,0a16.66,16.66,0,0,1,3.13.25A18,18,0,0,1,80.34,211a17.84,17.84,0,0,1,8.34,7.55,18.15,18.15,0,0,1,1.79,4.29,17.09,17.09,0,0,1,.56,3.09,6.3,6.3,0,0,1,0,.66,1.05,1.05,0,0,1-.17.49,3.77,3.77,0,0,0,0-1.14,18.46,18.46,0,0,0-15.07-16.1,18.58,18.58,0,0,0-3.09-.33C72,209.47,71.62,209.48,71.62,209.46Z"/><path class="cls-10" d="M87.85,217.82a6.22,6.22,0,0,1-1.14.52c-.72.28-1.72.64-2.84,1s-2.15.64-2.9.82a6.44,6.44,0,0,1-1.23.24,5.7,5.7,0,0,1,1.18-.42l2.86-.9,2.86-.92A5.58,5.58,0,0,1,87.85,217.82Z"/><path class="cls-10" d="M84.3,208.29a9.86,9.86,0,0,1,.27,2.51,10.07,10.07,0,0,1-.14,2.53,48.93,48.93,0,0,1-.13-5Z"/><path class="cls-10" d="M68.17,213.45a9.6,9.6,0,0,1,1.64-.58c1-.31,2.45-.71,4-1.09s3-.68,4.09-.87a11.47,11.47,0,0,1,1.72-.23,11.21,11.21,0,0,1-1.68.42c-1,.23-2.49.56-4.07.94s-3,.75-4,1A13,13,0,0,1,68.17,213.45Z"/><path class="cls-11" d="M81.39,229.16A9.25,9.25,0,0,0,75,227.49a19.55,19.55,0,0,0-7,1.82,21.61,21.61,0,0,0-9.64,7.58c-2.27,3.48-3.06,8.07-1.36,11.85a1.66,1.66,0,0,0,.76.94,1.9,1.9,0,0,0,1.28-.1,70.89,70.89,0,0,0,12.64-5,23.91,23.91,0,0,0,9.72-9.29,8.08,8.08,0,0,0,1-3.08,3.82,3.82,0,0,0-1-3"/><path class="cls-10" d="M81.43,228.7a1.36,1.36,0,0,1-.31.13l-.9.31-.66.22c-.24.08-.49.19-.77.3-.54.22-1.18.44-1.84.76l-1.06.48c-.37.17-.74.38-1.13.58-.78.39-1.57.88-2.42,1.38a40.69,40.69,0,0,0-5.11,3.79,41.8,41.8,0,0,0-4.42,4.59c-.6.78-1.19,1.5-1.67,2.23-.25.36-.5.69-.71,1s-.42.67-.62,1c-.4.62-.7,1.22-1,1.73l-.4.72-.3.63-.42.85a1.52,1.52,0,0,1-.17.3l.12-.32c.1-.22.22-.52.38-.88l.28-.63c.11-.23.24-.47.37-.74.28-.52.57-1.13,1-1.76l.6-1c.21-.34.46-.69.71-1,.47-.74,1.06-1.47,1.66-2.26a37.44,37.44,0,0,1,9.59-8.44c.86-.49,1.66-1,2.45-1.36.39-.19.76-.4,1.14-.56l1.07-.47c.68-.32,1.32-.53,1.87-.74.28-.1.54-.2.78-.27l.66-.2.93-.26Z"/><path class="cls-10" d="M66.29,236.9a44.81,44.81,0,0,1-4.71,1.52,48.06,48.06,0,0,1-4.79,1.26,41.23,41.23,0,0,1,4.72-1.52A45.18,45.18,0,0,1,66.29,236.9Z"/><path class="cls-10" d="M66.1,247.3a7,7,0,0,1-.1-1.47c0-.91,0-2.16,0-3.55s.11-2.64.19-3.54a7,7,0,0,1,.18-1.46,8.56,8.56,0,0,1,0,1.47c0,1-.07,2.2-.11,3.54s-.07,2.55-.09,3.54A8.69,8.69,0,0,1,66.1,247.3Z"/><path class="cls-10" d="M75,242.76c-.07,0-.31-2.55-.53-5.7s-.33-5.71-.26-5.71.31,2.54.53,5.7S75.09,242.75,75,242.76Z"/><path class="cls-10" d="M63.92,231.1a8,8,0,0,1,1.51,0c.93,0,2.22,0,3.64.08s2.7.1,3.63.16a8,8,0,0,1,1.51.14,8.49,8.49,0,0,1-1.51.05c-.93,0-2.22,0-3.64-.08s-2.71-.11-3.64-.16A8.23,8.23,0,0,1,63.92,231.1Z"/><path class="cls-10" d="M85.31,262.13a1.4,1.4,0,0,1,0-.3c0-.22,0-.51,0-.86,0-.76,0-1.85,0-3.19s.12-2.95.28-4.73.43-3.72.79-5.75.82-3.93,1.29-5.66,1-3.25,1.4-4.53.84-2.29,1.14-3l.34-.8a1.16,1.16,0,0,1,.14-.27.94.94,0,0,1-.09.29l-.29.82c-.27.71-.63,1.73-1.06,3s-.88,2.82-1.34,4.54-.89,3.62-1.26,5.64-.62,4-.81,5.72-.29,3.37-.34,4.71-.07,2.43-.07,3.19v.86A1.71,1.71,0,0,1,85.31,262.13Z"/><path class="cls-10" d="M86.5,247.38a6.42,6.42,0,0,1-.9,1c-.59.58-1.41,1.36-2.36,2.19s-1.82,1.55-2.48,2.05a6.24,6.24,0,0,1-1.09.76,6.38,6.38,0,0,1,1-.91l2.42-2.1,2.41-2.13A7.56,7.56,0,0,1,86.5,247.38Z"/><path class="cls-10" d="M93.63,253.13a9.62,9.62,0,0,1-1-1.33l-2.23-3.25-2.27-3.21a12.41,12.41,0,0,1-.91-1.36,9,9,0,0,1,1.06,1.24c.63.8,1.46,1.91,2.34,3.18s1.64,2.44,2.17,3.3A9,9,0,0,1,93.63,253.13Z"/><path class="cls-10" d="M89.89,235.06c0,.06-2.33,1.66-5.29,3.56S79.2,242,79.16,242s2.33-1.66,5.29-3.56S89.85,235,89.89,235.06Z"/><path class="cls-10" d="M96.57,242.27A44.58,44.58,0,0,1,93,239a45.37,45.37,0,0,1-3.4-3.5,43.38,43.38,0,0,1,3.59,3.31A46.29,46.29,0,0,1,96.57,242.27Z"/><path class="cls-11" d="M98.25,242.13l2-.17a10.06,10.06,0,0,0,4.11-1.26,17,17,0,0,1,1.91-1c2.52-1,5.32-.83,8-1a33.31,33.31,0,0,0,12.77-3.27,1.21,1.21,0,0,0,.55-.5c.42-.76-.36-1.44-1-1.85-3.43-2.11-6.92-4.25-10.8-5.3s-8.3-.87-11.61,1.41c-3.89,2.68-5.31,8.18-6,12.86"/><path class="cls-10" d="M127.7,234.76l-.35-.16-1-.51c-.84-.44-2-1.09-3.56-1.82a33.69,33.69,0,0,0-5.51-2.12,18.36,18.36,0,0,0-7.14-.58,12.2,12.2,0,0,0-6.52,2.8,14.52,14.52,0,0,0-3.39,4.76c-.71,1.52-1.15,2.82-1.47,3.71l-.36,1-.14.36a1.6,1.6,0,0,1,.09-.37l.31-1a33.42,33.42,0,0,1,1.4-3.75,14.47,14.47,0,0,1,3.4-4.87,12.41,12.41,0,0,1,6.64-2.88,18.23,18.23,0,0,1,7.24.61,32.31,32.31,0,0,1,5.53,2.19c1.52.76,2.71,1.43,3.53,1.9l.94.55Z"/><path class="cls-10" d="M122.81,237.38c0,.06-2.7-1.66-5.94-3.84s-5.83-4-5.79-4.07,2.71,1.66,6,3.84S122.86,237.32,122.81,237.38Z"/><path class="cls-10" d="M120,229.33a10.19,10.19,0,0,1-3.91.32,13.25,13.25,0,0,1,2-.2A14.26,14.26,0,0,1,120,229.33Z"/><path class="cls-10" d="M108.33,227.81a4.89,4.89,0,0,1-.87,1.37,5.8,5.8,0,0,1-1.1,1.25,4.77,4.77,0,0,1,.87-1.36A6.36,6.36,0,0,1,108.33,227.81Z"/><path class="cls-10" d="M110.72,239a7.11,7.11,0,0,1-1.28-.7c-.77-.46-1.81-1.15-2.92-1.95s-2.09-1.57-2.79-2.13a7.68,7.68,0,0,1-1.1-.94,7.86,7.86,0,0,1,1.22.79l2.83,2.06c1.11.8,2.12,1.51,2.86,2A8.31,8.31,0,0,1,110.72,239Z"/><path class="cls-11" d="M101.24,250.77c-1.94-.52-4.25,1.37-4.65,3.34s.34,4,1.2,5.78a29.58,29.58,0,0,0,8,10.5,19.8,19.8,0,0,0,12.27,4.51c-.82-3.8.22-7.78-.24-11.65A15.16,15.16,0,0,0,104.41,250c-1.24-.13-2.67-.33-3.17.82"/><path class="cls-10" d="M118.08,274.9a1,1,0,0,1-.28-.12,5.13,5.13,0,0,1-.72-.49,7.52,7.52,0,0,1-1.92-2.56c-.31-.6-.65-1.26-1-2s-.68-1.49-1-2.3a21.68,21.68,0,0,0-1.29-2.47,19.36,19.36,0,0,0-1.76-2.4c-1.33-1.56-2.75-2.91-4-4.2a26.74,26.74,0,0,1-3-3.65,13.83,13.83,0,0,1-1.49-2.83,8.07,8.07,0,0,1-.25-.84c0-.19-.07-.29-.07-.29s.14.39.42,1.09a14.52,14.52,0,0,0,1.55,2.77,28.12,28.12,0,0,0,3.06,3.58c1.24,1.27,2.67,2.62,4,4.2a19.19,19.19,0,0,1,1.79,2.43,22,22,0,0,1,1.28,2.5l1,2.32c.33.72.66,1.38,1,2a8.06,8.06,0,0,0,1.81,2.57A9.79,9.79,0,0,0,118.08,274.9Z"/><path class="cls-10" d="M108.05,271.74a5.1,5.1,0,0,1,.18-1.31c.15-.8.4-1.89.73-3.09s.7-2.26,1-3a5.22,5.22,0,0,1,.53-1.2,7.92,7.92,0,0,1-.35,1.26c-.24.78-.57,1.85-.91,3s-.61,2.27-.81,3.05A7.13,7.13,0,0,1,108.05,271.74Z"/><path class="cls-10" d="M117.71,262.39a8.55,8.55,0,0,1-1.37-.31c-.83-.22-2-.52-3.27-.81s-2.45-.51-3.3-.68a7.74,7.74,0,0,1-1.37-.3,6.82,6.82,0,0,1,1.4.12c.86.11,2,.31,3.33.6s2.44.62,3.27.88A7.22,7.22,0,0,1,117.71,262.39Z"/><path class="cls-10" d="M100.85,265.11a8.45,8.45,0,0,1,.21-1.51c.17-.93.44-2.2.81-3.59s.74-2.64,1-3.53a8.32,8.32,0,0,1,.55-1.42,8.38,8.38,0,0,1-.37,1.48c-.26.9-.61,2.15-1,3.53s-.66,2.65-.88,3.56A9.37,9.37,0,0,1,100.85,265.11Z"/><path class="cls-10" d="M113.26,254.24a51.59,51.59,0,0,1-5.41-.44c-3-.31-5.38-.63-5.38-.7a51.59,51.59,0,0,1,5.41.44C110.86,253.85,113.27,254.17,113.26,254.24Z"/><path class="cls-9" d="M111.49,283.61c0,.07-8.51.13-19,.13s-19-.06-19-.13,8.51-.14,19-.14S111.49,283.53,111.49,283.61Z"/><path class="cls-9" d="M105.57,294.56c0,.07-5.74.14-12.81.14S80,294.63,80,294.56s5.73-.13,12.81-.13S105.57,294.49,105.57,294.56Z"/><path class="cls-9" d="M105.34,296.13c0,.07-5.63.13-12.58.13s-12.59-.06-12.59-.13,5.64-.14,12.59-.14S105.34,296.05,105.34,296.13Z"/><path class="cls-9" d="M105.79,293.27c0,.07-5.93.13-13.25.13s-13.25-.06-13.25-.13,5.93-.14,13.25-.14S105.79,293.19,105.79,293.27Z"/><path class="cls-1" d="M114.53,79.12H110.2a3.25,3.25,0,0,0-1.31.15,2,2,0,0,0-1,.91,2.1,2.1,0,0,0-.24.69,4.9,4.9,0,0,0,0,.77v.8a3.29,3.29,0,0,1,0,.82,2.14,2.14,0,0,1-1,1.39,1.93,1.93,0,0,1-.85.3c-.31,0-.61,0-.92,0H89.06a2.28,2.28,0,0,1-.63-.06,2.14,2.14,0,0,1-1.08-.66,2.24,2.24,0,0,1-.53-1.18,4.71,4.71,0,0,1,0-.65v-.65a3.6,3.6,0,0,0-.13-1.27,2,2,0,0,0-2-1.36h-10a7,7,0,0,0-2.92.55,6.85,6.85,0,0,0-2.43,1.82,6.6,6.6,0,0,0-1.5,3.54q0,.33,0,.66V192.36a6.76,6.76,0,0,0,.26,2.1A6.67,6.67,0,0,0,70.6,198a7,7,0,0,0,4.25,1.16h39.44c1.41,0,2.82,0,4.2,0a6.62,6.62,0,0,0,3.75-1.45,6.9,6.9,0,0,0,1.36-1.5,6.3,6.3,0,0,0,.83-1.83,6.6,6.6,0,0,0,.25-2v-2q0-4,0-8c0-21,0-39.88,0-55.75s0-28.71,0-37.59V86A6.62,6.62,0,0,0,123,81.29a6.33,6.33,0,0,0-1.51-1.23,6.2,6.2,0,0,0-2.49-.88,4.13,4.13,0,0,0-.68-.06l-.23,0h-3.58Z"/><path class="cls-10" d="M118.18,79.19h.23a5.22,5.22,0,0,1,.68,0,6.7,6.7,0,0,1,4,2.1,6.67,6.67,0,0,1,1.27,2,7,7,0,0,1,.5,2.7v3.14c0,8.88,0,21.72,0,37.59s0,34.77,0,55.75v10a7.34,7.34,0,0,1-.25,2,7,7,0,0,1-.86,1.88,7.47,7.47,0,0,1-1.38,1.54,6.76,6.76,0,0,1-3.85,1.49c-1.4,0-2.78,0-4.19,0H75.08a7,7,0,0,1-4.34-1.2,6.75,6.75,0,0,1-2.64-3.65,7.13,7.13,0,0,1-.28-2.25V181.2q0-8.85,0-17.42c0-11.42,0-22.44,0-32.93s0-20.47,0-29.8c0-4.66,0-9.17,0-13.5V85.93c0-.26,0-.54,0-.8s.07-.54.14-.8a6.69,6.69,0,0,1,1.4-2.82,7,7,0,0,1,2.47-1.85,7.09,7.09,0,0,1,3-.56h10A2.15,2.15,0,0,1,87,80.55a3.5,3.5,0,0,1,.13,1.32v.64c0,.22,0,.43,0,.64a2.13,2.13,0,0,0,.5,1.11,2,2,0,0,0,1,.64,2.4,2.4,0,0,0,.6.06h15.68c.3,0,.61,0,.9,0a2.06,2.06,0,0,0,.82-.29,2.08,2.08,0,0,0,.93-1.34,4.42,4.42,0,0,0,.06-.81v-.8a3.94,3.94,0,0,1,0-.77,2.46,2.46,0,0,1,.25-.72A2.08,2.08,0,0,1,109,79.3a3.33,3.33,0,0,1,1.32-.14h0a3.2,3.2,0,0,0-1.3.14,2,2,0,0,0-1,.91,2.15,2.15,0,0,0-.24.7,3.81,3.81,0,0,0,0,.76v.8a3.24,3.24,0,0,1-.06.82,2.15,2.15,0,0,1-1,1.4,2.06,2.06,0,0,1-.85.3c-.31,0-.6,0-.91,0H89.24a2.3,2.3,0,0,1-.63-.07,2,2,0,0,1-1.07-.66A2.24,2.24,0,0,1,87,83.16a4.66,4.66,0,0,1,0-.65v-.64a3.63,3.63,0,0,0-.13-1.28,2,2,0,0,0-.78-1,2,2,0,0,0-1.24-.35h-10a6.83,6.83,0,0,0-2.91.56,6.64,6.64,0,0,0-2.41,1.81,6.47,6.47,0,0,0-1.37,2.76c-.07.26-.09.52-.14.78s0,.53,0,.79V192.35a7.07,7.07,0,0,0,.27,2.2,6.6,6.6,0,0,0,2.57,3.55,6.8,6.8,0,0,0,4.23,1.16h39.3c1.4,0,2.8,0,4.18,0a6.59,6.59,0,0,0,3.74-1.45,6.88,6.88,0,0,0,1.35-1.5,6.3,6.3,0,0,0,.83-1.83,6.6,6.6,0,0,0,.25-2v-2c0-2.69,0-5.34,0-8,0-21,0-39.88,0-55.75s0-28.71,0-37.59V86a6.74,6.74,0,0,0-.49-2.68,6.51,6.51,0,0,0-1.25-2,6.64,6.64,0,0,0-4-2.11,5.67,5.67,0,0,0-.68-.06Z"/><path class="cls-10" d="M119.47,90s-1.1.06-2.46.08-2.46,0-2.46,0S115.65,90,117,90,119.47,90,119.47,90Z"/><path class="cls-10" d="M119.48,91.24s-1.1.06-2.46.07-2.46,0-2.46,0,1.1-.06,2.46-.07S119.48,91.21,119.48,91.24Z"/><path class="cls-10" d="M119.49,92.5s-1.1.06-2.46.07-2.46,0-2.46,0,1.11-.06,2.46-.07S119.49,92.47,119.49,92.5Z"/><path class="cls-10" d="M74.73,93.94h.39l1,0,0,0v-.77c0-.14,0-.27,0-.43a.4.4,0,0,1,.35-.33c.17,0,.32,0,.5,0a.41.41,0,0,1,.35.41c0,.35,0,.72,0,1.11l0,0,1.33,0-.05.06c0-.54,0-1.09,0-1.66v-.42c0-.13-.08-.21-.19-.31L77.78,91l-.55-.55L77,90.13c-.09-.09-.16-.18-.27-.2a.33.33,0,0,0-.3.06,2.77,2.77,0,0,0-.25.24l-.48.48c-.29.31-.61.59-.83.86a.92.92,0,0,0-.07.49v1.22c0,.2,0,.35,0,.48a.54.54,0,0,1,0,.18s0,0,0-.16V93.3l0-.75c0-.15,0-.31,0-.48v-.26a.58.58,0,0,1,.07-.28c.25-.3.54-.56.84-.88l.47-.49.26-.25a.47.47,0,0,1,.38-.08.72.72,0,0,1,.32.23l.27.27.57.55.58.57a1.14,1.14,0,0,1,.14.16.34.34,0,0,1,.07.22v.42c0,.57,0,1.12,0,1.66v0H77.25v0c0-.39,0-.76,0-1.11a.33.33,0,0,0-.27-.33h-.48a.32.32,0,0,0-.28.26,3,3,0,0,0,0,.42V94H74.73Z"/><path class="cls-10" d="M108.13,138c0,.19-5.27.35-11.76.35S84.6,138.21,84.6,138s5.27-.34,11.77-.34S108.13,137.83,108.13,138Z"/><rect class="cls-11" x="84.98" y="103.5" width="22.85" height="30.4" transform="translate(-22.84 214.44) rotate(-89.68)"/><polygon class="cls-12" points="81.14 130.04 91.84 115.9 98.36 124.82 102.85 120.1 111.54 130.21 81.14 130.04"/><path class="cls-12" d="M101.21,114.21a2.39,2.39,0,1,1-2.38-2.41A2.38,2.38,0,0,1,101.21,114.21Z"/><path class="cls-10" d="M117.29,146.43c0,.19-9.34.35-20.86.35s-20.87-.16-20.87-.35,9.34-.35,20.87-.35S117.29,146.24,117.29,146.43Z"/><path class="cls-10" d="M117.29,152.25c0,.19-9.34.34-20.86.34s-20.87-.15-20.87-.34,9.34-.35,20.87-.35S117.29,152.06,117.29,152.25Z"/><path class="cls-10" d="M117.29,158.06c0,.2-9.34.35-20.86.35s-20.87-.15-20.87-.35,9.34-.34,20.87-.34S117.29,157.87,117.29,158.06Z"/><path class="cls-10" d="M117.29,163.88c0,.19-9.34.35-20.86.35s-20.87-.16-20.87-.35,9.34-.34,20.87-.34S117.29,163.69,117.29,163.88Z"/><path class="cls-10" d="M117.29,169.7c0,.19-9.34.35-20.86.35s-20.87-.16-20.87-.35,9.34-.35,20.87-.35S117.29,169.51,117.29,169.7Z"/><path class="cls-10" d="M108.32,175a17.71,17.71,0,0,1-3.51.25c-2.17.06-5.16.1-8.47.1s-6.3,0-8.47-.1a17.71,17.71,0,0,1-3.51-.25,18.31,18.31,0,0,1,3.51-.24c2.17-.06,5.16-.1,8.47-.1s6.3,0,8.47.1A18.31,18.31,0,0,1,108.32,175Z"/><path class="cls-1" d="M156.63,69.35h-4.82a3.78,3.78,0,0,0-1.45.15,2.3,2.3,0,0,0-1.15,1,2.43,2.43,0,0,0-.27.77,4.77,4.77,0,0,0,0,.85v.89a4.11,4.11,0,0,1-.06.92,2.4,2.4,0,0,1-1.08,1.55,2.22,2.22,0,0,1-.94.34c-.35,0-.68,0-1,0H128.32a2.38,2.38,0,0,1-.7-.07,2.26,2.26,0,0,1-1.2-.74,2.53,2.53,0,0,1-.59-1.31,6,6,0,0,1,0-.73v-.72a3.77,3.77,0,0,0-.15-1.42,2.28,2.28,0,0,0-.86-1.13,2.16,2.16,0,0,0-1.38-.38H112.3a7.61,7.61,0,0,0-3.25.61,7.7,7.7,0,0,0-2.69,2,7.37,7.37,0,0,0-1.53,3.09,8.13,8.13,0,0,0-.15.86l0,.74v119a7.71,7.71,0,0,0,.29,2.34,7.4,7.4,0,0,0,2.87,3.95,7.58,7.58,0,0,0,4.72,1.3h43.83c1.56,0,3.13,0,4.66,0a7.25,7.25,0,0,0,4.18-1.62,7.45,7.45,0,0,0,1.5-1.67,7.25,7.25,0,0,0,.93-2,7.84,7.84,0,0,0,.28-2.21V184.57c0-23.4,0-44.47,0-62.18s0-32,0-41.92V77a7.38,7.38,0,0,0-1.93-5.2,7.28,7.28,0,0,0-1.68-1.37,6.93,6.93,0,0,0-2.77-1,5.28,5.28,0,0,0-.75-.07l-.26,0h-4Z"/><path class="cls-10" d="M160.28,69.28h.25a4,4,0,0,1,.76.06,6.87,6.87,0,0,1,2.78,1,7.15,7.15,0,0,1,1.7,1.37,7.5,7.5,0,0,1,2,5.24v3.5c0,9.9,0,24.23,0,41.93s0,38.77,0,62.17v11.14a8,8,0,0,1-.29,2.27,7.41,7.41,0,0,1-.94,2.09,8.45,8.45,0,0,1-1.55,1.72,7.46,7.46,0,0,1-4.29,1.66c-1.56,0-3.11,0-4.67,0H112.2a7.88,7.88,0,0,1-4.84-1.33,7.58,7.58,0,0,1-2.94-4.07,8,8,0,0,1-.31-2.52V163.62c0-12.74,0-25,0-36.73s0-22.82,0-33.23c0-5.2,0-10.23,0-15.06V76.8c0-.3,0-.6,0-.9a8.7,8.7,0,0,1,.15-.89,7.65,7.65,0,0,1,1.56-3.15,7.85,7.85,0,0,1,2.76-2.06,7.69,7.69,0,0,1,3.3-.62h11.12a2.38,2.38,0,0,1,2.37,1.6,3.91,3.91,0,0,1,.15,1.47V73a4.13,4.13,0,0,0,0,.71,2.33,2.33,0,0,0,.55,1.25,2.2,2.2,0,0,0,1.14.7,2.46,2.46,0,0,0,.67.07h3.36l9.8,0h4.32c.34,0,.69,0,1,0a2.2,2.2,0,0,0,.91-.32,2.31,2.31,0,0,0,1-1.5,3.86,3.86,0,0,0,.06-.9v-.89a6.12,6.12,0,0,1,0-.86,2.62,2.62,0,0,1,.28-.8,2.33,2.33,0,0,1,1.19-1,3.76,3.76,0,0,1,1.47-.16l4.82,0h-4.82a3.78,3.78,0,0,0-1.45.15,2.3,2.3,0,0,0-1.15,1,2.19,2.19,0,0,0-.26.77,4,4,0,0,0,0,.85V73a4.11,4.11,0,0,1-.06.92,2.43,2.43,0,0,1-1.07,1.55,2.26,2.26,0,0,1-.95.34c-.34,0-.67,0-1,0H128a2.35,2.35,0,0,1-.7-.07,2.26,2.26,0,0,1-1.2-.74,2.46,2.46,0,0,1-.59-1.31,5.94,5.94,0,0,1,0-.73v-.72a3.76,3.76,0,0,0-.14-1.42,2.4,2.4,0,0,0-.86-1.13,2.19,2.19,0,0,0-1.39-.38H112A7.37,7.37,0,0,0,106,72a7.49,7.49,0,0,0-1.53,3.09c-.07.28-.09.57-.14.86s0,.59,0,.89c0,.6,0,1.2,0,1.8V195.48a7.84,7.84,0,0,0,.3,2.46,7.39,7.39,0,0,0,2.86,3.95,7.6,7.6,0,0,0,4.72,1.3H156c1.56,0,3.12,0,4.65,0a7.25,7.25,0,0,0,4.18-1.62,7.75,7.75,0,0,0,1.51-1.67,7.22,7.22,0,0,0,.92-2,7.49,7.49,0,0,0,.28-2.21v-2.25q0-4.5,0-8.89c0-23.4,0-44.47,0-62.17s0-32,0-41.93c0-1.24,0-2.4,0-3.5a7.66,7.66,0,0,0-.54-3,7.34,7.34,0,0,0-1.4-2.21,7.46,7.46,0,0,0-4.45-2.35,5.28,5.28,0,0,0-.75-.07Z"/><path class="cls-10" d="M161.71,81.32s-1.22.06-2.74.08-2.74,0-2.74,0,1.23-.07,2.74-.08S161.71,81.28,161.71,81.32Z"/><path class="cls-10" d="M161.73,82.72s-1.23.07-2.75.08-2.74,0-2.74,0,1.23-.06,2.74-.08S161.73,82.69,161.73,82.72Z"/><path class="cls-10" d="M161.74,84.12s-1.23.07-2.75.08-2.74,0-2.74,0,1.23-.07,2.74-.08S161.74,84.09,161.74,84.12Z"/><path class="cls-10" d="M111.82,85.73s0,0,.11,0h.32l1.17,0,0,0c0-.26,0-.54,0-.85a4.13,4.13,0,0,1,0-.49.45.45,0,0,1,.39-.36c.19,0,.35,0,.56,0a.45.45,0,0,1,.38.45c0,.4,0,.81,0,1.24l-.06,0,1.48,0-.06.06c0-.6,0-1.21,0-1.84v-.47a.51.51,0,0,0-.2-.35l-.65-.64-.62-.61-.31-.3a.71.71,0,0,0-.3-.23.41.41,0,0,0-.34.07,3.5,3.5,0,0,0-.28.27l-.53.53c-.33.35-.68.67-.93,1a1,1,0,0,0-.07.56V85c0,.21,0,.39,0,.53v.2s0-.06,0-.18,0-.32,0-.53,0-.52,0-.85c0-.16,0-.34,0-.53v-.29a.6.6,0,0,1,.08-.31c.27-.33.6-.63.94-1l.52-.54a4,4,0,0,1,.29-.29.5.5,0,0,1,.43-.08.81.81,0,0,1,.35.25l.3.3.63.61L116,83a1,1,0,0,1,.16.18.44.44,0,0,1,.08.25v.47c0,.63,0,1.24,0,1.84v.06h-1.59V85.7c0-.43,0-.84,0-1.24a.36.36,0,0,0-.3-.36h-.53a.37.37,0,0,0-.32.29c0,.15,0,.32,0,.47v.88h-1.63Z"/><path class="cls-11" d="M141.69,93.41a5,5,0,1,1-4.95-5A4.95,4.95,0,0,1,141.69,93.41Z"/><path class="cls-13" d="M138.44,95.41H135V95a1.7,1.7,0,0,1,1.7-1.7h0a1.7,1.7,0,0,1,1.7,1.7Z"/><path class="cls-13" d="M137.73,92.41a1,1,0,1,1-1-1A1,1,0,0,1,137.73,92.41Z"/><path class="cls-10" d="M149.07,106.5c0,.21-5.88.39-13.13.39s-13.12-.18-13.12-.39,5.87-.38,13.12-.38S149.07,106.29,149.07,106.5Z"/><rect class="cls-11" x="111.93" y="116.79" width="17.03" height="22.66" transform="translate(-8.34 247.86) rotate(-89.68)"/><polygon class="cls-12" points="109.07 136.58 117.05 126.03 121.91 132.69 125.26 129.16 131.74 136.7 109.07 136.58"/><path class="cls-12" d="M124,124.78a1.79,1.79,0,1,1-1.78-1.8A1.79,1.79,0,0,1,124,124.78Z"/><rect class="cls-11" x="115.48" y="135.47" width="39.38" height="52.39" transform="translate(-27.25 295.93) rotate(-89.68)"/><polygon class="cls-12" points="108.87 181.21 127.3 156.84 138.55 172.21 146.28 164.07 161.26 181.5 108.87 181.21"/><path class="cls-12" d="M143.46,153.93a4.13,4.13,0,1,1-4.1-4.15A4.13,4.13,0,0,1,143.46,153.93Z"/><rect class="cls-11" x="141.85" y="116.79" width="17.03" height="22.66" transform="translate(21.41 277.78) rotate(-89.68)"/><polygon class="cls-14" points="138.99 136.58 146.97 126.03 151.83 132.69 155.18 129.16 161.65 136.7 138.99 136.58"/><circle class="cls-14" cx="152.17" cy="124.77" r="1.78"/><g class="cls-15"><polygon class="cls-12" points="138.99 136.58 146.97 126.03 151.83 132.69 155.18 129.16 161.65 136.7 138.99 136.58"/></g><g class="cls-15"><circle cx="152.17" cy="124.77" r="1.78"/></g><path class="cls-1" d="M297,76h-4.33a3.22,3.22,0,0,0-1.3.14,2.06,2.06,0,0,0-1,.91,2.32,2.32,0,0,0-.24.7,4.74,4.74,0,0,0,0,.76v.8a3.77,3.77,0,0,1-.05.82,2.13,2.13,0,0,1-1.81,1.7c-.31,0-.61,0-.92,0H271.6a2.19,2.19,0,0,1-.62-.07,2,2,0,0,1-1.08-.66,2.24,2.24,0,0,1-.53-1.18,4.71,4.71,0,0,1,0-.65v-.64a3.41,3.41,0,0,0-.13-1.28,2.09,2.09,0,0,0-.77-1,2,2,0,0,0-1.24-.35h-10a6.8,6.8,0,0,0-2.91.56,6.58,6.58,0,0,0-3.79,4.57,7,7,0,0,0-.13.78c0,.22,0,.44,0,.66V189.23a6.59,6.59,0,0,0,7.06,6.81h39.31c1.39,0,2.8,0,4.17,0a6.65,6.65,0,0,0,3.75-1.45,7.14,7.14,0,0,0,1.35-1.5,6.57,6.57,0,0,0,.83-1.83,6.94,6.94,0,0,0,.25-2v-10c0-21,0-39.88,0-55.75s0-28.71,0-37.59V82.82a6.6,6.6,0,0,0-1.73-4.66,6.38,6.38,0,0,0-1.51-1.23,6.28,6.28,0,0,0-2.48-.88,5.38,5.38,0,0,0-.67-.06l-.23,0H297Z"/><rect class="cls-5" x="259.71" y="121.18" width="37.5" height="7.66"/><path class="cls-10" d="M300.67,75.93h.23a5.67,5.67,0,0,1,.68.06,6.3,6.3,0,0,1,2.5.86,6.42,6.42,0,0,1,1.52,1.23,6.8,6.8,0,0,1,1.27,2,7.07,7.07,0,0,1,.5,2.71v3.14c0,8.87,0,21.72,0,37.59s0,34.77,0,55.75v10a7.41,7.41,0,0,1-.25,2,6.89,6.89,0,0,1-.86,1.87,7,7,0,0,1-1.38,1.54,6.77,6.77,0,0,1-3.85,1.5c-1.4,0-2.78,0-4.19,0h-39.3a7.13,7.13,0,0,1-4.34-1.2,6.78,6.78,0,0,1-2.64-3.65,7.2,7.2,0,0,1-.28-2.25V177.93q0-8.85,0-17.42c0-11.42,0-22.43,0-32.93s0-20.46,0-29.79q0-7,0-13.51V82.67c0-.27,0-.54,0-.81s.07-.53.14-.79a6.73,6.73,0,0,1,1.4-2.83,6.78,6.78,0,0,1,5.43-2.4h10a2.15,2.15,0,0,1,1.31.36,2.26,2.26,0,0,1,.82,1.07,3.5,3.5,0,0,1,.13,1.32v.65c0,.22,0,.43,0,.63a2.16,2.16,0,0,0,.5,1.12,2,2,0,0,0,1,.63,2.4,2.4,0,0,0,.6.06h3l8.78,0h3.88a9,9,0,0,0,.9,0,1.91,1.91,0,0,0,.82-.28,2.1,2.1,0,0,0,.93-1.35,4.29,4.29,0,0,0,.06-.81v-.79a4.07,4.07,0,0,1,0-.78,2.4,2.4,0,0,1,.25-.71,2.08,2.08,0,0,1,1.07-.94,3.16,3.16,0,0,1,1.32-.14h0a3.38,3.38,0,0,0-1.3.14,2,2,0,0,0-1,.92,2.1,2.1,0,0,0-.24.69,3.94,3.94,0,0,0,0,.77v.79a3.35,3.35,0,0,1-.06.83,2.15,2.15,0,0,1-1,1.39,1.93,1.93,0,0,1-.85.3c-.31,0-.6,0-.91,0H271.73a2.28,2.28,0,0,1-.63-.06,2.06,2.06,0,0,1-1.07-.67,2.21,2.21,0,0,1-.53-1.17,4.75,4.75,0,0,1,0-.65V78.6a3.68,3.68,0,0,0-.13-1.28,2.09,2.09,0,0,0-.78-1,2,2,0,0,0-1.24-.34h-10a7,7,0,0,0-2.91.55A6.87,6.87,0,0,0,252,78.33a6.51,6.51,0,0,0-1.37,2.77c-.07.25-.09.52-.14.78s0,.52,0,.79V189.09a7.14,7.14,0,0,0,.27,2.2,6.54,6.54,0,0,0,2.57,3.54,6.88,6.88,0,0,0,4.23,1.17h39.3c1.4,0,2.8,0,4.18,0a6.53,6.53,0,0,0,3.74-1.46,7.06,7.06,0,0,0,1.35-1.49,6.42,6.42,0,0,0,.83-1.83,6.71,6.71,0,0,0,.25-2v-2c0-2.68,0-5.34,0-8,0-21,0-39.88,0-55.75s0-28.72,0-37.59V82.78a6.79,6.79,0,0,0-.49-2.69,6.51,6.51,0,0,0-1.25-2,6.6,6.6,0,0,0-1.5-1.23,6.28,6.28,0,0,0-2.48-.87,6.2,6.2,0,0,0-.68-.07Z"/><path class="cls-10" d="M302,86.72s-1.1.06-2.46.07-2.46,0-2.46,0,1.1-.06,2.46-.07S302,86.69,302,86.72Z"/><path class="cls-10" d="M302,88s-1.1.06-2.46.07-2.46,0-2.46,0,1.1-.06,2.46-.07S302,88,302,88Z"/><path class="cls-10" d="M302,89.24s-1.1.06-2.46.07-2.46,0-2.46,0,1.11-.06,2.46-.08S302,89.21,302,89.24Z"/><path class="cls-10" d="M257.22,90.67h.39l1.05,0,0,0c0-.23,0-.49,0-.76s0-.28,0-.44a.39.39,0,0,1,.35-.32h.5a.43.43,0,0,1,.35.41c0,.36,0,.73,0,1.11l-.05-.05h1.33l-.05,0c0-.53,0-1.08,0-1.65v-.42a.4.4,0,0,0-.19-.31c-.19-.2-.39-.39-.58-.57l-.56-.56-.27-.26c-.09-.09-.16-.19-.27-.21a.36.36,0,0,0-.3.06l-.25.24q-.24.26-.48.48c-.29.31-.61.6-.83.86a.94.94,0,0,0-.07.5V90c0,.19,0,.35,0,.48s0,.17,0,.17,0,0,0-.16V90l0-.76v-.73a.53.53,0,0,1,.07-.28c.25-.3.54-.57.84-.89l.47-.48c.09-.08.16-.17.26-.25a.41.41,0,0,1,.38-.08.65.65,0,0,1,.32.23l.27.26c.19.18.37.37.57.55l.58.57a1.14,1.14,0,0,1,.14.16.39.39,0,0,1,.07.23c0,.14,0,.28,0,.42,0,.56,0,1.12,0,1.65v0h-1.42V89.54a.32.32,0,0,0-.27-.32c-.15,0-.33,0-.48,0a.31.31,0,0,0-.28.26,2.91,2.91,0,0,0,0,.42v.79h-1.47Z"/><rect class="cls-5" x="259.79" y="132.6" width="37.5" height="7.66"/><rect class="cls-5" x="259.79" y="143.72" width="37.5" height="7.66"/><path class="cls-11" d="M288.28,166.6H269.46a3.83,3.83,0,0,1-3.83-3.83h0a3.82,3.82,0,0,1,3.83-3.83h18.82a3.82,3.82,0,0,1,3.83,3.83h0A3.83,3.83,0,0,1,288.28,166.6Z"/><path class="cls-10" d="M290.54,113.26c0,.19-5.26.35-11.76.35s-11.77-.16-11.77-.35,5.27-.35,11.77-.35S290.54,113.07,290.54,113.26Z"/><path class="cls-1" d="M266.24,68.06h-4.82a3.61,3.61,0,0,0-1.45.16,2.23,2.23,0,0,0-1.15,1,2.43,2.43,0,0,0-.27.77,4.77,4.77,0,0,0,0,.85v.89a4.11,4.11,0,0,1-.06.92,2.43,2.43,0,0,1-1.07,1.55,2.26,2.26,0,0,1-.95.34c-.34,0-.68,0-1,0H237.93a2.32,2.32,0,0,1-.69-.07,2.29,2.29,0,0,1-1.21-.74,2.52,2.52,0,0,1-.58-1.31,5.86,5.86,0,0,1,0-.72V71a3.76,3.76,0,0,0-.14-1.42,2.4,2.4,0,0,0-.86-1.13,2.19,2.19,0,0,0-1.39-.38H221.91A7.37,7.37,0,0,0,216,70.72a7.49,7.49,0,0,0-1.53,3.09c-.07.28-.09.57-.15.86l0,.74v119a7.72,7.72,0,0,0,.3,2.34,7.39,7.39,0,0,0,2.86,4,7.6,7.6,0,0,0,4.72,1.3h15l19.42,0H266c1.56,0,3.12,0,4.65,0a7.25,7.25,0,0,0,4.18-1.62,7.75,7.75,0,0,0,1.51-1.67,7.22,7.22,0,0,0,.92-2,7.45,7.45,0,0,0,.28-2.21v-2.25q0-4.5,0-8.89c0-23.4,0-44.47,0-62.17s0-32,0-41.93c0-1.24,0-2.4,0-3.5a7.66,7.66,0,0,0-.54-3,7.47,7.47,0,0,0-1.4-2.21A7.08,7.08,0,0,0,274,69.11a6.88,6.88,0,0,0-2.77-1,5.28,5.28,0,0,0-.75-.07l-.25,0h-4Z"/><path class="cls-10" d="M270.27,68.14h.25a7.34,7.34,0,0,1,3.54,1,7.49,7.49,0,0,1,3.11,3.6,7.62,7.62,0,0,1,.56,3c0,1.1,0,2.27,0,3.5,0,9.91,0,24.23,0,41.93s0,38.78,0,62.18v11.13a8.26,8.26,0,0,1-.28,2.27,7.6,7.6,0,0,1-.95,2.09A7.7,7.7,0,0,1,275,200.6a7.54,7.54,0,0,1-4.29,1.67c-1.56,0-3.11,0-4.67,0H222.19a7.89,7.89,0,0,1-4.84-1.34,7.63,7.63,0,0,1-2.94-4.07,8.23,8.23,0,0,1-.31-2.51V181.91q0-9.87,0-19.43c0-12.74,0-25,0-36.72s0-22.83,0-33.24V77.46c0-.6,0-1.2,0-1.8,0-.3,0-.6,0-.9a8.5,8.5,0,0,1,.15-.88,7.53,7.53,0,0,1,1.56-3.15A7.58,7.58,0,0,1,222,68h11.12a2.36,2.36,0,0,1,1.46.4,2.45,2.45,0,0,1,.91,1.2,3.89,3.89,0,0,1,.15,1.47v.72a5.54,5.54,0,0,0,0,.71,2.34,2.34,0,0,0,.55,1.24,2.22,2.22,0,0,0,1.14.71,2.5,2.5,0,0,0,.67.06h17.48c.34,0,.69,0,1,0a2.06,2.06,0,0,0,.91-.31,2.33,2.33,0,0,0,1-1.5,3.9,3.9,0,0,0,.06-.9V71a6.33,6.33,0,0,1,0-.87,2.82,2.82,0,0,1,.28-.8,2.4,2.4,0,0,1,1.19-1,3.61,3.61,0,0,1,1.48-.16h0a3.63,3.63,0,0,0-1.46.16,2.21,2.21,0,0,0-1.14,1,2.36,2.36,0,0,0-.27.77,4.86,4.86,0,0,0,0,.86v.89a4.14,4.14,0,0,1-.06.92,2.44,2.44,0,0,1-1.07,1.55,2.25,2.25,0,0,1-.95.33c-.34,0-.67,0-1,0H238a2.76,2.76,0,0,1-.7-.06,2.34,2.34,0,0,1-1.2-.75,2.42,2.42,0,0,1-.59-1.31,5.77,5.77,0,0,1,0-.72c0-.24,0-.48,0-.72a3.79,3.79,0,0,0-.14-1.43,2.34,2.34,0,0,0-.86-1.13,2.32,2.32,0,0,0-1.39-.38H222a7.58,7.58,0,0,0-3.24.62,7.41,7.41,0,0,0-2.7,2,7.57,7.57,0,0,0-1.53,3.08c-.07.28-.09.58-.14.87s0,.58,0,.88V194.35a7.77,7.77,0,0,0,.3,2.45,7.41,7.41,0,0,0,2.86,4,7.67,7.67,0,0,0,4.72,1.3H266c1.56,0,3.12,0,4.66,0a7.36,7.36,0,0,0,4.17-1.62,8,8,0,0,0,1.51-1.68,7,7,0,0,0,.92-2,7.56,7.56,0,0,0,.28-2.22v-2.25c0-3,0-6,0-8.88,0-23.4,0-44.48,0-62.18s0-32,0-41.93c0-1.23,0-2.4,0-3.5a7.73,7.73,0,0,0-.54-3,7.47,7.47,0,0,0-1.4-2.21A6.89,6.89,0,0,0,274,69.21a7.51,7.51,0,0,0-3.52-1Z"/><path class="cls-10" d="M271.71,80.18s-1.23.07-2.75.08-2.74,0-2.74,0,1.23-.06,2.74-.08S271.71,80.15,271.71,80.18Z"/><path class="cls-10" d="M271.72,81.58s-1.23.07-2.75.08-2.74,0-2.74,0,1.23-.07,2.74-.08S271.72,81.55,271.72,81.58Z"/><path class="cls-10" d="M271.73,83s-1.23.06-2.74.08-2.75,0-2.75,0S267.47,83,269,83,271.73,83,271.73,83Z"/><path class="cls-10" d="M221.81,84.59h.43l1.17,0,0,0c0-.26,0-.55,0-.85s0-.31,0-.49a.44.44,0,0,1,.39-.36,5.14,5.14,0,0,1,.56,0,.46.46,0,0,1,.38.46c0,.39,0,.81,0,1.23l-.06,0h1.48l-.06,0V82.71c0-.16,0-.31,0-.47a.48.48,0,0,0-.2-.35l-.65-.63-.62-.62-.3-.3c-.11-.1-.19-.2-.31-.22a.37.37,0,0,0-.34.06l-.27.27c-.19.18-.36.36-.53.54-.34.34-.69.66-.94,1a1.13,1.13,0,0,0-.07.55V83c0,.32,0,.6,0,.84v.54c0,.12,0,.19,0,.19a1.23,1.23,0,0,1,0-.18c0-.14,0-.32,0-.53s0-.52,0-.84,0-.35,0-.53v-.29a.65.65,0,0,1,.08-.31c.27-.34.6-.63.94-1l.52-.54c.1-.09.18-.19.29-.28A.51.51,0,0,1,224,80a.85.85,0,0,1,.35.26l.3.29.63.62.65.63a1.45,1.45,0,0,1,.16.18.44.44,0,0,1,.08.25v.47c0,.63,0,1.25,0,1.84v.06h-1.59v-.05c0-.43,0-.85,0-1.24a.35.35,0,0,0-.3-.36,4.68,4.68,0,0,0-.53,0,.36.36,0,0,0-.32.28c0,.15,0,.33,0,.48v.88h-1.63Z"/><circle class="cls-11" cx="246.79" cy="112.28" r="12.41" transform="translate(98.06 338.98) rotate(-81.2)"/><path class="cls-13" d="M251.05,117.29h-8.52v-1.05a4.26,4.26,0,0,1,4.26-4.26h0a4.26,4.26,0,0,1,4.26,4.26Z"/><circle class="cls-13" cx="246.79" cy="109.78" r="2.5"/><rect class="cls-5" x="224.67" y="138.9" width="41.83" height="8.54"/><rect class="cls-5" x="224.67" y="151.3" width="41.83" height="8.54"/><path class="cls-11" d="M256.45,176.82h-21a4.27,4.27,0,0,1-4.27-4.27h0a4.27,4.27,0,0,1,4.27-4.27h21a4.27,4.27,0,0,1,4.27,4.27h0A4.27,4.27,0,0,1,256.45,176.82Z"/><path class="cls-10" d="M259.06,133.75c0,.22-5.88.39-13.12.39s-13.13-.17-13.13-.39,5.88-.38,13.13-.38S259.06,133.54,259.06,133.75Z"/><path class="cls-6" d="M230.45,145.06H228.6a.33.33,0,0,1-.33-.33h0a1.24,1.24,0,0,1,1.24-1.23h0a1.23,1.23,0,0,1,1.23,1.23h0A.33.33,0,0,1,230.45,145.06Z"/><path class="cls-6" d="M230.26,142.85a.74.74,0,1,1-.73-.74A.73.73,0,0,1,230.26,142.85Z"/><rect class="cls-6" x="228.42" y="155.71" width="2.21" height="1.56"/><path class="cls-6" d="M230.87,156h-.73v-.48a.63.63,0,0,0-.63-.63.63.63,0,0,0-.62.63V156h-.74v-.48a1.36,1.36,0,1,1,2.72,0Z"/><path class="cls-1" d="M222,41.84h-7.18a5.5,5.5,0,0,0-2.16.24,3.37,3.37,0,0,0-1.71,1.52,3.49,3.49,0,0,0-.4,1.15,7.62,7.62,0,0,0-.06,1.27v1.32a6.34,6.34,0,0,1-.08,1.37,3.6,3.6,0,0,1-1.6,2.31,3.36,3.36,0,0,1-1.41.5c-.51,0-1,0-1.52,0h-26a3.78,3.78,0,0,1-1-.1,3.47,3.47,0,0,1-1.78-1.1,3.71,3.71,0,0,1-.88-2,7.88,7.88,0,0,1,0-1.08V46.25a5.79,5.79,0,0,0-.22-2.12,3.54,3.54,0,0,0-1.28-1.68,3.4,3.4,0,0,0-2.07-.57H155.92a11,11,0,0,0-8.85,3.93,11,11,0,0,0-2.27,4.59c-.11.42-.14.86-.22,1.29s0,.73-.05,1.1v177a11.67,11.67,0,0,0,.44,3.48,11,11,0,0,0,4.27,5.89,11.43,11.43,0,0,0,7,1.93h22.26l28.93,0h14.09c2.32,0,4.65,0,6.94,0a10.88,10.88,0,0,0,6.22-2.41,11.5,11.5,0,0,0,2.24-2.48,10.7,10.7,0,0,0,1.38-3,11.42,11.42,0,0,0,.41-3.29v-3.35q0-6.69,0-13.23c0-34.83,0-66.19.05-92.54s0-47.66.06-62.39c0-1.85,0-3.58,0-5.22a11.31,11.31,0,0,0-.81-4.45A11.07,11.07,0,0,0,236,45.44a10.84,10.84,0,0,0-2.5-2A10.46,10.46,0,0,0,229.36,42a8.9,8.9,0,0,0-1.12-.11l-.37,0H222Z"/><path class="cls-10" d="M228,41.88h.37a10.1,10.1,0,0,1,1.12.09,11,11,0,0,1,6.66,3.47,11.06,11.06,0,0,1,2.1,3.3,11.25,11.25,0,0,1,.83,4.48c0,1.63,0,3.36,0,5.2,0,14.71,0,36,0,62.28s0,57.61,0,92.37v16.55a12.07,12.07,0,0,1-.42,3.37,11.33,11.33,0,0,1-1.41,3.11,12.39,12.39,0,0,1-2.3,2.55,11.17,11.17,0,0,1-6.38,2.47c-2.31.07-4.61,0-6.94,0h-14l-28.86,0h-22.2a11.65,11.65,0,0,1-7.19-2A11.29,11.29,0,0,1,145,233.1a12.09,12.09,0,0,1-.46-3.73V210.88q0-14.65,0-28.85c0-18.93,0-37.18,0-54.56s0-33.91,0-49.37q0-11.59,0-22.37V53.05c0-.44,0-.89.06-1.34s.11-.88.23-1.31a11.21,11.21,0,0,1,2.32-4.68,11.2,11.2,0,0,1,9-4h16.52a3.48,3.48,0,0,1,2.17.61,3.53,3.53,0,0,1,1.35,1.77,5.83,5.83,0,0,1,.23,2.18v1.08a9.14,9.14,0,0,0,0,1,3.52,3.52,0,0,0,.83,1.85,3.27,3.27,0,0,0,1.68,1,3.69,3.69,0,0,0,1,.1h5l14.55,0H206c.51,0,1,0,1.51,0a3.25,3.25,0,0,0,1.35-.47,3.5,3.5,0,0,0,1.54-2.23,6,6,0,0,0,.09-1.34V46.09a8,8,0,0,1,.06-1.29,3.69,3.69,0,0,1,.42-1.18,3.47,3.47,0,0,1,1.76-1.56,5.53,5.53,0,0,1,2.19-.23l7.16,0,4.4,0H228l-1.51,0H214.91a5.45,5.45,0,0,0-2.15.24,3.35,3.35,0,0,0-1.71,1.51,3.74,3.74,0,0,0-.4,1.15,6.68,6.68,0,0,0-.05,1.27v1.32a5.81,5.81,0,0,1-.09,1.37,3.57,3.57,0,0,1-1.6,2.3,3.27,3.27,0,0,1-1.4.5c-.51.05-1,0-1.52,0H180a3.67,3.67,0,0,1-1-.1,3.5,3.5,0,0,1-1.79-1.1,3.77,3.77,0,0,1-.87-1.95,7.69,7.69,0,0,1,0-1.07V46.31a5.71,5.71,0,0,0-.22-2.11,3.43,3.43,0,0,0-1.28-1.68,3.37,3.37,0,0,0-2.06-.57H156.21a11.34,11.34,0,0,0-4.82.92,11.16,11.16,0,0,0-4,3,10.91,10.91,0,0,0-2.27,4.58c-.11.42-.15.86-.22,1.29s-.06.87-.06,1.31v25c0,15.46,0,32,0,49.37V182q0,14.19,0,28.85v18.49a11.77,11.77,0,0,0,.45,3.64,11,11,0,0,0,4.25,5.88,11.42,11.42,0,0,0,7,1.93h22.2l28.86,0h14c2.32,0,4.65,0,6.92,0a10.88,10.88,0,0,0,6.21-2.4,11.79,11.79,0,0,0,2.24-2.49,10.84,10.84,0,0,0,1.37-3,11.42,11.42,0,0,0,.41-3.29c0-1.12,0-2.24,0-3.35v-13.2c0-34.76,0-66.07,0-92.37s.05-47.57.07-62.28v-5.2a11.31,11.31,0,0,0-.8-4.45,10.79,10.79,0,0,0-2.08-3.27,10.12,10.12,0,0,0-2.49-2,10.93,10.93,0,0,0-5.23-1.56A3.35,3.35,0,0,1,228,41.88Z"/><path class="cls-10" d="M230.11,59.76c0,.05-1.82.1-4.07.12s-4.08,0-4.08-.05,1.82-.1,4.07-.12S230.11,59.71,230.11,59.76Z"/><path class="cls-10" d="M230.13,61.85s-1.83.1-4.08.12S222,62,222,61.91s1.82-.1,4.07-.12S230.13,61.8,230.13,61.85Z"/><path class="cls-10" d="M230.14,63.93s-1.82.1-4.07.12-4.08,0-4.08,0,1.83-.1,4.08-.12S230.14,63.88,230.14,63.93Z"/><path class="cls-10" d="M156,66.31h.64l1.74-.05,0,.05c0-.38,0-.8,0-1.26,0-.23,0-.45,0-.73a.66.66,0,0,1,.58-.53c.28,0,.53,0,.83,0a.67.67,0,0,1,.57.68c0,.58,0,1.2,0,1.84l-.08-.08,2.2,0-.08.09c0-.88,0-1.8,0-2.74v-.69a.76.76,0,0,0-.31-.52l-1-1-.93-.91-.45-.44c-.15-.15-.27-.31-.45-.34a.58.58,0,0,0-.5.09c-.14.12-.28.28-.41.41s-.54.53-.79.79c-.5.52-1,1-1.39,1.43a1.54,1.54,0,0,0-.11.82V64c0,.48,0,.89,0,1.25s0,.58,0,.8a1.23,1.23,0,0,1,0,.28,2.17,2.17,0,0,1,0-.26c0-.21,0-.47,0-.79s0-.77,0-1.25c0-.25,0-.51,0-.79v-.43a.83.83,0,0,1,.12-.46c.4-.5.89-.94,1.39-1.47l.78-.8a5.54,5.54,0,0,1,.42-.42.81.81,0,0,1,.64-.13,1.39,1.39,0,0,1,.53.38l.45.44.93.91,1,.95a2.05,2.05,0,0,1,.24.26.81.81,0,0,1,.12.37v.7c0,.94,0,1.85,0,2.74v.08h-.08l-2.19,0h-.08v-.08c0-.64,0-1.25,0-1.84a.53.53,0,0,0-.44-.54h-.79a.54.54,0,0,0-.48.43c0,.22,0,.48,0,.7v1.31H156Z"/><rect class="cls-7" x="152.71" y="77.33" width="76.97" height="14" rx="5.9"/><path class="cls-10" d="M223.78,91.33l.44,0a6.25,6.25,0,0,0,1.27-.25,6.14,6.14,0,0,0,1.85-1,5.81,5.81,0,0,0,1.76-2.23,5.93,5.93,0,0,0,.46-1.63,14.52,14.52,0,0,0,.05-1.89,11.9,11.9,0,0,0-.09-2,5.74,5.74,0,0,0-.76-2,5.81,5.81,0,0,0-3.89-2.7,15.59,15.59,0,0,0-2.67-.1h-2.85l-60.73,0a5.78,5.78,0,0,0-5.75,5.28c0,.7,0,1.43,0,2.14a6.61,6.61,0,0,0,.22,2.09,5.78,5.78,0,0,0,2.38,3.26,5.41,5.41,0,0,0,1.87.79,8.49,8.49,0,0,0,2,.16h12l27.31,0,18.41,0,5,0h1.75l-.45,0H222l-5,0-18.41,0-27.31,0h-12a8.74,8.74,0,0,1-2.09-.15,5.83,5.83,0,0,1-1.95-.84,6,6,0,0,1-2.5-3.42,6.86,6.86,0,0,1-.23-2.16c0-.72,0-1.42,0-2.16a6.05,6.05,0,0,1,6-5.55l60.73,0h2.85a16.21,16.21,0,0,1,2.71.11,6,6,0,0,1,4.76,4.91,13.35,13.35,0,0,1,.08,2.07,14.9,14.9,0,0,1-.07,1.91,5.83,5.83,0,0,1-2.29,3.9,6.14,6.14,0,0,1-1.88,1,5.92,5.92,0,0,1-1.29.22C223.93,91.34,223.78,91.33,223.78,91.33Z"/><path class="cls-10" d="M225,84s0-.23-.14-.61a2.48,2.48,0,0,0-.93-1.33,2.46,2.46,0,0,0-2.29-.32,2.41,2.41,0,0,0,0,4.52,2.46,2.46,0,0,0,2.29-.32,2.48,2.48,0,0,0,.93-1.33c.11-.38.11-.61.14-.61s0,.06,0,.16a2.41,2.41,0,0,1-.05.47A2.54,2.54,0,0,1,224,86.1a2.66,2.66,0,0,1-2.51.41,2.66,2.66,0,0,1,0-5,2.66,2.66,0,0,1,2.51.41,2.54,2.54,0,0,1,.91,1.47,2.41,2.41,0,0,1,.05.47C225,83.94,225,84,225,84Z"/><path class="cls-10" d="M226.36,88.37c-.06.06-.61-.45-1.24-1.13a4.79,4.79,0,0,1-1-1.33,5.24,5.24,0,0,1,1.24,1.14A5,5,0,0,1,226.36,88.37Z"/><path class="cls-6" d="M163.1,82.93h-1.37v-.35h3.16v.35h-1.38v3.55h-.41Z"/><path class="cls-6" d="M167.71,85.14h-2.46a1.1,1.1,0,0,0,1.16,1,1.16,1.16,0,0,0,.9-.39l.22.26a1.55,1.55,0,0,1-2.67-1,1.43,1.43,0,1,1,2.86,0S167.71,85.09,167.71,85.14Zm-2.46-.3h2.09a1,1,0,0,0-2.09,0Z"/><path class="cls-6" d="M170.31,86.48l-.93-1.22-.94,1.22H168l1.17-1.5-1.11-1.43h.45l.88,1.15.88-1.15h.44L169.59,85l1.17,1.5Z"/><path class="cls-6" d="M173,86.31a1,1,0,0,1-.62.2.78.78,0,0,1-.86-.85V83.88H171v-.33h.53v-.64h.39v.64h.9v.33h-.9v1.76a.47.47,0,0,0,.51.53.67.67,0,0,0,.44-.15Z"/><path d="M205.21,104.67c0,.08-5.63.14-12.58.14s-12.58-.06-12.58-.14,5.63-.14,12.58-.14S205.21,104.59,205.21,104.67Z"/><path d="M225.28,109.83c0,.08-10.13.15-22.61.15s-22.62-.07-22.62-.15,10.12-.14,22.62-.14S225.28,109.75,225.28,109.83Z"/><path d="M224.75,113.52c0,.08-10,.14-22.35.14s-22.35-.06-22.35-.14,10-.14,22.35-.14S224.75,113.44,224.75,113.52Z"/><path d="M206.44,117c0,.08-5.91.14-13.19.14s-13.2-.06-13.2-.14,5.91-.14,13.2-.14S206.44,117,206.44,117Z"/><path d="M205.21,132.74c0,.08-5.63.14-12.58.14s-12.58-.06-12.58-.14,5.63-.14,12.58-.14S205.21,132.66,205.21,132.74Z"/><path d="M225.28,137.9c0,.08-10.13.15-22.61.15s-22.62-.07-22.62-.15,10.12-.14,22.62-.14S225.28,137.82,225.28,137.9Z"/><path d="M224.75,141.59c0,.08-10,.15-22.35.15s-22.35-.07-22.35-.15,10-.14,22.35-.14S224.75,141.51,224.75,141.59Z"/><path d="M206.44,145.11c0,.08-5.91.14-13.19.14s-13.2-.06-13.2-.14,5.91-.14,13.2-.14S206.44,145,206.44,145.11Z"/><path d="M205.21,160.81c0,.08-5.63.14-12.58.14s-12.58-.06-12.58-.14,5.63-.14,12.58-.14S205.21,160.73,205.21,160.81Z"/><path d="M225.28,166c0,.08-10.13.15-22.61.15s-22.62-.07-22.62-.15,10.12-.14,22.62-.14S225.28,165.9,225.28,166Z"/><path d="M224.75,169.66c0,.08-10,.15-22.35.15s-22.35-.07-22.35-.15,10-.14,22.35-.14S224.75,169.58,224.75,169.66Z"/><path d="M206.44,173.18c0,.08-5.91.14-13.19.14s-13.2-.06-13.2-.14,5.91-.14,13.2-.14S206.44,173.1,206.44,173.18Z"/><path d="M205.21,188.88c0,.08-5.63.14-12.58.14s-12.58-.06-12.58-.14,5.63-.14,12.58-.14S205.21,188.8,205.21,188.88Z"/><path d="M225.28,194c0,.08-10.13.15-22.61.15s-22.62-.07-22.62-.15,10.12-.14,22.62-.14S225.28,194,225.28,194Z"/><path d="M224.75,197.73c0,.08-10,.15-22.35.15s-22.35-.07-22.35-.15,10-.14,22.35-.14S224.75,197.65,224.75,197.73Z"/><path d="M206.44,201.25c0,.08-5.91.14-13.19.14s-13.2-.06-13.2-.14,5.91-.14,13.2-.14S206.44,201.17,206.44,201.25Z"/><path d="M205.21,216.75c0,.08-5.63.15-12.58.15s-12.58-.07-12.58-.15,5.63-.14,12.58-.14S205.21,216.67,205.21,216.75Z"/><path d="M225.28,221.92c0,.08-10.13.14-22.61.14s-22.62-.06-22.62-.14,10.12-.15,22.62-.15S225.28,221.84,225.28,221.92Z"/><path d="M224.75,225.61c0,.08-10,.14-22.35.14s-22.35-.06-22.35-.14,10-.15,22.35-.15S224.75,225.53,224.75,225.61Z"/><path d="M206.44,229.12c0,.08-5.91.15-13.19.15s-13.2-.07-13.2-.15,5.91-.14,13.2-.14S206.44,229.05,206.44,229.12Z"/><rect class="cls-11" x="155.6" y="101.97" width="15.41" height="20.5" transform="translate(50.18 274.9) rotate(-89.68)"/><polygon class="cls-12" points="153.01 119.87 160.23 110.33 164.63 116.35 167.65 113.16 173.51 119.98 153.01 119.87"/><path class="cls-12" d="M166.55,109.19a1.62,1.62,0,1,1-1.6-1.62A1.62,1.62,0,0,1,166.55,109.19Z"/><rect class="cls-11" x="155.6" y="129.69" width="15.41" height="20.5" transform="translate(22.46 302.46) rotate(-89.68)"/><polygon class="cls-12" points="153.01 147.58 160.23 138.04 164.63 144.06 167.65 140.87 173.51 147.69 153.01 147.58"/><path class="cls-12" d="M166.55,136.91a1.62,1.62,0,0,1-3.23,0,1.62,1.62,0,1,1,3.23,0Z"/><rect class="cls-11" x="155.6" y="157.4" width="15.41" height="20.5" transform="translate(-5.25 330.02) rotate(-89.68)"/><polygon class="cls-12" points="153.01 175.29 160.23 165.76 164.63 171.77 167.65 168.59 173.51 175.41 153.01 175.29"/><path class="cls-12" d="M166.55,164.62A1.62,1.62,0,1,1,165,163,1.6,1.6,0,0,1,166.55,164.62Z"/><rect class="cls-11" x="155.6" y="185.11" width="15.41" height="20.5" transform="translate(-32.96 357.58) rotate(-89.68)"/><polygon class="cls-12" points="153.01 203.01 160.23 193.47 164.63 199.49 167.65 196.3 173.51 203.12 153.01 203.01"/><path class="cls-12" d="M166.55,192.33a1.62,1.62,0,1,1-1.6-1.62A1.62,1.62,0,0,1,166.55,192.33Z"/><rect class="cls-11" x="155.6" y="212.69" width="15.41" height="20.5" transform="translate(-60.54 385) rotate(-89.68)"/><polygon class="cls-12" points="153.01 230.59 160.23 221.05 164.63 227.06 167.65 223.88 173.51 230.7 153.01 230.59"/><path class="cls-12" d="M166.55,219.91a1.62,1.62,0,1,1-1.6-1.62A1.62,1.62,0,0,1,166.55,219.91Z"/><circle class="cls-11" cx="307.18" cy="78.06" r="7.31" transform="translate(160.94 359.24) rotate(-76.78)"/><path class="cls-13" d="M306.74,80.44a.35.35,0,0,1-.22-.08l-2.46-2a.34.34,0,0,1,0-.48.33.33,0,0,1,.47,0l2.2,1.81,3.12-3.82a.34.34,0,0,1,.48,0,.33.33,0,0,1,0,.47L307,80.31a.31.31,0,0,1-.23.12Z"/><circle class="cls-11" cx="275.64" cy="68.04" r="10.02"/><path class="cls-13" d="M275,71.51a.66.66,0,0,1-.42-.15l-3.37-2.78a.67.67,0,1,1,.85-1L275,69.89l4.15-5.07a.67.67,0,0,1,.94-.1.68.68,0,0,1,.1,1l-4.58,5.59a.66.66,0,0,1-.45.25Z"/><path class="cls-10" d="M233.15,204.1a20.88,20.88,0,0,1-14.76-24.18c-.19.52-.37,1-.52,1.58A20.88,20.88,0,1,0,258,192.92c.15-.54.27-1.08.38-1.62A20.87,20.87,0,0,1,233.15,204.1Z"/><path class="cls-9" d="M243.44,167.19a20.87,20.87,0,0,1,14.76,24.18c.2-.51.37-1,.53-1.58a20.88,20.88,0,1,0-40.17-11.41c-.16.53-.28,1.07-.39,1.61A20.89,20.89,0,0,1,243.44,167.19Z"/><path class="cls-10" d="M259,189.66s0-.12,0-.34l.21-1c0-.21.1-.45.16-.71s.06-.56.11-.88a15.36,15.36,0,0,0,.16-2.19,19.85,19.85,0,0,0-.71-5.95,20.88,20.88,0,0,0-10.82-13.22,19.49,19.49,0,0,0-2.44-1c-.42-.14-.85-.31-1.28-.42l-1.34-.31c-.23,0-.45-.11-.68-.15l-.7-.08c-.46-.05-.93-.13-1.4-.16a22,22,0,0,0-5.8.43c-.49.1-1,.26-1.45.38a10.62,10.62,0,0,0-1.44.49,24.33,24.33,0,0,0-2.81,1.28,24.76,24.76,0,0,0-2.61,1.75,20.23,20.23,0,0,0-4.4,4.68,20.47,20.47,0,0,0-3.58,12.57,20.14,20.14,0,0,0,1.29,6.3,19.06,19.06,0,0,0,3,5.43,9.87,9.87,0,0,0,1,1.17c.34.37.67.75,1,1.1a21.15,21.15,0,0,0,2.27,1.88,20.73,20.73,0,0,0,2.44,1.53c.42.22.85.4,1.28.6l.63.3c.21.09.44.15.65.23l1.3.44c.44.13.88.21,1.32.32a19.85,19.85,0,0,0,2.6.43,20.57,20.57,0,0,0,9.46-1.34,20.79,20.79,0,0,0,6.69-4.21,19.77,19.77,0,0,0,3.74-4.69,15.32,15.32,0,0,0,1-1.95c.14-.29.27-.55.37-.8l.24-.69c.15-.4.26-.71.34-.94s.13-.31.13-.31,0,.11-.1.32-.17.55-.3,1c-.07.21-.14.44-.23.7s-.22.52-.35.81a14,14,0,0,1-1,2,19.78,19.78,0,0,1-3.72,4.76,21.06,21.06,0,0,1-16.31,5.7,20.58,20.58,0,0,1-2.65-.43c-.44-.1-.89-.19-1.33-.32l-1.32-.44c-.22-.08-.45-.14-.66-.24l-.65-.29c-.43-.2-.87-.39-1.3-.61a20.87,20.87,0,0,1-2.48-1.55,22.93,22.93,0,0,1-2.31-1.91c-.36-.35-.7-.74-1.05-1.11a11.57,11.57,0,0,1-1-1.19,19.31,19.31,0,0,1-3.06-5.51,20.16,20.16,0,0,1-1.31-6.4,20.84,20.84,0,0,1,3.63-12.78,20.33,20.33,0,0,1,4.48-4.76,25.68,25.68,0,0,1,2.66-1.78,25,25,0,0,1,2.85-1.29,9.63,9.63,0,0,1,1.46-.49c.5-.13,1-.29,1.48-.4a23.31,23.31,0,0,1,5.89-.42c.48,0,1,.12,1.43.17l.7.09c.23,0,.46.1.69.15l1.36.31c.44.12.87.29,1.3.43a20,20,0,0,1,2.47,1,21,21,0,0,1,10.88,13.43,19.71,19.71,0,0,1,.66,6,16.75,16.75,0,0,1-.2,2.2c-.05.31-.08.61-.13.87s-.12.5-.17.72l-.24,1Z"/><path class="cls-10" d="M251,201.57c.26.18,20,18.41,27.32,25.23a3.17,3.17,0,0,0,4.37,0h0a3.17,3.17,0,0,0,0-4.6L255.54,197.1Z"/><path class="cls-16" d="M149.44,135.4l.41-1.59a6,6,0,0,0-.07-3.16l-1.66-5.54a2,2,0,0,0-1-1.2c-1.26-.73-3.76-2.12-4-2-1.53,1.27,1.89,3.51,1.89,3.51s1.31,1.47.27,2.56-3.41-1.48-3.41-1.48.12-.28.22-.23a4.43,4.43,0,0,0,2.15.92v-1.8l-2-1.26a2,2,0,0,0-1.5-.27l-.69.15a1.8,1.8,0,0,0-1.11.75l-.66,1-.28.38a1.24,1.24,0,0,0-.14,1.27l.32.71-.44.62a1.89,1.89,0,0,0-.22,1.77l3.4,4.68,5,8.22,5.46-5.86Z"/><path class="cls-17" d="M138.89,130.53a.9.9,0,0,1-.19-.34,1,1,0,0,1,.17-.87l0,0,0,0-.06-.12a8.79,8.79,0,0,0-.73-1.33,9.25,9.25,0,0,0,.61,1.39l.06.12v-.07a1,1,0,0,0-.14,1C138.72,130.47,138.88,130.55,138.89,130.53Z"/><path class="cls-17" d="M139.3,124.43a1.59,1.59,0,0,0-.1.94,7.13,7.13,0,0,0,.92,2.17,2.46,2.46,0,0,1,.31.63,1.55,1.55,0,0,1,0,.67,1.71,1.71,0,0,0,.12,1,1.92,1.92,0,0,0,.66.68,1.16,1.16,0,0,1-.79-.61,1.79,1.79,0,0,1-.18-1.1,1.67,1.67,0,0,0,0-.59,2.92,2.92,0,0,0-.3-.58,6.49,6.49,0,0,1-.89-2.26C139,124.74,139.29,124.39,139.3,124.43Z"/><path class="cls-17" d="M142,126.47a4.24,4.24,0,0,0-.26-.75c-.2-.39-.43-.69-.38-.73s.34.21.57.63S142.06,126.5,142,126.47Z"/><polygon class="cls-9" points="151.31 163.54 153.39 166.14 164.17 153.18 150.05 134.61 143.07 140.09 151.31 163.54"/><polygon class="cls-11" points="199.29 288.88 200.19 309.93 211.55 309.68 210.7 288.58 199.29 288.88"/><path class="cls-10" d="M205.77,309c.09,0-.09-4.61-.4-10.29s-.64-10.28-.74-10.28.09,4.62.4,10.3S205.67,309,205.77,309Z"/><polygon class="cls-10" points="200.12 308.48 211.49 308.19 211.55 309.68 200.19 309.93 200.12 308.48"/><path class="cls-10" d="M211.28,302.94s-.09-.18-.31-.45a8.29,8.29,0,0,0-1.07-1,7.56,7.56,0,0,0-1.89-1.14,6,6,0,0,0-7,1.64,5.07,5.07,0,0,0-.77,1.27,1.57,1.57,0,0,0-.16.53,11,11,0,0,1,1.11-1.64,6.1,6.1,0,0,1,4.18-1.95,7,7,0,0,1,4.4,1.49C210.74,302.38,211.23,303,211.28,302.94Z"/><g class="cls-18"><polygon points="210.94 294.59 211.04 296.91 199.64 297.11 199.57 295.37 210.94 294.59"/></g><path class="cls-11" d="M172.54,290.14l.55,12.81s-12.84,4.87-13,7.25L185,310l0-20Z"/><path class="cls-6" d="M180.61,301.87a1,1,0,0,1,.72,1.16,1,1,0,0,1-1.15.72,1.08,1.08,0,0,1-.75-1.24,1,1,0,0,1,1.27-.61"/><path class="cls-10" d="M185,310v-2l-24.07.91s-1.11.49-1,1.28Z"/><path class="cls-10" d="M172.87,303c0,.12.61.17,1.22.56s.93.9,1,.85-.08-.75-.82-1.21S172.84,302.93,172.87,303Z"/><path class="cls-10" d="M170.25,304.14c0,.12.5.33.92.84s.54,1.06.66,1.06.2-.7-.33-1.33S170.25,304,170.25,304.14Z"/><path class="cls-10" d="M168.78,307.3c.11,0,.27-.59-.05-1.25s-.89-.93-.94-.83.31.46.56,1S168.65,307.29,168.78,307.3Z"/><path class="cls-10" d="M173.06,300.08c.06.11.62-.06,1.31,0s1.23.26,1.29.15-.45-.53-1.27-.57S173,300,173.06,300.08Z"/><path class="cls-10" d="M172.6,297.33a2.35,2.35,0,0,0,1.25,0,5.72,5.72,0,0,0,1.31-.41,6.36,6.36,0,0,0,.72-.39,1.6,1.6,0,0,0,.38-.3.54.54,0,0,0,.05-.65.71.71,0,0,0-.54-.28,2.12,2.12,0,0,0-.47.07,4.48,4.48,0,0,0-.78.28,4.78,4.78,0,0,0-1.15.76c-.58.55-.77,1-.73,1s.34-.35.92-.8a5.08,5.08,0,0,1,1.12-.63,3.79,3.79,0,0,1,.72-.23c.26-.07.49-.08.56,0s0,.06,0,.14a1.43,1.43,0,0,1-.28.22,7.13,7.13,0,0,1-1.87.86A7.31,7.31,0,0,0,172.6,297.33Z"/><path class="cls-10" d="M172.76,297.5a2,2,0,0,0,.32-1.22,4,4,0,0,0-.51-2.13,1.05,1.05,0,0,0-.8-.63.59.59,0,0,0-.52.36,1.79,1.79,0,0,0-.13.46,3,3,0,0,0,0,.85,2.88,2.88,0,0,0,.54,1.29c.5.64,1,.79,1,.74s-.39-.29-.77-.91a2.84,2.84,0,0,1-.4-1.18,2.49,2.49,0,0,1,0-.72c0-.27.14-.49.24-.46s.34.2.44.41a3.81,3.81,0,0,1,.32.68,4.46,4.46,0,0,1,.25,1.25C172.82,297,172.69,297.48,172.76,297.5Z"/><g class="cls-18"><polygon points="185.01 297.7 184.99 300.54 172.99 300.54 172.99 297.96 185.01 297.7"/></g><path class="cls-16" d="M225.24,84.48l1.78,6.9s.67,3.81-1.12,3.81c-1.57,0-1.72-2-1.72-2S225,89,222.91,89.2c-.29,0-1,2.91-1.4,4.38a2.13,2.13,0,0,0,.21,1.58l3,5.24a6.2,6.2,0,0,0,2.33,2.33l1.48.85.19,3.11,8.34.13-2.54-9.72-1.06-5.93a2,2,0,0,0-1.49-1.11l-.79-.11-.29-.75a1.32,1.32,0,0,0-1.06-.82l-.49-.06-.68-1.69c-.23-.56-1.86-4.23-2.46-4.22C226.16,82.41,224.8,82.77,225.24,84.48Z"/><path class="cls-17" d="M231.18,92.84a5.22,5.22,0,0,0-.15-.76,2.89,2.89,0,0,0-1.14-1.44,7.77,7.77,0,0,1-.62-1.81,2.23,2.23,0,0,1-.09-.79s0,.3.18.76a11.36,11.36,0,0,0,.64,1.75c.12.11.27.21.41.33a3.06,3.06,0,0,1,.34.39,2.61,2.61,0,0,1,.37.78,2,2,0,0,1,.08.57A.57.57,0,0,1,231.18,92.84Z"/><path class="cls-17" d="M232.45,92.13a1.09,1.09,0,0,0-.12-.38,1,1,0,0,0-.77-.5h-.05v0l-.05-.14a8.29,8.29,0,0,1-.47-1.5,9.87,9.87,0,0,1,.6,1.46l0,.13-.06,0a1.06,1.06,0,0,1,.85.6C232.53,92,232.47,92.15,232.45,92.13Z"/><path class="cls-16" d="M183.39,125.53l15.12-.19-1.69-12.87s1-.22,1.1-5.82.33-15.12.33-15.12h0A19.49,19.49,0,0,0,178.69,94l-.83.64Z"/><path class="cls-16" d="M179.62,101.52c-.1,0-3.85-1.14-3.73,2.69s3.94,2.91,4,2.8S179.62,101.52,179.62,101.52Z"/><path class="cls-16" d="M197.6,100.72c.09,0,3.5-1,3.38,2.87s-3.94,2.91-3.94,2.8S197.6,100.72,197.6,100.72Z"/><path class="cls-10" d="M178.38,101.09c.57,3.21.46,4.89,1,7a11.3,11.3,0,0,0,5.58,7.68c3.05,1.69,7.19,1.66,9.81-.64a9,9,0,0,0,3.38-5.82c.27-2.41.54-6.67.56-9.09,0-4.38.32-8.55.32-8.55l-12.48-2.26-7.11,4.22Z"/><path class="cls-10" d="M191.26,117.74a4.14,4.14,0,0,1-2.19.2,4.2,4.2,0,0,1-2.1-.67c0-.1,1,.19,2.14.32S191.24,117.64,191.26,117.74Z"/><path class="cls-10" d="M179,106.54c-.37-3.28-.6-7-1.12-10.51a22.75,22.75,0,0,1-.54-4.48,10.87,10.87,0,0,1,.82-3.85,5.42,5.42,0,0,1,8.43-1.7A4.05,4.05,0,0,1,194,87.71a2.82,2.82,0,0,1,4.65,2.82,2.82,2.82,0,0,1,2.06,1.61,2.78,2.78,0,0,1-.21,2.61c-.58.89-1.62,1.38-2.26,2.23a3.2,3.2,0,0,0-.19,3.45"/><path class="cls-9" d="M196.32,94.67a1,1,0,0,1-.14.36,2.44,2.44,0,0,1-.73.81,2.59,2.59,0,0,1-1.62.52,2.82,2.82,0,0,1-2-.94l.26-.07a2.58,2.58,0,0,1-1.67,1.91,3,3,0,0,1-2.81-.35A4.29,4.29,0,0,1,186,94.83l.31,0a3.55,3.55,0,0,1-2.83,1.55,3.24,3.24,0,0,1-2.38-1,3.28,3.28,0,0,1-.86-1.46,1.3,1.3,0,0,1-.07-.61s.05.21.18.57a3.42,3.42,0,0,0,.9,1.35,3.08,3.08,0,0,0,2.22.83A3.21,3.21,0,0,0,186,94.68l.19-.28.11.32a4,4,0,0,0,1.46,1.9,2.69,2.69,0,0,0,2.5.33,2.32,2.32,0,0,0,1.5-1.66l0-.31.21.24a2.54,2.54,0,0,0,1.78.89,2.48,2.48,0,0,0,1.51-.41A3.56,3.56,0,0,0,196.32,94.67Z"/><path class="cls-9" d="M196.3,93.15a3.63,3.63,0,0,0-.54-1.4,2.27,2.27,0,0,0-1.31-.88,2.36,2.36,0,0,0-1.9.37l-.31.21,0-.37a2.76,2.76,0,0,0-.12-1.1,3,3,0,0,0-1.54-1.79,3,3,0,0,0-2-.17,4,4,0,0,0-1.62.92,1.17,1.17,0,0,1,.31-.43,3,3,0,0,1,1.25-.73,3.12,3.12,0,0,1,2.15.12,3.28,3.28,0,0,1,1.73,2,3.12,3.12,0,0,1,.14,1.24l-.27-.15a2.62,2.62,0,0,1,2.17-.38,2.47,2.47,0,0,1,1.43,1,2.4,2.4,0,0,1,.38,1.1A.94.94,0,0,1,196.3,93.15Z"/><path class="cls-9" d="M188.33,93.26s0-.22,0-.53a2.35,2.35,0,0,0-.39-1.13c-.25-.39-.55-.8-.72-1s-.37-.06-.4-.08,0-.09.09-.15a.43.43,0,0,1,.47,0,3.6,3.6,0,0,1,.43.44,4.74,4.74,0,0,1,.43.59,2.07,2.07,0,0,1,.34,1.32C188.52,93.1,188.37,93.28,188.33,93.26Z"/><path class="cls-9" d="M180.93,88.45s0-.3.23-.7a1.87,1.87,0,0,1,.57-.6,1.47,1.47,0,0,1,1-.22,2.41,2.41,0,0,1,1.51.95c.28.35.41.59.37.62s-.24-.16-.55-.45a2.65,2.65,0,0,0-1.38-.78,1.49,1.49,0,0,0-1.34.62C181.1,88.22,181,88.47,180.93,88.45Z"/><path class="cls-9" d="M182.87,104.68a8.46,8.46,0,0,1-1.78-5.18c.1,0,.3,1.2.79,2.63S183,104.63,182.87,104.68Z"/><path class="cls-9" d="M184.55,105.6a4.5,4.5,0,0,1-.93-1.74,4.36,4.36,0,0,1-.45-1.92,7.51,7.51,0,0,1,.78,1.8A7,7,0,0,1,184.55,105.6Z"/><path class="cls-9" d="M195.07,105.86a6.16,6.16,0,0,1-.43,3.36,6,6,0,0,1-1.91,2.81,20,20,0,0,0,1.58-2.93A21.65,21.65,0,0,0,195.07,105.86Z"/><path class="cls-9" d="M196.74,103.07a5.87,5.87,0,0,1-1.05,5.78,16.9,16.9,0,0,0,.95-2.81A15.81,15.81,0,0,0,196.74,103.07Z"/><polyline class="cls-10" points="191.91 208.59 195.58 244.02 198.22 297.39 212.3 297.39 212.69 183.81 172.37 186.69 164.01 246.28 171.25 298.43 186.7 298.43 183.08 248.84 191.91 208.59"/><path class="cls-9" d="M191.91,208.59a21.65,21.65,0,0,1-2.74,2.7,21,21,0,0,1-3,2.44,22.51,22.51,0,0,1,2.74-2.7A21,21,0,0,1,191.91,208.59Z"/><path class="cls-9" d="M191.87,207.88a37.84,37.84,0,0,1,.07-4.55,42.84,42.84,0,0,1,.26-4.54,23,23,0,0,1,.09,4.55A24.69,24.69,0,0,1,191.87,207.88Z"/><path class="cls-9" d="M196.52,194.65l.23,0,.7,0,2.67-.13,9.54-.4h.17v.17c0,3,0,6.35,0,9.91v.31l-.11,0L203.52,207l-.05,0-.06,0-5.49-1.91-.09,0V205c-.4-3.1-.74-5.67-1-7.52-.1-.86-.19-1.55-.25-2.07s-.08-.72-.07-.71a1.53,1.53,0,0,1,0,.21l.09.55.33,2.1c.28,1.82.66,4.35,1.12,7.4l-.1-.12,5.51,1.87h-.12l6.2-2.5-.11.16v-.19c0-3.56,0-6.94,0-9.91l.16.15-9.44.24-2.71,0h-1Z"/><path class="cls-9" d="M176.2,194.83s.06,0,.2,0l.63,0,2.41-.08,8.71-.2h.16v.16c-.09,2.94-.2,6.33-.31,9.94v.09l-.07.05-1,.66-5.11,3.33-.09.06-.09-.06-5.75-3.5-.07,0v-.09c.11-3.09.2-5.66.27-7.51,0-.86.06-1.55.08-2.06a3.93,3.93,0,0,1,.06-.7s0,.07,0,.2v.56c0,.52,0,1.22,0,2.1,0,1.82-.06,4.37-.11,7.42L176,205l5.78,3.46h-.18l5.1-3.34,1-.66-.08.14c.13-3.61.25-7,.36-9.94l.15.16-8.61,0H176.2Z"/><path class="cls-9" d="M208.34,210.88a9.34,9.34,0,0,1-1.91-.06c-1.18-.09-2.8-.25-4.58-.48s-3.39-.49-4.55-.71a10.38,10.38,0,0,1-1.86-.42,10.68,10.68,0,0,1,1.9.18l4.55.6,4.56.58A10.67,10.67,0,0,1,208.34,210.88Z"/><path class="cls-9" d="M208,250.38s-.06.2-.34.45a2.24,2.24,0,0,1-1.44.48,3.38,3.38,0,0,1-2.1-.8,15.34,15.34,0,0,1-1.92-1.94,27.5,27.5,0,0,1-2.85-4,8.88,8.88,0,0,1-.89-1.84,17.33,17.33,0,0,1,1.1,1.71,36.27,36.27,0,0,0,2.91,3.91,14.71,14.71,0,0,0,1.85,1.91,3.28,3.28,0,0,0,1.91.82,2.28,2.28,0,0,0,1.35-.35C207.87,250.52,208,250.36,208,250.38Z"/><path class="cls-9" d="M180.2,251.62a1.13,1.13,0,0,1-.19.45,2.94,2.94,0,0,1-1,.93,3.72,3.72,0,0,1-1.93.51,4.63,4.63,0,0,1-2.33-.74,8.34,8.34,0,0,1-2.8-3.34,7.51,7.51,0,0,1-.69-1.66,11.84,11.84,0,0,1,.91,1.54,8.73,8.73,0,0,0,2.77,3.16,4.32,4.32,0,0,0,2.15.71,3.55,3.55,0,0,0,1.8-.4A3.93,3.93,0,0,0,180.2,251.62Z"/><path class="cls-9" d="M181.09,246.28a3.51,3.51,0,0,1-1.15.67,9.17,9.17,0,0,1-6.36.26,3.67,3.67,0,0,1-1.21-.57,11.74,11.74,0,0,0,8.72-.36Z"/><path class="cls-9" d="M226.92,121.22H206.39s-2.79-1.61-4.14-1.34a5.34,5.34,0,0,0-2.52,1.71l2.72,22.62,6.65-4.92,24.75-2.58a7.87,7.87,0,0,0,5.66-2.47h0a7.9,7.9,0,0,0,2.09-6.33L237,103.58l-9.39.31-.38,6.17Z"/><path class="cls-9" d="M170.41,126.92a12.53,12.53,0,0,0-5,5.76c-1.2,2.88-9.38,17.23-13.69,24.74a7.12,7.12,0,0,0,1,8.44h0c2.62,2.74,5.75,1.67,9.57.43,1.71-.56,9.42-12.39,9.42-12.39Z"/><polygon class="cls-9" points="173.98 178.22 169.27 137.72 170.41 126.92 182.39 121.81 197.91 120.8 212.69 122.42 209.23 163.97 213.01 187.4 171.62 189.27 173.98 178.22"/><path class="cls-10" d="M174,178.05c-.1,0-1.23-9-2.52-20.15s-2.27-20.17-2.17-20.19,1.22,9,2.52,20.15S174.05,178,174,178.05Z"/><path class="cls-10" d="M212.39,131.51a2.6,2.6,0,0,1,0,.37c0,.28-.06.62-.1,1l-.39,3.82c-.32,3.27-.77,7.7-1.26,12.6s-.85,9.39-1.09,12.62c-.12,1.58-.21,2.87-.28,3.83l-.08,1a1.58,1.58,0,0,1-.05.36s0-.13,0-.37,0-.62,0-1c0-.91.08-2.22.16-3.84.18-3.24.52-7.71,1-12.63s1-9.38,1.37-12.6c.2-1.61.37-2.91.5-3.81.06-.41.11-.75.16-1A1.18,1.18,0,0,1,212.39,131.51Z"/><path class="cls-10" d="M205.26,171.84a5,5,0,0,1-.65.8,9.32,9.32,0,0,1-.84.88c-.35.32-.72.71-1.2,1.08a18.08,18.08,0,0,1-1.56,1.18,20.77,20.77,0,0,1-1.9,1.19,26.38,26.38,0,0,1-4.73,2,25.84,25.84,0,0,1-5.06.92,21.46,21.46,0,0,1-2.24.05,16.23,16.23,0,0,1-2-.14,14.22,14.22,0,0,1-1.59-.24,9.2,9.2,0,0,1-1.19-.28,4.34,4.34,0,0,1-1-.31c0-.07,1.43.37,3.78.59a19.25,19.25,0,0,0,1.93.09c.7,0,1.44,0,2.22-.08a26.75,26.75,0,0,0,5-.94,27.19,27.19,0,0,0,4.68-1.94c.67-.39,1.33-.75,1.89-1.15s1.1-.77,1.57-1.13C204.26,172.93,205.21,171.79,205.26,171.84Z"/><g class="cls-18"><path d="M183.38,179.4c-2-.58-2.13-2.47-1.35-3.29a3.6,3.6,0,0,1,3.16-.76,16,16,0,0,0,3.34.45c1.85-.12,3.39-1.4,4.67-2.73s2.49-2.82,4.17-3.58,4-.5,4.9,1.12a3.5,3.5,0,0,1-.2,3.36,7.74,7.74,0,0,1-2.49,2.44,20.33,20.33,0,0,1-16.2,3"/></g><path class="cls-10" d="M207.86,122a6.41,6.41,0,0,1,3.88,5.38,13.94,13.94,0,0,0-1.47-3A14.39,14.39,0,0,0,207.86,122Z"/><path class="cls-1" d="M206.42,121.59a1.67,1.67,0,0,0-.34-.21,1.83,1.83,0,0,0-1.11-.07,3.16,3.16,0,0,0-1.53.91,15.87,15.87,0,0,1-1.69,1.72,5,5,0,0,1-2.78.86c-1.06,0-2.18-.06-3.36-.09a67,67,0,0,0-7.66.17,49.39,49.39,0,0,0-13.57,3,40.58,40.58,0,0,0-3.86,1.72l-1,.53-.36.18.35-.2,1-.56a37.5,37.5,0,0,1,3.85-1.76,48.32,48.32,0,0,1,13.59-3,65.18,65.18,0,0,1,7.69-.16c1.18,0,2.3.15,3.34.1a4.82,4.82,0,0,0,2.73-.82,17,17,0,0,0,1.7-1.69,3.14,3.14,0,0,1,1.57-.91,1.71,1.71,0,0,1,1.13.1A1.06,1.06,0,0,1,206.42,121.59Z"/><path class="cls-1" d="M211.08,129.88s-.15,0-.42-.09a4.51,4.51,0,0,0-1.21,0,6.52,6.52,0,0,0-1.86.49,21.59,21.59,0,0,0-2.27,1.17,13.17,13.17,0,0,1-2.86,1.23,19.14,19.14,0,0,1-3.53.57c-2.51.15-5.27.19-8.16.42-5.79.4-11,1.1-14.75,1.71-1.87.3-3.38.58-4.43.77l-1.2.23-.42.07.41-.1,1.2-.25c1-.21,2.55-.51,4.43-.82,3.74-.64,9-1.35,14.75-1.75,2.89-.23,5.66-.26,8.16-.41a18.58,18.58,0,0,0,3.5-.55,13.07,13.07,0,0,0,2.85-1.21,21.3,21.3,0,0,1,2.29-1.15,6.66,6.66,0,0,1,1.88-.48,4.33,4.33,0,0,1,1.23.07A2.13,2.13,0,0,1,211.08,129.88Z"/><path class="cls-1" d="M211.18,141.31s-.52.24-1.49.62-2.39.88-4.18,1.39a62.53,62.53,0,0,1-14.33,2.14,132.22,132.22,0,0,1-14.51-.34l-4.39-.34-1.19-.11-.41,0h.41l1.2.08,4.38.3a138.84,138.84,0,0,0,14.5.3,63.91,63.91,0,0,0,14.32-2.1c1.79-.49,3.21-1,4.18-1.34.49-.17.86-.33,1.12-.43S211.18,141.31,211.18,141.31Z"/><path class="cls-1" d="M209.6,154.49s-.48.21-1.39.52a28,28,0,0,1-3.94,1,39.31,39.31,0,0,1-6,.61c-2.27.08-4.77,0-7.38-.15-5.23-.34-10-.71-13.38-.59-1.72,0-3.1.15-4.05.26-.48,0-.85.11-1.1.14l-.38,0a34.44,34.44,0,0,1,5.52-.54c3.44-.15,8.18.21,13.4.55,2.61.16,5.1.23,7.36.16a39.21,39.21,0,0,0,6-.58,29.14,29.14,0,0,0,3.94-1c.46-.13.81-.28,1.05-.35Z"/><path class="cls-1" d="M208.33,164.69s-1.9.62-5,1.35c-1.57.36-3.46.72-5.56,1.05s-4.44.57-6.89.73-4.81.16-6.94.1-4-.2-5.64-.37c-3.21-.34-5.17-.73-5.17-.73l.36,0,1,.14c.89.14,2.18.29,3.79.45s3.51.28,5.64.34,4.46,0,6.92-.11,4.77-.42,6.88-.72,4-.67,5.56-1,2.83-.66,3.7-.9l1-.27Z"/><path class="cls-1" d="M209.75,168.42l-.35.13-1,.36c-.88.33-2.13.83-3.66,1.51s-3.32,1.52-5.37,2.36a35,35,0,0,1-6.86,2.1,57,57,0,0,1-13,.71c-1.67-.07-3-.15-4-.21l-1.07-.08-.38,0a3.64,3.64,0,0,1,.38,0l1.07,0,4,.18a58.87,58.87,0,0,0,13-.76,35.77,35.77,0,0,0,6.85-2.08c2-.84,3.84-1.67,5.38-2.33s2.79-1.16,3.67-1.47S209.75,168.42,209.75,168.42Z"/><path class="cls-1" d="M211.85,179.53s-.46.32-1.34.82a26.59,26.59,0,0,1-3.87,1.77,42.8,42.8,0,0,1-13.83,2.34c-5.5.1-10.47-.34-14.06-.49-1.8-.09-3.26-.14-4.26-.16l-1.16,0-.41,0h1.57c1,0,2.46,0,4.26.11,3.6.13,8.56.55,14.06.45A43.55,43.55,0,0,0,206.6,182a29.47,29.47,0,0,0,3.89-1.73c.45-.23.77-.44,1-.57Z"/><path class="cls-1" d="M218.11,138.53s0-.06,0-.17l.13-.48c.12-.41.26-1,.42-1.76a26.93,26.93,0,0,0-.18-11.85c-.18-.74-.34-1.34-.47-1.75l-.14-.47c0-.11-.05-.17,0-.17l.06.16.17.47a17.41,17.41,0,0,1,.52,1.74,26.31,26.31,0,0,1,.79,5.94,26,26,0,0,1-.61,5.95c-.17.75-.34,1.35-.47,1.76l-.15.47Z"/><path class="cls-1" d="M228.05,136.1a.57.57,0,0,1,0-.15v-.44c0-.38,0-.93,0-1.61a25.27,25.27,0,0,0-.62-5.27,26.43,26.43,0,0,0-1.72-5c-.29-.62-.54-1.11-.73-1.44l-.2-.39-.07-.14s0,0,.09.12l.23.38c.2.33.46.81.77,1.42a23.3,23.3,0,0,1,2.35,10.33c0,.68,0,1.23-.07,1.61l0,.44C228.06,136.05,228.06,136.1,228.05,136.1Z"/><path class="cls-1" d="M241.49,131.44l-.13-.14-.34-.4c-.29-.35-.73-.85-1.28-1.44a32.36,32.36,0,0,0-10.31-7.38c-.74-.34-1.35-.59-1.78-.75l-.49-.2-.17-.07s.07,0,.18,0l.5.17c.43.14,1.05.38,1.8.71a30.31,30.31,0,0,1,10.34,7.4,18.75,18.75,0,0,1,1.25,1.48l.32.41A.67.67,0,0,1,241.49,131.44Z"/><path class="cls-1" d="M238.44,112.41a2.35,2.35,0,0,1-.43,0l-1.16,0c-1,0-2.34,0-3.84,0s-2.85.09-3.83.14l-1.17.06h-.42a2.52,2.52,0,0,1,.42-.06l1.16-.1c1-.08,2.34-.15,3.84-.18s2.86,0,3.84,0l1.17.06A2.1,2.1,0,0,1,238.44,112.41Z"/><path class="cls-1" d="M162.36,139.06s.1.09.25.27l.68.72a17.7,17.7,0,0,0,2.52,2.1c1.05.72,2.07,1.29,2.8,1.7l.88.48a1.4,1.4,0,0,1,.31.19l-.34-.14-.89-.44a26.68,26.68,0,0,1-2.84-1.68,15.37,15.37,0,0,1-2.51-2.14,9.08,9.08,0,0,1-.65-.76A1.76,1.76,0,0,1,162.36,139.06Z"/><path class="cls-1" d="M165.19,133.69s.16.23.48.53A9.73,9.73,0,0,0,167,135.3c.56.37,1.09.69,1.49.9a5.9,5.9,0,0,1,.63.34,9.71,9.71,0,0,1-3.55-2.25A1.84,1.84,0,0,1,165.19,133.69Z"/><path class="cls-1" d="M170,156.6l-.15-.07-.41-.21c-.35-.19-.85-.48-1.45-.87a30,30,0,0,1-4.38-3.47,27.38,27.38,0,0,1-3.64-4.22c-.41-.59-.71-1.09-.91-1.44l-.22-.4a.66.66,0,0,1-.07-.15.68.68,0,0,1,.1.14l.24.39c.21.34.52.82.94,1.4a30,30,0,0,0,3.66,4.18,33.18,33.18,0,0,0,4.33,3.49c.59.4,1.08.7,1.43.9l.39.24Z"/><path class="cls-10" d="M151.31,163.54a3.3,3.3,0,0,1-.12-.77,12.45,12.45,0,0,1-.05-2.13,13.7,13.7,0,0,1,2.23-6.6c1.44-2.31,2.77-4.39,3.74-5.88l1.17-1.77a3.71,3.71,0,0,1,.46-.62,3,3,0,0,1-.35.7l-1.07,1.82c-.92,1.53-2.21,3.63-3.65,5.94a14.14,14.14,0,0,0-2.28,6.43C151.23,162.43,151.39,163.53,151.31,163.54Z"/><path class="cls-1" d="M163.06,166.25a9,9,0,0,1-2.32-.34,10.92,10.92,0,0,1-7.69-7.69,9,9,0,0,1-.34-2.32l0,.16c0,.1,0,.26,0,.46a12.62,12.62,0,0,0,.36,1.67,11.07,11.07,0,0,0,7.62,7.62,11.17,11.17,0,0,0,1.67.36l.46.05Z"/><path class="cls-1" d="M156.32,143.33l-.12.08-.35.21c-.3.18-.73.46-1.25.83a17.83,17.83,0,0,0-6.09,7.62,14.14,14.14,0,0,0-.53,1.41l-.13.39c0,.08,0,.13-.06.13l0-.14.11-.4a14,14,0,0,1,.48-1.42,17.07,17.07,0,0,1,6.13-7.68c.53-.35,1-.62,1.29-.79l.36-.19C156.27,143.34,156.32,143.32,156.32,143.33Z"/><path class="cls-1" d="M152.55,138.36l-.38.13c-.25.08-.6.2-1,.38a12,12,0,0,0-3.09,1.86,17.6,17.6,0,0,0-2.49,2.62c-.29.37-.52.67-.67.88a2.88,2.88,0,0,1-.25.31,2,2,0,0,1,.2-.35c.14-.22.36-.53.64-.9a15.32,15.32,0,0,1,2.48-2.66,11.16,11.16,0,0,1,3.14-1.85,8.15,8.15,0,0,1,1.06-.34A2.2,2.2,0,0,1,152.55,138.36Z"/></svg>