<svg xmlns="http://www.w3.org/2000/svg" xmlns:xlink="http://www.w3.org/1999/xlink" viewBox="0 0 358.97 358.97"><defs><style>.cls-1{fill:url(#Gradiente_sem_nome_26);}.cls-2{fill:#e0e0e0;}.cls-3{fill:#fafafa;}.cls-4{fill:#ebebeb;}.cls-5{fill:#f5f5f5;}.cls-6{fill:#fff;}.cls-7{fill:#455a64;}.cls-8{fill:#263238;}.cls-9{fill:#f77f00;}.cls-10{fill:none;}.cls-11{fill:#b78876;}.cls-12{fill:#aa6550;}.cls-13{fill:#14213d;}.cls-14{opacity:0.6;}.cls-15{opacity:0.2;}.cls-16{fill:#3e2000;}.cls-17{fill:#aa6011;}</style><linearGradient id="Gradiente_sem_nome_26" x1="170.01" y1="274.96" x2="170.01" y2="47.61" gradientUnits="userSpaceOnUse"><stop offset="0" stop-color="#925d1f" stop-opacity="0.1"/><stop offset="1" stop-color="#db7e1e" stop-opacity="0.1"/></linearGradient></defs><title>img3</title><g id="Background_Simple" data-name="Background Simple"><path class="cls-1" d="M292.07,84l-1.66-2.71C277.07,59.56,253,46.4,227.58,47.7a68.22,68.22,0,0,0-10.65,1.38A73,73,0,0,0,164.7,93.9c-5,13.17-6.35,28.33-15.78,38.78-12.26,13.61-33.09,14-51.39,13.47s-39.15-.08-51.35,13.58c-7.65,8.55-10.08,20.71-9.46,32.17,1.63,30.32,23,57.44,50.25,70.92s59.25,14.68,89,8.75c41.73-8.3,81.41-31.11,105.26-66.34S311.16,122,292.07,84Z"/></g><g id="Background_Complete" data-name="Background Complete"><rect class="cls-2" x="249.5" y="37.05" width="53.04" height="55.29"/><rect class="cls-3" x="245.91" y="37.05" width="53.04" height="55.29"/><path class="cls-2" d="M299,92.35H245.89V37H299Zm-53,0h53V37.07h-53Z"/><rect class="cls-3" x="253.04" y="44.48" width="38.78" height="40.42"/><path class="cls-2" d="M253,85.17a6.42,6.42,0,0,1-1,1.12c-.62.65-1.49,1.53-2.46,2.5s-1.88,1.81-2.54,2.42a5.39,5.39,0,0,1-1.12.93,6.42,6.42,0,0,1,.95-1.1c.62-.66,1.5-1.54,2.47-2.51s1.88-1.82,2.54-2.43A6.82,6.82,0,0,1,253,85.17Z"/><path class="cls-2" d="M291.82,85.07a6.62,6.62,0,0,1,1.11,1c.65.62,1.54,1.49,2.5,2.47s1.81,1.87,2.42,2.53a6.63,6.63,0,0,1,.94,1.12,5.83,5.83,0,0,1-1.11-1c-.66-.62-1.54-1.49-2.51-2.47s-1.82-1.88-2.43-2.54A5.51,5.51,0,0,1,291.82,85.07Z"/><path class="cls-2" d="M291.71,44.59a6.19,6.19,0,0,1,1-1.11c.62-.66,1.49-1.54,2.46-2.5s1.87-1.82,2.54-2.43a6.36,6.36,0,0,1,1.12-.93,6.62,6.62,0,0,1-1,1.11c-.62.65-1.49,1.54-2.47,2.5s-1.87,1.82-2.53,2.43A6.08,6.08,0,0,1,291.71,44.59Z"/><path class="cls-2" d="M252.93,44.69a6.62,6.62,0,0,1-1.11-1c-.65-.62-1.54-1.49-2.5-2.46s-1.82-1.87-2.42-2.54a6.2,6.2,0,0,1-.94-1.12,6.19,6.19,0,0,1,1.11,1c.65.61,1.54,1.49,2.5,2.47s1.83,1.87,2.43,2.53A6.08,6.08,0,0,1,252.93,44.69Z"/><path class="cls-2" d="M291.71,84.91a1.78,1.78,0,0,1,0-.2c0-.14,0-.32,0-.57,0-.5,0-1.23,0-2.18,0-1.91,0-4.7,0-8.24,0-7.08-.05-17.16-.08-29.24l.15.15-38.67,0h0l.17-.17c0,14.84,0,28.72,0,40.43l-.15-.15,28,.07,7.86,0,2.09,0h0l-2.06,0-7.83,0L253,85.05h-.15v-.14c0-11.71,0-25.59,0-40.43v-.17H253l38.67,0h.15v.15c0,12.12-.06,22.24-.08,29.34,0,3.52,0,6.3,0,8.2,0,.94,0,1.66,0,2.16,0,.23,0,.41,0,.55A1.23,1.23,0,0,1,291.71,84.91Z"/><rect class="cls-4" x="265.96" y="58.22" width="12.94" height="12.94"/><rect class="cls-2" x="185.75" y="25.59" width="38.58" height="40.22"/><rect class="cls-3" x="183.14" y="25.59" width="38.58" height="40.22"/><path class="cls-2" d="M221.73,65.82H183.12V25.58h38.61Zm-38.58,0H221.7V25.6H183.15Z"/><rect class="cls-3" x="188.32" y="31" width="28.21" height="29.4"/><path class="cls-2" d="M188.32,60.6a5,5,0,0,1-.69.81c-.45.47-1.09,1.11-1.8,1.81S184.47,64.54,184,65a5.22,5.22,0,0,1-.81.68,4.06,4.06,0,0,1,.69-.81c.45-.48,1.08-1.12,1.79-1.82s1.37-1.33,1.85-1.77A4.2,4.2,0,0,1,188.32,60.6Z"/><path class="cls-2" d="M216.53,60.52a5,5,0,0,1,.81.7c.48.45,1.12,1.08,1.82,1.79s1.32,1.36,1.76,1.85a5.22,5.22,0,0,1,.68.81,4.42,4.42,0,0,1-.81-.69c-.47-.45-1.12-1.09-1.82-1.8s-1.32-1.36-1.76-1.84A3.93,3.93,0,0,1,216.53,60.52Z"/><path class="cls-2" d="M216.45,31.07a5.21,5.21,0,0,1,.7-.8c.45-.48,1.08-1.12,1.79-1.82s1.36-1.32,1.85-1.77a5.22,5.22,0,0,1,.81-.68,4.17,4.17,0,0,1-.69.81c-.45.48-1.09,1.12-1.8,1.82s-1.36,1.33-1.85,1.77A3.87,3.87,0,0,1,216.45,31.07Z"/><path class="cls-2" d="M188.25,31.15a4.51,4.51,0,0,1-.81-.7c-.48-.45-1.12-1.08-1.82-1.79s-1.32-1.36-1.77-1.85a4.2,4.2,0,0,1-.67-.81,4.75,4.75,0,0,1,.8.69c.48.45,1.12,1.09,1.82,1.8s1.33,1.36,1.77,1.85A4.72,4.72,0,0,1,188.25,31.15Z"/><path class="cls-2" d="M216.45,60.4v-.14c0-.1,0-.24,0-.41,0-.37,0-.9,0-1.59,0-1.39,0-3.42,0-6,0-5.15,0-12.49-.06-21.27l.11.11H188.32l.13-.12c0,10.79,0,20.89,0,29.4l-.11-.11,20.37.06,5.72,0h.05l-5.7,0-20.44.06h-.1V60.4c0-8.51,0-18.61,0-29.4v-.13h.13l28.12,0h.11V31c0,8.81,0,16.17-.05,21.34,0,2.56,0,4.58,0,6,0,.68,0,1.21,0,1.57,0,.17,0,.3,0,.4S216.46,60.4,216.45,60.4Z"/><rect class="cls-4" x="197.72" y="40.99" width="9.41" height="9.41"/><path class="cls-4" d="M305.57,257a18.26,18.26,0,0,1,11.33-1.38,9.44,9.44,0,0,1,5.59,2.5c1.4,1.54,1.66,4.26.06,5.59a5.33,5.33,0,0,1-3.53.89c-3,0-6.32-.56-8.71,1.24-1.36,1-2.27,2.74-3.9,3.24a3.85,3.85,0,0,1-4.25-1.89,6.63,6.63,0,0,1-.48-4.86A7.44,7.44,0,0,1,305.57,257Z"/><path class="cls-4" d="M297.68,241.73c2.1,3,6.2,2,8.1.18s2.7-4.5,3.43-7c1.67-5.8,3.35-11.88,2.11-17.79a9.8,9.8,0,0,0-2.28-4.84,5.16,5.16,0,0,0-4.89-1.63c-2.06.55-3.35,2.57-4.27,4.5a42.31,42.31,0,0,0-4.19,18.2c0,2.93.33,6,2,8.42"/><path class="cls-4" d="M291.89,246.05a11,11,0,0,0,1.7-10.08,19.32,19.32,0,0,0-6-8.65A32.13,32.13,0,0,0,276.94,221a11.35,11.35,0,0,0-4.81-.81,5,5,0,0,0-4,2.44c-1.12,2.14,0,4.74,1.12,6.86a82.38,82.38,0,0,0,7,10.69c2.1,2.71,4.51,5.39,7.72,6.62s6.54,1.08,8.24-1.15"/><path class="cls-2" d="M297.53,287.12a6.1,6.1,0,0,0,.19-1.37c.1-1,.22-2.24.37-3.73a51.61,51.61,0,0,1,.84-5.47,42,42,0,0,1,2-6.46,24.11,24.11,0,0,1,3.3-5.85,12.21,12.21,0,0,1,4.17-3.46,11.89,11.89,0,0,1,3.52-1.1,8,8,0,0,0,1.36-.19,6.23,6.23,0,0,0-1.39,0,10.65,10.65,0,0,0-3.66,1,12.19,12.19,0,0,0-4.4,3.49,23.43,23.43,0,0,0-3.42,6,38.91,38.91,0,0,0-2,6.56,44.41,44.41,0,0,0-.73,5.54c-.12,1.59-.16,2.87-.19,3.76A6.16,6.16,0,0,0,297.53,287.12Z"/><path class="cls-2" d="M297.79,284.25a2.89,2.89,0,0,0,0-.64c0-.47,0-1.07,0-1.81,0-1.57,0-3.85.08-6.67.14-5.62.63-11.68,1.56-20.22.89-8,2.08-17.37,3.33-23.44.27-1.38.54-2.63.8-3.72s.45-2,.65-2.79l.42-1.76a2.65,2.65,0,0,0,.11-.63,4.14,4.14,0,0,0-.22.6c-.13.45-.31,1-.52,1.73s-.48,1.69-.75,2.78-.58,2.32-.88,3.7a208.1,208.1,0,0,0-3.5,21.76c-.94,8.56-1.36,16.35-1.4,22,0,2.82,0,5.1.1,6.68,0,.73.08,1.33.11,1.81A2.49,2.49,0,0,0,297.79,284.25Z"/><path class="cls-2" d="M297.83,269.22a11.85,11.85,0,0,0,0-1.89,50.63,50.63,0,0,0-.58-5.14,66.75,66.75,0,0,0-1.67-7.48,61.13,61.13,0,0,0-3.12-8.85,47.14,47.14,0,0,0-9.19-14.3,22.53,22.53,0,0,0-2.16-2c-.33-.28-.63-.56-.93-.78l-.83-.58a11,11,0,0,0-1.6-1,55.09,55.09,0,0,1,5.23,4.66,49.69,49.69,0,0,1,9,14.26,70.48,70.48,0,0,1,3.14,8.77,75.14,75.14,0,0,1,1.78,7.4c.39,2.14.62,3.88.76,5.09A11.41,11.41,0,0,0,297.83,269.22Z"/><polygon class="cls-2" points="283.31 295.73 284.81 316.35 311.31 316.35 312.81 295.73 283.31 295.73"/><rect class="cls-2" x="280.75" y="287.6" width="35.23" height="8.13"/><polygon class="cls-4" points="280.75 315.56 280.75 317.82 282.4 317.82 315.39 317.82 315.39 315.56 280.75 315.56"/><polygon class="cls-2" points="284.02 321.79 282.4 317.82 314.13 317.82 312.24 321.79 284.02 321.79"/><path class="cls-5" d="M312.32,302.47s0,.07-.12.19l-.4.52c-.37.49-.89,1.15-1.54,2l-.07.09-.07-.09-3.79-5.25h.22l-3.73,5.29-.12.16-.13-.15-4.43-5.27h.25l-.24.3-4,5-.13.17-.12-.17-3.74-5.29h.22l-4.6,5.24-.08.1-.06-.11c-.61-1-1.09-1.83-1.45-2.42-.15-.26-.27-.47-.36-.64a1.61,1.61,0,0,1-.12-.23s.06.06.16.2.24.37.41.62c.36.58.87,1.38,1.51,2.38h-.15l4.53-5.31.11-.13.11.14L294.2,305h-.26l3.95-5,.25-.31.12-.16.13.16,4.42,5.28h-.25l3.77-5.27.11-.15.11.15,3.71,5.31h-.13l1.6-1.92.43-.5C312.26,302.52,312.32,302.46,312.32,302.47Z"/><path class="cls-5" d="M313.18,295.59c0,.09-6.64.17-14.83.17s-14.82-.08-14.82-.17,6.63-.16,14.82-.16S313.18,295.5,313.18,295.59Z"/><path class="cls-5" d="M314.52,318c0,.09-7.21.17-16.11.17s-16.12-.08-16.12-.17,7.21-.16,16.12-.16S314.52,318,314.52,318Z"/><polygon class="cls-5" points="101.45 306.18 101.45 321.37 123.66 321.37 148.15 321.37 148.15 306.18 101.45 306.18"/><polygon class="cls-2" points="99.49 301.93 99.49 306.18 149.79 306.18 149.79 301.93 123.66 301.93 99.49 301.93"/><polygon class="cls-4" points="124.64 321.37 148.15 321.37 148.15 306.18 149.79 306.18 149.79 301.93 123.66 301.93 123.66 305.79 124.64 321.37"/><rect class="cls-2" x="107.98" y="308.63" width="9.47" height="2.29"/><rect class="cls-6" x="106.76" y="313.77" width="12.16" height="4.83"/><polygon class="cls-5" points="140.8 302.01 140.8 321.79 169.71 321.79 201.6 321.79 201.6 302.01 140.8 302.01"/><polygon class="cls-2" points="138.25 296.49 138.25 302.01 203.73 302.01 203.73 296.49 169.71 296.49 138.25 296.49"/><polygon class="cls-2" points="170.99 321.79 201.6 321.79 201.6 302.01 203.73 302.01 203.73 296.49 169.71 296.49 169.71 301.5 170.99 321.79"/><rect class="cls-2" x="149.3" y="305.2" width="12.33" height="2.98"/><rect class="cls-6" x="147.72" y="311.9" width="15.83" height="6.28"/><polygon class="cls-5" points="147.78 281.3 147.78 296.49 169.99 296.49 194.49 296.49 194.49 281.3 147.78 281.3"/><polygon class="cls-2" points="145.82 277.05 145.82 281.3 196.12 281.3 196.12 277.05 169.99 277.05 145.82 277.05"/><polygon class="cls-4" points="170.97 296.49 194.49 296.49 194.49 281.3 196.12 281.3 196.12 277.05 169.99 277.05 169.99 280.91 170.97 296.49"/><rect class="cls-2" x="154.31" y="283.75" width="9.47" height="2.29"/><rect class="cls-6" x="153.1" y="288.89" width="12.16" height="4.83"/></g><g id="Device"><path class="cls-7" d="M271.08,251.68l-64,0A13.93,13.93,0,0,1,193.2,237.7l0-160.35a13.94,13.94,0,0,1,13.94-13.94l64,0a14,14,0,0,1,13.93,13.94l0,160.36A14,14,0,0,1,271.08,251.68Z"/><path class="cls-6" d="M271.06,69.12h-12.4a3.08,3.08,0,0,0-3,3.14v2.25a3.08,3.08,0,0,1-3,3.15l-24.17,0a3.08,3.08,0,0,1-3-3.14V72.25a3.09,3.09,0,0,0-3-3.15H207.23a9.76,9.76,0,0,0-9.77,9.75l0,156.52a9.76,9.76,0,0,0,9.76,9.76l63.83,0a9.77,9.77,0,0,0,9.77-9.76l0-156.52A9.77,9.77,0,0,0,271.06,69.12Z"/><path class="cls-8" d="M271.18,69.25h.34a7.11,7.11,0,0,1,1,.07,9.38,9.38,0,0,1,3.67,1.27,9.53,9.53,0,0,1,2.24,1.81,9.81,9.81,0,0,1,1.86,2.93,10.07,10.07,0,0,1,.74,4v4.61c0,13,0,31.92,0,55.24s0,51.08,0,81.91v14.67a10.44,10.44,0,0,1-.38,3,9.81,9.81,0,0,1-1.25,2.76,10.2,10.2,0,0,1-2,2.26,9.86,9.86,0,0,1-5.65,2.2c-2.05.06-4.09,0-6.15,0H207.85a10.44,10.44,0,0,1-6.38-1.76,10.06,10.06,0,0,1-3.88-5.36,11,11,0,0,1-.41-3.32v-3.3q0-6.59,0-13.09V193.53c0-16.78,0-33,0-48.38s0-30.07,0-43.78q0-10.29,0-19.84c0-.8,0-1.59,0-2.38,0-.39,0-.79.05-1.19s.1-.78.2-1.16a10,10,0,0,1,2.06-4.15,10,10,0,0,1,8-3.54h14.65a3.13,3.13,0,0,1,1.93.54,3.27,3.27,0,0,1,1.2,1.57,5.32,5.32,0,0,1,.2,1.93v1a5.71,5.71,0,0,0,0,.93,3,3,0,0,0,.73,1.64,2.87,2.87,0,0,0,1.49.93,3.25,3.25,0,0,0,.88.08h4.44l12.91,0h5.69c.45,0,.91,0,1.33,0a2.83,2.83,0,0,0,1.2-.42,3.08,3.08,0,0,0,1.37-2,5.26,5.26,0,0,0,.08-1.19V73a7.2,7.2,0,0,1,.05-1.14,3.36,3.36,0,0,1,.37-1,3.09,3.09,0,0,1,1.57-1.38,4.81,4.81,0,0,1,1.94-.21l6.35,0h3.9l1.33,0H259.6a5,5,0,0,0-1.91.21,3.15,3.15,0,0,0-1.87,2.36,7,7,0,0,0,0,1.13v1.17a5.54,5.54,0,0,1-.07,1.21,3.22,3.22,0,0,1-1.42,2,3,3,0,0,1-1.24.44c-.46,0-.9,0-1.35,0h-23a4.16,4.16,0,0,1-.92-.09,3.1,3.1,0,0,1-1.58-1,3.25,3.25,0,0,1-.77-1.73,7.6,7.6,0,0,1,0-1v-1a5.1,5.1,0,0,0-.2-1.87A3,3,0,0,0,224,69.81a3,3,0,0,0-1.83-.5H207.54a9.72,9.72,0,0,0-7.82,3.47,9.7,9.7,0,0,0-2,4.06c-.1.38-.13.76-.2,1.15s0,.77,0,1.16v22.22c0,13.71,0,28.36,0,43.78s0,31.6,0,48.38v42a10.4,10.4,0,0,0,.4,3.24,9.78,9.78,0,0,0,3.77,5.21,10.07,10.07,0,0,0,6.22,1.71h19.69l25.59,0H265.6c2,0,4.11,0,6.13,0a9.67,9.67,0,0,0,5.51-2.13,10.61,10.61,0,0,0,2-2.2,9.45,9.45,0,0,0,1.22-2.69,10.63,10.63,0,0,0,.37-2.92V221.07c0-30.83,0-58.59.05-81.91s0-42.19.05-55.24c0-1.63,0-3.17,0-4.61a10.1,10.1,0,0,0-.71-3.94,9.79,9.79,0,0,0-1.84-2.91,9.76,9.76,0,0,0-5.86-3.1c-.43-.08-.77-.06-1-.09Z"/><path class="cls-8" d="M273.08,85.1s-1.62.09-3.62.11-3.61,0-3.61,0,1.62-.09,3.61-.1S273.08,85.06,273.08,85.1Z"/><path class="cls-8" d="M273.09,87s-1.61.09-3.61.11-3.61,0-3.62,0,1.62-.09,3.62-.1S273.09,86.91,273.09,87Z"/><path class="cls-8" d="M273.11,88.8s-1.62.09-3.62.11-3.61,0-3.61,0,1.62-.09,3.61-.11S273.11,88.76,273.11,88.8Z"/><path class="cls-8" d="M207.34,90.91h.57l1.54,0,0,0c0-.34,0-.71,0-1.11,0-.21,0-.41,0-.65a.6.6,0,0,1,.52-.47c.25,0,.47,0,.74,0a.6.6,0,0,1,.5.6c0,.52,0,1.07,0,1.63l-.07-.07,2,0-.08.08c0-.79,0-1.6,0-2.43v-.62a.62.62,0,0,0-.28-.46l-.85-.84-.82-.81-.4-.39c-.13-.13-.24-.27-.4-.3a.55.55,0,0,0-.45.08c-.11.1-.24.25-.36.36l-.7.71c-.44.45-.89.87-1.23,1.26a1.4,1.4,0,0,0-.09.73c0,.24,0,.47,0,.69V90c0,.28,0,.52,0,.71s0,.25,0,.25a1.66,1.66,0,0,1,0-.23c0-.19,0-.42,0-.7s0-.69,0-1.11c0-.22,0-.46,0-.7s0-.25,0-.38a.87.87,0,0,1,.11-.41c.36-.44.79-.83,1.23-1.3l.7-.71a4.36,4.36,0,0,1,.37-.38.71.71,0,0,1,.57-.11,1.07,1.07,0,0,1,.46.34l.4.39.83.81.85.83a2.61,2.61,0,0,1,.22.24.64.64,0,0,1,.1.33c0,.2,0,.41,0,.62,0,.83,0,1.64,0,2.42v.08H211v-.07c0-.56,0-1.11,0-1.63a.46.46,0,0,0-.39-.47c-.22,0-.49,0-.71,0a.49.49,0,0,0-.42.38c0,.2,0,.43,0,.62,0,.41,0,.78,0,1.12v0h-2.16Z"/><rect class="cls-4" x="211.11" y="162.47" width="55.1" height="11.26"/><rect class="cls-4" x="211.11" y="178.8" width="55.1" height="11.26"/><path class="cls-9" d="M253.51,212.73H225.85a5.63,5.63,0,0,1-5.63-5.63h0a5.63,5.63,0,0,1,5.63-5.62h27.66a5.62,5.62,0,0,1,5.62,5.62h0A5.63,5.63,0,0,1,253.51,212.73Z"/><path class="cls-2" d="M218.72,170.57h-2.43a.43.43,0,0,1-.43-.43h0a1.63,1.63,0,0,1,1.62-1.62h.05a1.63,1.63,0,0,1,1.63,1.62h0A.44.44,0,0,1,218.72,170.57Z"/><path class="cls-2" d="M218.48,167.67a1,1,0,1,1-1-1A1,1,0,0,1,218.48,167.67Z"/><rect class="cls-2" x="216.06" y="184.61" width="2.91" height="2.05"/><path class="cls-2" d="M219.28,185h-1v-.63a.82.82,0,0,0-1.64,0V185h-1v-.63a1.8,1.8,0,1,1,3.59,0Z"/><path class="cls-2" d="M224.09,219.63v1h1.28v.23h-1.28v1h-.26V219.4h1.7v.23Z"/><path class="cls-2" d="M225.76,221a.95.95,0,1,1,1,1A.92.92,0,0,1,225.76,221Zm1.64,0a.69.69,0,1,0-.69.72A.68.68,0,0,0,227.4,221Z"/><path class="cls-2" d="M229.11,220v.25h-.06a.61.61,0,0,0-.63.69v.95h-.25V220h.24v.37A.71.71,0,0,1,229.11,220Z"/><path class="cls-2" d="M231.27,220v1.64a.81.81,0,0,1-.93.93,1.33,1.33,0,0,1-.87-.28l.13-.2a1.1,1.1,0,0,0,.73.26.6.6,0,0,0,.69-.68v-.23a.86.86,0,0,1-.73.36.91.91,0,1,1,0-1.81.86.86,0,0,1,.74.37V220Zm-.24.89a.71.71,0,1,0-.71.68A.67.67,0,0,0,231,220.9Z"/><path class="cls-2" d="M231.79,221a.95.95,0,1,1,1,1A.91.91,0,0,1,231.79,221Zm1.64,0a.7.7,0,1,0-.69.72A.68.68,0,0,0,233.43,221Z"/><path class="cls-2" d="M235.18,221.76a.61.61,0,0,1-.4.14.49.49,0,0,1-.54-.55v-1.12h-.34V220h.34v-.4h.25v.4h.57v.22h-.57v1.11a.3.3,0,0,0,.32.34.4.4,0,0,0,.28-.1Z"/><path class="cls-2" d="M238.45,221a.91.91,0,0,1-.93,1,.82.82,0,0,1-.71-.37v1h-.25V220h.24v.37a.8.8,0,0,1,.72-.38A.9.9,0,0,1,238.45,221Zm-.25,0a.7.7,0,1,0-.7.72A.69.69,0,0,0,238.2,221Z"/><path class="cls-2" d="M240.36,220.72v1.16h-.24v-.29a.72.72,0,0,1-.64.31c-.43,0-.69-.22-.69-.55s.19-.52.72-.52h.6v-.12c0-.32-.18-.49-.53-.49a1,1,0,0,0-.62.22l-.12-.19a1.2,1.2,0,0,1,.76-.25A.67.67,0,0,1,240.36,220.72Zm-.25.6V221h-.59c-.36,0-.48.15-.48.34s.18.35.47.35A.61.61,0,0,0,240.11,221.32Z"/><path class="cls-2" d="M240.78,221.67l.11-.2a1.21,1.21,0,0,0,.67.21c.35,0,.5-.12.5-.31,0-.48-1.21-.1-1.21-.84,0-.3.26-.53.74-.53a1.28,1.28,0,0,1,.65.17l-.11.21a.88.88,0,0,0-.54-.16c-.34,0-.49.13-.49.31,0,.5,1.21.12,1.21.83,0,.33-.28.54-.77.54A1.25,1.25,0,0,1,240.78,221.67Z"/><path class="cls-2" d="M242.51,221.67l.12-.2a1.18,1.18,0,0,0,.66.21c.35,0,.5-.12.5-.31,0-.48-1.21-.1-1.21-.84,0-.3.26-.53.74-.53a1.34,1.34,0,0,1,.66.17l-.11.21a.93.93,0,0,0-.55-.16c-.34,0-.49.13-.49.31,0,.5,1.21.12,1.21.83,0,.33-.28.54-.77.54A1.27,1.27,0,0,1,242.51,221.67Z"/><path class="cls-2" d="M247.2,220l-.7,1.87h-.24l-.59-1.53-.59,1.53h-.23l-.7-1.87h.24l.58,1.59.6-1.59h.22l.59,1.59L247,220Z"/><path class="cls-2" d="M247.34,221a1,1,0,1,1,.95,1A.91.91,0,0,1,247.34,221Zm1.64,0a.69.69,0,1,0-.69.72A.68.68,0,0,0,249,221Z"/><path class="cls-2" d="M250.69,220v.25h-.06a.61.61,0,0,0-.63.69v.95h-.25V220H250v.37A.7.7,0,0,1,250.69,220Z"/><path class="cls-2" d="M252.82,219.25v2.63h-.24v-.37a.81.81,0,0,1-.72.39,1,1,0,0,1,0-1.9.81.81,0,0,1,.71.37v-1.12Zm-.24,1.7a.7.7,0,1,0-.7.72A.69.69,0,0,0,252.58,221Z"/><path class="cls-2" d="M254.65,220c0-.25-.21-.43-.57-.43a.8.8,0,0,0-.67.29l-.19-.14a1.05,1.05,0,0,1,.88-.37c.5,0,.82.23.82.61,0,.61-.65.64-.65,1.14H254C254,220.55,254.65,220.5,254.65,220Zm-.7,1.68a.18.18,0,0,1,.19-.18.18.18,0,0,1,.18.18.19.19,0,1,1-.37,0Z"/><path class="cls-8" d="M225.77,150.55v4.62h-.54l-2.78-3.45v3.45h-.66v-4.62h.54l2.78,3.44v-3.44Z"/><path class="cls-8" d="M227,150.59a.43.43,0,0,1,.86,0,.43.43,0,0,1-.86,0Zm.11,1.08h.64v3.5h-.64Z"/><path class="cls-8" d="M228.58,153.42a1.75,1.75,0,0,1,1.85-1.78,1.56,1.56,0,0,1,1.43.74l-.48.31a1.11,1.11,0,0,0-1-.5,1.23,1.23,0,0,0,0,2.46,1.09,1.09,0,0,0,1-.5l.48.31a1.59,1.59,0,0,1-1.43.75A1.75,1.75,0,0,1,228.58,153.42Z"/><path class="cls-8" d="M234,153.54l-.73.67v1h-.63v-4.9h.63v3.14l1.91-1.74h.77l-1.47,1.45,1.61,2h-.78Z"/><path class="cls-8" d="M240,153.15v2h-.47v-2a1,1,0,0,0-1-1.11,1.14,1.14,0,0,0-1.21,1.26v1.82h-.47V151.7h.45v.64a1.45,1.45,0,0,1,1.32-.67A1.33,1.33,0,0,1,240,153.15Z"/><path class="cls-8" d="M243.84,153v2.15h-.45v-.54a1.31,1.31,0,0,1-1.19.57c-.79,0-1.27-.41-1.27-1s.34-1,1.34-1h1.1V153c0-.6-.33-.92-1-.92a1.8,1.8,0,0,0-1.16.41l-.21-.35a2.21,2.21,0,0,1,1.42-.47A1.23,1.23,0,0,1,243.84,153Zm-.47,1.11v-.57h-1.09c-.67,0-.89.26-.89.62s.33.65.88.65A1.1,1.1,0,0,0,243.37,154.13Z"/><path class="cls-8" d="M250.85,153.15v2h-.47v-2c0-.73-.37-1.11-1-1.11a1.12,1.12,0,0,0-1.16,1.26v1.82h-.47v-2c0-.73-.37-1.11-1-1.11a1.12,1.12,0,0,0-1.16,1.26v1.82h-.47V151.7h.44v.63a1.41,1.41,0,0,1,1.28-.66,1.26,1.26,0,0,1,1.24.73,1.5,1.5,0,0,1,1.37-.73A1.31,1.31,0,0,1,250.85,153.15Z"/><path class="cls-8" d="M255.16,153.58h-2.91a1.3,1.3,0,0,0,1.37,1.21,1.38,1.38,0,0,0,1.06-.46l.27.3a1.84,1.84,0,0,1-3.17-1.2,1.7,1.7,0,1,1,3.39,0S255.16,153.52,255.16,153.58Zm-2.91-.35h2.47a1.24,1.24,0,0,0-2.47,0Z"/><path class="cls-9" d="M238.61,225.88v1.47a.77.77,0,0,1-.88.87,1.25,1.25,0,0,1-.81-.26l.15-.23a1.06,1.06,0,0,0,.65.22c.4,0,.59-.19.59-.57v-.14a.78.78,0,0,1-.62.27.83.83,0,1,1,0-1.65.75.75,0,0,1,.63.28v-.26Zm-.3.8a.54.54,0,0,0-.58-.55.55.55,0,0,0-.59.55.55.55,0,0,0,.59.56A.55.55,0,0,0,238.31,226.68Z"/><path class="cls-9" d="M233.94,227.32l.12-.25a1.16,1.16,0,0,0,.74.26c.39,0,.55-.15.55-.35,0-.55-1.36-.2-1.36-1,0-.35.27-.64.86-.64a1.27,1.27,0,0,1,.72.2l-.1.25a1.23,1.23,0,0,0-.62-.18c-.38,0-.54.16-.54.35,0,.55,1.36.21,1.36,1,0,.35-.28.64-.87.64A1.32,1.32,0,0,1,233.94,227.32Z"/><path class="cls-9" d="M236,225.35a.21.21,0,0,1,.42,0,.21.21,0,0,1-.21.21A.2.2,0,0,1,236,225.35Zm.05.53h.31v1.7h-.31Z"/><path class="cls-9" d="M240.82,226.6v1h-.31v-1c0-.33-.17-.49-.46-.49a.5.5,0,0,0-.54.56v.88h-.31v-1.7h.3v.25a.72.72,0,0,1,.61-.27A.67.67,0,0,1,240.82,226.6Z"/><path class="cls-9" d="M243.84,225.88v1.7h-.29v-.26a.7.7,0,0,1-.58.28.67.67,0,0,1-.73-.75v-1h.31v.94c0,.33.16.5.45.5a.5.5,0,0,0,.53-.56v-.88Z"/><path class="cls-9" d="M246.19,226.73a.83.83,0,0,1-.86.87.75.75,0,0,1-.6-.28v.88h-.3v-2.32h.29v.27a.74.74,0,0,1,.61-.29A.83.83,0,0,1,246.19,226.73Zm-.31,0a.58.58,0,1,0-.58.6A.57.57,0,0,0,245.88,226.73Z"/><path class="cls-6" d="M234.17,207.81l.15-.32a1.26,1.26,0,0,0,.74.24c.35,0,.49-.12.49-.29,0-.48-1.33-.17-1.33-1,0-.36.29-.67.9-.67a1.4,1.4,0,0,1,.75.2l-.13.32a1.21,1.21,0,0,0-.62-.17c-.35,0-.49.13-.49.3,0,.48,1.33.17,1.33,1,0,.36-.29.67-.9.67A1.47,1.47,0,0,1,234.17,207.81Z"/><path class="cls-6" d="M236.29,205.81a.25.25,0,0,1,.25-.24.24.24,0,0,1,.26.23.25.25,0,0,1-.26.25A.24.24,0,0,1,236.29,205.81Zm.05.52h.4v1.72h-.4Z"/><path class="cls-6" d="M239,206.33v1.46a.81.81,0,0,1-.93.9,1.36,1.36,0,0,1-.83-.24l.18-.3a1.05,1.05,0,0,0,.63.2c.38,0,.55-.17.55-.52v-.09a.75.75,0,0,1-.58.23.83.83,0,1,1,0-1.65.75.75,0,0,1,.6.24v-.23Zm-.4.81a.47.47,0,0,0-.52-.48.48.48,0,0,0-.52.48.49.49,0,0,0,.52.49A.48.48,0,0,0,238.57,207.14Z"/><path class="cls-6" d="M241.18,207.07v1h-.4v-.93c0-.31-.15-.46-.41-.46a.46.46,0,0,0-.47.52v.87h-.4v-1.72h.38v.23a.73.73,0,0,1,.59-.24A.66.66,0,0,1,241.18,207.07Z"/><path class="cls-6" d="M242.53,205.81a.25.25,0,0,1,.25-.24.24.24,0,0,1,.26.23.25.25,0,0,1-.26.25A.24.24,0,0,1,242.53,205.81Zm.05.52h.4v1.72h-.4Z"/><path class="cls-6" d="M245.19,207.07v1h-.4v-.93c0-.31-.15-.46-.4-.46a.46.46,0,0,0-.48.52v.87h-.4v-1.72h.38v.23a.73.73,0,0,1,.59-.24A.66.66,0,0,1,245.19,207.07Z"/></g><g id="Prototyping"><path class="cls-6" d="M184.19,80.54H167.56c-2.23,0-4,1.31-4,2.93v2.09c0,1.62-1.8,2.93-4,2.93H127.08c-2.23,0-4-1.32-4-2.93v-2.1c0-1.61-1.8-2.93-4-2.93H98.61c-7.23,0-13.09,4.06-13.09,9.07l0,145.57c0,5,5.85,9.07,13.07,9.07l85.58,0c7.23,0,13.09-4.06,13.09-9.07l0-145.57C197.26,84.61,191.41,80.54,184.19,80.54Z"/><path class="cls-8" d="M184.19,80.54h.45c.29,0,.74,0,1.32.07a16.47,16.47,0,0,1,4.91,1.18,13,13,0,0,1,3,1.67,9.64,9.64,0,0,1,2.49,2.71,7.09,7.09,0,0,1,1,3.69v4.28c0,12.09,0,29.58,0,51.2s0,47.36,0,75.94V234.9a7,7,0,0,1-.5,2.76,8.22,8.22,0,0,1-1.68,2.56,12.13,12.13,0,0,1-2.72,2.1,17,17,0,0,1-7.56,2c-2.74.06-5.46,0-8.22,0H99.54A18.6,18.6,0,0,1,91,242.72a10.31,10.31,0,0,1-5.18-5,7.16,7.16,0,0,1-.55-3.07v-3.06q0-6.1,0-12.13,0-12.06,0-23.73c0-15.56,0-30.56,0-44.86s0-27.87,0-40.58q0-9.54,0-18.4v-2.2c0-.36,0-.73.07-1.1a8.12,8.12,0,0,1,.27-1.08,8.66,8.66,0,0,1,2.75-3.85,14.4,14.4,0,0,1,4.85-2.51,18.92,18.92,0,0,1,5.82-.76h19.57a5.64,5.64,0,0,1,2.58.5,3,3,0,0,1,1.87,3.25c0,.3,0,.59,0,.88a5,5,0,0,0,0,.87,2.55,2.55,0,0,0,1,1.52,4.44,4.44,0,0,0,2,.86,5.76,5.76,0,0,0,1.18.08h30.78c.6,0,1.22,0,1.79,0a5.44,5.44,0,0,0,1.6-.39,3.15,3.15,0,0,0,1.83-1.83,3.45,3.45,0,0,0,.1-1.1c0-.37,0-.73,0-1.09a3.79,3.79,0,0,1,.07-1.06,2.48,2.48,0,0,1,.49-1,4,4,0,0,1,2.09-1.28,9.21,9.21,0,0,1,2.6-.19h8.48l5.22,0h-13.7a9.2,9.2,0,0,0-2.56.2,3.87,3.87,0,0,0-2,1.24,2.42,2.42,0,0,0-.47.95,4.44,4.44,0,0,0-.07,1v1.09a3.6,3.6,0,0,1-.1,1.12,3.22,3.22,0,0,1-1.89,1.9,5.24,5.24,0,0,1-1.67.4c-.6,0-1.19,0-1.8,0H127.35a6.36,6.36,0,0,1-1.23-.08,4.56,4.56,0,0,1-2.11-.91,2.68,2.68,0,0,1-1-1.6,4.43,4.43,0,0,1,0-.89v-.88a3.36,3.36,0,0,0-.26-1.74,3.3,3.3,0,0,0-1.51-1.38,5.42,5.42,0,0,0-2.45-.46H99.14a18.44,18.44,0,0,0-5.71.75,13.83,13.83,0,0,0-4.75,2.47A8.42,8.42,0,0,0,86,87.58a10.23,10.23,0,0,0-.26,1.06c0,.36-.07.72-.07,1.08v20.6c0,12.71,0,26.29,0,40.58v44.86q0,11.67,0,23.73v15.19a6.93,6.93,0,0,0,.53,3,10.08,10.08,0,0,0,5,4.83,18.16,18.16,0,0,0,8.31,1.59h77.18c2.75,0,5.5,0,8.2,0a16.59,16.59,0,0,0,7.36-2,12.25,12.25,0,0,0,2.65-2,8.16,8.16,0,0,0,1.63-2.49,6.86,6.86,0,0,0,.49-2.7v-2.76c0-3.66,0-7.27,0-10.85,0-28.58,0-54.32.06-75.94s0-39.11.07-51.2V89.87a7,7,0,0,0-.95-3.66,9.47,9.47,0,0,0-2.46-2.69,12.64,12.64,0,0,0-3-1.68A16.28,16.28,0,0,0,186,80.65c-.58-.08-1-.06-1.32-.09Z"/><path class="cls-8" d="M155.07,94.18a26.28,26.28,0,0,1-4.28.17,26.1,26.1,0,0,1-4.27-.17,25.39,25.39,0,0,1,4.27-.18A25.56,25.56,0,0,1,155.07,94.18Z"/><path class="cls-8" d="M154.18,95.59a27.51,27.51,0,0,1-4.27.17,27.51,27.51,0,0,1-4.27-.17,25.39,25.39,0,0,1,4.27-.18A25.39,25.39,0,0,1,154.18,95.59Z"/><path class="cls-8" d="M154.63,96.91a26.28,26.28,0,0,1-4.28.17,26.1,26.1,0,0,1-4.27-.17,26.1,26.1,0,0,1,4.27-.17A26.28,26.28,0,0,1,154.63,96.91Z"/><path class="cls-8" d="M131,107.91a2,2,0,0,1,.32.1l.92.32c.4.16.89.38,1.46.64a20.11,20.11,0,0,1,1.89,1.09,20.54,20.54,0,0,1,6.61,7c.35.57.63,1.19.94,1.82s.56,1.3.77,2a19.16,19.16,0,0,1,.6,9.52,21.42,21.42,0,0,1-4.68,9.89,20.21,20.21,0,0,1-4.48,3.93,21,21,0,0,1-5.7,2.5,21.93,21.93,0,0,1-12.93-.49,21.11,21.11,0,0,1-10.21-7.93,22.14,22.14,0,0,1-4-11.41,19.19,19.19,0,0,1,2.49-10.64,17.41,17.41,0,0,1,7-6.5,23,23,0,0,1,7.52-2.41,31.89,31.89,0,0,1,6-.26,33.81,33.81,0,0,1,5,.58l-.33,0-1-.12c-.86-.1-2.12-.24-3.75-.3a33.16,33.16,0,0,0-5.93.33,22.69,22.69,0,0,0-7.43,2.43,17.13,17.13,0,0,0-6.82,6.43,19,19,0,0,0-2.42,10.47,21.72,21.72,0,0,0,3.92,11.23,20.9,20.9,0,0,0,10,7.81,21.75,21.75,0,0,0,12.73.48,19.8,19.8,0,0,0,10-6.31,21.15,21.15,0,0,0,4.64-9.74,19,19,0,0,0-.56-9.38c-.2-.7-.49-1.35-.74-2s-.58-1.24-.92-1.8a20.31,20.31,0,0,0-2.1-3,20.52,20.52,0,0,0-4.39-4,18.45,18.45,0,0,0-1.86-1.11c-.57-.28-1-.5-1.44-.68l-.91-.35Z"/><path class="cls-8" d="M136.29,135.4a1.42,1.42,0,0,1-.16-.34l-.4-1c-.35-.86-.82-2.13-1.56-3.61a15.58,15.58,0,0,0-3.39-4.67,10.32,10.32,0,0,0-2.84-1.85,7.69,7.69,0,0,0-3.55-.62,10,10,0,0,0-6.23,3,14.17,14.17,0,0,0-3.07,4.87,24.67,24.67,0,0,0-1.1,3.77c-.09.43-.16.77-.21,1.05a2.09,2.09,0,0,1-.09.37,1.37,1.37,0,0,1,0-.38c0-.24.07-.6.15-1.06a20.64,20.64,0,0,1,1-3.84,14.15,14.15,0,0,1,3.07-5,10.27,10.27,0,0,1,6.44-3.09,8,8,0,0,1,3.7.65,10.38,10.38,0,0,1,2.92,1.93,15.33,15.33,0,0,1,3.4,4.8,34.09,34.09,0,0,1,1.47,3.68c.13.41.25.75.33,1A1.41,1.41,0,0,1,136.29,135.4Z"/><path class="cls-8" d="M124.92,113.93a.6.6,0,0,1,.25,0,2.34,2.34,0,0,1,.69.19,4,4,0,0,1,1.93,1.76,3.91,3.91,0,0,1,.51,1.77,3.6,3.6,0,0,1-.54,2,4.28,4.28,0,0,1-4.18,2,4.38,4.38,0,0,1-3.4-3.18,3.87,3.87,0,0,1,0-2.11,4.36,4.36,0,0,1,.88-1.61,4.43,4.43,0,0,1,2.21-1.41,2.86,2.86,0,0,1,.71-.11h.24s-.34.05-.91.23a4.53,4.53,0,0,0-2.06,1.43,4.27,4.27,0,0,0-.79,1.53,3.63,3.63,0,0,0,0,2,4.11,4.11,0,0,0,3.14,2.92,4,4,0,0,0,3.86-1.85,3.33,3.33,0,0,0,.53-1.87,3.77,3.77,0,0,0-.45-1.65,4,4,0,0,0-1.77-1.76C125.26,114,124.91,114,124.92,113.93Z"/><path class="cls-8" d="M145.15,160.1a2.64,2.64,0,0,1-.47-.16c-.3-.11-.75-.27-1.34-.43a12.84,12.84,0,0,0-5.12-.3,12,12,0,0,0-3.4,1c-.58.26-1.17.58-1.83.83a3.47,3.47,0,0,1-2.17.25c-1.65-.42-1.89-2.58-3.37-2.86a2.21,2.21,0,0,0-1.93.95,12.48,12.48,0,0,1-1.8,1.75,2.84,2.84,0,0,1-1.23.47,2.8,2.8,0,0,1-1.29-.19,8.38,8.38,0,0,1-2.07-1.31,16.41,16.41,0,0,0-1.86-1.37,3,3,0,0,0-2-.48,2.82,2.82,0,0,0-1.67,1.05c-.45.5-.82,1.06-1.23,1.57a4.44,4.44,0,0,1-1.46,1.24,3.83,3.83,0,0,1-1.73.37,3.58,3.58,0,0,1-2.69-1.24,3.77,3.77,0,0,1-.84-2.1,3.56,3.56,0,0,1,.18-1.42,1.74,1.74,0,0,1,.21-.44,4.07,4.07,0,0,0-.25,1.85,3.66,3.66,0,0,0,.84,2,3.43,3.43,0,0,0,2.55,1.13,3.74,3.74,0,0,0,1.61-.37,4.19,4.19,0,0,0,1.35-1.18c.4-.5.77-1.06,1.23-1.59a3,3,0,0,1,1.85-1.16,3.22,3.22,0,0,1,2.23.51,15.84,15.84,0,0,1,1.9,1.38,8.1,8.1,0,0,0,2,1.26,2.24,2.24,0,0,0,2.21-.25,13.34,13.34,0,0,0,1.75-1.7,4.69,4.69,0,0,1,1-.81,1.82,1.82,0,0,1,1.27-.24,2,2,0,0,1,1.1.6,7.54,7.54,0,0,1,.73.92A3,3,0,0,0,130.9,161a3.29,3.29,0,0,0,2-.22c.64-.24,1.22-.56,1.82-.82a12.69,12.69,0,0,1,8.68-.56,9.65,9.65,0,0,1,1.33.5A1.93,1.93,0,0,1,145.15,160.1Z"/><path class="cls-8" d="M134.94,166.12c0,.09-4.32.17-9.64.17s-9.64-.08-9.64-.17,4.32-.18,9.64-.18S134.94,166,134.94,166.12Z"/><path class="cls-8" d="M94.63,189.79a53.22,53.22,0,0,1-.08-6.11,54.1,54.1,0,0,1,.27-6.09,53,53,0,0,1,.08,6.1A54.58,54.58,0,0,1,94.63,189.79Z"/><path class="cls-8" d="M152.75,190.33c0,.1-13.28,0-29.65-.3s-29.65-.55-29.64-.64,13.27,0,29.65.29S152.75,190.24,152.75,190.33Z"/><path class="cls-8" d="M152.51,176.7c0,.1-12.84.37-28.67.61s-28.68.36-28.68.27,12.83-.37,28.67-.62S152.51,176.61,152.51,176.7Z"/><path class="cls-8" d="M152.27,190a62.44,62.44,0,0,1-.18-6.71,62.44,62.44,0,0,1,.18-6.71c.09,0,.17,3,.17,6.71S152.36,190,152.27,190Z"/><path class="cls-8" d="M101.56,182s.15-.05.4,0a1.71,1.71,0,0,1,.89.67,2,2,0,0,1,.33,1.63,1.84,1.84,0,0,1-1.59,1.27,1.81,1.81,0,0,1-1.84-.84,2,2,0,0,1-.09-1.66,1.84,1.84,0,0,1,.69-.87c.23-.14.39-.15.39-.13a2.13,2.13,0,0,0-.85,1.08,1.75,1.75,0,0,0,.13,1.42,1.65,1.65,0,0,0,2.85-.36,1.74,1.74,0,0,0-.22-1.4A2.16,2.16,0,0,0,101.56,182Z"/><path class="cls-8" d="M96.6,208.58a47.39,47.39,0,0,1-.93-5.71,51,51,0,0,1-.58-5.75,47.39,47.39,0,0,1,.93,5.71A51,51,0,0,1,96.6,208.58Z"/><path class="cls-8" d="M149.86,197.43c0,.1-12.13.17-27.08.17s-27.07-.07-27.07-.17,12.12-.17,27.07-.17S149.86,197.33,149.86,197.43Z"/><path class="cls-8" d="M151.78,207.85a33.19,33.19,0,0,1-.18-4.88,33.08,33.08,0,0,1,.18-4.88A35.85,35.85,0,0,1,152,203,36,36,0,0,1,151.78,207.85Z"/><path class="cls-8" d="M152.27,208.5c0,.1-12.29.18-27.44.18s-27.44-.08-27.44-.18,12.28-.17,27.44-.17S152.27,208.41,152.27,208.5Z"/><path class="cls-8" d="M100.82,202.46s.09-.12.35-.18a1.36,1.36,0,0,1,1.07.23,1.46,1.46,0,0,1,.5.61,1.29,1.29,0,0,1,0,.91,1.66,1.66,0,0,1-1.59,1.17A1.81,1.81,0,0,1,99.61,204a1.79,1.79,0,0,1,.2-1.61,1.89,1.89,0,0,1,.82-.71c.24-.1.38-.11.39-.09a2.66,2.66,0,0,0-1,.93,1.55,1.55,0,0,0-.11,1.36,1.52,1.52,0,0,0,1.29,1,1.36,1.36,0,0,0,1.27-.92,1.07,1.07,0,0,0-.38-1.22,1.34,1.34,0,0,0-.9-.3C101,202.43,100.83,202.49,100.82,202.46Z"/><path class="cls-9" d="M109.29,231.83a.64.64,0,0,1-.21.06,3.68,3.68,0,0,1-.62.07,5.73,5.73,0,0,1-2.25-.34,6.94,6.94,0,0,1-2.83-1.84,6.09,6.09,0,0,1-.72-7.75,7.23,7.23,0,0,1,2.45-2.33,5.85,5.85,0,0,1,2.16-.75,3.8,3.8,0,0,1,.61,0,.57.57,0,0,1,.22,0,7.86,7.86,0,0,0-2.86,1,7,7,0,0,0-2.3,2.29,5.86,5.86,0,0,0,.67,7.36,7,7,0,0,0,2.69,1.83A7.74,7.74,0,0,0,109.29,231.83Z"/><path class="cls-9" d="M146.16,231.52c0,.09-7.59.17-16.95.17s-17-.08-17-.17,7.6-.18,17-.18S146.16,231.42,146.16,231.52Z"/><path class="cls-9" d="M146.52,230.67a7.35,7.35,0,0,0,1.88-1,6.19,6.19,0,0,0,1.65-1.82,5.78,5.78,0,0,0,.78-3.12,6,6,0,0,0-1.39-3.61,7.34,7.34,0,0,0-3.86-2.22,20.53,20.53,0,0,0-5-.45l-5.48.06-19.24.17H108.4l-.55,0a3,3,0,0,1,.55,0l1.59,0,5.83-.13,19.24-.27,5.48-.05a20.38,20.38,0,0,1,5.12.48,7.6,7.6,0,0,1,4,2.35,6.18,6.18,0,0,1,1.41,3.78,5.84,5.84,0,0,1-.86,3.23,6.14,6.14,0,0,1-1.73,1.83,6,6,0,0,1-1.42.73,3.78,3.78,0,0,1-.4.11C146.57,230.67,146.52,230.68,146.52,230.67Z"/><path class="cls-8" d="M144.29,226a1.87,1.87,0,0,1-.4.05l-1.14.09-4.21.25-13.9.7a11.68,11.68,0,0,1-4.58-.37c-.71-.25-1.34-.59-2-.8a2.81,2.81,0,0,0-1.89-.08c-1.17.44-2,1.52-3.19,1.8s-2.48-.7-2.09-1.73l.11.14a1.56,1.56,0,0,0-1.16.74,1.48,1.48,0,0,0-.2,1.09l-.13,0c0-.46,0-.83,0-1.13a2.06,2.06,0,0,1,0-.39,2.55,2.55,0,0,1,0,.39l0,1.12,0,.6-.15-.58a1.62,1.62,0,0,1,.18-1.21,1.7,1.7,0,0,1,1.3-.86l.17,0-.06.17a1,1,0,0,0,.41,1.13,1.49,1.49,0,0,0,1.4.25,4.47,4.47,0,0,0,1.5-.8,6.77,6.77,0,0,1,1.65-1,3.1,3.1,0,0,1,2.1.06c.68.22,1.32.56,2,.79a11.66,11.66,0,0,0,4.45.34l13.9-.6,4.22-.14,1.15,0A1.79,1.79,0,0,1,144.29,226Z"/><path class="cls-9" d="M148.77,237.19c0,.1-10.24.17-22.86.17s-22.87-.07-22.87-.17,10.24-.17,22.87-.17S148.77,237.09,148.77,237.19Z"/><path class="cls-8" d="M98.4,93.81a6.6,6.6,0,0,1,.16,1.24c.08.79.16,1.91.26,3.25v.15h-.15l-3.57.42-2.51.27-.17,0V99c-.06-1.62-.1-3-.11-4a8.68,8.68,0,0,1,0-1.58A9.72,9.72,0,0,1,92.52,95c.07,1,.15,2.38.23,4l-.18-.16,2.5-.29,3.58-.38-.14.17c-.07-1.34-.11-2.47-.13-3.26A5.59,5.59,0,0,1,98.4,93.81Z"/><path class="cls-8" d="M95.29,90.68A30.25,30.25,0,0,1,92.49,93a33,33,0,0,1-2.87,2.27,14,14,0,0,1,2.65-2.54A14,14,0,0,1,95.29,90.68Z"/><path class="cls-8" d="M100.7,95.15a16.94,16.94,0,0,1-2.81-2.1,17.11,17.11,0,0,1-2.6-2.37,17.7,17.7,0,0,1,2.82,2.1A18.65,18.65,0,0,1,100.7,95.15Z"/><rect class="cls-9" x="115.59" y="55.59" width="12.78" height="12.78" transform="translate(6.26 -11.03) rotate(5.31)"/><path class="cls-8" d="M121.54,64.69a6.1,6.1,0,0,1,0-1.38l0-.7a1.1,1.1,0,0,1,.11-.44,1.13,1.13,0,0,1,.35-.34c.27-.16.56-.24.77-.4a1.52,1.52,0,0,0,.5-.67,1.31,1.31,0,0,0-.41-1.47,1.64,1.64,0,0,0-1.28-.38,2.29,2.29,0,0,0-1.17.56s0-.15.2-.33a1.91,1.91,0,0,1,.94-.48,1.84,1.84,0,0,1,1.52.39,1.69,1.69,0,0,1,.55.79,1.49,1.49,0,0,1,0,1,1.8,1.8,0,0,1-.63.82,7.71,7.71,0,0,1-.8.41.58.58,0,0,0-.34.53l-.07.69A5.43,5.43,0,0,1,121.54,64.69Z"/><path class="cls-8" d="M121.36,65.42s0,.1,0,.14,0,0,.06,0,0,0,0,0,0,0,0,0,0-.1,0-.15.09-.11.23,0a.27.27,0,0,1,.1.27.32.32,0,0,1-.27.25.35.35,0,0,1-.34-.13.28.28,0,0,1,0-.29C121.23,65.34,121.36,65.37,121.36,65.42Z"/><rect class="cls-9" x="44.39" y="46.66" width="12.25" height="12.25" transform="translate(-6.48 7.07) rotate(-7.53)"/><rect class="cls-9" x="58.09" y="62.73" width="12.25" height="12.25" transform="translate(6.65 -5.65) rotate(5.31)"/><rect class="cls-8" x="79.9" y="61.3" width="12.25" height="12.25" transform="translate(6.61 -7.67) rotate(5.31)"/><rect class="cls-9" x="72.54" y="45.7" width="12.25" height="12.25"/><rect class="cls-9" x="89.1" y="45.7" width="12.25" height="12.25"/><rect class="cls-7" x="58.62" y="45.91" width="12.25" height="12.25"/><path class="cls-8" d="M77.26,71a10.77,10.77,0,0,1-2.66.17A10.88,10.88,0,0,1,71.93,71a10.06,10.06,0,0,1,2.67-.18A10,10,0,0,1,77.26,71Z"/><path class="cls-8" d="M75.28,69.74c.06-.08.88.5,2.06.85l.3.08-.24.21-.08.08a8.2,8.2,0,0,1-1.9,1.45,8.29,8.29,0,0,1,1.67-1.71l.08-.08.07.3A3.57,3.57,0,0,1,75.28,69.74Z"/><path class="cls-8" d="M75.3,97.78a11,11,0,0,1-1.17,0l-3.19.07c-.67,0-1.4.1-2.21.1a8.09,8.09,0,0,1-2.54-.42A4.27,4.27,0,0,1,64,95.81a7.28,7.28,0,0,1-.9-2.91c-.42-4.11-.73-7.81-1-10.5-.1-1.3-.19-2.37-.25-3.18a6.47,6.47,0,0,1,0-1.17A8.93,8.93,0,0,1,62,79.21c.1.8.22,1.87.36,3.17.28,2.73.66,6.41,1.07,10.47a7,7,0,0,0,.84,2.78,4,4,0,0,0,2.06,1.65,7.83,7.83,0,0,0,2.43.43c.77,0,1.52-.06,2.19,0,1.35,0,2.44,0,3.2,0A6.17,6.17,0,0,1,75.3,97.78Z"/><path class="cls-8" d="M74.1,99.52a6.1,6.1,0,0,1,1.77-1.82l.12-.1,0,.3a4.32,4.32,0,0,1-1.87-1.51c.06-.07.86.62,2,1.2l.25.12-.22.17-.12.09A20.05,20.05,0,0,1,74.1,99.52Z"/><rect class="cls-9" x="50.59" y="165.42" width="11.81" height="11.81" transform="translate(16.1 -4.49) rotate(5.31)"/><rect class="cls-7" x="36.01" y="130.93" width="11.81" height="11.81"/><rect class="cls-9" x="51.28" y="114.23" width="11.81" height="11.81"/><rect class="cls-2" x="51.28" y="129.99" width="11.81" height="11.81" transform="translate(-8.76 4.03) rotate(-3.75)"/><rect class="cls-8" x="51.28" y="146.86" width="11.81" height="11.81" transform="translate(14.39 -4.64) rotate(5.31)"/><path class="cls-8" d="M65.42,170.79s.47-.34,1.3-1a22.48,22.48,0,0,0,3.24-3,23,23,0,0,0,3.58-5.5,22.1,22.1,0,0,0,2-7.76,16.83,16.83,0,0,0-1.29-7.85,12,12,0,0,0-4.08-5,10.66,10.66,0,0,0-4-1.73c-1-.19-1.62-.16-1.62-.2a2.06,2.06,0,0,1,.43,0,6.83,6.83,0,0,1,1.22.09,10.31,10.31,0,0,1,4.15,1.66,12.15,12.15,0,0,1,4.24,5.09,16.86,16.86,0,0,1,1.33,8,21.72,21.72,0,0,1-2,7.86,22.5,22.5,0,0,1-3.68,5.53,21.33,21.33,0,0,1-3.35,3c-.42.32-.78.51-1,.67A2.47,2.47,0,0,1,65.42,170.79Z"/><path class="cls-8" d="M69.27,171.73a25.16,25.16,0,0,1-4.21.41h0l-.21,0,0-.21a24.41,24.41,0,0,1,.69-4.17,26.29,26.29,0,0,1-.35,4.21L65,171.8h0A25.16,25.16,0,0,1,69.27,171.73Z"/><path class="cls-8" d="M97.3,123.53c0,.1-6.82.18-15.24.18s-15.23-.08-15.23-.18,6.82-.17,15.23-.17S97.3,123.43,97.3,123.53Z"/><path class="cls-8" d="M95.82,125.72a12.58,12.58,0,0,1,1.78-2.41l.09-.1,0,.26a12.14,12.14,0,0,1-2.36-1.64,12.69,12.69,0,0,1,2.54,1.34l.17.11-.13.16-.08.09A13.43,13.43,0,0,1,95.82,125.72Z"/><path class="cls-8" d="M167.14,203.64a60.81,60.81,0,0,1-6.35.17,60.65,60.65,0,0,1-6.35-.17,56,56,0,0,1,6.35-.18A56.1,56.1,0,0,1,167.14,203.64Z"/><path class="cls-8" d="M166.35,206.85a2.11,2.11,0,0,1,.18-.92,6.73,6.73,0,0,1,1-2.06l0,.19-.16-.3a29.19,29.19,0,0,0-1.94-2.91,6.92,6.92,0,0,1,2.25,2.74l.16.31,0,.09-.07.09A20.12,20.12,0,0,0,166.35,206.85Z"/><rect class="cls-9" x="170.32" y="196.59" width="17.37" height="17.37" transform="translate(-13.03 12.14) rotate(-3.75)"/><path class="cls-10" d="M182.6,205.45a2.61,2.61,0,1,0-3.56-3.81,2.58,2.58,0,0,0-.49,3.19h0l-.53.5.12.88-.82-.23-.67.62.13.88-.82-.23-.57.53.07.54-.5-.14-.33.31,0,.82,1.22.3,3.95-3.68A2.62,2.62,0,0,0,182.6,205.45Zm-.39-3.21a.75.75,0,0,1,0,1.06.75.75,0,0,1-1-1.09A.75.75,0,0,1,182.21,202.24Z"/><path class="cls-6" d="M182.21,202.24s-.24-.17-.61-.11a.63.63,0,0,0-.46.36.61.61,0,0,0,.1.66.6.6,0,0,0,.65.14.62.62,0,0,0,.39-.43c.09-.36-.12-.59-.07-.62s.34.14.31.66a.85.85,0,0,1-.5.69.91.91,0,0,1-1.17-1.25.85.85,0,0,1,.73-.45C182.1,201.89,182.25,202.24,182.21,202.24Z"/><path class="cls-6" d="M182.6,205.45a.74.74,0,0,1-.14.16,2.21,2.21,0,0,1-.5.34,2.63,2.63,0,0,1-2.26.07l.12,0-3.92,3.73-.06.06-.08,0-1.22-.3-.13,0v-.13c0-.26,0-.54,0-.82v-.07l0,0,.34-.31.06-.07.1,0,.5.14-.22.18-.07-.53,0-.09.07-.06.57-.54.07-.06.09,0,.83.23-.22.2-.13-.89v-.09l.07-.06.17-.16.49-.46.07-.06.1,0,.82.23-.22.2-.12-.89,0-.09.07-.06.53-.49,0,.21a2.79,2.79,0,0,1-.12-2.48,2.74,2.74,0,0,1,5-.1,2.65,2.65,0,0,1-.08,2.44,1.78,1.78,0,0,1-.58.67,5.54,5.54,0,0,0,.48-.73,2.57,2.57,0,0,0,0-2.28,2.55,2.55,0,0,0-1.15-1.12,2.47,2.47,0,0,0-3.34,1.25,2.44,2.44,0,0,0,.13,2.18l.06.12-.1.09-.53.49.06-.15.12.89,0,.26-.25-.07-.83-.23.17,0-.49.45-.18.17.06-.16c0,.31.08.61.12.89l0,.26-.26-.07-.82-.23.16,0-.57.53.05-.15.08.54,0,.25-.25-.07-.5-.14.16,0-.34.31,0-.11c0,.28,0,.56,0,.82l-.12-.17,1.21.31-.14,0,4-3.65,0,0,.06,0a2.62,2.62,0,0,0,2.12,0A6.16,6.16,0,0,0,182.6,205.45Z"/><path class="cls-10" d="M182.6,205.45a2.61,2.61,0,1,0-3.56-3.81,2.58,2.58,0,0,0-.49,3.19h0l-.53.5.12.88-.82-.23-.67.62.13.88-.82-.23-.57.53.07.54-.5-.14-.33.31,0,.82,1.22.3,3.95-3.68A2.62,2.62,0,0,0,182.6,205.45Zm-.39-3.21a.75.75,0,0,1,0,1.06.75.75,0,0,1-1-1.09A.75.75,0,0,1,182.21,202.24Z"/><path class="cls-6" d="M182.21,202.24s-.24-.17-.61-.11a.63.63,0,0,0-.46.36.61.61,0,0,0,.1.66.6.6,0,0,0,.65.14.62.62,0,0,0,.39-.43c.09-.36-.12-.59-.07-.62s.34.14.31.66a.85.85,0,0,1-.5.69.91.91,0,0,1-1.17-1.25.85.85,0,0,1,.73-.45C182.1,201.89,182.25,202.24,182.21,202.24Z"/><path class="cls-6" d="M182.6,205.45a.74.74,0,0,1-.14.16,2.21,2.21,0,0,1-.5.34,2.63,2.63,0,0,1-2.26.07l.12,0-3.92,3.73-.06.06-.08,0-1.22-.3-.13,0v-.13c0-.26,0-.54,0-.82v-.07l0,0,.34-.31.06-.07.1,0,.5.14-.22.18-.07-.53,0-.09.07-.06.57-.54.07-.06.09,0,.83.23-.22.2-.13-.89v-.09l.07-.06.17-.16.49-.46.07-.06.1,0,.82.23-.22.2-.12-.89,0-.09.07-.06.53-.49,0,.21a2.79,2.79,0,0,1-.12-2.48,2.74,2.74,0,0,1,5-.1,2.65,2.65,0,0,1-.08,2.44,1.78,1.78,0,0,1-.58.67,5.54,5.54,0,0,0,.48-.73,2.57,2.57,0,0,0,0-2.28,2.55,2.55,0,0,0-1.15-1.12,2.47,2.47,0,0,0-3.34,1.25,2.44,2.44,0,0,0,.13,2.18l.06.12-.1.09-.53.49.06-.15.12.89,0,.26-.25-.07-.83-.23.17,0-.49.45-.18.17.06-.16c0,.31.08.61.12.89l0,.26-.26-.07-.82-.23.16,0-.57.53.05-.15.08.54,0,.25-.25-.07-.5-.14.16,0-.34.31,0-.11c0,.28,0,.56,0,.82l-.12-.17,1.21.31-.14,0,4-3.65,0,0,.06,0a2.62,2.62,0,0,0,2.12,0A6.16,6.16,0,0,0,182.6,205.45Z"/><path class="cls-8" d="M180.72,213.84a2.14,2.14,0,0,1,.05.43c0,.32,0,.73.08,1.24.05,1.08.11,2.64.16,4.57s.07,4.22.05,6.77c0,1.28,0,2.62-.06,4a12,12,0,0,1-.16,2.13,3,3,0,0,1-1.12,1.95,4.68,4.68,0,0,1-2.11.75c-.72.1-1.42.18-2.11.25-1.38.14-2.72.25-4,.32-2.55.13-4.85.13-6.78.07s-3.49-.19-4.56-.29c-.54,0-.95-.11-1.23-.14a1.45,1.45,0,0,1-.43-.08,2,2,0,0,1,.43,0l1.24.07c1.08.07,2.63.15,4.56.18s4.22,0,6.76-.15c1.27-.07,2.6-.18,4-.33.69-.07,1.4-.15,2.1-.25a4.27,4.27,0,0,0,1.95-.69,2.66,2.66,0,0,0,1-1.74,12,12,0,0,0,.16-2.07c0-1.39.05-2.72.08-4,0-2.55,0-4.84,0-6.77s0-3.44,0-4.56c0-.51,0-.92,0-1.24A2.12,2.12,0,0,1,180.72,213.84Z"/><path class="cls-8" d="M162.45,239.62a12.32,12.32,0,0,1-1.53-.88,38.3,38.3,0,0,0-3.79-2l-.25-.11.2-.18.36-.32c1.35-1.2,2.59-2.27,3.49-3a10.82,10.82,0,0,1,1.52-1.18,10.86,10.86,0,0,1-1.35,1.36c-.87.81-2.08,1.91-3.43,3.11l-.35.32,0-.29a26.13,26.13,0,0,1,3.78,2.09A7.56,7.56,0,0,1,162.45,239.62Z"/><path class="cls-9" d="M149.38,89a4.89,4.89,0,0,1,1.86,0,7.06,7.06,0,0,1,4.3,2.62,6.59,6.59,0,0,1,1.36,3.26,7.43,7.43,0,0,1-.08,2,8,8,0,0,1-.67,2,7.78,7.78,0,0,1-3,3.28,7.67,7.67,0,0,1-4.71.93,8.76,8.76,0,0,1-4.44-1.83,8,8,0,0,1-2.58-3.66,7.74,7.74,0,0,1-.33-4,6.22,6.22,0,0,1,1.62-3.14,6.52,6.52,0,0,1,2.45-1.58,5.74,5.74,0,0,1,2.17-.37,4.91,4.91,0,0,1,1.37.22,2.49,2.49,0,0,1,.45.19,6.21,6.21,0,0,0-1.82-.27,5.71,5.71,0,0,0-2.1.41,6.43,6.43,0,0,0-2.34,1.57,6,6,0,0,0-1.52,3,7.56,7.56,0,0,0,.35,3.88,7.82,7.82,0,0,0,2.49,3.5,8.44,8.44,0,0,0,4.27,1.76,7.18,7.18,0,0,0,7.42-4,7.6,7.6,0,0,0,.66-1.91,7.17,7.17,0,0,0,.09-1.9,6.28,6.28,0,0,0-1.26-3.14,7.14,7.14,0,0,0-4.13-2.64A9.73,9.73,0,0,0,149.38,89Z"/><path class="cls-9" d="M166.63,80.16a2.43,2.43,0,0,1-.07.72,11,11,0,0,1-.55,1.88,11.75,11.75,0,0,1-9.89,7.44,10.48,10.48,0,0,1-2,0,2.59,2.59,0,0,1-.71-.12c0-.07,1,.08,2.64-.13a12.11,12.11,0,0,0,9.69-7.28A24.85,24.85,0,0,0,166.63,80.16Z"/><path class="cls-9" d="M167.86,81.32a7.68,7.68,0,0,1-1.33-1.74l.28,0-.08.08A7.8,7.8,0,0,1,165,81.22a7.62,7.62,0,0,1,1.47-1.77l.09-.09.15-.15.12.18A7.13,7.13,0,0,1,167.86,81.32Z"/><rect class="cls-9" x="174.37" y="89.14" width="10.99" height="10.99"/><rect class="cls-9" x="174.56" y="77.22" width="10.99" height="10.99" transform="translate(-9.29 24.3) rotate(-7.53)"/><rect class="cls-7" x="172.84" y="65.41" width="10.99" height="10.99" transform="translate(-7.75 23.98) rotate(-7.53)"/><rect class="cls-9" x="156.3" y="65.41" width="10.99" height="10.99" transform="translate(11.52 -21.95) rotate(8.05)"/><path class="cls-9" d="M172.84,72a12.6,12.6,0,0,1-2.83.25,12.11,12.11,0,0,1-2.84-.1,11.34,11.34,0,0,1,2.83-.25A11.49,11.49,0,0,1,172.84,72Z"/><path class="cls-9" d="M97.14,90.42a1.41,1.41,0,0,1,.44.1,4.74,4.74,0,0,1,1.16.58A6.23,6.23,0,0,1,101,98.32a7.93,7.93,0,0,1-2.12,3.14,8.44,8.44,0,0,1-3.67,2,8.18,8.18,0,0,1-4.49-.1,6.37,6.37,0,0,1-3.53-2.74,7.38,7.38,0,0,1-1.06-4,7.23,7.23,0,0,1,1.07-3.63,7.52,7.52,0,0,1,2.34-2.33,8.58,8.58,0,0,1,4.52-1.37,7.11,7.11,0,0,1,1.29.08,2.06,2.06,0,0,1,.44.1s-.62-.1-1.73,0a8.86,8.86,0,0,0-4.39,1.45,7.31,7.31,0,0,0-2.22,2.27,7,7,0,0,0-1,3.48,7.14,7.14,0,0,0,1,3.86A6,6,0,0,0,90.83,103a7.75,7.75,0,0,0,4.29.11,8.18,8.18,0,0,0,3.55-1.89,7.57,7.57,0,0,0,2.06-3,6,6,0,0,0,.3-3.15,6.15,6.15,0,0,0-2.36-3.87A6.39,6.39,0,0,0,97.14,90.42Z"/><path class="cls-9" d="M122.5,73.68a1.41,1.41,0,0,1,0,.35c0,.23,0,.57,0,1a19.12,19.12,0,0,1-.35,3.69A20.39,20.39,0,0,1,120.51,84a20.09,20.09,0,0,1-9.4,9.4,20.66,20.66,0,0,1-5.22,1.73,19.05,19.05,0,0,1-3.69.35c-.44,0-.78,0-1,0a1.38,1.38,0,0,1-.34,0s.48,0,1.35,0a22.11,22.11,0,0,0,3.64-.45A20.61,20.61,0,0,0,122,78.68a22.23,22.23,0,0,0,.45-3.64C122.48,74.17,122.47,73.68,122.5,73.68Z"/><path class="cls-9" d="M125.42,76.34a30.27,30.27,0,0,1-2.77-3.48h.3l-.14.23a31.52,31.52,0,0,1-2.5,4,32.21,32.21,0,0,1,2.2-4.18l.13-.23.14-.23.15.22A28.46,28.46,0,0,1,125.42,76.34Z"/></g><g id="Character"><circle class="cls-9" cx="233.81" cy="121.6" r="19.9" transform="translate(37.87 297.84) rotate(-69.45)"/><path class="cls-6" d="M238.63,131l-13.29-3.1.38-1.64a6.82,6.82,0,0,1,8.2-5.09h0a6.81,6.81,0,0,1,5.09,8.2Z"/><path class="cls-6" d="M238.63,118.61a4,4,0,1,1-3-4.82A4,4,0,0,1,238.63,118.61Z"/><path class="cls-11" d="M226.31,139.86s-1-3.87-1.71-4.53a10.75,10.75,0,0,1-2.94-4.06c-.27-1-1-.81-1-.81l.67,3.84-6.45-5.52a2.4,2.4,0,0,0,0,2.21c.61,1.23.37,1.08.37,1.08s-1,.38-.66,1.22a17.16,17.16,0,0,0,.87,1.92,2.25,2.25,0,0,0-.79,1.8,4,4,0,0,0-.44,1.87c0,1.13,1.62,3.57,1.62,3.57l9.12,6.44,4.93-6.3Z"/><path class="cls-12" d="M219.14,132.45a13.28,13.28,0,0,0,1.83,1.78,12.37,12.37,0,0,0,2,1.59,13.28,13.28,0,0,0-1.83-1.78A12.37,12.37,0,0,0,219.14,132.45Z"/><path class="cls-12" d="M215.18,131.64a16,16,0,0,0,1.51,2.32,14.72,14.72,0,0,0,1.72,2.17,15,15,0,0,0-1.51-2.32A14.72,14.72,0,0,0,215.18,131.64Z"/><path class="cls-12" d="M215.19,134.79a4.43,4.43,0,0,0,.66,1.37,4.72,4.72,0,0,0,.88,1.23,4.44,4.44,0,0,0-.66-1.36A4.89,4.89,0,0,0,215.19,134.79Z"/><path class="cls-12" d="M214.65,136.83c-.06,0,.1.41.31.85s.4.81.47.79,0-.43-.24-.89S214.71,136.79,214.65,136.83Z"/><path class="cls-8" d="M255,98.57a16.16,16.16,0,0,1,.5-2.42,2.41,2.41,0,0,1,.62-1c.3-.29.69-.11.94.31a7.48,7.48,0,0,1,0,6.19c-.25.42-.64.6-.94.31a2.41,2.41,0,0,1-.62-1,16.47,16.47,0,0,1-.5-2.41,1.8,1.8,0,0,0-.05.67,6.37,6.37,0,0,0,.29,1.83,2.63,2.63,0,0,0,.67,1.16.82.82,0,0,0,.81.19,1.39,1.39,0,0,0,.64-.55,7.48,7.48,0,0,0,0-6.61,1.39,1.39,0,0,0-.64-.55.82.82,0,0,0-.81.19,2.63,2.63,0,0,0-.67,1.16,6.37,6.37,0,0,0-.29,1.83A1.94,1.94,0,0,0,255,98.57Z"/><path class="cls-11" d="M272.27,129.2h0a7.48,7.48,0,0,1-8.08-7.17c-.17-4.08-.32-8.2-.32-8.2s-6.19-.57-6.66-6.69-.3-20.25-.3-20.25h0a21.34,21.34,0,0,1,21.57,1.32l-.32,21.55,0,11.59C278.16,125.24,276.15,128.89,272.27,129.2Z"/><path class="cls-12" d="M264.4,103.47s0,.12.09.26a.87.87,0,0,0,.68.34,1.69,1.69,0,0,0,1.58-1.69,1.77,1.77,0,0,0-.45-1.3,2,2,0,0,0-1-.55c-.63-.13-1,.11-1,.15s.38,0,.88.15a1.54,1.54,0,0,1,1.06,1.53,1.41,1.41,0,0,1-1.14,1.4A1.15,1.15,0,0,1,264.4,103.47Z"/><path class="cls-8" d="M255,98.27a43.83,43.83,0,0,0,8.3,1.36,22.29,22.29,0,0,0-4.12-.88A22.55,22.55,0,0,0,255,98.27Z"/><path class="cls-8" d="M290.49,99.74a5.6,5.6,0,0,0-4-5.47,3.33,3.33,0,0,0-2.18-5.21c-.22,0-.44,0-.67-.07a2.31,2.31,0,0,0-.34-.36c-1.91-1.7-2.09-4.32-4.29-5.63a6.78,6.78,0,0,0-7,0c-1.44-.72-2.79-1.66-4.23-2.39-2-1-4.43-1.61-6.41-.6-1.43.72-2.39,2.15-3.77,2.94-2,1.14-4.68.89-5.63,3.8a4.94,4.94,0,0,0,0,3.11c1.36,4,6.27,5.54,9.8,3.82.07.67-.59,2.17.12,4.29.23.67.31,1.7,1.37,1.72a3.14,3.14,0,0,1,4.18-.93,3.55,3.55,0,0,1,1.2,4.45,4.67,4.67,0,0,1-3,2.28,2.35,2.35,0,0,0-1.84,2.54c.18,1.53,2.74,2.1,3.9,3.37,1.8,2,5.74,2.8,8.39,3.11,2.26.26,2.33.31,3.28-1.07a6.27,6.27,0,0,0,2.1-.32,7.24,7.24,0,0,0,4.54-8.23A5.62,5.62,0,0,0,290.49,99.74Z"/><path class="cls-7" d="M277.92,102.11a3.59,3.59,0,0,1-.83.19,4.88,4.88,0,0,1-2.29-.32,4.55,4.55,0,0,1-2.47-2.33,4.83,4.83,0,0,1,0-4.12l.06-.12.06.11a11.3,11.3,0,0,1-4.15-.27,5.25,5.25,0,0,1-2.8-1.87,3.93,3.93,0,0,1-.83-2.12,2.47,2.47,0,0,1,.07-.84,5,5,0,0,0,0,.84,3.85,3.85,0,0,0,.85,2.06,5.13,5.13,0,0,0,2.76,1.8,11.24,11.24,0,0,0,4.1.26h.12l-.05.11-.06.11a4.77,4.77,0,0,0,0,4,4.43,4.43,0,0,0,2.39,2.28,4.66,4.66,0,0,0,2.24.36C277.62,102.2,277.91,102.09,277.92,102.11Z"/><path class="cls-7" d="M283.16,97a8.44,8.44,0,0,0,.56-.68,5,5,0,0,0,.81-2.21,4.65,4.65,0,0,0-.88-3.31A4.8,4.8,0,0,0,279.92,89a4.67,4.67,0,0,0-1.73.32l-.09,0v-.09a4.52,4.52,0,0,0-1.82-3.06,4.4,4.4,0,0,0-2.77-.83,4.67,4.67,0,0,0-1.89.49c-.41.21-.61.37-.62.36a3,3,0,0,1,.6-.4,4.5,4.5,0,0,1,4.75.28,4.66,4.66,0,0,1,1.89,3.14l-.09,0a4.55,4.55,0,0,1,1.78-.34,5,5,0,0,1,3.84,1.87,4.67,4.67,0,0,1,.86,3.4,4.84,4.84,0,0,1-.86,2.23A3.24,3.24,0,0,1,283.16,97Z"/><path class="cls-7" d="M277.18,106.67a1.8,1.8,0,0,1-.25.17,2.2,2.2,0,0,1-.79.26,2.54,2.54,0,0,1-1.27-.15,2.36,2.36,0,0,1-1.23-1l.1,0a4.15,4.15,0,0,1-1.38.79,4.21,4.21,0,0,1-2.18.13,4.16,4.16,0,0,1-1.61-.76,3.59,3.59,0,0,1-.83-.87,2.14,2.14,0,0,1-.22-.38,4.7,4.7,0,0,0,1.11,1.17,4.05,4.05,0,0,0,1.58.71,4,4,0,0,0,2.1-.13,4.15,4.15,0,0,0,1.34-.76l.07-.06,0,.08a2.23,2.23,0,0,0,1.15,1,2.63,2.63,0,0,0,1.22.18A2.72,2.72,0,0,0,277.18,106.67Z"/><path class="cls-9" d="M287.18,99.27a3.76,3.76,0,0,0-2.66-2.08c-1.15-.21-3.23,1-3.23,1a1.34,1.34,0,0,0-.81-.61,2.77,2.77,0,0,0-2.5,4.63,2.81,2.81,0,1,0,3.94,3.65,2.94,2.94,0,0,0,4.71-3.49A2.57,2.57,0,0,0,287.18,99.27Z"/><path class="cls-6" d="M280.37,101.4a6.24,6.24,0,0,0-1.32-1.27,3.27,3.27,0,0,0-1.18-.5c-.32-.06-.53,0-.53-.06a1,1,0,0,1,.55,0,2.83,2.83,0,0,1,1.24.47,4.11,4.11,0,0,1,1,.91A1.47,1.47,0,0,1,280.37,101.4Z"/><path class="cls-6" d="M280.29,97.61s.17.13.37.41a4.67,4.67,0,0,1,.61,1.19,3.05,3.05,0,0,1,.1,1.87,5.35,5.35,0,0,0-.23-1.82A8,8,0,0,0,280.29,97.61Z"/><path class="cls-6" d="M283,97.4a1.87,1.87,0,0,1,.18,1.47,1.91,1.91,0,0,1-.8,1.24A2.81,2.81,0,0,0,283,97.4Z"/><path class="cls-6" d="M285.36,97.47a2.22,2.22,0,0,1-.14,1.65,2,2,0,0,1-.82.88c-.27.15-.46.18-.46.16a2.58,2.58,0,0,0,1.15-1.1,3.31,3.31,0,0,0,.26-1.11C285.37,97.65,285.34,97.47,285.36,97.47Z"/><path class="cls-6" d="M277,103.15a1.93,1.93,0,0,1,1.27-.39,2.38,2.38,0,0,1,1.3.24,8.69,8.69,0,0,0-1.3-.1A4.78,4.78,0,0,0,277,103.15Z"/><path class="cls-6" d="M277,106.12a1.08,1.08,0,0,1,.13-.45,2.32,2.32,0,0,1,.68-.92,1.81,1.81,0,0,1,1.55-.28,2.73,2.73,0,0,0-1.47.4,2.36,2.36,0,0,0-.67.84A2.74,2.74,0,0,1,277,106.12Z"/><path class="cls-7" d="M293.46,104.66a4.7,4.7,0,0,0,.7-.13,2.94,2.94,0,0,0,1.48-1.18,3,3,0,0,0,.35-2.72,4.29,4.29,0,0,0-2.35-2.46,6.22,6.22,0,0,0-3.45-.36,10.64,10.64,0,0,0-2.75.84c-.76.33-1.35.64-1.77.85l-.47.24-.17.07.16-.1.46-.26a19.34,19.34,0,0,1,1.75-.89,10.62,10.62,0,0,1,2.77-.88,6.42,6.42,0,0,1,3.53.36,4.42,4.42,0,0,1,2.41,2.55,3.11,3.11,0,0,1,.13,1.56,3.25,3.25,0,0,1-.51,1.26,2.92,2.92,0,0,1-1.56,1.17A1.91,1.91,0,0,1,293.46,104.66Z"/><path class="cls-8" d="M293.78,104.77c1.93-.39,2.83-3,1.92-4.74a5.19,5.19,0,0,0-5-2.43,12.31,12.31,0,0,0-5.46,2.16,3.06,3.06,0,0,0-3.87,1.47,3.24,3.24,0,0,0-3.29,2.2,3.2,3.2,0,0,0,2.12,3.82,5.13,5.13,0,1,0,8,6,5.1,5.1,0,0,0,5.66-8.45Z"/><path class="cls-7" d="M295.62,108.71a1.46,1.46,0,0,1,0,.7,2.35,2.35,0,0,1-1.26,1.48,4.65,4.65,0,0,1-3,.36,5.07,5.07,0,0,1-3.2-2.12l.12,0a3.15,3.15,0,0,1-1.66,2.57,3.5,3.5,0,0,1-3.31,0,4.53,4.53,0,0,1-2-2,3.4,3.4,0,0,1-.3-1.36,1.85,1.85,0,0,1,.49-1.24l.06.11a3,3,0,1,1-.9-6,2.17,2.17,0,0,1,.78,0,3.78,3.78,0,0,0-.77,0,3.09,3.09,0,0,0-1.9.93,2.94,2.94,0,0,0,2.76,4.89l.21,0-.15.16a2.23,2.23,0,0,0-.15,2.45,4.28,4.28,0,0,0,2,2,3.35,3.35,0,0,0,3.18,0,3,3,0,0,0,1.6-2.45v-.2l.11.16a4.88,4.88,0,0,0,3.11,2.08,4.56,4.56,0,0,0,2.93-.32,2.37,2.37,0,0,0,1.26-1.42A2,2,0,0,0,295.62,108.71Z"/><path class="cls-7" d="M294.39,104a1.7,1.7,0,0,0,.29-.67,2,2,0,0,0-.73-1.77,4.24,4.24,0,0,0-2.72-1.06,4.33,4.33,0,0,0-3.27,1.36,4.49,4.49,0,0,0-.64.88l-.12.21v-.25a3.29,3.29,0,0,0-1.65-2.64,3.06,3.06,0,0,0-2.53-.21,3.34,3.34,0,0,0-1.45,1c-.27.32-.37.53-.38.52a2.15,2.15,0,0,1,.35-.55,3.33,3.33,0,0,1,1.45-1,3.11,3.11,0,0,1,2.62.2,3.39,3.39,0,0,1,1.73,2.74l-.13,0a4.39,4.39,0,0,1,.66-.91,4.49,4.49,0,0,1,3.37-1.39,4.39,4.39,0,0,1,2.79,1.11,2,2,0,0,1,.71,1.86,1.34,1.34,0,0,1-.22.52A.72.72,0,0,1,294.39,104Z"/><path class="cls-7" d="M294.31,110.15a2.49,2.49,0,0,1-.07.58,3.82,3.82,0,0,1-.68,1.49,3.89,3.89,0,0,1-2.05,1.43,4,4,0,0,1-3.17-.46l.09,0a5.92,5.92,0,0,1-5.05,3.15,5.8,5.8,0,0,1-4.76-2.48,5,5,0,0,1-.82-4.31,3.09,3.09,0,0,1,2.1-2.07,2.19,2.19,0,0,1,.83-.08,1.47,1.47,0,0,1,.28,0,2.61,2.61,0,0,0-1.09.08,3,3,0,0,0-2,2,4.89,4.89,0,0,0,.82,4.21,5.7,5.7,0,0,0,4.65,2.41,5.94,5.94,0,0,0,3-.94,5.66,5.66,0,0,0,1.93-2.13l0-.06,0,0a4,4,0,0,0,3.08.47,3.77,3.77,0,0,0,2-1.38,3.82,3.82,0,0,0,.7-1.45C294.29,110.35,294.3,110.15,294.31,110.15Z"/><path class="cls-7" d="M290.55,105.58a1.63,1.63,0,0,1-.28.39,2.82,2.82,0,0,1-1.07.74,2.87,2.87,0,0,1-1.94.09,3.05,3.05,0,0,1-1.82-1.53l.09,0-.29.11a3.38,3.38,0,0,1-2.48-.2,3.21,3.21,0,0,1-1.43-1.45,3.11,3.11,0,0,1-.34-1.33,1.88,1.88,0,0,1,0-.51,3.55,3.55,0,0,0,.39,1.8,3.11,3.11,0,0,0,1.4,1.38,3.32,3.32,0,0,0,2.38.18l.28-.1.06,0,0,.06a2.92,2.92,0,0,0,1.73,1.47,2.84,2.84,0,0,0,1.86-.06A3.28,3.28,0,0,0,290.55,105.58Z"/><polygon class="cls-11" points="297.87 276.79 299.81 312.73 286.79 315.88 284.19 280.77 297.87 276.79"/><polygon class="cls-13" points="300.19 312.43 302.41 322.18 287.43 322.18 286.79 315.83 300.19 312.43"/><path class="cls-8" d="M287.12,320.76a9.64,9.64,0,0,0,2.18.13c1.35,0,3.22,0,5.27-.1l5.26-.22a12.39,12.39,0,0,0,2.17-.18,11.59,11.59,0,0,0-2.18-.11c-1.35,0-3.21,0-5.27.1l-5.25.22A14.12,14.12,0,0,0,287.12,320.76Z"/><path class="cls-9" d="M293.47,314.33a12.09,12.09,0,0,0,0,3.16,12.55,12.55,0,0,0,.42,3.13,12.09,12.09,0,0,0,0-3.16A12.44,12.44,0,0,0,293.47,314.33Z"/><polyline class="cls-6" points="302.41 322.18 287.43 322.18 287.28 320.76 302.14 320.39 302.41 322.01"/><polygon class="cls-11" points="248.43 294.26 245.27 318.08 233.75 317.28 236.17 295.44 248.43 294.26"/><path class="cls-13" d="M233.63,314.69h0s-12.95,4.38-13.17,6.74l24.76.72.23-6.47-.92.18A18.36,18.36,0,0,1,233.63,314.69Z"/><g class="cls-14"><path class="cls-6" d="M242.55,316.81a1,1,0,0,1,.66,1.17,1,1,0,0,1-1.16.67,1.06,1.06,0,0,1-.69-1.25,1,1,0,0,1,1.28-.56"/></g><g class="cls-14"><path class="cls-6" d="M245.22,322.15v-2l-23.73.06s-1.12.45-1,1.23Z"/></g><path class="cls-9" d="M233.23,314.56c0,.12.6.19,1.18.6s.89.92,1,.88,0-.75-.76-1.23S233.2,314.44,233.23,314.56Z"/><path class="cls-9" d="M230.6,315.56c0,.11.49.33.88.86s.5,1.06.62,1.06.22-.68-.29-1.32S230.61,315.44,230.6,315.56Z"/><path class="cls-9" d="M229,318.62c.11,0,.3-.57,0-1.24s-.85-.95-.91-.85.29.46.52,1S228.91,318.6,229,318.62Z"/><path class="cls-9" d="M233.5,314.49a2.31,2.31,0,0,0,1.24,0,5.2,5.2,0,0,0,1.31-.36,4.76,4.76,0,0,0,.72-.35,1.47,1.47,0,0,0,.38-.28.54.54,0,0,0,.08-.65.68.68,0,0,0-.52-.29,1.61,1.61,0,0,0-.47.05,4.45,4.45,0,0,0-.78.25,4.35,4.35,0,0,0-1.16.71c-.59.52-.8,1-.76,1s.34-.33.94-.75a4.88,4.88,0,0,1,1.12-.59,4.25,4.25,0,0,1,.72-.2c.27-.06.49-.06.55.06s0,.06,0,.14a1.35,1.35,0,0,1-.28.2,5.48,5.48,0,0,1-.67.36,7,7,0,0,1-1.21.42A11,11,0,0,0,233.5,314.49Z"/><path class="cls-9" d="M233.65,314.67a1.92,1.92,0,0,0,.36-1.19,4.06,4.06,0,0,0-.42-2.12,1,1,0,0,0-.77-.65.57.57,0,0,0-.53.33,1.53,1.53,0,0,0-.14.45,2.65,2.65,0,0,0,0,.84,2.86,2.86,0,0,0,.5,1.29c.46.66,1,.82,1,.78s-.37-.31-.72-.93a2.73,2.73,0,0,1-.36-1.18,2.53,2.53,0,0,1,0-.72c0-.26.15-.47.25-.44s.33.21.42.42a4.33,4.33,0,0,1,.29.68,4.66,4.66,0,0,1,.21,1.25C233.73,314.2,233.59,314.65,233.65,314.67Z"/><path class="cls-8" d="M288.24,173.71s9.13,15.27,9.13,24.4l2.26,111.23-14.44,3.44-11-108.7s-26.68,109-27.54,109-14-2.36-14-2.36L252.56,174.2Z"/><path class="cls-7" d="M282.55,201.09a1,1,0,0,0,0,.28l.12.82c.11.74.28,1.79.49,3.14.45,2.72,1.07,6.66,1.8,11.53,1.47,9.73,3.3,23.23,4.84,38.22s2.47,28.56,3,38.4c.27,4.92.46,8.91.57,11.66.07,1.36.12,2.43.15,3.17,0,.35,0,.62.05.83a1.07,1.07,0,0,0,0,.28,1.23,1.23,0,0,0,0-.28c0-.21,0-.48,0-.83,0-.75,0-1.81-.07-3.17-.07-2.76-.22-6.75-.45-11.67-.46-9.86-1.36-23.46-2.89-38.44s-3.41-28.47-5-38.21c-.77-4.87-1.43-8.8-1.92-11.52q-.37-2-.57-3.12c-.07-.34-.12-.61-.16-.81A1.24,1.24,0,0,0,282.55,201.09Z"/><path class="cls-7" d="M259.69,202.93c-.11,0-4.51,24.4-9.84,54.52s-9.55,54.58-9.44,54.6,4.51-24.39,9.84-54.53S259.8,203,259.69,202.93Z"/><path class="cls-7" d="M274.68,203.89s.07-.09.15-.27.22-.47.37-.83a27.93,27.93,0,0,0,1.07-3.13,32,32,0,0,0,1-10.86c-.08-1.07-.22-2.11-.39-3.11a27.06,27.06,0,0,0-.69-2.82c-.5-1.78-1-3.36-1.49-4.68s-.85-2.38-1.13-3.11l-.33-.84c-.08-.19-.13-.29-.14-.28a1,1,0,0,0,.07.3c.08.24.17.52.27.86l1,3.14c.42,1.33.93,2.92,1.41,4.69a28.68,28.68,0,0,1,.66,2.8c.16,1,.31,2,.38,3.07a33.44,33.44,0,0,1-.93,10.77c-.33,1.35-.71,2.42-1,3.15A9.37,9.37,0,0,0,274.68,203.89Z"/><path class="cls-7" d="M270.59,185.21s0,.08,0,.21l0,.59c0,.55-.06,1.28-.1,2.2-.06,1.91-.16,4.56-.27,7.74l.1-.14-5.56,2.27h.15l-4.51-2.75-.3-.18.09.14c-.34-3.68-.66-7.12-.94-10.1l-.15.16,8.31-.07,2.37,0,.63,0,.23,0a7.62,7.62,0,0,0-.8,0l-2.33,0-8.41-.08h-.17v.16c.27,3,.57,6.44.9,10.11v.09l.07,0,.29.18,4.52,2.74.08,0,.08,0,5.54-2.3.09,0V196c0-3.21.09-5.9.12-7.83,0-.91,0-1.63,0-2.17A5.79,5.79,0,0,0,270.59,185.21Z"/><path class="cls-7" d="M291.5,182.27a5.86,5.86,0,0,0,.09.75c.08.51.18,1.19.31,2,.29,1.77.69,4.22,1.16,7.15l.06-.15-4.2,3.12.15,0L284,193.73l-.26-.07.12.12c-1-3.33-1.89-6.46-2.68-9.16l-.12.2,7.54-1.8,2.15-.53a7,7,0,0,0,.79-.22s-.25,0-.74.14l-2.13.44L281,184.52l-.16,0,0,.16c.78,2.7,1.68,5.83,2.65,9.16l0,.1.1,0,.26.08,5.11,1.41.08,0,.06-.05,4.18-3.15.07-.05v-.09c-.55-3-1-5.44-1.33-7.22-.16-.83-.29-1.49-.38-2S291.5,182.26,291.5,182.27Z"/><path class="cls-7" d="M262.33,201.73a54.55,54.55,0,0,0,6.14,1.52,58.64,58.64,0,0,0,6.22,1.17,55.81,55.81,0,0,0-6.15-1.51A57.42,57.42,0,0,0,262.33,201.73Z"/><path class="cls-7" d="M280.28,202.22a6,6,0,0,0,1.58,0,26.12,26.12,0,0,0,3.75-.59,25.7,25.7,0,0,0,3.64-1.11,6,6,0,0,0,1.42-.69,9.29,9.29,0,0,0-1.5.45c-.92.3-2.2.68-3.64,1s-2.74.55-3.7.68A10.14,10.14,0,0,0,280.28,202.22Z"/><polyline class="cls-9" points="262.37 119.55 263.96 116.27 277.79 115.75 279.96 120 262.59 120"/><polygon class="cls-9" points="228.36 140.97 221.53 147.56 239.03 163.21 244.15 151.14 228.36 140.97"/><polygon class="cls-9" points="296.46 160.86 283.15 155.57 286.12 144.54 296.97 148.23 296.46 160.86"/><path class="cls-9" d="M240,163.84c-3.32-1.65-4.17-5.61-2.55-8.94l13.8-29.49a5.23,5.23,0,0,1,1.39-1.9,15.6,15.6,0,0,1,11.41-3.91l14.39-.37s11.3,0,15.54,8.9c.31.66,6.88,13.69,11.21,22.27a7.43,7.43,0,0,1-4.07,10.32h0a7.43,7.43,0,0,1-9.34-3.93l-4.71-10.49-3,15,4.27,12.39-35.68.49,2.74-16.57.87-11.81-7.24,14.92a6.75,6.75,0,0,1-9.07,3.1Z"/><g class="cls-15"><path class="cls-16" d="M283,161c-2.7,2-6.68,1.34-10,.79a14.46,14.46,0,0,1-8.72-4.72,5.83,5.83,0,0,1-1.61-4.12,2.93,2.93,0,0,1,3-2.78c1.72.2,2.55,2.14,3.38,3.66a13.37,13.37,0,0,0,13.93,6.54S283.43,160.68,283,161Z"/></g><g class="cls-15"><path d="M260.92,137.82c-.84,6.79-.47,6.27-1.88,13-.7,3.29-1.54,6.73-3.81,9.21l1.12-14.17Z"/></g><polygon class="cls-9" points="288.42 173.71 289.44 170.73 286.78 168.96 254.06 166.26 251.75 170.59 252.74 174.2 288.42 173.71"/><path class="cls-8" d="M287.2,147.73a8.78,8.78,0,0,0,.73,1.68c.49,1,1.22,2.39,2.09,3.87s1.74,2.78,2.39,3.7a8.6,8.6,0,0,0,1.12,1.44,10.7,10.7,0,0,0-.91-1.58c-.6-1-1.42-2.27-2.29-3.74s-1.63-2.83-2.19-3.81A11,11,0,0,0,287.2,147.73Z"/><path class="cls-8" d="M290.34,153.39a4.41,4.41,0,0,0,.23,2.47,4.29,4.29,0,0,0,1.25,2.14c.08-.06-.52-1-.92-2.24S290.45,153.39,290.34,153.39Z"/><path class="cls-8" d="M255.07,123.72s.6.27,1.49.83a9.21,9.21,0,0,1,4.32,6.59c.16,1,.11,1.69.17,1.69a4.34,4.34,0,0,0,.08-1.72,8.66,8.66,0,0,0-4.45-6.78A4.25,4.25,0,0,0,255.07,123.72Z"/><path class="cls-8" d="M284.19,161.47c.1,0,1.7-6.81,3.59-15.27s3.33-15.32,3.24-15.34-1.7,6.81-3.58,15.27S284.1,161.45,284.19,161.47Z"/><path class="cls-8" d="M236.82,152.65a60.35,60.35,0,0,0,3.11-3,5.16,5.16,0,0,0-1.77,1.29A5.08,5.08,0,0,0,236.82,152.65Z"/><path class="cls-8" d="M248.82,161.29a7.29,7.29,0,0,0,.54-.91c.34-.59.8-1.46,1.37-2.53,1.13-2.16,2.63-5.16,4.27-8.48s3.15-6.32,4.27-8.47l1.32-2.56a5.17,5.17,0,0,0,.45-1,6.25,6.25,0,0,0-.57.89c-.35.58-.83,1.43-1.42,2.5-1.17,2.13-2.72,5.11-4.36,8.44s-3.09,6.28-4.18,8.51c-.52,1.05-.94,1.92-1.27,2.59A6.25,6.25,0,0,0,248.82,161.29Z"/><path class="cls-8" d="M261.68,152.16s0,.08,0,.24a3.86,3.86,0,0,0,.11.66,8.76,8.76,0,0,0,.89,2.3,13.07,13.07,0,0,0,6,5.35,26.08,26.08,0,0,0,7.86,2c1,.12,1.87.18,2.45.22a5.1,5.1,0,0,0,.9,0,3.94,3.94,0,0,0-.89-.16l-2.42-.33a29,29,0,0,1-7.76-2,13.39,13.39,0,0,1-6-5.15A12.64,12.64,0,0,1,261.68,152.16Z"/><path class="cls-8" d="M268.85,169.47c0,.09,4.42.48,9.89.87s9.9.61,9.9.52-4.41-.49-9.88-.87S268.86,169.37,268.85,169.47Z"/><path class="cls-8" d="M263.15,166.81a10.77,10.77,0,0,0-.72,3.35,11.29,11.29,0,0,0,0,3.43c.1,0,.15-1.53.35-3.39S263.24,166.84,263.15,166.81Z"/><path class="cls-8" d="M260.85,164.68a4.64,4.64,0,0,0-.3,1.35,17.38,17.38,0,0,0-.09,3.34,16.85,16.85,0,0,0,.56,3.29,4.67,4.67,0,0,0,.48,1.3c.11,0-.52-2.05-.69-4.62S261,164.69,260.85,164.68Z"/><path class="cls-8" d="M262.33,119.78c0,.1,3.2,0,7.14-.23s7.12-.48,7.11-.57a70.8,70.8,0,0,0-7.13.22C265.51,119.43,262.33,119.68,262.33,119.78Z"/><path class="cls-8" d="M263.17,119.55a3.58,3.58,0,0,1-.47.07l-1.33.21-2.1.37a9.17,9.17,0,0,0-2.67.81,13.18,13.18,0,0,0-2.82,1.86,11.37,11.37,0,0,0-2.43,3c-1.22,2.46-2.48,5.26-3.86,8.14l-7,14.8-2.16,4.47-.6,1.21a3,3,0,0,1-.23.41,2.4,2.4,0,0,1,.17-.44l.54-1.24,2.05-4.52c1.75-3.81,4.2-9.06,6.93-14.84,1.38-2.89,2.63-5.65,3.89-8.14a11.33,11.33,0,0,1,2.52-3.07,13.51,13.51,0,0,1,2.91-1.86,9.34,9.34,0,0,1,2.73-.78c.83-.14,1.54-.24,2.12-.32s1-.12,1.34-.14A2,2,0,0,1,263.17,119.55Z"/><path class="cls-3" d="M252.66,155.33h-.15l-.42-.06-1.53-.26a21.82,21.82,0,0,1-4.91-1.45,10.29,10.29,0,0,1-4-3.14,6,6,0,0,1-1-1.88,5.46,5.46,0,0,1,.25.51,7.63,7.63,0,0,0,.82,1.31,10.55,10.55,0,0,0,4,3.07,22.81,22.81,0,0,0,4.87,1.48l1.52.31.41.08Z"/><path class="cls-3" d="M237.28,147.42a2.25,2.25,0,0,1-.38.12c-.25.06-.61.17-1,.32a11.72,11.72,0,0,0-5.62,4.29,10.17,10.17,0,0,0-.58.91,1.4,1.4,0,0,1-.22.34,2.06,2.06,0,0,1,.17-.36,8.58,8.58,0,0,1,.55-.95,11,11,0,0,1,5.66-4.32,8.6,8.6,0,0,1,1.06-.28Z"/><path class="cls-3" d="M259.82,138.78h-.13l-.38,0c-.33,0-.8-.09-1.38-.19a22.22,22.22,0,0,1-4.43-1.24,22.87,22.87,0,0,1-4.08-2.13c-.49-.33-.88-.61-1.13-.82l-.3-.24c-.07,0-.1-.08-.1-.09l.12.07.31.22c.26.19.66.46,1.15.77a23.85,23.85,0,0,0,8.48,3.36c.57.11,1,.19,1.37.23l.37.06C259.78,138.76,259.82,138.77,259.82,138.78Z"/><path class="cls-3" d="M290.13,123.78s-.44-.08-1.25-.12a15,15,0,0,0-3.42.23c-1.43.22-3.1.66-5,1a24.28,24.28,0,0,1-6.22.49c-2.22-.09-4.32-.35-6.23-.53a43.36,43.36,0,0,0-5.08-.24,21.67,21.67,0,0,0-3.41.36l-.91.22-.32.06a2.47,2.47,0,0,1,.31-.09l.91-.24a20.54,20.54,0,0,1,3.41-.41,43,43,0,0,1,5.1.21c1.92.18,4,.43,6.22.52a24.67,24.67,0,0,0,6.2-.48c1.88-.38,3.56-.81,5-1a15.16,15.16,0,0,1,3.43-.19,8.06,8.06,0,0,1,.93.12Z"/><path class="cls-3" d="M288.52,141l-.29,0-.85.07-3.1.21c-2.63.16-6.25.46-10.26.55a53.45,53.45,0,0,1-10.24-.67,27.41,27.41,0,0,1-4.13-1l.29.07.81.21c.71.19,1.75.42,3,.65a55.46,55.46,0,0,0,10.23.63c4-.09,7.63-.37,10.25-.51l3.11-.17.85,0Z"/><path class="cls-3" d="M301.12,142.63s0,0-.09.11l-.28.31c-.24.27-.61.63-1.09,1.07a21.38,21.38,0,0,1-4.14,2.88,21,21,0,0,1-4.71,1.8c-.63.15-1.14.26-1.5.31l-.41,0-.15,0s.05,0,.14,0l.41-.09c.35-.06.86-.18,1.48-.35a21.72,21.72,0,0,0,8.81-4.66c.49-.42.87-.77,1.12-1l.3-.29Z"/><path class="cls-3" d="M295.22,132.25s-.05.07-.16.18-.28.26-.49.44a9.09,9.09,0,0,1-1.84,1.14,9.25,9.25,0,0,1-2.06.68,5.75,5.75,0,0,1-.65.09.65.65,0,0,1-.24,0s.34-.07.87-.2a10.53,10.53,0,0,0,2-.71,11,11,0,0,0,1.84-1.09C295,132.46,295.21,132.24,295.22,132.25Z"/><path class="cls-3" d="M305.85,153.44a9.92,9.92,0,0,1-1.34,1.56,12.43,12.43,0,0,1-1.74,1.41,15.11,15.11,0,0,1-2.41,1.29,15,15,0,0,1-2.63.76,11.86,11.86,0,0,1-2.23.21,9.92,9.92,0,0,1-2.05-.18h.14l.41,0a10.93,10.93,0,0,0,1.5,0,13.62,13.62,0,0,0,8.94-3.64,11.8,11.8,0,0,0,1-1.08l.27-.31C305.81,153.47,305.85,153.43,305.85,153.44Z"/><path class="cls-3" d="M278.88,117.13h-.16l-.46,0-1.7-.07c-1.44,0-3.43-.05-5.61.09s-4.16.38-5.58.6l-1.68.28-.46.08-.16,0s.05,0,.16,0l.45-.1c.39-.09,1-.2,1.67-.32a50,50,0,0,1,5.59-.65,51.3,51.3,0,0,1,5.62,0c.72,0,1.3.08,1.7.12l.46,0Z"/><path class="cls-3" d="M261.75,155.16h-.25l-.68-.1a10.91,10.91,0,0,1-2.18-.66,10.56,10.56,0,0,1-2-1.09,6.22,6.22,0,0,1-.55-.42c-.12-.11-.19-.17-.18-.18s.3.2.78.51a12.72,12.72,0,0,0,2,1.05,13.57,13.57,0,0,0,2.14.69C261.4,155.09,261.75,155.14,261.75,155.16Z"/><path class="cls-3" d="M284.79,157.8l-.2,0-.57.07c-.5.06-1.22.13-2.12.2-1.78.16-4.25.32-7,.38s-5.21,0-7-.05l-2.12-.11-.57,0a1.12,1.12,0,0,1-.2,0h.78l2.11.07c1.79,0,4.27.08,7,0s5.2-.2,7-.33l2.11-.17.58,0Z"/><path class="cls-3" d="M260.33,170.63l-.34.09c-.21,0-.53.1-.92.15a21.27,21.27,0,0,1-3.07.2,21.74,21.74,0,0,1-3.07-.24c-.39-.06-.71-.12-.92-.17a1.49,1.49,0,0,1-.34-.08,1.5,1.5,0,0,1,.35,0l.92.12a26.49,26.49,0,0,0,3.06.2,25.46,25.46,0,0,0,3.06-.16l.93-.11A1.43,1.43,0,0,1,260.33,170.63Z"/><path class="cls-3" d="M262.5,169.28a3.36,3.36,0,0,0-.91-.56,3.69,3.69,0,0,0-1.06-.12,1.65,1.65,0,0,1,2,.68Z"/><path class="cls-3" d="M284,170.91l-.21.05-.62.12c-.54.11-1.32.24-2.29.38-1.94.29-4.64.6-7.63.74a75.43,75.43,0,0,1-7.66,0c-1-.05-1.77-.12-2.32-.17l-.63-.07c-.14,0-.22,0-.21,0h.22l.63,0c.54,0,1.33.09,2.31.13,2,.09,4.67.14,7.65,0s5.68-.43,7.62-.69c1-.14,1.76-.25,2.3-.34l.62-.1Z"/></g><g id="Plant"><path class="cls-17" d="M81.6,278.78a7.44,7.44,0,0,1,3.83-4.89c2-.88,4.41-.38,6.51.38s4.14,1.78,6.36,1.92,4.73-.92,5.4-3-.58-4.13-2.09-5.58A13.17,13.17,0,0,0,80,272.75"/><path class="cls-9" d="M64,287.71c-3.26-3.1-3.09-8.49-1.47-12.68s5.18-7.41,9.14-9.53a29,29,0,0,1,25.22-.82,12,12,0,0,0-9.68,5.69c-1.78,3-2.18,6.56-3.66,9.69A15.26,15.26,0,0,1,64,287.71"/><path class="cls-9" d="M62.44,269.11c-3.61-4.26-4.09-11.1-3.56-16.66s1.82-11.15.94-16.66c-.52-3.27-1.78-6.39-2.21-9.67s.18-7,2.72-9.1c2.92-2.43,7.52-1.86,10.56.43s4.79,5.87,6.08,9.45c2.83,7.85,3.86,16.57,1.54,24.59s-7.77,15.19-15.76,17.62"/><path class="cls-8" d="M60.71,304.05a2.66,2.66,0,0,1,0-.49c0-.32,0-.79,0-1.4,0-1.23.16-3,.44-5.16a68,68,0,0,1,1.38-7.56A34.49,34.49,0,0,1,66,280.7a36.68,36.68,0,0,1,5.63-7.54,36.28,36.28,0,0,1,5.91-4.91c.9-.62,1.77-1.09,2.52-1.53s1.44-.74,2-1l1.3-.55.46-.17a2.22,2.22,0,0,1-.43.23l-1.28.59-2,1c-.73.45-1.59.94-2.48,1.57a36.32,36.32,0,0,0-5.83,4.93,36.69,36.69,0,0,0-5.57,7.48C62.93,286.65,62,292.75,61.37,297c-.3,2.16-.45,3.92-.54,5.14,0,.59-.06,1.06-.08,1.4A3.57,3.57,0,0,1,60.71,304.05Z"/><path class="cls-17" d="M29.58,252.3c-6.68,4-6.65,7.7-5.54,11.16s5.21,5.86,8.61,4.57a10.58,10.58,0,0,0,4.5-4.08,18.86,18.86,0,0,1,4-4.68c1.66-1.2,4.08-1.66,5.75-.47"/><path class="cls-9" d="M24.58,256.72c1.75-2.41,6.06-3.11,8.78-1.91s4.72,3.59,6.51,6,3.52,4.89,6,6.55,5.93,2.26,8.4.59A7.23,7.23,0,0,0,57.11,263a16.59,16.59,0,0,0-.39-5.82c-.59-2.8-1.56-5.72-3.8-7.5-2.49-2-6-2.08-9.14-2A34.29,34.29,0,0,0,33,249.36c-3.43,1.27-6.93,4-8.39,7.36"/><path class="cls-8" d="M55.16,298.71s0,0,0-.15l0-.43c0-.4,0-1-.06-1.66,0-1.46-.1-3.54-.18-6.09s-.18-5.64-.37-9-.44-7.13-1-11a34.79,34.79,0,0,0-1.1-5.59,28.46,28.46,0,0,0-2.05-4.9,27.86,27.86,0,0,0-2.58-4,26.21,26.21,0,0,0-2.82-3.1,20.68,20.68,0,0,0-5-3.4c-.33-.15-.61-.3-.87-.4l-.65-.25-.4-.17-.14-.06s0,0,.15,0l.41.13.66.23c.26.09.55.23.88.37a20.07,20.07,0,0,1,5.1,3.36,26.53,26.53,0,0,1,2.87,3.1,27.7,27.7,0,0,1,2.63,4.07,29.43,29.43,0,0,1,2.08,4.94,35,35,0,0,1,1.12,5.64c.52,3.9.76,7.64.94,11s.25,6.47.3,9,.08,4.66.08,6.1c0,.7,0,1.26,0,1.66,0,.17,0,.32,0,.43A.85.85,0,0,1,55.16,298.71Z"/><path class="cls-8" d="M57.56,301.72a19.62,19.62,0,0,1-.73-2.86,30.16,30.16,0,0,1-.31-8.06,53.63,53.63,0,0,1,2.55-11.68c1.37-4.3,3.23-8.89,4.81-13.83A63.37,63.37,0,0,0,65.8,258a64.33,64.33,0,0,0,1-7A102.54,102.54,0,0,0,67,239.06c-.11-3.4-.29-6.15-.41-8.05,0-.94-.1-1.67-.13-2.19,0-.24,0-.42,0-.57s0-.19,0-.19l0,.19c0,.14,0,.33,0,.57,0,.52.11,1.25.19,2.18.15,1.9.36,4.65.5,8.05A97.87,97.87,0,0,1,67,251a65.33,65.33,0,0,1-.93,7,63.82,63.82,0,0,1-1.92,7.35c-1.59,4.95-3.46,9.54-4.84,13.82a54.26,54.26,0,0,0-2.6,11.62,31.1,31.1,0,0,0,.21,8c.17.93.32,1.66.45,2.14,0,.23.1.41.13.55S57.56,301.72,57.56,301.72Z"/><polygon class="cls-7" points="74.11 304.74 42.76 304.74 42.05 298.71 74.11 298.71 74.11 304.74"/><polygon class="cls-7" points="46.13 304.05 50.05 322.15 67.08 322.15 70.75 304.05 46.13 304.05"/><path class="cls-7" d="M74.11,304.74c0,.08-6.89.13-15.39.11s-15.39-.11-15.39-.2,6.89-.13,15.39-.1S74.11,304.66,74.11,304.74Z"/><path class="cls-8" d="M68.73,313.68A12.52,12.52,0,0,0,66,312.09a9.81,9.81,0,0,0-3.36-.67,11.93,11.93,0,0,0-4.13.76c-1.42.48-2.76,1-4.06,1.35a9.82,9.82,0,0,1-3.51.11,7.31,7.31,0,0,1-2.26-.72,4.91,4.91,0,0,1-.54-.34c-.12-.09-.18-.14-.17-.15s.27.15.77.39a8,8,0,0,0,2.23.61,9.92,9.92,0,0,0,3.42-.17c1.26-.31,2.59-.88,4-1.37a11.82,11.82,0,0,1,4.23-.75,9.59,9.59,0,0,1,3.43.76,8.62,8.62,0,0,1,2,1.19,5.23,5.23,0,0,1,.49.42C68.68,313.61,68.74,313.67,68.73,313.68Z"/><path class="cls-6" d="M68.49,314.88a14.26,14.26,0,0,0-2.65-1.56,9,9,0,0,0-3.24-.66,11.73,11.73,0,0,0-4,.71c-1.38.47-2.68,1-3.91,1.33a10,10,0,0,1-3.38.38,5.58,5.58,0,0,1-2.21-.59,3.65,3.65,0,0,1-.53-.33c-.11-.09-.17-.14-.16-.15s.26.16.74.38a6.15,6.15,0,0,0,2.18.48,10.39,10.39,0,0,0,3.28-.43c1.21-.34,2.5-.88,3.9-1.35a11.68,11.68,0,0,1,4.09-.71,8.73,8.73,0,0,1,3.31.75,9,9,0,0,1,2,1.18c.21.17.37.31.47.41S68.5,314.88,68.49,314.88Z"/><path class="cls-6" d="M69,312.48a14.7,14.7,0,0,0-2.83-1.68,10.66,10.66,0,0,0-3.45-.82,10.83,10.83,0,0,0-4.25.75,40.19,40.19,0,0,1-4.21,1.37,10.76,10.76,0,0,1-3.63,0,8.29,8.29,0,0,1-2.33-.74,4.07,4.07,0,0,1-.56-.35l-.18-.15s.28.16.79.4a9.22,9.22,0,0,0,2.32.63,10.91,10.91,0,0,0,3.54-.07c1.3-.28,2.67-.89,4.16-1.38a11.13,11.13,0,0,1,4.37-.75,10.23,10.23,0,0,1,3.51.91,9.85,9.85,0,0,1,2.09,1.26,5.84,5.84,0,0,1,.5.43C69,312.41,69.05,312.47,69,312.48Z"/><path class="cls-8" d="M74.39,304.77c0,.08-7,.15-15.75.15s-15.75-.07-15.75-.15,7-.15,15.75-.15S74.39,304.68,74.39,304.77Z"/></g><g id="Floor"><path class="cls-8" d="M347.65,322.58c0,.07-69.2.13-154.54.13s-154.55-.06-154.55-.13,69.18-.14,154.55-.14S347.65,322.5,347.65,322.58Z"/></g></svg>