<svg xmlns="http://www.w3.org/2000/svg" viewBox="0 0 295.61 97.09"><defs><style>.a{fill:#f77f00;}.b{fill:#ffd200;}.c{font-size:13.87px;fill:#fff;font-family:CaviarDreams, Caviar Dreams;letter-spacing:0.2em;}.d{letter-spacing:0.19em;}.e{letter-spacing:0.19em;}.f{letter-spacing:0.2em;}.g{fill:none;stroke:#fff;stroke-linejoin:round;stroke-width:2px;}.h{fill:#14213d;}</style></defs><title>img-logitpo-300x100</title><path d="M58.31,8.4l-3.66,2.24-2.53,1.55a8.74,8.74,0,0,1-3,.59H49a8.53,8.53,0,0,1-2.64-.41A8.64,8.64,0,0,1,44,11.19a8.59,8.59,0,0,1-3.6-6.76l.93,0,1.21,0c.49,0,1,0,1.46.08.79,0,1.57.13,2.35.23a37.75,37.75,0,0,1,10.49,3C57.33,7.92,57.82,8.15,58.31,8.4Z" transform="translate(-3.17 -4.41)"/><path d="M52.12,12.19,49.47,13.8l-3.14,1.92-2,1.24-.34.2-10.3,6.29L21.09,31.14a17.17,17.17,0,0,1-4.45-17.66,38.12,38.12,0,0,1,12-6.9A38.19,38.19,0,0,1,40.38,4.43,8.59,8.59,0,0,0,44,11.19a8.64,8.64,0,0,0,2.35,1.18,8.53,8.53,0,0,0,2.64.41h.16A8.74,8.74,0,0,0,52.12,12.19Z" transform="translate(-3.17 -4.41)"/><path d="M46.33,51.75V78.61L44.18,77.3l-.2-.12V101.5a17.19,17.19,0,0,1-10.3-15.75V79.92a37.83,37.83,0,0,1-13.42-5.56A38.08,38.08,0,0,1,3.17,42.55c0-.16,0-.31,0-.47a37.93,37.93,0,0,1,9.31-24.5,17,17,0,0,0-1.15,6.19A17.17,17.17,0,0,0,18.84,38a17.21,17.21,0,0,1,14.84-2.81,14.21,14.21,0,0,1,1.81.6,17.19,17.19,0,0,1,10.84,16Z" transform="translate(-3.17 -4.41)"/><path class="a" d="M58.31,8.4l-3.66,2.24-2.53,1.55a8.74,8.74,0,0,1-3,.59H49a8.53,8.53,0,0,1-2.64-.41A8.64,8.64,0,0,1,44,11.19a8.59,8.59,0,0,1-3.6-6.76l.93,0,1.21,0c.49,0,1,0,1.46.08.79,0,1.57.13,2.35.23a37.75,37.75,0,0,1,10.49,3C57.33,7.92,57.82,8.15,58.31,8.4Z" transform="translate(-3.17 -4.41)"/><path class="b" d="M52.12,12.19,49.47,13.8l-3.14,1.92-2,1.24-.34.2-10.3,6.29L21.09,31.14a17.17,17.17,0,0,1-4.45-17.66,38.12,38.12,0,0,1,12-6.9A38.19,38.19,0,0,1,40.38,4.43,8.59,8.59,0,0,0,44,11.19a8.64,8.64,0,0,0,2.35,1.18,8.53,8.53,0,0,0,2.64.41h.16A8.74,8.74,0,0,0,52.12,12.19Z" transform="translate(-3.17 -4.41)"/><path d="M46.33,51.75V78.61L44.18,77.3l-.2-.12V101.5a17.19,17.19,0,0,1-10.3-15.75V79.92a37.83,37.83,0,0,1-13.42-5.56A38.08,38.08,0,0,1,3.17,42.55c0-.16,0-.31,0-.47a37.93,37.93,0,0,1,9.31-24.5,17,17,0,0,0-1.15,6.19A17.17,17.17,0,0,0,18.84,38a17.21,17.21,0,0,1,14.84-2.81,14.21,14.21,0,0,1,1.81.6,17.19,17.19,0,0,1,10.84,16Z" transform="translate(-3.17 -4.41)"/><text class="c" transform="translate(57.03 89.57)">Dese<tspan class="d" x="40.58" y="0">n</tspan><tspan class="e" x="50.4" y="0">v</tspan><tspan class="f" x="60.24" y="0">ol</tspan><tspan class="e" x="77.08" y="0">v</tspan><tspan x="86.92" y="0">endo Soluções</tspan></text><path class="g" d="M172.9,44.53" transform="translate(-3.17 -4.41)"/><path class="h" d="M70.72,54.72V78.48h-9.5V54.72h-9.5v-9.5h28.5v9.5Z" transform="translate(-3.17 -4.41)"/><path class="h" d="M82.6,45.22h9.5V63A5.94,5.94,0,0,0,104,63V45.22h9.5V63A15.44,15.44,0,0,1,87.12,74,14.87,14.87,0,0,1,82.6,63Z" transform="translate(-3.17 -4.41)"/><path class="h" d="M168.54,78.56V62.75L152.72,78.56H139.3l33.2-33.2H178v33.2Z" transform="translate(-3.17 -4.41)"/><path class="h" d="M190.56,62.75V78.56h-9.49V45.36h5.53l15.81,15.82V45.36h9.49v33.2h-5.52Z" transform="translate(-3.17 -4.41)"/><path class="h" d="M169.05,45.36,159,55.42H133.46a6.43,6.43,0,1,0,0,12.86h12.68L135.85,78.56h-2.39a16.71,16.71,0,0,1-16.72-16.71,16.73,16.73,0,0,1,16.72-16.71Z" transform="translate(-3.17 -4.41)"/><path class="g" d="M139.68,78.56" transform="translate(-3.17 -4.41)"/><path class="a" d="M248.72,53.2V57a1.7,1.7,0,0,0,1.69,1.72h13.17v5.89H250.4a1.7,1.7,0,0,0-1.69,1.71l0,4.61a1.7,1.7,0,0,0,1.68,1.71h13.25v5.88H249.73A6.79,6.79,0,0,1,243,71.71V52.45a6.83,6.83,0,0,1,6.75-6.85h13.93v5.89H250.41A1.71,1.71,0,0,0,248.72,53.2Z" transform="translate(-3.17 -4.41)"/><path class="a" d="M221.75,45.41A16.45,16.45,0,0,1,238.09,62a16.69,16.69,0,0,1-3.87,10.72c-.29.33-.61.66-.94,1a15.9,15.9,0,0,1-11.49,4.89H211.9V45.36Zm-4.06,27.28h3.82a10.74,10.74,0,0,0,10.74-10.36,10.61,10.61,0,0,0-10.5-11h-4.06Z" transform="translate(-3.17 -4.41)"/><path class="a" d="M274.46,46.28V66.76a.84.84,0,0,0,1.5.52l16.58-21.86H298a.85.85,0,0,1,.66,1.37L275.5,77.26a3.77,3.77,0,0,1-3,1.49h-4.13V45.42h5.24A.86.86,0,0,1,274.46,46.28Z" transform="translate(-3.17 -4.41)"/><path class="g" d="M295.22,37.07" transform="translate(-3.17 -4.41)"/></svg>